<?xml version="1.0" encoding="UTF-8"?>
<svg width="60px" height="60px" viewBox="0 0 60 60" version="1.1" xmlns="http://www.w3.org/2000/svg" xmlns:xlink="http://www.w3.org/1999/xlink">
    <!-- Generator: Sketch 61 (89581) - https://sketch.com -->
    <title>Assess &amp; Support - Active Copy</title>
    <desc>Created with Sketch.</desc>
    <g id="Page-1" stroke="none" stroke-width="1" fill="none" fill-rule="evenodd">
        <g id="Assess-&amp;-Support---Active-Copy" fill="#CB097A" fill-rule="nonzero">
            <path d="M40.7193878,7.1484375 L35.3214286,7.1484375 L35.3214286,5.2734375 C35.3214286,4.30265625 34.5333265,3.515625 33.5612245,3.515625 L27.9790306,3.515625 C27.2525357,1.46941406 25.2948367,0 23,0 C20.7051633,0 18.7474643,1.46941406 18.0209694,3.515625 L12.3214286,3.515625 C11.3493265,3.515625 10.5612245,4.30265625 10.5612245,5.2734375 L10.5612245,7.1484375 L5.28061224,7.1484375 C2.36888265,7.1484375 0,9.51410156 0,12.421875 L0,54.7265625 C0,57.6343359 2.36888265,60 5.28061224,60 L40.7193878,60 C43.6311173,60 46,57.6343359 46,54.7265625 L46,12.421875 C46,9.51410156 43.6311173,7.1484375 40.7193878,7.1484375 Z M14.0816327,7.03125 L19.4795918,7.03125 C20.4516939,7.03125 21.2397959,6.24421875 21.2397959,5.2734375 C21.2397959,4.30417969 22.0294235,3.515625 23,3.515625 C23.9705765,3.515625 24.7602041,4.30417969 24.7602041,5.2734375 C24.7602041,6.24421875 25.5483061,7.03125 26.5204082,7.03125 L31.8010204,7.03125 L31.8010204,8.90625 C31.8010204,9.87550781 31.0113929,10.6640625 30.0408163,10.6640625 L15.8418367,10.6640625 C14.8712602,10.6640625 14.0816327,9.87550781 14.0816327,8.90625 L14.0816327,7.03125 Z M42.4795918,54.7265625 C42.4795918,55.6958203 41.6899643,56.484375 40.7193878,56.484375 L5.28061224,56.484375 C4.31003571,56.484375 3.52040816,55.6958203 3.52040816,54.7265625 L3.52040816,12.421875 C3.52040816,11.4526172 4.31003571,10.6640625 5.28061224,10.6640625 L10.8639796,10.6640625 C11.5905918,12.7100391 13.5471173,14.1796875 15.8418367,14.1796875 L30.0408163,14.1796875 C32.3355357,14.1796875 34.2920612,12.7100391 35.0186735,10.6640625 L40.7193878,10.6640625 C41.6899643,10.6640625 42.4795918,11.4526172 42.4795918,12.421875 L42.4795918,54.7265625 Z" id="Shape"></path>
            <path d="M20.5017678,30.4979489 C19.8297657,29.8417232 18.7308203,29.8329454 18.0474794,30.4785044 L12.2167512,35.9860895 L9.96274442,33.8215223 C9.28507297,33.17063 8.18612752,33.17063 7.50834037,33.8215223 C6.83055321,34.4724147 6.83055321,35.5276426 7.50834037,36.178535 L10.9795409,39.5118863 C11.318203,39.8371102 11.7623862,40 12.206685,40 C12.6461244,40 13.0859108,39.8406658 13.4236474,39.521553 L20.4815198,32.8548505 C21.1648606,32.2094026 21.1738855,31.1541747 20.5017678,30.4979489 Z" id="Path"></path>
            <path d="M20.5017678,42.4979489 C19.8297657,41.8417232 18.7308203,41.8329454 18.0474794,42.4785044 L12.2167512,47.9860895 L9.96274442,45.8215223 C9.28507297,45.17063 8.18612752,45.17063 7.50834037,45.8215223 C6.83055321,46.4724147 6.83055321,47.5276426 7.50834037,48.178535 L10.9795409,51.5118863 C11.318203,51.8371102 11.7623862,52 12.206685,52 C12.6461244,52 13.0859108,51.8406658 13.4236474,51.521553 L20.4815198,44.8548505 C21.1648606,44.2094026 21.1738855,43.1541747 20.5017678,42.4979489 Z" id="Path"></path>
            <path d="M17.5118388,25.1548631 L15.3569738,22.9999653 L17.5117276,20.8451785 C18.1626093,20.1942869 18.1626093,19.1390603 17.5117276,18.4881687 C16.8609571,17.8372771 15.8056355,17.8372771 15.1547538,18.4881687 L13,20.6429555 L10.8451351,18.4881687 C10.1943645,17.8372771 9.1390429,17.8372771 8.48816124,18.4881687 C7.83727959,19.1390603 7.83727959,20.1942869 8.48816124,20.8451785 L10.6430262,22.9999653 L8.48827235,25.154752 C7.8373907,25.8056436 7.8373907,26.8609814 8.48827235,27.511873 C9.1390429,28.1626535 10.1943645,28.1627646 10.8452462,27.511873 L13,25.3569751 L15.1548649,27.511873 C15.8056355,28.1626535 16.8609571,28.1627646 17.5118388,27.511873 C18.1627204,26.8609814 18.1627204,25.8057547 17.5118388,25.1548631 Z" id="Path"></path>
            <path d="M37.2644628,21 L26.7355372,21 C25.7770579,21 25,21.6716 25,22.5 C25,23.3284 25.7770579,24 26.7355372,24 L37.2644628,24 C38.2229421,24 39,23.3284 39,22.5 C39,21.6716 38.2229421,21 37.2644628,21 Z" id="Path"></path>
            <path d="M37.2644628,34 L26.7355372,34 C25.7770579,34 25,34.6716 25,35.5 C25,36.3284 25.7770579,37 26.7355372,37 L37.2644628,37 C38.2229421,37 39,36.3284 39,35.5 C39,34.6716 38.2229421,34 37.2644628,34 Z" id="Path"></path>
            <path d="M37.2644628,46 L26.7355372,46 C25.7770579,46 25,46.6716 25,47.5 C25,48.3284 25.7770579,49 26.7355372,49 L37.2644628,49 C38.2229421,49 39,48.3284 39,47.5 C39,46.6716 38.2229421,46 37.2644628,46 Z" id="Path"></path>
            <path d="M55,11 C52.243,11 50,13.3749412 50,16.2941176 C50,17.4167059 50,43.3661176 50,44.5294118 C50,44.7192941 50.0321111,44.916 50.0837778,45.082 L53.4171111,55.7878824 C53.6423333,56.5111765 54.2805556,57 55,57 C55.7194444,57 56.3576667,56.5111765 56.5828889,55.7878824 L59.9162222,45.082 C59.9722222,44.9017647 60,44.7017647 60,44.5294118 C60,43.368 60,17.4212941 60,16.2941176 C60,13.3749412 57.757,11 55,11 Z M55,49.5989412 L53.6235556,45.1782353 C54.0448889,44.9518824 54.5137778,44.8321176 55,44.8321176 C55.4862222,44.8321176 55.9551111,44.9518824 56.3764444,45.1782353 L55,49.5989412 Z M56.6666667,41.5362353 C56.1297778,41.3834118 55.5708889,41.3027059 55,41.3027059 C54.4291111,41.3027059 53.8702222,41.3832941 53.3333333,41.5362353 L53.3333333,25.1176471 L56.6666667,25.1176471 L56.6666667,41.5362353 Z M56.6666667,21.5882353 L53.3333333,21.5882353 L53.3333333,16.2941176 C53.3333333,15.3210588 54.081,14.5294118 55,14.5294118 C55.919,14.5294118 56.6666667,15.3210588 56.6666667,16.2941176 L56.6666667,21.5882353 Z" id="Shape"></path>
        </g>
    </g>
</svg>