<?xml version="1.0" encoding="UTF-8"?>
<svg width="68px" height="61px" viewBox="0 0 68 61" version="1.1" xmlns="http://www.w3.org/2000/svg" xmlns:xlink="http://www.w3.org/1999/xlink">
    <!-- Generator: Sketch 61 (89581) - https://sketch.com -->
    <title>Peer-to-Peer Learning - Active Copy</title>
    <desc>Created with Sketch.</desc>
    <g id="Page-1" stroke="none" stroke-width="1" fill="none" fill-rule="evenodd">
        <g id="Peer-to-Peer-Learning---Active-Copy" transform="translate(1.000000, 1.000000)" fill="#CB097A" fill-rule="nonzero" stroke="#CB097A">
            <path d="M34.2424541,39.9776103 L34.2424541,33.5709956 C34.2424541,32.7032699 33.5971257,32 32.8008907,32 C32.0046557,32 31.3593273,32.7034467 31.3593273,33.5709956 L31.3593273,39.9776103 L25.6598159,44.1089205 C24.9909591,44.5796533 24.7988372,45.5520649 25.2306247,46.2809758 C25.6625744,47.0100634 26.5550326,47.2190815 27.2237272,46.7487024 L32.8008907,42.7033337 L38.776081,46.7485256 C39.0178561,46.9186401 39.2888388,47 39.5567386,47 C40.0297414,47 40.4934951,46.7462267 40.7691836,46.2809758 C41.2012956,45.5520649 41.0090114,44.5794765 40.3401546,44.1089205 L34.2424541,39.9776103 Z" id="Path"></path>
            <path d="M23.5285395,26.0573099 L42.4711535,26.0573099 C42.8950884,26.0573099 43.2385953,25.7145875 43.2385953,25.291621 L43.2385953,16.525709 C43.2385953,13.2546863 40.775107,10.546598 37.6018884,10.1521151 C38.5704,9.05626126 39.1263349,7.63146748 39.1263349,6.11234083 C39.1263349,2.74208485 36.3779721,0 33,0 C29.6220279,0 26.8736651,2.74208485 26.8736651,6.11234083 C26.8736651,7.63146748 27.4296,9.05626126 28.3981116,10.1521151 C25.224893,10.5469043 22.7610977,13.2546863 22.7610977,16.525709 L22.7610977,25.291621 C22.7610977,25.7145875 23.1046047,26.0573099 23.5285395,26.0573099 L23.5285395,26.0573099 Z M24.2959814,16.525709 C24.2959814,13.8283403 26.4954698,11.6338762 29.199014,11.6338762 L30.5494047,11.6338762 C30.9036558,11.6338762 31.2118605,11.3919185 31.2953581,11.0485836 C31.3788558,10.7052487 31.2158512,10.3493566 30.900893,10.1876431 C29.3635535,9.3974522 28.4085488,7.83605953 28.4085488,6.11234083 C28.4085488,3.58618022 30.4680558,1.53137767 33,1.53137767 C35.5316372,1.53137767 37.5914512,3.58618022 37.5914512,6.11234083 C37.5914512,7.83605953 36.6367535,9.39775848 35.099414,10.1876431 C34.7844558,10.3493566 34.6214512,10.7052487 34.7049488,11.0485836 C34.7881395,11.3922248 35.0963442,11.6338762 35.4509023,11.6338762 L36.800986,11.6338762 C39.5045302,11.6338762 41.7040186,13.8283403 41.7040186,16.525709 L41.7040186,24.5259322 L24.2959814,24.5259322 L24.2959814,16.525709 Z M14.8407907,43.0948053 C15.8089953,41.9989514 16.3649302,40.5741576 16.3649302,39.055031 C16.3649302,35.684775 13.6165674,32.9426901 10.2385953,32.9426901 C6.86062326,32.9426901 4.11226047,35.684775 4.11226047,39.055031 C4.11226047,40.5741576 4.66819535,41.9989514 5.6364,43.0948053 C2.46379535,43.4895944 0,46.1973764 0,49.4683991 L0,58.2343112 C0,58.6572777 0.343506977,59 0.76744186,59 L19.7103628,59 C20.1342977,59 20.4778047,58.6572777 20.4778047,58.2343112 L20.4778047,49.4683991 C20.4778047,46.1973764 18.0140093,43.4895944 14.8407907,43.0948053 Z M18.9429209,57.4686223 L1.53488372,57.4686223 L1.53488372,49.4683991 C1.53488372,46.7710305 3.73437209,44.5765663 6.43791628,44.5765663 L7.78830698,44.5765663 C8.14255814,44.5765663 8.45076279,44.3346086 8.53426047,43.9912737 C8.61775814,43.6479389 8.45475349,43.2920467 8.13979535,43.1303332 C6.60245581,42.3404486 5.64745116,40.7787497 5.64745116,39.055031 C5.64745116,36.5288704 7.70695814,34.4740678 10.2389023,34.4740678 C12.7705395,34.4740678 14.8303535,36.5288704 14.8303535,39.055031 C14.8303535,40.7787497 13.8753488,42.3404486 12.3380093,43.1303332 C12.0233581,43.2920467 11.8600465,43.6479389 11.9435442,43.9912737 C12.0270419,44.3349149 12.3352465,44.5765663 12.6894977,44.5765663 L14.0398884,44.5765663 C16.7434326,44.5765663 18.9429209,46.7710305 18.9429209,49.4683991 L18.9429209,57.4686223 Z M60.362986,43.0948053 C61.3314977,41.9989514 61.8874326,40.5741576 61.8874326,39.055031 C61.8874326,35.684775 59.1393767,32.9426901 55.7614047,32.9426901 C52.3834326,32.9426901 49.6350698,35.684775 49.6350698,39.055031 C49.6350698,40.5741576 50.1910047,41.9989514 51.1595163,43.0948053 C47.9859907,43.4892881 45.5225023,46.1970701 45.5225023,49.4683991 L45.5225023,58.2343112 C45.5225023,58.6572777 45.8660093,59 46.2899442,59 L65.2325581,59 C65.656493,59 66,58.6572777 66,58.2343112 L66,49.4683991 C66,46.1973764 63.5365116,43.4892881 60.362986,43.0948053 L60.362986,43.0948053 Z M64.4651163,57.4686223 L47.0570791,57.4686223 L47.0570791,49.4683991 C47.0570791,46.7710305 49.2565674,44.5765663 51.9601116,44.5765663 L53.3105023,44.5765663 C53.6647535,44.5765663 53.9729581,44.3346086 54.0564558,43.9912737 C54.1396465,43.6479389 53.9769488,43.2920467 53.6619907,43.1303332 C52.1246512,42.3404486 51.1699535,40.7787497 51.1699535,39.055031 C51.1699535,36.5288704 53.2297674,34.4740678 55.7614047,34.4740678 C58.2930419,34.4740678 60.3525488,36.5288704 60.3525488,39.055031 C60.3525488,40.7787497 59.3978512,42.3404486 57.8605116,43.1303332 C57.5455535,43.2920467 57.3825488,43.6479389 57.4660465,43.9912737 C57.5492372,44.3349149 57.8574419,44.5765663 58.212,44.5765663 L59.5623907,44.5765663 C62.2659349,44.5765663 64.4654233,46.7710305 64.4654233,49.4683991 L64.4654233,57.4686223 L64.4651163,57.4686223 Z" id="Shape" stroke-width="1.4"></path>
        </g>
    </g>
</svg>