<?xml version="1.0" encoding="UTF-8"?>
<svg width="75px" height="77px" viewBox="0 0 75 77" version="1.1" xmlns="http://www.w3.org/2000/svg" xmlns:xlink="http://www.w3.org/1999/xlink">
    <!-- Generator: Sketch 61 (89581) - https://sketch.com -->
    <title>PlanProgress - Active Copy</title>
    <desc>Created with Sketch.</desc>
    <g id="Page-1" stroke="none" stroke-width="1" fill="none" fill-rule="evenodd">
        <g id="PlanProgress---Active-Copy" fill="#CB097A" fill-rule="nonzero">
            <rect id="Rectangle" x="15" y="43" width="3" height="3"></rect>
            <rect id="Rectangle" x="15" y="49" width="3" height="3"></rect>
            <rect id="Rectangle" x="18" y="46" width="3" height="3"></rect>
            <rect id="Rectangle" x="12" y="46" width="3" height="3"></rect>
            <path d="M12.8002999,67 L12.9232562,67.0066668 C13.5281766,67.0726448 14.0001405,67.6202065 14,68.2857143 L14,68.2857143 L14,74.7142856 L14,74.7142856 L13.9937777,74.846346 C13.9321981,75.494475 13.4211405,76.0001505 12.7999999,76 L12.7999999,76 L3.19970004,76 L3.19970004,76 L3.0767437,75.9933333 C2.4718233,75.9273551 1.99985944,75.3797934 2.00000003,74.7142856 L2.00000003,74.7142856 L2.00000003,68.2857143 L2.00000003,68.2857143 L2.00622233,68.153654 C2.06780182,67.505525 2.57885943,66.9998494 3.20000004,67 L3.20000004,67 L12.8002999,67 L12.8002999,67 Z M48.8002999,60 L48.9232562,60.0063565 C49.5281766,60.0694051 50.0001405,60.593702 50,61.2307693 L50,61.2307693 L50,74.7692308 L50,74.7692308 L49.9937777,74.8956459 C49.9321981,75.5160607 49.4211405,76 48.7999999,76 L48.7999999,76 L39.1997,76 L39.1997,76 L39.0767437,75.9936435 C38.4718233,75.930595 37.9998594,75.4062981 38,74.7692308 L38,74.7692308 L38,61.2307693 L38,61.2307693 L38.0062223,61.1043542 C38.0678018,60.4839393 38.5788594,60 39.2,60 L39.2,60 L48.8002999,60 L48.8002999,60 Z M66.8002999,54 L66.9232562,54.0066837 C67.5281766,54.0729774 68.0001405,54.6242601 68,55.2941177 L68,55.2941177 L68,74.7062059 L68,74.7062059 L67.9937777,74.8388041 C67.9321981,75.4911521 67.4211405,76 66.7999999,76 L66.7999999,76 L57.1997,76 L57.1997,76 L57.0767437,75.9933163 C56.4718233,75.9270226 55.9998594,75.3757399 56,74.7058824 L56,74.7058824 L56,55.2937942 L56,55.2937942 L56.0062223,55.1611959 C56.0678018,54.508848 56.5788594,54 57.2,54 L57.2,54 L66.8002999,54 L66.8002999,54 Z M30.8002999,64 L30.9232562,64.0062223 C31.5281766,64.0678018 32.0001405,64.5788594 32,65.2 L32,65.2 L32,74.8002999 L32,74.8002999 L31.9937777,74.9232562 C31.9321981,75.5281766 31.4211405,76.0001405 30.7999999,76 L30.7999999,76 L21.1997,76 L21.1997,76 L21.0767437,75.9937777 C20.4718233,75.9321981 19.9998594,75.4211405 20,74.7999999 L20,74.7999999 L20,65.1997 L20,65.1997 L20.0062223,65.0767437 C20.0678018,64.4718233 20.5788594,63.9998594 21.2,64 L21.2,64 L30.8002999,64 L30.8002999,64 Z M29.5999999,66.4 L22.4,66.4 L22.4,73.5999999 L29.5999999,73.5999999 L29.5999999,66.4 Z M47.5999999,62.4615385 L40.4,62.4615385 L40.4,73.5384616 L47.5999999,73.5384616 L47.5999999,62.4615385 Z M11.5999999,69.5714286 L4.40000003,69.5714286 L4.40000003,73.4285714 L11.5999999,73.4285714 L11.5999999,69.5714286 Z M65.5999999,56.5882353 L58.4,56.5882353 L58.4,73.4117647 L65.5999999,73.4117647 L65.5999999,56.5882353 Z" id="Combined-Shape" stroke="#CB097A" stroke-width="0.4"></path>
            <path d="M74.442658,2.21634805 L71.4301653,0.203914021 C70.8619383,-0.1750784 70.1016432,-0.0102717374 69.7317741,0.572212879 C69.7283991,0.57755966 69.7250241,0.583063699 69.7216491,0.58841048 L65.9625147,6.71047477 C64.8335778,4.18396347 61.9204941,3.07403463 59.4558249,4.23129821 C58.3857971,4.73373837 57.5274737,5.61359836 57.0373319,6.71047477 L53.2781975,0.58841048 C52.9172261,5.16807375e-05 52.1593856,-0.176650983 51.5856359,0.193534975 C51.5802665,0.196994657 51.5750506,0.200454339 51.5698347,0.203914021 L48.557342,2.21634805 C47.9932571,2.59313885 47.8306435,3.36559145 48.1929956,3.94744704 L55.3636396,15.4640989 L55.3636396,37.7419338 C55.3634862,38.4365436 55.9126904,39 56.590298,39 C56.5904514,39 56.5907582,39 56.5909117,39 L66.4090883,39 C67.0866959,39 67.636207,38.4371726 67.6363604,37.7425629 C67.6363604,37.7424056 67.6363604,37.7420911 67.6363604,37.7419338 L67.6363604,15.4640989 L74.8070044,3.94744704 C75.1693565,3.36559145 75.0067429,2.59313885 74.442658,2.21634805 Z M65.3748048,14.4197467 C65.2490094,14.6219809 65.1821231,14.8567675 65.1818163,15.0967436 L65.1818163,36.4838677 L62.7272721,36.4838677 L62.7272721,23.9032065 L60.2727279,23.9032065 L60.2727279,36.4838677 L57.8181837,36.4838677 L57.8181837,15.0967436 C57.8180303,14.8569247 57.7509906,14.6219809 57.6251952,14.4197467 L50.9160055,3.64393858 L51.8651471,3.01003052 L57.7091099,12.5277725 C58.0536666,13.0901281 58.7654844,13.2805679 59.334325,12.9627489 L59.5877567,12.8152406 C60.2121314,12.5447564 60.5043755,11.8065861 60.2406654,11.166545 C60.1671825,10.9882141 60.0544269,10.8296978 59.9114497,10.7032621 C59.3634727,10.2332172 59.0465297,9.53876468 59.0454558,8.80641293 C59.0454558,7.41672164 60.1443246,6.29028068 61.5,6.29028068 C62.8556754,6.29028068 63.9545442,7.41672164 63.9545442,8.80641293 C63.9536237,9.53876468 63.6365273,10.2333744 63.0885503,10.7034194 C62.779738,11.0070851 62.643971,11.4516542 62.7289596,11.8815983 C62.8148686,12.3256957 63.1091071,12.6976115 63.5151808,12.8754706 L63.6655216,12.9627489 C64.2342088,13.2811969 64.9464868,13.0905999 65.2907367,12.5277725 L71.1346995,3.01003052 L72.0838411,3.64393858 L65.3748048,14.4197467 Z" id="Shape"></path>
            <path d="M55.3885672,42.1291683 C55.2355025,42.0442819 55.0668415,42 54.8956961,42 L47.1665499,42 C46.5567754,42 46.0623861,42.5486972 46.0623861,43.2256433 C46.0623861,43.4677382 46.1269797,43.7043169 46.2478856,43.9058072 L47.7604519,46.4245127 C37.2626151,52.0316126 15.3076992,58.5484069 3,58.5484069 L3,61 C15.683529,61 38.3734039,54.2400384 48.9972534,48.4841574 L50.6645406,51.2607398 C50.869225,51.6018177 51.2140001,51.806679 51.5832049,51.806679 C51.6058402,51.806679 51.6290277,51.8054532 51.651663,51.8042274 C52.0444693,51.776647 52.3944892,51.5196894 52.5708793,51.1291199 L55.8833706,43.7743405 C56.155961,43.1680309 55.9344381,42.4316336 55.3885672,42.1291683 Z M51.2854906,48 L49,44 L53,44 L51.2854906,48 Z" id="Shape" stroke="#CB097A" stroke-width="0.4"></path>
            <path d="M15.7261762,5.61649361 C15.4740094,5.28617969 15.0821758,5.09252441 14.6665089,5.09235775 L10.5573398,5.09235775 L9.27417231,0.940435122 C9.05700551,0.236809812 8.31033839,-0.157500345 7.6066713,0.0596535581 C7.18550437,0.189645918 6.85583751,0.519293209 6.72583743,0.940435122 L5.44250331,5.09252441 L1.33333414,5.09252441 C0.596833697,5.09252441 0,5.68965598 0,6.42611269 C0,6.84158827 0.193833451,7.23339857 0.524166986,7.48571708 L3.90500238,10.0688986 L2.60550159,14.2731515 C2.38816812,14.9766101 2.78233503,15.7232329 3.48583545,15.9405535 C3.89783571,16.0678793 4.34616931,15.9880507 4.68883619,15.7262327 L8,13.197548 L11.3111736,15.7260661 C11.8963406,16.1730398 12.7331744,16.0610464 13.1801747,15.4759141 C13.4420082,15.1332676 13.5218416,14.6849606 13.3945082,14.2729848 L12.0950074,10.0687319 L15.4758428,7.48555042 C16.0611764,7.03857669 16.1731765,6.20179254 15.7261762,5.61649361 Z M9.73700593,8.51415663 C9.29317232,8.85347002 9.10750554,9.43326927 9.27217231,9.96723789 L9.61467252,11.0751728 L8.80933869,10.4593756 C8.33150507,10.0947304 7.66867133,10.0947304 7.19083771,10.4593756 L6.38550389,11.0751728 L6.72800409,9.96723789 C6.89250419,9.43326927 6.70700408,8.85347002 6.26317048,8.51415663 L5.27416988,7.75903435 L6.42650391,7.75903435 C7.0113376,7.75886769 7.52783791,7.37772342 7.70067135,6.81892294 L8.00017154,5.8503132 L8.29967172,6.81892294 C8.47233849,7.37772342 8.9888388,7.75870103 9.57383916,7.75903435 L10.7261732,7.75903435 L9.73700593,8.51415663 Z" id="Shape"></path>
            <path d="M41.9297356,24.9986183 C41.7465682,24.4569853 41.2383993,24.0925079 40.6667302,24.0925079 L36.557379,24.0925079 L35.2742068,19.9404321 C35.0570392,19.236809 34.3103693,18.8425002 33.6066996,19.0596534 C33.1855311,19.1896453 32.855863,19.5192915 32.7258625,19.9404321 L31.4426902,24.0925079 L27.3333391,24.0925079 C26.5968359,24.0925079 26,24.6896375 26,25.4260918 C26,25.8415661 26.1938342,26.2333751 26.5241689,26.4856928 L29.9050169,29.0688659 L28.6055113,33.2731051 C28.388177,33.9765615 28.7823454,34.7231818 29.4858484,34.9405017 C29.8978502,35.0678271 30.3461855,34.9879987 30.6888536,34.7261817 L34.0000346,32.1976718 L37.3112156,34.7261817 C37.8963848,35.1731539 38.7332218,35.0611609 39.1802237,34.4760305 C39.4420582,34.1333851 39.5218919,33.6852462 39.394558,33.2731051 L38.0950524,29.0688659 L41.4759003,26.4856928 C41.9302356,26.138381 42.1127364,25.5402514 41.9297356,24.9986183 Z M35.7370422,27.514129 C35.2930402,27.8534413 35.1075394,28.4332386 35.2722068,28.9672055 L35.6147083,30.0751368 L34.8093715,29.4593417 C34.3315361,29.0946976 33.6686999,29.0946976 33.1908645,29.4593417 L32.3855277,30.0751368 L32.7280291,28.9672055 C32.8925298,28.4332386 32.707029,27.8534413 32.2631938,27.514129 L31.2741895,26.7590091 L32.4265278,26.7590091 C33.0113637,26.7588425 33.5278659,26.3776995 33.7007,25.8189008 L34.0002013,24.8502942 L34.2997026,25.8190674 C34.47237,26.3778661 34.9888723,26.7588425 35.5738748,26.7591758 L36.7262131,26.7591758 L35.7370422,27.514129 Z" id="Shape"></path>
            <rect id="Rectangle" x="49" y="18" width="3" height="3"></rect>
            <rect id="Rectangle" x="49" y="23" width="3" height="3"></rect>
            <rect id="Rectangle" x="70" y="18" width="3" height="3"></rect>
            <rect id="Rectangle" x="70" y="23" width="3" height="3"></rect>
        </g>
    </g>
</svg>