<?xml version="1.0" encoding="UTF-8"?>
<svg width="75px" height="75px" viewBox="0 0 75 75" version="1.1" xmlns="http://www.w3.org/2000/svg" xmlns:xlink="http://www.w3.org/1999/xlink">
    <!-- Generator: Sketch 61 (89581) - https://sketch.com -->
    <title>Secure Technology - Active Copy</title>
    <desc>Created with Sketch.</desc>
    <g id="Page-1" stroke="none" stroke-width="1" fill="none" fill-rule="evenodd">
        <g id="Secure-Technology---Active-Copy" fill="#CB097A" fill-rule="nonzero">
            <path d="M49,26.5633769 C49,26.2609831 48.8691854,25.9747541 48.643768,25.7847623 C48.4183506,25.5947706 48.1226716,25.521417 47.839447,25.5852222 C44.6415043,26.2966848 41.307004,25.8585524 38.3778324,24.3420255 L37.9254995,24.1069884 C37.6542459,23.9643372 37.3342541,23.9643372 37.0630005,24.1069884 L36.620251,24.3380249 C33.6906959,25.8566329 30.3549267,26.2958563 27.1557613,25.584222 C26.873243,25.5221519 26.5789676,25.5963159 26.3547248,25.7861012 C26.1304819,25.9758866 26,26.2610656 26,26.5623767 L26,33.1304155 C25.9917092,40.8895808 30.0906632,48.0189472 36.6547509,51.6623466 L37.0486255,51.8823814 C37.3304431,52.0392062 37.6685986,52.0392062 37.9504162,51.8823814 L38.3452491,51.6623466 C44.9093368,48.0189472 49.0082908,40.8895808 49,33.1304155 L49,26.5633769 Z M47,33.0858779 C47.0072505,40.1566334 43.3559359,46.657565 37.5,50 C31.6440641,46.657565 27.9927495,40.1566334 28,33.0858779 L28,27.6547193 C31.2444857,28.1338172 34.5493377,27.5606589 37.4829,26.0101082 L37.5,26 L37.5228,26.0131407 C40.4545061,27.563053 43.7575548,28.1355384 47,27.6557301 L47,33.0858779 Z" id="Shape" stroke="#CB097A" stroke-width="0.4"></path>
            <path d="M42.5463454,32.2648218 L36.0724612,38.9063348 L33.4328548,36.1983808 C33.1011041,35.8696687 32.5737696,35.8743697 32.2476372,36.2089467 C31.9215048,36.5435237 31.9169224,37.0845125 32.237338,37.4248533 L35.4747028,40.7460435 C35.8048649,41.0846522 36.3400576,41.0846522 36.6702196,40.7460435 L43.7418622,33.4912942 C43.9616518,33.2735177 44.0497988,32.9510236 43.9724238,32.6477628 C43.8950488,32.3445019 43.6641932,32.1076687 43.3685865,32.0282903 C43.0729798,31.9489118 42.7586253,32.0393411 42.5463454,32.2648218 Z" id="Path" stroke="#CB097A" stroke-width="0.8"></path>
            <path d="M44.8242188,4.03896783e-28 C47.2475052,4.03896783e-28 49.21875,1.97124478 49.21875,4.39453125 C49.21875,6.30397793 47.9942322,7.93247227 46.2890625,8.53729248 L46.2890625,8.53729248 L46.2890625,12.5295639 C46.2890625,13.3386612 45.6333161,13.9944076 44.8242188,13.9944076 L44.8242188,13.9944076 L38.9648438,13.9944076 L38.9648438,16.9921875 L51.8554688,16.9921875 C54.3348312,16.9921875 56.4754485,18.4679032 57.4481965,20.5862045 L57.4481965,20.5862045 L60.3515625,20.5862045 L60.3515625,15.3659821 C58.646965,14.7611618 57.421875,13.1326676 57.421875,11.2232209 C57.421875,8.79993442 59.3931198,6.82868965 61.8164063,6.82868965 C64.2396927,6.82868965 66.2109375,8.79993442 66.2109375,11.2232209 C66.2109375,13.1326676 64.9864197,14.7611618 63.28125,15.3659821 L63.28125,15.3659821 L63.28125,22.0510482 C63.28125,22.8601456 62.6255036,23.515892 61.8164063,23.515892 L61.8164063,23.515892 L58.0078125,23.515892 L58.0078125,36.0351563 L69.140625,36.0351563 L69.140625,30.0138473 C67.4354553,29.4095993 66.2109375,27.7811051 66.2109375,25.8716584 C66.2109375,23.4483719 68.1821823,21.4771271 70.6054688,21.4771271 C73.0287552,21.4771271 75,23.4483719 75,25.8716584 C75,27.7811051 73.77491,29.4095993 72.0703125,30.0138473 L72.0703125,30.0138473 L72.0703125,37.5 C72.0703125,38.3090974 71.4145661,38.9648438 70.6054688,38.9648438 L70.6054688,38.9648438 L58.0078125,38.9648438 L58.0078125,47.1364975 L63.5742188,47.1364975 C64.179039,45.4319001 65.8069611,44.20681 67.7164078,44.20681 C70.1396941,44.20681 72.1109391,46.1786271 72.1109391,48.6013412 C72.1109391,51.0246277 70.1396941,52.9958725 67.7164078,52.9958725 C65.8069611,52.9958725 64.179039,51.7713546 63.5742188,50.066185 L63.5742188,50.066185 L58.0078125,50.066185 L58.0078125,51.8554688 C58.0078125,55.2480697 55.2480697,58.0078125 51.8554688,58.0078125 L51.8554688,58.0078125 L49.5552063,58.0078125 L49.555,60 L65.5321003,60 C66.3063173,60 66.9424261,60.5749006 67.0145834,61.3101549 L67.0214002,61.4497931 L67.0214002,64.5504248 C68.7544566,65.1490307 70,66.7602265 70,68.6506208 C70,71.0484425 67.9952628,73 65.5321003,73 C63.068356,73 61.0642005,71.0484425 61.0642005,68.6506208 C61.0642005,66.7602265 62.3091622,65.1490307 64.0428003,64.5504248 L64.0428003,64.5504248 L64.0428003,62.8995861 L48.4892999,62.8995861 C48.023802,62.8995861 47.6082304,62.6917586 47.3351433,62.3662066 C46.9103052,62.1105104 46.6255188,61.6440813 46.6255188,61.1111111 L46.6255188,61.1111111 L46.6255188,58.0078125 L38.9648438,58.0078125 L38.9648438,62.4704361 C38.9648438,63.2795333 38.3090974,63.9352799 37.5,63.9352799 L37.5,63.9352799 L31.640625,63.9352799 L31.640625,66.4627075 C33.3457947,67.0675277 34.5703125,68.6960221 34.5703125,70.6054688 C34.5703125,73.0287552 32.5990677,75 30.1757813,75 C27.7524948,75 25.78125,73.0287552 25.78125,70.6054688 C25.78125,68.6954499 27.0057678,67.0675277 28.7109375,66.4627075 L28.7109375,66.4627075 L28.7109375,62.4704361 C28.7109375,61.6613388 29.3666839,61.0055924 30.1757813,61.0055924 L30.1757813,61.0055924 L36.0351563,61.0055924 L36.0351563,58.0078125 L23.1445313,58.0078125 C19.8366166,58.0078125 17.1312333,55.3825378 16.9984818,52.1060944 L16.9984818,52.1060944 L16.1132813,52.1066666 L16.1132813,61.0988616 C17.8178788,61.703682 19.0429688,63.3321762 19.0429688,65.2416229 C19.0429688,67.6649093 17.071724,69.6361541 14.6484375,69.6361541 C12.225151,69.6361541 10.2539063,67.6649093 10.2539063,65.2416229 C10.2539063,63.3321762 11.4784241,61.703682 13.1835938,61.0988616 L13.1835938,61.0988616 L13.1835938,50.6418229 C13.1835938,49.8327255 13.8393401,49.1769791 14.6484375,49.1769791 L14.6484375,49.1769791 L16.9921875,49.1769791 L16.9921875,44.8242188 L5.859375,44.8242188 L5.859375,50.8449554 C7.56454468,51.4497757 8.7890625,53.0782699 8.7890625,54.9877166 C8.7890625,57.4110031 6.81781772,59.3822479 4.39453125,59.3822479 C1.97124478,59.3822479 0,57.4110031 0,54.9877166 C0,53.0776978 1.22451782,51.4497757 2.9296875,50.8449554 L2.9296875,50.8449554 L2.9296875,43.359375 C2.9296875,42.5502776 3.58543389,41.8945313 4.39453125,41.8945313 L4.39453125,41.8945313 L16.9921875,41.8945313 L16.9921875,38.6020661 L9.52148438,38.6020661 C8.71238701,38.6020661 8.05664063,37.9463196 8.05664063,37.1372224 L8.05664063,37.1372224 L8.05664063,23.5204696 C6.35147095,22.9156494 5.12695313,21.2877274 5.12695313,19.3777084 C5.12695313,16.9544221 7.0981979,14.9831771 9.52148438,14.9831771 C11.9447708,14.9831771 13.9160156,16.9544221 13.9160156,19.3777084 C13.9160156,21.2871551 12.6909256,22.9156494 10.9863281,23.5204696 L10.9863281,23.5204696 L10.9863281,35.6723786 L16.9921875,35.6723786 L16.9921875,23.1445313 C16.9921875,19.7519303 19.7519303,16.9921875 23.1445313,16.9921875 L23.1445313,16.9921875 L26.9834518,16.9921875 L26.9834518,9.12380215 L25.1306534,9.12380215 C24.5264054,10.8289718 22.897911,12.0534896 20.9884644,12.0534896 C18.5651779,12.0534896 16.5939331,10.0822449 16.5939331,7.6589584 C16.5939331,5.23624424 18.5651779,3.26442715 20.9884644,3.26442715 C22.897911,3.26442715 24.5264054,4.48951729 25.1306534,6.19411465 L25.1306534,6.19411465 L28.4482956,6.19411465 C29.2573929,6.19411465 29.9131393,6.85043335 29.9131393,7.6589584 L29.9131393,7.6589584 L29.9131393,16.9921875 L36.0351563,16.9921875 L36.0351563,12.5295639 C36.0351563,11.7204667 36.6909026,11.0647201 37.5,11.0647201 L37.5,11.0647201 L43.359375,11.0647201 L43.359375,8.53729248 C41.6542053,7.93247227 40.4296875,6.30397793 40.4296875,4.39453125 C40.4296875,1.97124478 42.4009323,4.03896783e-28 44.8242188,4.03896783e-28 Z M30.1763534,69.140625 L30.1757813,69.140625 L30.0343954,69.147436 C29.2928201,69.2189992 28.7109375,69.845581 28.7109375,70.6054688 C28.7109375,71.4134216 29.3678284,72.0703125 30.1757813,72.0703125 C30.9837341,72.0703125 31.640625,71.4134216 31.640625,70.6054688 C31.640625,69.798088 30.9837341,69.1411972 30.1763534,69.140625 L30.1763534,69.140625 Z M65.5798345,67.28 C64.8504437,67.28 64.2574263,67.8629686 64.2574263,68.58 C64.2574263,69.2965233 64.8504437,69.88 65.5798345,69.88 C66.3087087,69.88 66.9022426,69.2965233 66.9022426,68.58 C66.9022426,67.8629686 66.3087087,67.28 65.5798345,67.28 Z M14.6490097,63.7767791 C13.8404846,63.7773514 13.1835938,64.4342423 13.1835938,65.2416229 C13.1835938,66.0495759 13.8404846,66.7064666 14.6484375,66.7064666 C15.4558182,66.7064666 16.1132813,66.0495759 16.1132813,65.2416229 C16.1132813,64.4342423 15.4563904,63.7773514 14.6490097,63.7767791 L14.6490097,63.7767791 Z M4.39510342,53.5228729 C3.58657837,53.5234452 2.9296875,54.180336 2.9296875,54.9877166 C2.9296875,55.7956696 3.58657837,56.4525604 4.39453125,56.4525604 C5.20248413,56.4525604 5.859375,55.7956696 5.859375,54.9877166 C5.859375,54.180336 5.20248413,53.5234452 4.39510342,53.5228729 L4.39510342,53.5228729 Z M51.8554688,19.921875 L23.1445312,19.921875 C21.367836,19.921875 19.921875,21.3672639 19.921875,23.1445312 L19.921875,23.1445312 L19.921875,51.8554687 C19.921875,53.632164 21.367836,55.078125 23.1445312,55.078125 L23.1445312,55.078125 L51.8554688,55.078125 C53.632164,55.078125 55.078125,53.632164 55.078125,51.8554687 L55.078125,51.8554687 L55.078125,23.1445312 C55.078125,21.3672639 53.632164,19.921875 51.8554688,19.921875 L51.8554688,19.921875 Z M67.7164078,47.1364975 C66.9090271,47.1364975 66.2515641,47.7939606 66.2515641,48.6013412 C66.2515641,49.4092941 66.9090271,50.066185 67.7164078,50.066185 C68.5243607,50.066185 69.1812516,49.4092941 69.1812516,48.6013412 C69.1812516,47.7939606 68.5243607,47.1364975 67.7164078,47.1364975 Z M70.6054688,24.4068146 C69.7975159,24.4068146 69.140625,25.0637054 69.140625,25.8716584 C69.140625,26.679039 69.7975159,27.3359298 70.6048966,27.3365021 L70.6048966,27.3365021 C71.4134216,27.3359298 72.0703125,26.679039 72.0703125,25.8716584 C72.0703125,25.0637054 71.4134216,24.4068146 70.6054688,24.4068146 Z M9.52148438,17.9128646 C8.71353149,17.9128646 8.05664063,18.5703278 8.05664063,19.3777084 C8.05664063,20.1850891 8.71295933,20.84198 9.52034004,20.8425521 L9.52034004,20.8425521 C10.3294373,20.8425521 10.9863281,20.1850891 10.9863281,19.3777084 C10.9863281,18.5703278 10.3294373,17.9128646 9.52148438,17.9128646 Z M61.8164063,9.75837715 C61.0090255,9.75837715 60.3515625,10.4152679 60.3515625,11.2232209 C60.3515625,12.0306015 61.0084534,12.6874923 61.8158341,12.6880646 L61.8158341,12.6880646 L61.8164063,12.6880646 L61.9577921,12.6812536 C62.6993674,12.6096903 63.28125,11.9831085 63.28125,11.2232209 C63.28125,10.4152679 62.6243591,9.75837715 61.8164062,9.75837715 Z M20.9884644,6.19468682 C20.1805115,6.19468682 19.5236206,6.85157783 19.5236206,7.65953057 C19.5236206,8.46691128 20.1805115,9.12437432 20.9884644,9.12437432 C21.7964172,9.12437432 22.4533081,8.46691128 22.4533081,7.65953057 C22.4533081,6.85157783 21.7958451,6.19468682 20.9884644,6.19468682 Z M44.8242188,2.9296875 C44.0162659,2.9296875 43.359375,3.58657837 43.359375,4.39453125 C43.359375,5.20191196 44.0156937,5.85880283 44.8230744,5.859375 L44.8230744,5.859375 L44.8242188,5.859375 L44.9656046,5.85256399 C45.7071799,5.78100083 46.2890625,5.15441898 46.2890625,4.39453125 C46.2890625,3.58657837 45.6321716,2.9296875 44.8242187,2.9296875 Z" id="Combined-Shape"></path>
        </g>
    </g>
</svg>