<?xml version="1.0" encoding="UTF-8"?>
<svg width="1133px" height="768px" viewBox="0 0 1133 768" version="1.1" xmlns="http://www.w3.org/2000/svg" xmlns:xlink="http://www.w3.org/1999/xlink">
    <!-- Generator: Sketch 61 (89581) - https://sketch.com -->
    <title>Calendar</title>
    <desc>Created with Sketch.</desc>
    <defs>
        <linearGradient x1="50.0108389%" y1="100%" x2="50.0108389%" y2="0%" id="linearGradient-1">
            <stop stop-color="#808080" stop-opacity="0.25" offset="0%"></stop>
            <stop stop-color="#808080" stop-opacity="0.12" offset="54%"></stop>
            <stop stop-color="#808080" stop-opacity="0.1" offset="100%"></stop>
        </linearGradient>
        <linearGradient x1="49.9891611%" y1="100%" x2="49.9891611%" y2="0%" id="linearGradient-2">
            <stop stop-color="#808080" stop-opacity="0.25" offset="0%"></stop>
            <stop stop-color="#808080" stop-opacity="0.12" offset="54%"></stop>
            <stop stop-color="#808080" stop-opacity="0.1" offset="100%"></stop>
        </linearGradient>
        <linearGradient x1="-0.0404357934%" y1="49.9969857%" x2="99.997717%" y2="49.9969857%" id="linearGradient-3">
            <stop stop-color="#808080" stop-opacity="0.25" offset="0%"></stop>
            <stop stop-color="#808080" stop-opacity="0.12" offset="54%"></stop>
            <stop stop-color="#808080" stop-opacity="0.1" offset="100%"></stop>
        </linearGradient>
    </defs>
    <g id="Page-1" stroke="none" stroke-width="1" fill="none" fill-rule="evenodd">
        <g id="Calendar">
            <path d="M612.68,112.3 C543.09,112.19 476.04,90.57 411.89,66.51 C347.74,42.45 284.1,15.62 215.77,4.11 C171.77,-3.29 121.87,-2.79 87.6,23.49 C54.63,48.78 45.19,90.75 40.67,129.57 C37.28,158.75 35.76,189.4 48.84,216.14 C57.93,234.71 73.43,250.03 84.4,267.74 C122.57,329.34 99.92,407.74 63.16,470.56 C45.91,499.97 25.7,528.2 12.69,559.36 C-0.32,590.52 -5.59,625.88 7.85,656.71 C21.19,687.28 51.19,709.57 83.28,724.78 C148.57,755.78 224.44,762.6 298.28,765.37 C461.76,771.51 625.49,760.57 788.79,749.57 C849.22,745.51 909.92,741.41 969.08,729.28 C1001.93,722.55 1035.74,712.52 1058.98,690.36 C1088.48,662.24 1094.4,616.19 1072.79,583.02 C1036.53,527.33 941.37,516.57 915.27,456.39 C900.9,423.26 913.1,385.39 931.13,353.53 C969.82,285.24 1036.57,224.16 1037.48,147.64 C1038.1,95.08 1003.15,43.71 951.11,20.71 C896.55,-3.43 822.31,2.51 784.28,46.99 C745.12,92.79 674.13,112.4 612.68,112.3 Z" id="Path" fill="#C9177A" fill-rule="nonzero" opacity="0.1"></path>
            <path d="M958.84,626 C958.84,626 946.55,617.89 934.37,623.66 C934.37,623.66 938.12,630.89 953.54,630.2 L958.84,626 Z" id="Path" fill="#C9177A" fill-rule="nonzero"></path>
            <path d="M960.35,626.44 C960.35,626.44 964.09,640.68 954.72,650.37 C954.72,650.37 949.08,644.49 954.72,630.11 L960.35,626.44 Z" id="Path" fill="#C9177A" fill-rule="nonzero"></path>
            <path d="M975.68,612.77 C975.68,612.77 974.77,600.65 947.42991,604.67 C947.42991,604.67 947.3,612.49 956.9,616.19 C966.5,619.89 970.89,616.77 975.68,612.77 Z" id="Path" fill="#C9177A" fill-rule="nonzero"></path>
            <path d="M977.36,612.68 C977.36,612.68 988.93,616.4 978.62,642.05 C978.62,642.05 970.99,640.34 969.62,630.14 C968.25,619.94 972.35,616.4 977.36,612.68 Z" id="Path" fill="#C9177A" fill-rule="nonzero"></path>
            <path d="M992.85,595.5 C992.85,595.5 994.41,575.57 966.46,577.62 C966.46,577.62 964.46,595.62 987.91,600.29 L992.85,595.5 Z" id="Path" fill="#C9177A" fill-rule="nonzero"></path>
            <path d="M1011.32,573 C1011.32,573 1007.48,550.42 979.549993,557.15 C979.549993,557.15 979.44,576.68 1006.75,578.39 L1011.32,573 Z" id="Path" fill="#C9177A" fill-rule="nonzero"></path>
            <path d="M1024.81,549.74 C1024.81,549.74 1018.4,527.74 990.72,534.33 C990.72,534.33 997.3,554.11 1022.97,553.81 L1024.81,549.74 Z" id="Path" fill="#C9177A" fill-rule="nonzero"></path>
            <path d="M1037.63,527.03 C1037.63,527.03 1031.36,504.2 1004.63,511.03 C1004.63,511.03 1013.55,532.72 1035.87,530.9 L1037.63,527.03 Z" id="Path" fill="#C9177A" fill-rule="nonzero"></path>
            <path d="M1045.9,505.45 C1045.9,505.45 1041.08,477.57 1016.19,483.71 C1016.19,483.71 1023.43,509.11 1044.09,509.51 L1045.9,505.45 Z" id="Path" fill="#C9177A" fill-rule="nonzero"></path>
            <path d="M1053.64,479.38 C1053.64,479.38 1047.86,451.23 1022.64,459.38 C1022.64,459.38 1032.53,485.97 1051.86,483.22 L1053.64,479.38 Z" id="Path" fill="#C9177A" fill-rule="nonzero"></path>
            <path d="M1058.44,455.11 C1058.44,455.11 1049.25,426.97 1029.76,427.73 C1029.76,427.73 1039.16,457.46 1056.76,460.73 L1058.44,455.11 Z" id="Path" fill="#C9177A" fill-rule="nonzero"></path>
            <path d="M1061.49,431.44 C1061.49,431.44 1051.49,397.56 1035.63,400.17 C1035.63,400.17 1042.55,426.07 1060.93,436.71 L1061.49,431.44 Z" id="Path" fill="#C9177A" fill-rule="nonzero"></path>
            <path d="M1063.19,403.16 C1063.19,403.16 1053.82,374.92 1038.19,373.8 C1038.19,373.8 1044.57,401.58 1062.87,410.49 L1063.19,403.16 Z" id="Path" fill="#C9177A" fill-rule="nonzero"></path>
            <path d="M1065.12,376.83 C1065.12,376.83 1053.43,348.56 1043.12,347.93 C1043.12,347.93 1048.19,375.75 1064.12,381.47 L1065.12,376.83 Z" id="Path" fill="#C9177A" fill-rule="nonzero"></path>
            <path d="M1066.41,352.31 C1066.41,352.31 1059.19,321.57 1048.89,319.07 C1048.89,319.07 1050.31,344.17 1065.38,354.6 L1066.41,352.31 Z" id="Path" fill="#C9177A" fill-rule="nonzero"></path>
            <path d="M1070.3,320.22 C1070.3,320.22 1062.74,295.76 1054.37,292.03 C1054.37,292.03 1056.03,320.87 1068.37,326.21 L1070.3,320.22 Z" id="Path" fill="#C9177A" fill-rule="nonzero"></path>
            <path d="M1073.53,299.15 L1075.06,256.01 C1075.06,256.01 1059.43998,288.56 1072.38,306.76 L1073.53,299.15 Z" id="Path" fill="#C9177A" fill-rule="nonzero"></path>
            <path d="M1085.62,256.28 C1085.62,256.28 1096.88,224.77 1099.62,223.02 C1099.62,223.02 1077.52,243.45 1079.68,269.75 L1085.62,256.28 Z" id="Path" fill="#C9177A" fill-rule="nonzero"></path>
            <path d="M993.61,595.36 C993.61,595.36 1013.43,592.76 1012.83,620.78 C1012.83,620.78 994.92,623.69 989.08,600.53 L993.61,595.36 Z" id="Path" fill="#C9177A" fill-rule="nonzero"></path>
            <path d="M1012.25,572.249998 C1012.25,572.249998 1035.16,572.17 1033.25,600.85 C1033.25,600.85 1014.03,604.28 1007.68,577.66 L1012.25,572.249998 Z" id="Path" fill="#C9177A" fill-rule="nonzero"></path>
            <path d="M1025.03,551.57 C1025.03,551.57 1045.82,541.82 1059.13,566.98 C1059.13,566.98 1039.92,575.11 1023.2,555.63 L1025.03,551.57 Z" id="Path" fill="#C9177A" fill-rule="nonzero"></path>
            <path d="M1038.1,527.24 C1038.1,527.24 1059.38,516.86 1071.88,541.45 C1071.88,541.45 1049.71,549.09 1036.34,531.13 L1038.1,527.24 Z" id="Path" fill="#C9177A" fill-rule="nonzero"></path>
            <path d="M1045.63,506.05 C1045.63,506.05 1066.12,486.48 1082.47,506.28 C1082.47,506.28 1061.54,522.38 1044.68,510.41 L1045.63,506.05 Z" id="Path" fill="#C9177A" fill-rule="nonzero"></path>
            <path d="M1052.48,478.71 C1052.48,478.71 1073.1,458.71 1089.32,479.63 C1089.32,479.63 1066.18,496.06 1051.75,482.91 L1052.48,478.71 Z" id="Path" fill="#C9177A" fill-rule="nonzero"></path>
            <path d="M1056.34,454.31 C1056.34,454.31 1072.22,429.31 1090.91,434.9 C1090.91,434.9 1074.44,461.37 1056.52,460.19 L1056.34,454.31 Z" id="Path" fill="#C9177A" fill-rule="nonzero"></path>
            <path d="M1061.02,431.28 C1061.02,431.28 1077.02,399.79 1092.15,405.28 C1092.15,405.28 1080.62,429.48 1060.61,436.59 L1061.02,431.28 Z" id="Path" fill="#C9177A" fill-rule="nonzero"></path>
            <path d="M1062.12,401.57 C1062.12,401.57 1078.57,376.79 1093.98,379.81 C1093.98,379.81 1080.54,404.94 1060.53,408.74 L1062.12,401.57 Z" id="Path" fill="#C9177A" fill-rule="nonzero"></path>
            <path d="M1063.38,376.27 C1063.38,376.27 1076.12,348.47 1086.49,348.22 C1086.49,348.22 1080.37,375.84 1064.23,380.95 L1063.38,376.27 Z" id="Path" fill="#C9177A" fill-rule="nonzero"></path>
            <path d="M1065.9,351.7 C1065.9,351.7 1080.07,323.54 1090.72,323.49 C1090.72,323.49 1083.47,347.56 1066.38,354.18 L1065.9,351.7 Z" id="Path" fill="#C9177A" fill-rule="nonzero"></path>
            <path d="M1068.04,321.95 C1068.04,321.95 1078.64,298.65 1087.41,296.01 C1087.41,296.01 1082.11,324.41 1069.2,328.13 L1068.04,321.95 Z" id="Path" fill="#C9177A" fill-rule="nonzero"></path>
            <path d="M1074.8,298.33 L1098.48,262.25 C1098.48,262.25 1092.42,297.84 1071.34,305.25 L1074.8,298.33 Z" id="Path" fill="#C9177A" fill-rule="nonzero"></path>
            <path d="M1091.06,259.18 C1091.06,259.18 1118.59,240.18 1119.58,237.1 C1119.58,237.1 1105.58,263.72 1079.58,268.42 L1091.06,259.18 Z" id="Path" fill="#C9177A" fill-rule="nonzero"></path>
            <path d="M1092.7,250.63 C1092.7,250.63 1124.31,220.24 1132.38,220.279961 C1132.38,220.279961 1106.31,221.47 1091.94,249.01 L1092.7,250.63 Z" id="Path" fill="#C9177A" fill-rule="nonzero"></path>
            <path d="M1068.34,326.46 L1069.49,326.61 C1075.43,280.11 1084.09,252.61 1093.88,249.23 L1093.5,248.14 C1083.13,251.74 1074.43,278.82 1068.34,326.46 Z" id="Path" fill="#444053" fill-rule="nonzero"></path>
            <path d="M1059.61,437.63 L1061.35,437.78 C1061.71,433.44 1061.99,428.99 1062.18,424.57 C1063.84,386.08 1066.42,350.75 1069.8,324.26 L1068.8,323.01 C1065.41,349.55 1062.11,385.96 1060.45,424.49 C1060.25,428.89 1059.97,433.31 1059.61,437.63 Z" id="Path" fill="#444053" fill-rule="nonzero"></path>
            <path d="M926.38,648.14 C926.69,648 957.32,634.33 989.11,601.7 C1007.73259,582.592717 1023.20803,560.653711 1034.96,536.7 C1049.65,506.77 1058.61,469.99 1061.62,434.26 L1059.81,435.11 C1053.06,515.3 1016.55,570.11 987.51,599.95 C956.03,632.29 925.75,645.83 925.45,645.95 L926.38,648.14 Z" id="Path" fill="#444053" fill-rule="nonzero"></path>
            <path d="M1048.71,48.88 L87.83,48.88 C83.1024425,48.88 79.27,52.7124425 79.27,57.44 L79.27,82.38 L1057.27,82.38 L1057.27,57.44 C1057.27,52.7124425 1053.43756,48.88 1048.71,48.88 Z" id="Path" fill="#3F3D56" fill-rule="nonzero"></path>
            <path d="M79.27,82.38 L79.27,643.62 C79.27,653.152435 86.9975652,660.88 96.53,660.88 L1040.01,660.88 C1049.54243,660.88 1057.27,653.152435 1057.27,643.62 L1057.27,82.38 L79.27,82.38 Z" id="Path" fill="#FFFFFF" fill-rule="nonzero"></path>
            <circle id="Oval" fill="#FA5959" fill-rule="nonzero" opacity="0.8" cx="94.77" cy="65.37" r="4"></circle>
            <circle id="Oval" fill="#FED253" fill-rule="nonzero" opacity="0.8" cx="105.77" cy="65.37" r="4"></circle>
            <circle id="Oval" fill="#8CCF4D" fill-rule="nonzero" opacity="0.8" cx="116.77" cy="65.37" r="4"></circle>
            <g id="Group" opacity="0.3" transform="translate(116.000000, 116.000000)" stroke="#3F3D56">
                <rect id="Rectangle" x="0.77" y="0.37" width="904" height="510"></rect>
                <rect id="Rectangle" x="118.77" y="0.37" width="668" height="510"></rect>
                <rect id="Rectangle" x="236.77" y="0.37" width="432" height="510"></rect>
                <rect id="Rectangle" x="354.77" y="0.37" width="196" height="510"></rect>
                <line x1="452.77" y1="0.37" x2="452.77" y2="510.37" id="Path"></line>
                <rect id="Rectangle" x="0.77" y="74.37" width="904" height="362"></rect>
                <rect id="Rectangle" x="0.77" y="147.37" width="904" height="216"></rect>
                <rect id="Rectangle" x="0.77" y="220.37" width="904" height="70"></rect>
            </g>
            <rect id="Rectangle" fill="#3F3D56" fill-rule="nonzero" opacity="0.1" x="258.27" y="144.87" width="71" height="26"></rect>
            <rect id="Rectangle" fill="#3F3D56" fill-rule="nonzero" opacity="0.1" x="147.27" y="215.87" width="53" height="26"></rect>
            <rect id="Rectangle" fill="#3F3D56" fill-rule="nonzero" opacity="0.1" x="373.27" y="144.87" width="71" height="26"></rect>
            <rect id="Rectangle" fill="#3F3D56" fill-rule="nonzero" opacity="0.1" x="481.27" y="144.87" width="71" height="26"></rect>
            <rect id="Rectangle" fill="#3F3D56" fill-rule="nonzero" opacity="0.1" x="581.27" y="144.87" width="71" height="26"></rect>
            <rect id="Rectangle" fill="#3F3D56" fill-rule="nonzero" opacity="0.1" x="693.27" y="144.87" width="71" height="26"></rect>
            <rect id="Rectangle" fill="#3F3D56" fill-rule="nonzero" opacity="0.1" x="807.27" y="144.87" width="71" height="26"></rect>
            <rect id="Rectangle" fill="#3F3D56" fill-rule="nonzero" opacity="0.1" x="928.27" y="144.87" width="71" height="26"></rect>
            <rect id="Rectangle" fill="url(#linearGradient-1)" fill-rule="nonzero" x="398.79" y="285.82" width="46.13" height="44.66"></rect>
            <rect id="Rectangle" fill="#7CFCFF" fill-rule="nonzero" x="399.59" y="286.59" width="44.54" height="43.12"></rect>
            <rect id="Rectangle" fill="url(#linearGradient-1)" fill-rule="nonzero" x="493.83" y="276.14" width="46.13" height="44.66"></rect>
            <rect id="Rectangle" fill="#FFFFA5" fill-rule="nonzero" x="494.63" y="276.91" width="44.54" height="43.12"></rect>
            <rect id="Rectangle" fill="url(#linearGradient-1)" fill-rule="nonzero" x="676.83" y="428.14" width="46.13" height="44.66"></rect>
            <rect id="Rectangle" fill="#FFFFA5" fill-rule="nonzero" x="677.63" y="428.91" width="44.54" height="43.12"></rect>
            <rect id="Rectangle" fill="url(#linearGradient-2)" fill-rule="nonzero" x="270.57" y="206.23" width="46.13" height="44.66"></rect>
            <rect id="Rectangle" fill="#FFFFA5" fill-rule="nonzero" x="271.36" y="207" width="44.54" height="43.12"></rect>
            <rect id="Rectangle" fill="url(#linearGradient-2)" fill-rule="nonzero" x="362.23" y="270.23" width="46.13" height="44.66"></rect>
            <rect id="Rectangle" fill="#FF69B4" fill-rule="nonzero" x="363.02" y="271" width="44.54" height="43.12"></rect>
            <rect id="Rectangle" fill="url(#linearGradient-1)" fill-rule="nonzero" x="730.79" y="427.82" width="46.13" height="44.66"></rect>
            <rect id="Rectangle" fill="#7CFCFF" fill-rule="nonzero" x="731.59" y="428.59" width="44.54" height="43.12"></rect>
            <rect id="Rectangle" fill="url(#linearGradient-1)" fill-rule="nonzero" x="811.79" y="206.82" width="46.13" height="44.66"></rect>
            <rect id="Rectangle" fill="#7CFCFF" fill-rule="nonzero" x="812.59" y="207.59" width="44.54" height="43.12"></rect>
            <rect id="Rectangle" fill="url(#linearGradient-1)" fill-rule="nonzero" x="806.79" y="348.82" width="46.13" height="44.66"></rect>
            <rect id="Rectangle" fill="#7CFCFF" fill-rule="nonzero" x="807.59" y="349.59" width="44.54" height="43.12"></rect>
            <rect id="Rectangle" fill="url(#linearGradient-1)" fill-rule="nonzero" x="841.79" y="358.82" width="46.13" height="44.66"></rect>
            <rect id="Rectangle" fill="#7CFCFF" fill-rule="nonzero" x="842.59" y="359.59" width="44.54" height="43.12"></rect>
            <rect id="Rectangle" fill="url(#linearGradient-2)" fill-rule="nonzero" x="694.23" y="412.23" width="46.13" height="44.66"></rect>
            <rect id="Rectangle" fill="#FF69B4" fill-rule="nonzero" x="695.02" y="413" width="44.54" height="43.12"></rect>
            <rect id="Rectangle" fill="url(#linearGradient-2)" fill-rule="nonzero" x="699.23" y="277.23" width="46.13" height="44.66"></rect>
            <rect id="Rectangle" fill="#FF69B4" fill-rule="nonzero" x="700.02" y="278" width="44.54" height="43.12"></rect>
            <rect id="Rectangle" fill="#3F3D56" fill-rule="nonzero" opacity="0.1" x="147.27" y="285.87" width="53" height="26"></rect>
            <rect id="Rectangle" fill="#3F3D56" fill-rule="nonzero" opacity="0.1" x="147.27" y="358.87" width="53" height="26"></rect>
            <rect id="Rectangle" fill="#3F3D56" fill-rule="nonzero" opacity="0.1" x="147.27" y="431.87" width="53" height="26"></rect>
            <rect id="Rectangle" fill="#3F3D56" fill-rule="nonzero" opacity="0.1" x="147.27" y="504.87" width="53" height="26"></rect>
            <rect id="Rectangle" fill="#3F3D56" fill-rule="nonzero" opacity="0.1" x="147.27" y="577.87" width="53" height="26"></rect>
            <path d="M308.27,351.08 C309.75,350.14 309.16,347.62 307.64,346.75 C306.12,345.88 304.23,346.17 302.52,346.51 C302.669354,345.615698 302.225054,344.727098 301.42,344.31 L301.42,343.93 C302.42,342.93 302.04,340.93 300.82,340.05 C299.6,339.17 297.7,339.13 296.06,339.21 C296.296386,337.193602 295.552812,335.185954 294.06,333.81 C293.773379,333.500817 293.380422,333.311483 292.96,333.28 C291.96,333.28 291.68,334.56 291.61,335.51 C291.419741,338.004908 291.008121,340.47797 290.38,342.9 L259.3,394.9 C255.84,399.9 266.59,384.9 263.13,389.95 C261.377477,392.698908 259.324879,395.244533 257.01,397.54 C254.931559,399.395066 252.606116,400.953213 250.1,402.17 C248.426374,402.218776 246.778336,401.750901 245.38,400.83 C243.624212,399.600161 242.089207,398.082062 240.84,396.34 C238.130834,392.896182 235.680782,389.256201 233.51,385.45 C232.757386,384.24529 232.191001,382.933839 231.83,381.56 C231.37,379.4 231.83,377.06 230.98,375.03 C230.618226,374.273113 230.168453,373.561532 229.64,372.91 L227.49,370.06 L227.49,369.93 C227.25,365.71 223.82,362.45 220.62,359.67 C217.9,357.29 214.95,354.81 211.36,354.35 C209.44,354.1 207.47,354.47 205.55,354.23 C203.98,354.03 202.49,353.44 200.93,353.18 C199.428556,352.974982 197.908402,352.94478 196.4,353.09 L195.76,352.5 C199.078928,351.098126 201.898225,348.728384 203.85,345.7 C205.33,343.31 206.14,340.55 207.51,338.09 C209.18,335.09 211.66,332.61 213.51,329.73 C217.98,322.9 218.8,314.11 216.99,306.15 C215.18,298.19 210.94,290.96 205.99,284.51 C196.39,272.09 180.29,267.51 165.13,269.91 C164.13,270.07 163.13,270.26 162.13,270.48 C159.579533,271.016605 157.090111,271.810673 154.7,272.85 C151.465987,274.174039 148.659774,276.364338 146.59,279.18 C146.032066,280.003076 145.559617,280.88096 145.18,281.8 C144.900734,282.502373 144.673456,283.224317 144.5,283.96 C144.035045,286.181594 143.910289,288.460932 144.13,290.72 C144.19,291.49 144.27,292.26 144.36,293.03 L144.51,294.19 C144.61,294.96 144.72,295.73 144.83,296.5 C144.99,297.66 145.14,298.82 145.25,299.96 C145.338133,300.766981 145.381532,301.578222 145.38,302.39 C145.38,302.6 145.38,302.8 145.38,303 C145.344688,303.603643 145.254312,304.202799 145.11,304.79 C145.031166,305.112966 144.930945,305.430332 144.81,305.74 C144.44977,306.658719 143.976097,307.528799 143.4,308.33 C142.621049,309.417422 141.77613,310.456039 140.87,311.44 L140,312.44 C139.71,312.77 139.43,313.11 139.14,313.44 C137.996689,314.773204 136.950661,316.186845 136.01,317.67 C135.551031,318.416361 135.140195,319.191272 134.78,319.99 C134.506333,320.595237 134.26924,321.216353 134.07,321.85 C133.815475,322.699502 133.634803,323.569402 133.53,324.45 C133.53,324.67 133.53,324.89 133.47,325.11 C133.47,325.54 133.47,325.98 133.47,326.42 C133.49191,326.855643 133.538652,327.289681 133.61,327.72 C133.680372,328.146507 133.780618,328.567543 133.91,328.98 C134.035299,329.398066 134.192425,329.805925 134.38,330.2 C134.38,330.31 134.48,330.42 134.54,330.53 L134.7,330.86 C134.81,331.08 134.92,331.29 135.02,331.51 C135.170934,331.828403 135.281781,332.164302 135.35,332.51 C135.35,332.62 135.35,332.74 135.35,332.86 C135.35,332.98 135.35,333.12 135.35,333.24 C135.190849,334.244439 134.663203,335.15356 133.87,335.79 C133.67,335.98 133.47,336.15 133.26,336.33 L132.94,336.59 L132.29,337.1 L131.67,337.6 C131.125229,338.056482 130.620092,338.558275 130.16,339.1 C124.529212,338.798768 118.885266,339.351699 113.42,340.74 C111.478309,341.372259 109.460005,341.738917 107.42,341.83 C106.42596,341.921884 105.451333,341.51329 104.82,340.74 C104.47352,339.990055 104.37881,339.148183 104.55,338.34 C104.819678,334.991902 104.270546,331.62847 102.95,328.54 C102.630848,327.636143 102.078954,326.832448 101.35,326.21 C100.587966,325.590251 99.5128801,325.533668 98.69,326.07 C100.381397,331.540996 100.137744,337.427499 98,342.74 C96.9020875,345.244251 95.6150317,347.661241 94.15,349.97 C91.87,353.86 90.59,358.31 88.56,362.34 C90.83,370.03 90.32,378.24 91.56,386.18 C92.67,393.57 95.25,400.65 97.84,407.66 C99.84,412.95 101.92,418.47 106.16,422.19 C107.526538,423.568526 109.369848,424.370276 111.31,424.43 C112.746143,424.252279 114.118256,423.730876 115.31,422.91 C116.546767,422.236121 117.687037,421.398577 118.7,420.42 C119.07478,420.009402 119.409624,419.56406 119.7,419.09 C119.824194,419.759815 120.07904,420.398628 120.45,420.97 C122.89,415.71 125.57,410.57 128.45,405.54 C129.307851,405.083215 130.112715,404.533224 130.85,403.9 C130.85,404.08 130.94,404.26 130.99,404.44 C130.86,404.92 130.74,405.44 130.61,405.89 C130.48,406.34 130.33,406.82 130.19,407.27 C130.05,407.72 129.98,407.94 129.87,408.27 C129.76,408.6 129.6,409.07 129.45,409.47 C129.3,409.87 129.13,410.34 128.96,410.77 C128.79,411.2 128.73,411.39 128.6,411.69 C128.29,412.45 127.97,413.19 127.6,413.93 C127.878605,414.065571 128.165903,414.182495 128.46,414.28 L128.65,414.34 C128.909226,414.421951 129.173006,414.488731 129.44,414.54 L129.73,414.54 C129.925471,414.570388 130.122413,414.590416 130.32,414.6 L130.54,414.6 L131.19,414.6 C131.905626,414.568756 132.6145,414.447811 133.3,414.24 L133.69,415.84 C134.687532,419.435203 135.330601,423.119451 135.61,426.84 C135.8,431.04 135.07,435.31 135.88,439.44 C136.29,441.59 137.12,443.65 137.42,445.81 C137.61339,447.844316 137.576489,449.893963 137.31,451.92 C136.843333,456.826667 136.376667,461.736667 135.91,466.65 C135.867109,468.453548 135.437423,470.226857 134.65,471.85 C133.96,473.05 132.84,474.42 133.54,475.61 C134.692521,475.303229 135.865516,475.079323 137.05,474.94 C136.62,476.5 136.23,478.07 135.86,479.65 C135.499164,480.824365 135.40353,482.06419 135.58,483.28 C135.83,484.42 136.58,485.45 136.66,486.61 C136.84,488.41 135.59,490 134.9,491.67 C133.14,495.93 135.01,500.73 136.9,504.95 L142.42,517.47 L146.95,527.74 C148.29,530.74 149.64,533.84 150.95,536.92 C156.853541,550.944051 161.674306,565.399659 165.37,580.16 C165.493434,580.830035 165.748337,581.468993 166.12,582.04 C166.88,583.04 168.27,583.36 169.4,583.98 C172.79,585.85 173.18,591.43 170.08,593.75 C170.71,601.27 165.08,608.54 162.18,615.5 C155.5,631.5 156.71,649.56 154.42,666.76 L157.01,665.25 C157.317116,665.388137 157.600583,665.573741 157.85,665.8 C157.79,666.12 157.72,666.453333 157.64,666.8 C157.289629,668.262453 156.730563,669.666856 155.98,670.97 C154.47,673.56 152.16,675.87 151.81,678.85 C151.6,680.65 152.15,682.45 152.14,684.26 C152.14,684.43 152.14,684.59 152.14,684.76 C151.91,684.54 151.56,684.56 151.04,684.97 C150.225973,685.824894 149.662165,686.886789 149.41,688.04 C148.96,689.33 148.6,690.64 148.24,691.95 L146.9,696.57 C146.215674,699.354653 145.309444,702.080031 144.19,704.72 C143.232615,706.487494 142.429633,708.334353 141.79,710.24 C141.433515,711.793237 141.295518,713.388621 141.38,714.98 C141.353733,716.505165 141.573209,718.02461 142.03,719.48 C143.243603,722.378509 145.620976,724.632476 148.58,725.69 C151.509107,726.719447 154.577229,727.299355 157.68,727.41 C158.475411,727.51208 159.281927,727.488459 160.07,727.34 C160.913935,727.097109 161.699796,726.685468 162.38,726.13 C166.6,723.03 168.78,717.33 169.16,712.13 C169.053256,711.056752 168.862674,709.993506 168.59,708.95 C168.85,703.26 168.02,697.54 168.45,691.87 C168.54,692.52 168.63,693.16 168.73,693.8 L169.73,700.17 C169.671392,699.943585 169.554116,699.736627 169.39,699.57 C168.649815,701.928932 168.519084,704.436895 169.01,706.86 C169.508595,709.271866 170.211119,711.637031 171.11,713.93 L172.47,717.73 C172.797728,718.876265 173.348224,719.946674 174.09,720.88 C175.28,722.19 177.09,722.68 178.83,723.1 C182.570123,724.192632 186.42073,724.86347 190.31,725.1 C190.830045,725.160839 191.356342,725.063247 191.82,724.82 C192.057969,724.643906 192.285052,724.453557 192.5,724.25 C192.845562,724.002298 193.213885,723.788002 193.6,723.61 C195.270968,722.730642 196.533593,721.234862 197.12,719.44 C197.689176,717.633519 197.452313,715.669381 196.47,714.05 C196.015331,713.374694 195.496234,712.745079 194.92,712.17 L188.08,704.92 C187.034233,703.678032 185.919122,702.496148 184.74,701.38 C184.454321,701.08725 184.043483,700.952794 183.64,701.02 C181.78,696.38 182.02,690.96 182.34,685.87 C182.44,684.35 183.27,681.2 183.6,678.61 C184.91929,678.164466 186.148539,677.487194 187.23,676.61 C188.27239,675.848615 189.012544,674.743696 189.32,673.49 C192.77,655.87 198.32,638.79 203.56,621.62 C204.08,619.93 204.56,618.23 205.09,616.54 C205.31,615.82 205.51,615.09 205.72,614.36 C205.93,613.63 206.07,613.18 206.24,612.59 C206.52,611.59 206.8,610.59 207.07,609.59 C207.15,609.32 207.22,609.05 207.3,608.78 C207.295453,608.726764 207.295453,608.673236 207.3,608.62 C207.63,607.39 207.95,606.16 208.3,604.93 C208.42,604.45 208.55,603.99 208.67,603.51 C209.06,601.95 209.45,600.37 209.82,598.8 C209.88096,598.583276 209.927725,598.362809 209.96,598.14 C210.095093,597.585193 210.056699,597.002294 209.85,596.47 L209.85,596.47 L209.85,596.47 C209.750349,596.263932 209.618722,596.074929 209.46,595.91 C209.35,595.78 209.23,595.65 209.11,595.53 C208.99,595.41 208.85,595.25 208.73,595.1 C208.414274,594.712625 208.176563,594.267767 208.03,593.79 C208.03,593.31 208.03,592.79 208.03,592.35 C208.03,591.91 207.97,591.35 207.94,590.83 C208.047094,590.154399 208.197402,589.486362 208.39,588.83 C208.51,588.44 208.64,588.05 208.76,587.66 C208.88,587.27 209.06,586.66 209.22,586.21 C209.818323,585.527517 210.142527,584.647533 210.13,583.74 C210.75,582.193333 211.433333,580.676667 212.18,579.19 C213.100973,577.683067 213.722344,576.012496 214.01,574.27 C214.005701,572.69564 213.810953,571.127581 213.43,569.6 C212.43,563.1 215.43,556.77 217.64,550.6 C219.279539,546.048758 220.524136,541.36479 221.36,536.6 C222.01,532.95 222.46,529.12 224.41,525.96 C225.053457,525.072627 225.603069,524.12086 226.05,523.12 C226.352721,522.073827 226.500953,520.989035 226.49,519.9 C226.7361,515.484387 227.804401,511.153528 229.64,507.13 C230.046725,506.350031 230.323685,505.509019 230.46,504.64 C230.465305,504.583457 230.465305,504.526543 230.46,504.47 L230.46,504.23 L230.97,504.15 C231.84,498.64 232.72,492.5 232.12,486.95 C231.339632,480.521312 228.208713,474.608541 223.33,470.35 L223.43,470.35 C225.15,469.48 225.92,467.35 225.95,465.47 C225.958289,462.584541 224.656079,459.851372 222.41,458.04 C221.914103,457.731652 221.501927,457.305737 221.21,456.8 C221.044144,456.280499 220.992967,455.731199 221.06,455.19 C221.076553,451.850569 219.073516,448.832186 215.99,447.55 C215.677021,447.463174 215.391354,447.297969 215.16,447.07 C214.903137,446.629206 214.824435,446.106913 214.94,445.61 C215.129,442.300921 213.469677,439.159373 210.63,437.45 C211.03,435.31 211.43,433.07 210.82,430.97 C210.21,428.87 208.24,426.97 206.08,427.27 C207.84,422.47 205.34,417.13 206,412.06 C206.29,409.88 207.16,407.79 207.27,405.6 C207.37,403.6 206.88,401.46 207.85,399.72 C208.82,397.98 211.11,396.62 210.52,394.72 C210.27,393.91 209.52,393.35 209.17,392.56 C208.82,391.77 210.22,390.56 210.94,391 C211.28,390.74 211.62,390.47 211.94,390.19 C212.044378,391.206769 212.245284,392.211298 212.54,393.19 C213.03,394.83 213.78,396.37 214.29,398 C215.07,400.49 215.29,403.19 216.55,405.47 C218.55,409.12 222.78,410.93 225.64,413.96 C227.32,415.73 228.53,417.96 230.26,419.64 C231.573915,420.867086 233.015469,421.949927 234.56,422.87 L243.8,428.87 C244.758416,429.565883 245.826488,430.096539 246.96,430.44 C248.413333,430.716942 249.916608,430.384317 251.11744,429.520097 C252.318271,428.655876 253.111072,427.336049 253.31,425.87 C252.460392,425.569436 251.68597,425.088407 251.04,424.46 C251.17,424.46 251.3,424.46 251.43,424.4 C253.624958,423.826016 255.655544,422.747374 257.36,421.25 C263.94,416.01 268.67,408.86 273.29,401.83 C278.13,394.46 301.42,374.96 301.42,374.96 L301.42,367.06 C304.383645,365.341994 307.01253,363.102698 309.18,360.45 C310.348554,359.035092 311.032082,357.282456 311.13,355.45 C311.221582,353.528238 310.067773,351.76525 308.27,351.08 Z M114.57,370.03 C114.123333,372.903333 113.573333,375.756667 112.92,378.59 C112.200324,381.867173 111.278563,385.096677 110.16,388.26 L109.8,389.26 C109.47,388.64 109.14,388.03 108.8,387.4 C108.05,385.83 107.44,384.2 106.8,382.57 L102.94,372.17 C102.44,370.82 101.94,369.26 102.69,368.02 C103.239756,367.26033 104.006785,366.685058 104.89,366.37 C107.603979,365.125399 110.438939,364.163657 113.35,363.5 C114.270415,363.315324 115.178756,363.07488 116.07,362.78 C115.352383,365.146486 114.850336,367.573043 114.57,370.03 Z M118.84,357.03 C118.578253,356.560696 118.578253,355.989304 118.84,355.52 C119.128939,355.228919 119.467603,354.991854 119.84,354.82 L120.13,354.62 C119.73,355.45 119.28,356.25 118.84,357.06 L118.84,357.03 Z M126.84,345.72 C125.704802,346.661806 124.672394,347.721031 123.76,348.88 C122.780922,350.173269 121.89853,351.536965 121.12,352.96 C121.360691,351.831677 120.933018,350.665296 120.02,349.96 C119.665857,349.765558 119.331015,349.537866 119.02,349.28 C118.324121,348.352162 118.512162,347.035879 119.44,346.34 C120.360204,345.708869 121.435895,345.342235 122.55,345.28 L127.16,344.6 C127.02,344.99 126.93,345.37 126.83,345.75 L126.84,345.72 Z M170,680.37 C170.081289,678.987464 169.990595,677.600185 169.73,676.24 C170.3,676.24 170.87,676.24 171.43,676.24 C170.96,677.57 170.48,678.98 170,680.37 Z" id="Shape" fill="url(#linearGradient-3)" fill-rule="nonzero"></path>
            <path d="M165.3,272.91 C157.3,274.2 148.4,277.28 145.3,284.78 C142.99,290.45 144.78,296.83 145.37,302.92 C145.59376,304.527681 145.536236,306.162029 145.2,307.75 C144.54,310.32 142.72,312.4 140.96,314.39 C138.514998,316.916636 136.462226,319.795236 134.87,322.93 C133.43,326.13 132.97,329.93 134.46,333.13 C134.966851,333.952248 135.30666,334.866336 135.46,335.82 C135.56,337.9 133.38,339.22 131.78,340.55 C125.78,345.55 126.03,354.55 125.98,362.38 C125.887821,378.345739 122.343454,394.102651 115.59,408.57 C120.769816,411.193422 127.027875,410.375945 131.36,406.51 C130.528406,410.065023 129.328592,413.523703 127.78,416.83 C132.86,419.29 138.99,415.25 141.54,410.21 C144.09,405.17 144.39,399.31 146.2,393.96 C148.01,388.61 151.2,383.96 152.61,378.57 C153.06,376.79 153.34,374.89 154.43,373.41 C155.348405,372.339325 156.428019,371.418279 157.63,370.68 C162.904602,366.872646 166.858623,361.513216 168.94,355.35 C175.16,356.72 181.51,358.1 187.85,357.52 C194.19,356.94 200.67,354.07 204.02,348.65 C205.5,346.26 206.3,343.51 207.67,341.05 C209.35,338.05 211.82,335.57 213.67,332.7 C218.13,325.87 218.95,317.1 217.14,309.14 C215.33,301.18 211.14,293.98 206.14,287.53 C196.56,275.09 180.46,270.48 165.3,272.91 Z" id="Path" fill="#303D5C" fill-rule="nonzero"></path>
            <path d="M114.81,372.93 C114.36,375.79 113.81,378.65 113.17,381.48 C112.444323,384.752377 111.522662,387.97819 110.41,391.14 C109.755732,392.52477 109.45673,394.050713 109.54,395.58 C109.737303,396.516485 110.099612,397.410409 110.61,398.22 C114.26,404.71 119.2,410.98 119.61,418.42 C119.71,420.27 119.61,422.28 120.61,423.81 C123.43,417.736667 126.543333,411.816667 129.95,406.05 C133.51,400.05 137.47,393.91 138.49,386.97 C138.896774,383.712856 138.85303,380.415208 138.36,377.17 C137.89,373.52 137.07,369.78 134.85,366.86 C132.43,363.7 125.85,358.93 121.52,359.92 C116.49,361.07 115.45,368.86 114.81,372.93 Z" id="Path" fill="#C9177A" fill-rule="nonzero"></path>
            <path d="M243.7,407.91 C248.48,405.96 253.36,403.91 257.15,400.39 C259.464879,398.094533 261.517477,395.548908 263.27,392.8 L274.52,376.57 C277.18,372.71 279.93,368.66 280.52,364.01 C287.108403,357.054282 291.077702,348.027044 291.75,338.47 C291.83,337.52 292.15,336.27 293.1,336.24 C293.520422,336.271483 293.913379,336.460817 294.2,336.77 C295.691166,338.142843 296.434731,340.146749 296.2,342.16 C297.84,342.08 299.62,342.04 300.96,343 C302.3,343.96 302.66,346.34 301.22,347.13 C302.217598,347.432903 302.831619,348.433371 302.65,349.46 C304.37,349.12 306.26,348.84 307.78,349.7 C309.3,350.56 309.88,353.08 308.41,354.02 C310.16606,354.699088 311.306524,356.407782 311.26,358.29 C311.168447,360.123824 310.484164,361.878394 309.31,363.29 C304.99,369.09 297.37,371.43 292.36,376.65 C290.713769,378.474996 289.23764,380.446517 287.95,382.54 L273.44,404.62 C268.83,411.62 264.1,418.79 257.52,424.01 C255.815544,425.507374 253.784958,426.586016 251.59,427.16 C249.353539,427.72407 246.985398,427.066464 245.36,425.43 C243.91,423.78 243.69,421.43 243.55,419.22 C243.31,415.5 243.95,411.66 243.7,407.91 Z" id="Path" fill="#EE8E9E" fill-rule="nonzero"></path>
            <path d="M195.11,714.57 C195.688607,715.142917 196.207906,715.772777 196.66,716.45 C197.64188,718.065855 197.878796,720.026795 197.31,721.83 C196.730352,723.623054 195.469938,725.116878 193.8,725.99 C193.409554,726.165726 193.037696,726.38013 192.69,726.63 C192.47735,726.839188 192.250112,727.033009 192.01,727.21 C191.543117,727.443785 191.019663,727.54085 190.5,727.49 C186.615171,727.24362 182.768956,726.572964 179.03,725.49 C177.31,725.06 175.49,724.57 174.29,723.27 C173.548224,722.336674 172.997728,721.266265 172.67,720.12 L171.31,716.33 C170.417043,714.039283 169.717923,711.677661 169.22,709.27 C168.723749,706.850636 168.854561,704.34455 169.6,701.99 C169.937219,702.412132 170.114323,702.939901 170.1,703.48 C170.500281,706.03143 171.501104,708.451227 173.02,710.54 C173.337403,711.063373 173.720519,711.543948 174.16,711.97 C175.154191,712.732996 176.328962,713.225641 177.57,713.4 C179.958584,713.919182 182.387675,714.230346 184.83,714.33 C185.168112,714.37596 185.512361,714.33465 185.83,714.21 C186.222173,713.992417 186.518379,713.635542 186.66,713.21 C187.009744,712.24058 187.009744,711.17942 186.66,710.21 C186,708.36 184.19,707.15 183.33,705.39 C182.68,704.09 183.57,702.66 184.89,703.76 C186.074939,704.873467 187.193528,706.055498 188.24,707.3 L195.11,714.57 Z" id="Path" fill="#303D5C" fill-rule="nonzero"></path>
            <path d="M182.54,688.3 C182.15,694.41 181.88,701.01 185.22,706.14 C186.43,707.98 188.04,709.53 189.41,711.26 C190.195655,712.125059 190.716298,713.197585 190.91,714.35 C191.1,716.59 189,718.51 186.79,718.93 C184.58,719.35 182.32,718.65 180.18,717.93 C178.155055,717.426164 176.248912,716.529156 174.57,715.29 C171.66,712.83 170.89,708.73 170.31,704.97 L168.95,696.23 C167.919803,691.812031 168.355044,687.178818 170.19,683.03 L172.43,676.47 C172.576603,675.83213 172.927785,675.259703 173.43,674.84 C173.951086,674.553138 174.550444,674.440978 175.14,674.52 C177.28,674.63 182.69,675.41 183.73,677.68 C184.61,679.65 182.69,685.95 182.54,688.3 Z" id="Path" fill="#EE8E9E" fill-rule="nonzero"></path>
            <path d="M182.54,688.3 C182.15,694.41 181.88,701.01 185.22,706.14 C186.43,707.98 188.04,709.53 189.41,711.26 C190.195655,712.125059 190.716298,713.197585 190.91,714.35 C191.1,716.59 189,718.51 186.79,718.93 C184.58,719.35 182.32,718.65 180.18,717.93 C178.155055,717.426164 176.248912,716.529156 174.57,715.29 C171.66,712.83 170.89,708.73 170.31,704.97 L168.95,696.23 C167.919803,691.812031 168.355044,687.178818 170.19,683.03 L172.43,676.47 C172.576603,675.83213 172.927785,675.259703 173.43,674.84 C173.951086,674.553138 174.550444,674.440978 175.14,674.52 C177.28,674.63 182.69,675.41 183.73,677.68 C184.61,679.65 182.69,685.95 182.54,688.3 Z" id="Path" fill="#000000" fill-rule="nonzero" opacity="0.05"></path>
            <path d="M230.61,507.19 C230.614346,507.246583 230.614346,507.303417 230.61,507.36 C230.482899,508.224876 230.205377,509.060827 229.79,509.83 C227.954344,513.843475 226.882717,518.163896 226.63,522.57 C226.640953,523.659035 226.492721,524.743827 226.19,525.79 C225.741444,526.78688 225.191907,527.735167 224.55,528.62 C222.6,531.79 222.15,535.62 221.5,539.25 C220.662089,543.994755 219.417499,548.658621 217.78,553.19 C215.55,559.37 212.55,565.69 213.57,572.19 C213.950953,573.717581 214.145701,575.28564 214.15,576.86 C213.865035,578.600081 213.243431,580.267881 212.32,581.77 C211.573333,583.25 210.906667,584.766667 210.32,586.32 C209.67,587.98 209.09,589.68 208.58,591.4 C207.98,593.49 207.58,595.97 208.96,597.65 C209.388776,598.061063 209.768017,598.520852 210.09,599.02 C210.349832,599.785211 210.349832,600.614789 210.09,601.38 C209.296667,604.713333 208.45,608.046667 207.55,611.38 C206.85,613.98 206.11,616.56 205.35,619.14 C199.73,638.01 193.35,656.69 189.59,676.02 C189.05,678.8 185.48,680.79 182.72,681.4 C179.900712,682.002562 176.963394,681.218038 174.82,679.29 C174.63,679.12 174.45,678.93 174.28,678.75 C171.38,675.63 170.95,670.84 171.17,666.52 C172.17,646.63 182.17,628.42 186.93,609.09 C188.651573,602.100542 189.689786,594.960312 190.03,587.77 C191.14,563.77 191.59,538.39 184.8,515.32 C183.39,510.52 181.72,505.1 184.26,500.8 C185.86,498.08 188.83,496.47 191.77,495.31 C203.882615,490.58964 217.386478,490.950127 229.23,496.31 C229.239764,496.790779 229.219726,497.2717 229.17,497.75 C228.915404,499.98575 229.175361,502.250114 229.93,504.37 C230.318295,505.263518 230.548383,506.217709 230.61,507.19 Z" id="Path" fill="#303D5C" fill-rule="nonzero"></path>
            <path d="M148.39,694.45 L147.12,699.07 C146.443574,701.849199 145.540553,704.568297 144.42,707.2 C143.462615,708.967494 142.659633,710.814353 142.02,712.72 C141.663515,714.273237 141.525518,715.868621 141.61,717.46 C141.583762,718.981885 141.80325,720.498035 142.26,721.95 C143.470519,724.844818 145.844737,727.095606 148.8,728.15 C151.72855,729.180098 154.797284,729.75675 157.9,729.86 C158.694612,729.970389 159.501928,729.950122 160.29,729.8 C161.133935,729.557109 161.919796,729.145468 162.6,728.59 C166.82,725.5 168.99,719.8 169.37,714.59 C169.26097,713.374863 169.022964,712.174775 168.66,711.01 C168.33,710.57 165.14,712.37 166.51,713.88 C168.51,716.1 162.62,714.95 159.62,714.76 C158.302242,714.646775 156.995088,714.432816 155.71,714.12 L150.85,713.12 C149.26,712.78 147.43,712.23 146.85,710.71 C146.27,709.19 147.51,707.37 148.47,705.89 C151.01,701.96 151.67,697.15 152.26,692.51 C152.37,691.6 153.51,685.69 151.16,687.51 C150.353312,688.370162 149.790641,689.429917 149.53,690.58 C149.1,691.83 148.74,693.14 148.39,694.45 Z" id="Path" fill="#303D5C" fill-rule="nonzero"></path>
            <path d="M208.91,597.66 C207.53,595.98 207.91,593.5 208.54,591.41 C208.76,590.63 209.01,589.86 209.27,589.09 L190.19,582.63 C190.12,584.35 190.04,586.05 189.96,587.75 C189.627381,594.943691 188.592461,602.087651 186.87,609.08 C182.1,628.4 172.09,646.61 171.11,666.49 C170.88,671.07 171.37,676.19 174.76,679.27 C176.899276,681.19843 179.832286,681.986514 182.65,681.39 C185.42,680.78 188.98,678.78 189.53,676 C193.31,656.67 199.66,638 205.29,619.11 C207.043333,613.25 208.623333,607.343333 210.03,601.39 C210.289816,600.628211 210.289816,599.801789 210.03,599.04 C209.716817,598.534281 209.340451,598.070544 208.91,597.66 L208.91,597.66 Z" id="Path" fill="#000000" fill-rule="nonzero" opacity="0.05"></path>
            <path d="M156.19,673.49 C154.68,676.09 152.38,678.39 152.03,681.37 C151.82,683.16 152.37,684.96 152.36,686.77 C152.286151,688.267714 152.020655,689.749787 151.57,691.18 C149.71,697.893333 147.57,704.513333 145.15,711.04 C144.752188,711.88167 144.576608,712.811213 144.64,713.74 C144.88,715.27 146.37,716.28 147.79,716.89 C152.34,718.83 157.46,718.7 162.4,718.5 C163.83665,718.558492 165.260813,718.21198 166.51,717.5 C168.28,716.29 168.72,713.9 168.83,711.76 C169.17,705.56 168.12,699.33 168.83,693.17 C169.08,690.92 169.55,688.71 169.9,686.48 C170.39,683.38 170.64,680.12 169.62,677.15 C168.775478,675.018396 167.593731,673.036437 166.12,671.28 C164.819718,669.377991 163.174689,667.736353 161.27,666.44 C160.69,666.1 159.04,665.04 158.45,665.7 C158.15,666.04 158.28,666.95 158.24,667.37 C158.162417,668.015818 158.048907,668.656812 157.9,669.29 C157.53452,670.764811 156.958612,672.179321 156.19,673.49 L156.19,673.49 Z" id="Path" fill="#EE8E9E" fill-rule="nonzero"></path>
            <path d="M192.85,514.93 C191.96,516.14 192.14,517.82 192.5,519.28 C193.13,521.92 194.19,524.45 195.05,527.02 C196.457457,531.634572 197.553259,536.3385 198.33,541.1 C199.13,545.4 200.83,550.19 200.14,554.52 C205.355846,564.447287 208.784761,575.214689 210.27,586.33 C210.66,589.18 204.33,592.86 204.45,595.73 C204.69,601.45 209.25,601.91 205.89,606.47 C205.72,606.7 207.15,611.81 206.96,612.03 C205.59,613.68 203.85,615.03 202.38,616.54 C200.484057,618.688042 198.861688,621.062814 197.55,623.61 C188.85,639.33 176.27,657.15 180.15,674.7 C180.311951,675.99421 179.649128,677.251978 178.49,677.85 C177.341473,678.40252 176.084497,678.692854 174.81,678.7 L174.21,678.7 C171.31,675.58 170.88,670.79 171.1,666.47 C172.1,646.58 182.1,628.37 186.86,609.04 C188.581573,602.050542 189.619786,594.910312 189.96,587.72 C191.07,563.72 191.52,538.34 184.73,515.27 C183.32,510.47 181.65,505.05 184.19,500.75 C185.79,498.03 188.76,496.42 191.7,495.26 C203.812615,490.53964 217.316478,490.900127 229.16,496.26 C229.169764,496.740779 229.149726,497.2217 229.1,497.7 C228.845404,499.93575 229.105361,502.200114 229.86,504.32 C230.279221,505.227781 230.533197,506.203048 230.61,507.2 C230.61,507.2 230.95,503.33 230.940216,503.39 C223.19,504.5 215.01,509.57 207.19,510.72 C203.135722,511.15264 199.141557,512.031289 195.28,513.34 C194.339124,513.6363 193.49826,514.186494 192.85,514.93 L192.85,514.93 Z" id="Path" fill="#000000" fill-rule="nonzero" opacity="0.05"></path>
            <path d="M138.86,472.35 C137.813333,475.683333 136.89,479.05 136.09,482.45 C135.734007,483.62528 135.638456,484.864029 135.81,486.08 C136.06,487.22 136.81,488.24 136.89,489.4 C137.07,491.2 135.82,492.79 135.13,494.46 C133.37,498.71 135.25,503.51 137.13,507.72 L142.65,520.22 L147.19,530.48 C148.54,533.53 149.88,536.58 151.19,539.65 C157.090182,553.657195 161.907636,568.096184 165.6,582.84 C165.724314,583.508182 165.97551,584.146355 166.34,584.72 C167.11,585.72 168.5,586.04 169.62,586.66 C173.02,588.52 173.41,594.1 170.3,596.42 C170.94,603.93 165.3,611.18 162.41,618.14 C155.73,634.14 156.94,652.14 154.65,669.34 L157.24,667.82 C159.73,668.96 159.64,672.49 160.98,674.88 C162.98,678.47 167.9,678.97 171.98,678.7 C173.251432,678.694054 174.505414,678.403622 175.65,677.85 C176.811297,677.254169 177.474985,675.994761 177.31,674.7 C173.44,657.15 186.01,639.33 194.72,623.61 C196.028215,621.063137 197.647238,618.688346 199.54,616.54 C201.02,614.98 202.75,613.67 204.13,612.03 C207.97,607.42 208.46,600.92 208.2,594.92 C207.590167,580.811155 203.867974,567.011724 197.3,554.51 C198,550.19 196.3,545.4 195.5,541.1 C194.72033,536.339703 193.614391,531.638625 192.19,527.03 C191.33,524.44 190.28,521.92 189.64,519.28 C189.29,517.82 189.1,516.14 189.99,514.93 C190.647508,514.183081 191.49895,513.632759 192.45,513.34 C196.311557,512.031289 200.305722,511.15264 204.36,510.72 L231.19,506.87 C232.05,501.36 232.93,495.22 232.33,489.68 C231.012051,479.186348 223.565372,470.488721 213.4,467.57 C212.23,467.26 210.86,467.06 209.9,467.8 C186.224685,463.152225 161.748933,464.719859 138.86,472.35 Z" id="Path" fill="#303D5C" fill-rule="nonzero"></path>
            <path d="M163.19,327.44 C163.581082,330.059408 163.173339,332.735875 162.02,335.12 C161.240905,336.422055 160.223096,337.565394 159.02,338.49 C156.425734,340.575796 153.409629,342.073613 150.18,342.88 C148.28,343.36 146.18,343.68 144.89,345.19 C143.01,347.46 144.27,350.9 145.89,353.38 C148.67,357.7 152.53,361.61 157.48,362.96 C161.48,364.04 165.65,363.38 169.69,364.08 C172.62,364.59 175.38,365.8 178.27,366.49 C186.625085,368.401258 195.380067,365.959495 201.54,360 C197.24,356.7 192.78,353.19 190.54,348.25 C188.963426,344.714513 188.66644,340.740551 189.7,337.01 C190.7,333.35 193.05,329.79 192.33,326.01 C191.61,322.23 187.93,319.7 184.33,318.44 C181.02483,317.436151 177.628179,316.76285 174.19,316.43 C172.3,316.17 160.3,313.52 159.55,314.83 C159.13,315.57 161.62,319.95 161.93,320.92 C162.661015,323.021524 163.085377,325.217425 163.19,327.44 L163.19,327.44 Z" id="Path" fill="#EE8E9E" fill-rule="nonzero"></path>
            <circle id="Oval" fill="#EE8E9E" fill-rule="nonzero" cx="178.32" cy="311.86" r="24.34"></circle>
            <path d="M165.46,352.09 L181.97,354.87 C186.028043,355.695601 190.158825,356.111025 194.3,356.11 C196.561088,355.885091 198.838912,355.885091 201.1,356.11 C202.66,356.37 204.15,356.96 205.71,357.16 C207.64,357.4 209.6,357.03 211.53,357.28 C215.11,357.74 218.06,360.22 220.78,362.59 C223.97,365.37 227.4,368.59 227.65,372.84 C227.69486,373.32245 227.626373,373.808709 227.45,374.26 C227.136622,374.770002 226.717118,375.20656 226.22,375.54 C223.22,378.03 221.49,381.74 219.33,385.02 C217.106082,388.404104 214.334962,391.394886 211.13,393.87 C210.41,393.41 209.04,394.62 209.35,395.42 C209.66,396.22 210.45,396.77 210.71,397.58 C211.3,399.45 208.99,400.83 208.03,402.58 C207.07,404.33 207.56,406.46 207.46,408.45 C207.34,410.64 206.46,412.73 206.19,414.9 C205.52,419.97 208.03,425.31 206.26,430.1 C208.43,429.83 210.39,431.7 211,433.79 C211.61,435.88 211.22,438.13 210.81,440.27 C213.650294,441.970177 215.313901,445.104845 215.13,448.41 C214.957834,448.797706 214.970746,449.242566 215.165111,449.619634 C215.359475,449.996701 215.714327,450.265304 216.13,450.35 C219.208334,451.632988 221.209775,454.645018 221.2,457.98 C221.133093,458.524506 221.184254,459.077036 221.35,459.6 C221.641391,460.100179 222.049725,460.522238 222.54,460.83 C224.78686,462.636393 226.089631,465.367059 226.08,468.25 C226.08,470.18 225.28,472.25 223.57,473.12 C220.07,474.9 216.32,475.59 212.48,476.42 C208.941709,477.256064 205.359456,477.893725 201.75,478.33 C198.424036,478.602062 195.086429,478.705528 191.75,478.64 L169.67,478.55 C163.46,478.55 157.25,478.55 151.06,478.08 C145.28,477.69 139.37,476.97 133.77,478.49 C133.07,477.3 134.19,475.93 134.88,474.74 C135.670991,473.118141 136.100869,471.344041 136.14,469.54 L137.54,454.83 C137.806416,452.807308 137.843317,450.760982 137.65,448.73 C137.35,446.56 136.53,444.51 136.11,442.36 C135.31,438.24 136.04,433.98 135.85,429.78 C135.564426,426.059482 134.918056,422.37551 133.92,418.78 L129.54,400.78 C128.84,397.89 128.47,394.53 127.39,391.78 C124.023333,383.113333 120.493333,374.54 116.8,366.06 C116.529488,365.307393 116.602591,364.474018 117,363.78 L120.65,357.24 C121.626526,355.381186 122.743083,353.599376 123.99,351.91 C127.072679,348.011526 131.438118,345.332734 136.31,344.35 C141.188527,343.396037 146.246664,344.144344 150.64,346.47 C152.34,347.38 153.92,348.47 155.64,349.37 C158.59,350.77 162.19,352.31 165.46,352.09 Z" id="Path" fill="#C9177A" fill-rule="nonzero"></path>
            <path d="M224.04,368.12 L229.79,375.79 C230.318453,376.441532 230.768226,377.153113 231.13,377.91 C231.99,379.91 231.52,382.27 231.98,384.42 C232.338298,385.796426 232.908442,387.108769 233.67,388.31 C235.831644,392.110893 238.275156,395.744405 240.98,399.18 C242.229682,400.925048 243.768518,402.443591 245.53,403.67 C247.31528,404.903946 249.548471,405.301687 251.65,404.76 C250.78121,405.098474 250.068668,405.746887 249.65,406.58 C247.46,410.92 247.3,416.06 248.23,420.82 C248.491659,422.453717 249.032914,424.03012 249.83,425.48 C250.628454,426.942935 251.928068,428.068557 253.49,428.65 C253.291344,430.115529 252.498154,431.434653 251.296875,432.297304 C250.095595,433.159955 248.592175,433.49005 247.14,433.21 C246.007921,432.870712 244.942459,432.339672 243.99,431.64 L234.75,425.64 C233.20769,424.716618 231.766474,423.63403 230.45,422.41 C228.72,420.69 227.52,418.51 225.84,416.74 C222.98,413.74 218.78,411.9 216.76,408.26 C215.49,405.98 215.27,403.26 214.49,400.8 C213.98,399.17 213.23,397.63 212.74,395.99 C211.22,390.93 212.32,385.38 214.63,380.63 C216.94,375.88 220.62,372.16 224.04,368.12 Z" id="Path" fill="#C9177A" fill-rule="nonzero"></path>
            <path d="M202.37,297.98 C200.117387,294.486221 197.210752,291.46074 193.81,289.07 C189.26,285.68 184.03,282.86 178.36,282.54 C175.989386,282.419059 173.620191,282.804266 171.41,283.67 C171.3,276.8 169.6,272.22 165.3,272.91 C157.3,274.2 148.4,277.28 145.3,284.78 C142.99,290.45 144.78,296.83 145.37,302.92 C145.59376,304.527681 145.536236,306.162029 145.2,307.75 C144.54,310.32 142.72,312.4 140.96,314.39 C138.514998,316.916636 136.462226,319.795236 134.87,322.93 C133.43,326.13 132.97,329.93 134.46,333.13 C134.966851,333.952248 135.30666,334.866336 135.46,335.82 C135.56,337.9 133.38,339.22 131.78,340.55 C125.78,345.55 126.03,354.55 125.98,362.38 C125.887821,378.345739 122.343454,394.102651 115.59,408.57 C120.769816,411.193422 127.027875,410.375945 131.36,406.51 C130.528406,410.065023 129.328592,413.523703 127.78,416.83 C132.86,419.29 138.99,415.25 141.54,410.21 C144.09,405.17 144.39,399.31 146.2,393.96 C148.01,388.61 151.2,383.96 152.61,378.57 C153.06,376.79 153.34,374.89 154.43,373.41 C155.348405,372.339325 156.428019,371.418279 157.63,370.68 C162.87,366.92 155.15,338.43 157.2,332.31 C160.2,332.98 165.85,318.31 169.04,303.31 C171.264681,304.076832 173.637792,304.313116 175.97,304 C176.780785,303.824216 177.612778,303.766953 178.44,303.83 C179.208091,303.987675 179.940402,304.286024 180.6,304.71 C182.960454,306.158434 185.427556,307.425415 187.98,308.5 C193.26,310.5 199.06,310.21 204.69,309.93 C205.45273,305.796622 204.623954,301.527712 202.37,297.98 Z" id="Path" fill="#303D5C" fill-rule="nonzero"></path>
            <g id="Group" opacity="0.1" transform="translate(115.000000, 272.000000)" fill="#000000" fill-rule="nonzero">
                <path d="M3.45,136.57 C10.2240995,122.121854 13.7858776,106.377021 13.89,90.42 C13.94,82.62 13.68,73.56 19.69,68.59 C21.29,67.26 23.47,65.94 23.37,63.86 C23.2126841,62.9073881 22.8731525,61.9940481 22.37,61.17 C20.88,57.99 21.37,54.17 22.77,50.97 C24.3625611,47.8329298 26.4190075,44.9539049 28.87,42.43 C30.62,40.43 32.45,38.36 33.1,35.79 C33.4351832,34.2020679 33.4960625,32.5684754 33.28,30.96 C32.68,24.87 30.9,18.49 33.21,12.82 C36.21,5.56 44.6,2.45 52.4,1.09 C51.7217074,0.87374377 51.0009965,0.825696377 50.3,0.95 C42.3,2.24 33.4,5.32 30.3,12.82 C27.99,18.49 29.78,24.87 30.37,30.96 C30.5937601,32.5676813 30.5362364,34.2020288 30.2,35.79 C29.54,38.36 27.72,40.44 25.96,42.43 C23.5149981,44.9566365 21.462226,47.8352364 19.87,50.97 C18.43,54.17 17.97,57.97 19.46,61.17 C19.9668507,61.9922475 20.3066604,62.9063357 20.46,63.86 C20.56,65.94 18.38,67.26 16.78,68.59 C10.78,73.59 11.03,82.59 10.98,90.42 C10.8820607,106.372233 7.33783039,122.114893 0.59,136.57 C2.96918575,137.799562 5.65694879,138.303735 8.32,138.02 C6.61807977,137.856624 4.96410745,137.364168 3.45,136.57 L3.45,136.57 Z" id="Path"></path>
                <path d="M15.64,144.79 C17.1783018,141.482533 18.3680495,138.023886 19.19,134.47 C18.1631633,135.409121 16.9957118,136.181799 15.73,136.76 C14.9497735,139.503995 13.9464289,142.179581 12.73,144.76 C14.1927023,145.455729 15.839424,145.665949 17.43,145.36 C16.8117247,145.246081 16.2103035,145.054567 15.64,144.79 L15.64,144.79 Z" id="Path"></path>
                <path d="M59.27,11.67 C60.7573907,11.0910259 62.3198191,10.7273572 63.91,10.59 L63.36,10.59 C61.9824005,10.5188997 60.6013488,10.6230666 59.25,10.9 C59.26,11.12 59.27,11.39 59.27,11.67 Z" id="Path"></path>
                <path d="M75.84,36.47 C73.2907839,35.3953764 70.827009,34.1283877 68.47,32.68 C67.8069415,32.2557095 67.0712972,31.9573837 66.3,31.8 C65.5439249,31.7318674 64.7818856,31.7790734 64.04,31.94 C64.581912,32.1375431 65.1041817,32.3852864 65.6,32.68 C67.9604539,34.1284344 70.4275557,35.3954149 72.98,36.47 C76.9546548,37.7810309 81.1424219,38.3240153 85.32,38.07 C82.0928942,38.0689555 78.8886894,37.5281615 75.84,36.47 Z" id="Path"></path>
                <path d="M56.9,31.28 C56.9,31.5 56.81,31.72 56.76,31.94 C57.9583029,32.1182388 59.1736847,32.1518128 60.38,32.04 C59.1953285,31.9169821 58.028097,31.6620695 56.9,31.28 Z" id="Path"></path>
            </g>
            <path d="M121.24,416.16 C121.521542,418.767294 120.644099,421.366719 118.84,423.27 C117.826333,424.247743 116.686182,425.085199 115.45,425.76 C114.257315,426.577329 112.885269,427.095277 111.45,427.27 C109.515416,427.207394 107.677386,426.409961 106.31,425.04 C102.07,421.32 99.95,415.81 97.99,410.52 C95.4,403.52 92.82,396.45 91.71,389.06 C90.52,381.14 91.03,372.94 88.76,365.25 C90.76,361.25 92.06,356.79 94.35,352.91 C95.8032468,350.597864 97.0898402,348.185084 98.2,345.69 C100.326465,340.378107 100.566488,334.497524 98.88,329.03 C99.7028801,328.493668 100.777966,328.550251 101.54,329.17 C102.266853,329.794336 102.818331,330.597426 103.14,331.5 C104.460488,334.584966 105.009651,337.945154 104.74,341.29 C104.568851,342.094887 104.663599,342.933581 105.01,343.68 C105.639215,344.457019 106.614179,344.869504 107.61,344.78 C109.648892,344.679148 111.665914,344.312723 113.61,343.69 C119.651045,342.148589 125.907854,341.631414 132.12,342.16 C133.371725,342.19697 134.601679,342.496793 135.73,343.04 C136.867641,343.60757 137.587504,344.76864 137.59,346.04 L122.79,348.21 C121.675895,348.272235 120.600204,348.638869 119.68,349.27 C118.758503,349.965235 118.570913,351.273896 119.26,352.2 C119.572697,352.455621 119.907326,352.683169 120.26,352.88 C121.029816,353.462804 121.47207,354.380506 121.448286,355.345759 C121.424501,356.311011 120.937586,357.205817 120.14,357.75 C119.767603,357.921854 119.428939,358.158919 119.14,358.45 C118.54,359.26 119.34,360.33 119.6,361.31 C119.829663,362.790168 119.121411,364.258398 117.82,365 C116.536433,365.704076 115.138073,366.17471 113.69,366.39 C110.783909,367.0598 107.952882,368.021345 105.24,369.26 C104.356785,369.575058 103.589756,370.15033 103.04,370.91 C102.31,372.15 102.79,373.71 103.29,375.06 L107.15,385.44 C107.75,387.07 108.36,388.7 109.15,390.27 C110.15,392.27 111.34,394.21 112.35,396.27 C113.36,398.33 114.02,400.12 114.76,402.08 C116.69,407.37 120.58,410.57 121.24,416.16 Z" id="Path" fill="#EE8E9E" fill-rule="nonzero"></path>
            <rect id="Rectangle" fill="url(#linearGradient-1)" fill-rule="nonzero" x="254.79" y="348.82" width="46.13" height="44.66"></rect>
            <rect id="Rectangle" fill="#7CFCFF" fill-rule="nonzero" x="255.59" y="349.59" width="44.54" height="43.12"></rect>
            <path d="M292.41,346.19 C291.587091,346.801937 290.992261,347.671304 290.72,348.66 C290.590707,349.078456 290.748761,349.532354 291.11,349.78 C291.331189,349.850472 291.568811,349.850472 291.79,349.78 C292.897201,349.583904 293.932476,349.097324 294.79,348.37 C294.449868,348.550648 294.147701,348.795098 293.9,349.09 C293.65083,349.394965 293.603851,349.817777 293.78,350.17 C294.028378,350.47108 294.390446,350.655735 294.78,350.68 C296.206685,350.939203 297.673619,350.870815 299.07,350.48 C298.419422,350.72236 297.816815,351.077831 297.29,351.53 C296.759922,351.996699 296.463398,352.673945 296.48,353.38 C296.482149,353.64539 296.598802,353.896923 296.8,354.07 C296.945286,354.161823 297.109307,354.219914 297.28,354.24 C298.603204,354.472433 299.956796,354.472433 301.28,354.24 C301.973121,354.212371 302.605255,353.836101 302.96,353.24 C303.097115,352.570398 302.956356,351.873822 302.57,351.31 C301.860599,349.783598 301.51814,348.112398 301.57,346.43 C301.613391,346.090146 301.565053,345.744872 301.43,345.43 C301.209567,345.124636 300.89796,344.897057 300.54,344.78 C299.13,344.16 297.21,343.3 295.64,343.78 C294.415282,344.363037 293.31765,345.182014 292.41,346.19 Z" id="Path" fill="#EE8E9E" fill-rule="nonzero"></path>
        </g>
    </g>
</svg>