<?xml version="1.0" encoding="UTF-8"?>
<svg width="949px" height="758px" viewBox="0 0 949 758" version="1.1" xmlns="http://www.w3.org/2000/svg" xmlns:xlink="http://www.w3.org/1999/xlink">
    <!-- Generator: Sketch 61 (89581) - https://sketch.com -->
    <title>Coursework</title>
    <desc>Created with Sketch.</desc>
    <g id="Page-1" stroke="none" stroke-width="1" fill="none" fill-rule="evenodd">
        <g id="Coursework" fill-rule="nonzero">
            <rect id="Rectangle" fill="#C9177A" opacity="0.1" x="193.87" y="130" width="86" height="26" rx="7.43"></rect>
            <rect id="Rectangle" fill="#C9177A" opacity="0.1" x="283.87" y="156" width="86" height="26" rx="7.43"></rect>
            <rect id="Rectangle" fill="#C9177A" opacity="0.1" x="373.87" y="182" width="86" height="26" rx="7.43"></rect>
            <rect id="Rectangle" fill="#C9177A" opacity="0.1" x="193.87" y="91" width="86" height="26" rx="7.43"></rect>
            <rect id="Rectangle" fill="#C9177A" opacity="0.1" x="283.87" y="117" width="86" height="26" rx="7.43"></rect>
            <rect id="Rectangle" fill="#C9177A" opacity="0.1" x="373.87" y="143" width="86" height="26" rx="7.43"></rect>
            <rect id="Rectangle" fill="#C9177A" opacity="0.1" x="473.87" y="130" width="86" height="26" rx="7.43"></rect>
            <rect id="Rectangle" fill="#C9177A" opacity="0.1" x="563.87" y="156" width="86" height="26" rx="7.43"></rect>
            <rect id="Rectangle" fill="#C9177A" opacity="0.1" x="653.87" y="182" width="86" height="26" rx="7.43"></rect>
            <rect id="Rectangle" fill="#C9177A" opacity="0.1" x="473.87" y="91" width="86" height="26" rx="7.43"></rect>
            <rect id="Rectangle" fill="#C9177A" opacity="0.1" x="563.87" y="117" width="86" height="26" rx="7.43"></rect>
            <rect id="Rectangle" fill="#C9177A" opacity="0.1" x="653.87" y="143" width="86" height="26" rx="7.43"></rect>
            <rect id="Rectangle" fill="#C9177A" opacity="0.1" x="193.87" y="39" width="86" height="26" rx="7.43"></rect>
            <rect id="Rectangle" fill="#C9177A" opacity="0.1" x="283.87" y="65" width="86" height="26" rx="7.43"></rect>
            <rect id="Rectangle" fill="#C9177A" opacity="0.1" x="373.87" y="91" width="86" height="26" rx="7.43"></rect>
            <rect id="Rectangle" fill="#C9177A" opacity="0.1" x="193.87" y="0" width="86" height="26" rx="7.43"></rect>
            <rect id="Rectangle" fill="#C9177A" opacity="0.1" x="283.87" y="26" width="86" height="26" rx="7.43"></rect>
            <rect id="Rectangle" fill="#C9177A" opacity="0.1" x="373.87" y="52" width="86" height="26" rx="7.43"></rect>
            <rect id="Rectangle" fill="#C9177A" opacity="0.1" x="473.87" y="39" width="86" height="26" rx="7.43"></rect>
            <rect id="Rectangle" fill="#C9177A" opacity="0.1" x="563.87" y="65" width="86" height="26" rx="7.43"></rect>
            <rect id="Rectangle" fill="#C9177A" opacity="0.1" x="653.87" y="91" width="86" height="26" rx="7.43"></rect>
            <rect id="Rectangle" fill="#C9177A" opacity="0.1" x="473.87" y="0" width="86" height="26" rx="7.43"></rect>
            <rect id="Rectangle" fill="#C9177A" opacity="0.1" x="563.87" y="26" width="86" height="26" rx="7.43"></rect>
            <rect id="Rectangle" fill="#C9177A" opacity="0.1" x="653.87" y="52" width="86" height="26" rx="7.43"></rect>
            <rect id="Rectangle" fill="#C9177A" opacity="0.1" x="193.87" y="593" width="86" height="26" rx="7.43"></rect>
            <rect id="Rectangle" fill="#C9177A" opacity="0.1" x="283.87" y="619" width="86" height="26" rx="7.43"></rect>
            <rect id="Rectangle" fill="#C9177A" opacity="0.1" x="373.87" y="645" width="86" height="26" rx="7.43"></rect>
            <rect id="Rectangle" fill="#C9177A" opacity="0.1" x="193.87" y="554" width="86" height="26" rx="7.43"></rect>
            <rect id="Rectangle" fill="#C9177A" opacity="0.1" x="283.87" y="580" width="86" height="26" rx="7.43"></rect>
            <rect id="Rectangle" fill="#C9177A" opacity="0.1" x="373.87" y="606" width="86" height="26" rx="7.43"></rect>
            <rect id="Rectangle" fill="#C9177A" opacity="0.1" x="473.87" y="593" width="86" height="26" rx="7.43"></rect>
            <rect id="Rectangle" fill="#C9177A" opacity="0.1" x="563.87" y="619" width="86" height="26" rx="7.43"></rect>
            <rect id="Rectangle" fill="#C9177A" opacity="0.1" x="653.87" y="645" width="86" height="26" rx="7.43"></rect>
            <rect id="Rectangle" fill="#C9177A" opacity="0.1" x="473.87" y="554" width="86" height="26" rx="7.43"></rect>
            <rect id="Rectangle" fill="#C9177A" opacity="0.1" x="563.87" y="580" width="86" height="26" rx="7.43"></rect>
            <rect id="Rectangle" fill="#C9177A" opacity="0.1" x="653.87" y="606" width="86" height="26" rx="7.43"></rect>
            <rect id="Rectangle" fill="#C9177A" opacity="0.1" x="193.87" y="502" width="86" height="26" rx="7.43"></rect>
            <rect id="Rectangle" fill="#C9177A" opacity="0.1" x="283.87" y="528" width="86" height="26" rx="7.43"></rect>
            <rect id="Rectangle" fill="#C9177A" opacity="0.1" x="373.87" y="554" width="86" height="26" rx="7.43"></rect>
            <rect id="Rectangle" fill="#C9177A" opacity="0.1" x="193.87" y="463" width="86" height="26" rx="7.43"></rect>
            <rect id="Rectangle" fill="#C9177A" opacity="0.1" x="283.87" y="489" width="86" height="26" rx="7.43"></rect>
            <rect id="Rectangle" fill="#C9177A" opacity="0.1" x="373.87" y="515" width="86" height="26" rx="7.43"></rect>
            <rect id="Rectangle" fill="#C9177A" opacity="0.1" x="473.87" y="502" width="86" height="26" rx="7.43"></rect>
            <rect id="Rectangle" fill="#C9177A" opacity="0.1" x="563.87" y="528" width="86" height="26" rx="7.43"></rect>
            <rect id="Rectangle" fill="#C9177A" opacity="0.1" x="653.87" y="554" width="86" height="26" rx="7.43"></rect>
            <rect id="Rectangle" fill="#C9177A" opacity="0.1" x="473.87" y="463" width="86" height="26" rx="7.43"></rect>
            <rect id="Rectangle" fill="#C9177A" opacity="0.1" x="563.87" y="489" width="86" height="26" rx="7.43"></rect>
            <rect id="Rectangle" fill="#C9177A" opacity="0.1" x="653.87" y="515" width="86" height="26" rx="7.43"></rect>
            <ellipse id="Oval" fill="#C9177A" opacity="0.1" cx="482.37" cy="722" rx="438.5" ry="36"></ellipse>
            <path d="M84.65,186.8 C126,204.72 149.76,241.8 149.76,241.8 C149.76,241.8 106.47,249.8 65.11,231.89 C23.75,213.98 -1.42108547e-14,176.89 -1.42108547e-14,176.89 C-1.42108547e-14,176.89 43.29,168.88 84.65,186.8 Z" id="Path" fill="#C9177A"></path>
            <path d="M211.55,118 C224.34,97 246.12,87 246.12,87 C246.12,87 247.12,110.94 234.37,131.88 C221.62,152.82 199.79,162.81 199.79,162.81 C199.79,162.81 198.75,138.88 211.55,118 Z" id="Path" fill="#C9177A"></path>
            <path d="M117.53,140.47 C126.68,173.13 151.9,194.63 151.9,194.63 C151.9,194.63 162.29,163.16 153.14,130.49 C143.99,97.82 118.76,76.33 118.76,76.33 C118.76,76.33 108.37,107.8 117.53,140.47 Z" id="Path" fill="#46455B"></path>
            <rect id="Rectangle" fill="#3F3D56" x="118.87" y="139" width="729" height="365" rx="7.21"></rect>
            <path d="M118.87,482 L847.87,482 L847.87,496.79 C847.87,500.771973 844.641973,504 840.66,504 L126.08,504 C122.098027,504 118.87,500.771973 118.87,496.79 L118.87,482 Z" id="Path" fill="#000000" opacity="0.1"></path>
            <rect id="Rectangle" fill="#C9177A" x="189.87" y="455" width="54" height="27" rx="2.5"></rect>
            <rect id="Rectangle" fill="#C9177A" x="258.87" y="478" width="37" height="4" rx="2"></rect>
            <path d="M226.02,210.38 C252.41,215.25 279.33,210.38 305.61,207.08 L385.48,197.08 C388.71,196.67 393.41,194.74 395.31,198.69 C396.38,200.9 395.66,205.69 395.74,208.23 C395.95,215.23 395.93,222.23 395.74,229.23 C395.38,242.61 394.4,255.96 393.15,269.28 C390.72,295.35 387.28,321.28 385.56,347.45 C384.68,360.77 384.24,374.13 384.63,387.45 C384.72,390.63 384.85,393.81 385.04,396.98 C385.25,400.53 386.84,405.8 382.97,408.17 C380.76,409.53 376.41,409.46 373.88,409.86 C369.88,410.49 365.88,410.99 361.8,411.4 C334.91,414.09 307.67,412.97 280.68,412.81 L199.18,412.39 L179.3,412.28 C177.5,412.28 171.01,413.36 169.9,411.22 C169.43,410.31 170.68,406.05 170.9,404.91 C171.206667,403.03 171.54,401.153333 171.9,399.28 C174.22,386.13 176.96,373.06 179.72,360 C185.65,332 191.72,303.86 194.16,275.26 C195.37,260.91 194.57,246.43 196.05,232.11 C196.74,225.46 197.56,210.62 206.41,210.03 C213.91,209.53 221.63,210.03 229.15,210.03 C229.978427,210.03 230.65,209.358427 230.65,208.53 C230.65,207.701573 229.978427,207.03 229.15,207.03 C222.05,207.03 214.94,206.84 207.84,206.98 C203.12,207.07 199.84,208.19 197.59,212.53 C191.84,223.67 192.43,238.53 192.25,250.69 C191.82,279.8 187.35,308.29 181.53,336.76 C178.6,351.09 175.44,365.37 172.53,379.71 C171.16,386.56 169.85,393.43 168.65,400.32 C168.09,403.6 165.26,410.83 167.75,413.84 C170.24,416.85 177.9,415.23 181.33,415.25 L205.19,415.39 L250.91,415.65 C280.45,415.82 310.09,416.65 339.62,415.78 C353.72,415.36 368.62,414.78 382.35,411.41 C386.44,410.41 388.41,408.53 388.57,404.17 C388.81,397.41 387.71,390.44 387.57,383.65 C386.57,325.55 400.22,268.26 398.82,210.14 C398.73,206.19 400.22,196.23 395.9,193.84 C393.96,192.76 391.44,193.35 389.4,193.59 C385.5,194.04 381.61,194.59 377.71,195.05 L327.06,201.37 C310.87,203.37 294.69,205.53 278.47,207.37 C261.3,209.37 243.96,210.56 226.85,207.37 C224.96,207.02 224.15,209.91 226.05,210.26 L226.02,210.38 Z" id="Path" fill="#C9177A"></path>
            <path d="M194.18,245.73 L394,235.93 C395.93,235.83 395.94,232.83 394,232.93 L194.18,242.73 C192.26,242.82 192.25,245.82 194.18,245.73 Z" id="Path" fill="#C9177A"></path>
            <path d="M255.74,221 C254.605422,222.202396 254.138521,223.887879 254.492697,225.50268 C254.846872,227.117481 255.976336,228.452831 257.51,229.07 C260.2,230.3 263.36,229.27 266.03,228.6 C270.03,227.6 274.03,226.71 278.14,225.98 C287.085322,224.396359 296.14606,223.553499 305.23,223.46 C309.37,223.41 313.48,223.6 317.62,223.78 C320.62,223.9 323.85,224.14 326.39,222.28 C329.29,220.16 330.23,216.02 327.39,213.44 C323.39,209.79 314.77,211.91 310.15,212.29 C293.385841,213.68265 276.730444,216.167932 260.29,219.73 C258.41,220.13 259.2,223.03 261.09,222.62 C271.936667,220.28 282.866667,218.4 293.88,216.98 C299.293333,216.313333 304.716667,215.75 310.15,215.29 C312.71,215.08 315.27,214.89 317.83,214.74 C318.83,214.68 319.89,214.57 320.91,214.6 C324.08,214.67 324.45,214.1 322.55,217.93 C320.86,221.32 321.4,220.93 318.47,220.82 C317.23,220.82 315.99,220.68 314.75,220.62 C312.21,220.513333 309.67,220.456667 307.13,220.45 C301.723333,220.45 296.33,220.71 290.95,221.23 C286.39,221.67 281.84,222.29 277.33,223.09 C274.51,223.59 271.71,224.17 268.92,224.81 C267.69,225.1 266.45,225.4 265.22,225.71 C264.63,225.87 264.03,226.01 263.44,226.16 C261.253333,226.92 259.39,225.92 257.85,223.16 C259.19,221.77 257.08,219.64 255.73,221.04 L255.74,221 Z" id="Path" fill="#C9177A"></path>
            <path d="M291.96,263.68 C277.49,263.12 261.86,267.03 252.33,278.68 C244.87,287.79 240.62,303.42 248.52,313.68 C257.01,324.68 275.63,322.74 286.86,318.05 C298.74,313.05 311.74,302.74 315.31,289.84 C319.76,273.73 305.31,261.55 290.26,261.37 C288.33,261.37 288.33,264.37 290.26,264.37 C298.84,264.47 307.26,268.15 311.26,276.14 C315.45,284.56 311.84,293.4 306.26,300.14 C297.32,310.87 283.34,318.96 269.1,318.73 C260.55,318.6 251.1,315.67 248.45,306.65 C246.27,299.34 247.93,291.35 251.73,284.87 C259.95,270.87 276.68,266.13 292.02,266.73 C293.95,266.8 293.95,263.8 292.02,263.73 L291.96,263.68 Z" id="Path" fill="#C9177A"></path>
            <path d="M277.59,285.9 C276.336038,285.435341 274.931441,285.645564 273.868468,286.456993 C272.805495,287.268423 272.232389,288.567897 272.35,289.9 C272.65,293.8 276.95,294.9 280.18,294.67 C282.97,294.43 286.23,293.4 285.25,289.91 C284.885123,288.660079 283.994496,287.630747 282.81,287.09 C281.915168,286.734994 280.944467,286.614517 279.99,286.74 C279.62,286.74 276.23,287.98 277.67,286.49 L275.31,286.18 C275.840507,286.703221 276.105278,287.438696 276.03,288.18 C276.039198,288.711696 276.327393,289.199357 276.788724,289.463853 C277.250055,289.72835 277.816504,289.730685 278.28,289.47 C278.979818,289.177064 279.785131,289.305304 280.359346,289.801121 C280.933561,290.296937 281.177808,291.074959 280.99,291.81 C280.823707,292.525152 281.195939,293.256267 281.872074,293.542514 C282.548209,293.828761 283.332248,293.587162 283.73,292.97 C284.73,291.17 285.94,287.59 284.44,285.71 C283.44,284.44 281.51,284.82 280.31,285.56 C279.569359,286.08411 278.879655,286.67672 278.25,287.33 C277.04,288.4 276.25,288.9 276.7,286.85 C277.45,283.12 281.01,280.15 284.26,278.66 L282.06,276.97 C280.906605,281.304383 278.844289,285.343795 276.01,288.82 L278.57,289.88 C278.421202,287.066765 280.053324,284.46257 282.65,283.37 L281.18,283.37 L281.96,284.65 C281.67,286.54 284.56,287.35 284.85,285.44 C285.23,282.97 283.67,279.76 280.78,280.97 C277.33,282.41 275.54,286.36 275.61,289.88 C275.61,291.08 277.31,292.01 278.18,290.95 C281.360253,287.086389 283.68169,282.590096 284.99,277.76 C285.132045,277.174442 284.914797,276.560259 284.436165,276.194246 C283.957533,275.828233 283.307884,275.779496 282.78,276.07 C279.784366,277.424094 277.25279,279.628792 275.5,282.41 C274.28,284.41 272.75,287.53 273.99,289.83 C274.400537,290.573288 275.09129,291.121516 275.908381,291.352555 C276.725472,291.583595 277.601027,291.478254 278.34,291.06 C279.264564,290.511794 280.109175,289.838798 280.85,289.06 C281.22,288.73 281.63,288.16 282.12,288.06 C282.56,287.76 282.54,287.93 282.05,288.59 C282.043504,289.626251 281.741709,290.639172 281.18,291.51 L283.92,292.66 C284.424347,290.752537 283.759823,288.726843 282.223595,287.488786 C280.687367,286.250729 278.566726,286.031838 276.81,286.93 L279.07,288.23 C279.117304,286.957453 278.717502,285.708516 277.94,284.7 C277.700962,284.306078 277.29614,284.041851 276.839322,283.98159 C276.382505,283.921329 275.923012,284.07154 275.59,284.39 C274.07,285.98 273.78,288.73 275.69,290.2 C277.12,291.29 277.82,290.2 279.39,289.95 C284.72,289.26 281.61,291.66 279.73,291.74 C278.889294,291.830146 278.03924,291.769186 277.22,291.56 C275.133333,290.853333 275.003333,289.943333 276.83,288.83 C278.62,289.56 279.39,286.66 277.63,285.94 L277.59,285.9 Z" id="Path" fill="#C9177A"></path>
            <path d="M275.18,291.38 C276.41,295.38 271.33,296.7 268.92,298.08 C267.228787,299.02844 265.754037,300.319272 264.59,301.87 C262.07,305.25 261.13,309.55 260.3,313.6 C259.92,315.49 262.81,316.29 263.2,314.4 C263.657487,311.423998 264.508261,308.521951 265.73,305.77 C267.53,302.19 270.11,300.99 273.47,299.15 C276.83,297.31 279.26,294.46 278.07,290.58 C277.51,288.74 274.61,289.53 275.18,291.38 L275.18,291.38 Z" id="Path" fill="#C9177A"></path>
            <path d="M280.18,289.37 C278.697349,289.575006 277.614282,290.874687 277.68,292.37 C277.68,293.56 278.47,294.32 279.01,295.27 C280.291822,297.213678 281.26973,299.341472 281.91,301.58 C282.39,303.73 282.86,307.58 281.74,309.58 C279.67,313.29 275.93,312.58 272.74,312.58 C269.74,312.58 267.42,313.58 267.52,309.4 C267.58,307.05 269.22,304.67 270.52,302.82 L267.78,302.46 C268.358006,305.513477 268.662546,308.612419 268.69,311.72 C268.69,313.11 270.82,313.88 271.48,312.47 C273.087669,309.088064 274.363639,305.558215 275.29,301.93 L272.34,301.53 L272.86,309.13 C272.877738,309.795966 273.329818,310.371614 273.972599,310.546708 C274.61538,310.721803 275.296954,310.454964 275.65,309.89 C276.000243,309.503486 276.256862,309.041572 276.4,308.54 C276.5,308.07 275.58,304.9 275.21,306.03 L278.15,306.43 L278.36,299.21 L275.36,299.61 C275.994138,301.645969 276.185083,303.7941 275.92,305.91 C275.73,307.58 278.54,307.96 278.92,306.31 L280.8,296.61 L278.06,296.96 C278.711004,298.301664 278.89068,299.823623 278.57,301.28 C278.35,303.2 281.35,303.18 281.57,301.28 C281.824804,299.288708 281.505622,297.266062 280.65,295.45 C280.33938,294.93847 279.755976,294.658652 279.16262,294.736612 C278.569265,294.814571 278.077942,295.235593 277.91,295.81 L276.02,305.51 L278.97,305.91 C279.270002,303.52614 279.04125,301.105462 278.3,298.82 C278.092953,298.10835 277.397188,297.654598 276.662467,297.752061 C275.927746,297.849524 275.374346,298.468982 275.36,299.21 L275.15,306.43 C275.15,308.18 277.58,308.43 278.1,306.83 L278.26,306.34 C278.400829,305.820379 278.256286,305.265029 277.88,304.88 C274.77,301.5 274.14,306.88 273.06,308.37 L275.86,309.13 L275.34,301.53 C275.23,299.91 272.83,299.41 272.39,301.13 C271.544837,304.512405 270.37265,307.804574 268.89,310.96 L271.69,311.72 C271.657732,308.343534 271.323061,304.976745 270.69,301.66 C270.43,300.28 268.62,300.34 267.95,301.3 C265.95,304.18 262.49,310.47 265.16,313.92 C267.49,316.92 274.82,315.76 277.95,315.57 C282.89,315.29 284.68,312.16 285.22,307.5 C285.47725,305.268489 285.352124,303.00945 284.85,300.82 C284.58,299.64 281.85,292.16 281.03,292.31 C282.93,291.96 282.12,289.06 280.23,289.41 L280.18,289.37 Z" id="Path" fill="#C9177A"></path>
            <path d="M274.37,296.11 L266.18,306.92 L268.77,308.43 L274.77,299.75 L272.03,298.59 L269.04,310 C268.873707,310.715152 269.245939,311.446267 269.922074,311.732514 C270.598209,312.018761 271.382248,311.777162 271.78,311.16 C273.140584,308.905524 274.668194,306.756173 276.35,304.73 L273.85,303.27 C273.178591,305.853396 271.884152,308.232829 270.08,310.2 L272.59,311.66 C272.743623,310.278194 273.111356,308.928713 273.68,307.66 C274.45,305.93 272.01,304.4 271.09,306.14 C270.243902,307.724847 269.277747,309.242613 268.2,310.68 L270.94,311.04 L271.55,308.19 L268.81,307.83 L269.25,310.33 C269.396931,310.841709 269.802472,311.23823 270.317355,311.373618 C270.832239,311.509006 271.38037,311.363251 271.76,310.99 C274.296292,308.365382 276.329908,305.29801 277.76,301.94 L275.18,301.94 C275.858278,303.19051 276.334176,304.540575 276.59,305.94 C276.95,307.74 279.34,307.07 279.53,305.54 C279.959533,302.190306 280.17996,298.817106 280.19,295.44 L277.19,295.44 L277.19,301.73 C277.19,303.36 279.86,303.84 280.14,302.13 C280.338053,300.612911 280.837878,299.150837 281.61,297.83 L278.98,297.83 C279.613834,298.852421 279.959365,300.027226 279.98,301.23 C279.98,302.058427 280.651573,302.73 281.48,302.73 C282.308427,302.73 282.98,302.058427 282.98,301.23 L283.36,299.23 L280.47,299.23 C280.76,301 281.86,310.97 277.95,309.8 C277.29,309.64 277.1,309.68 277.38,309.91 L278.27,308.01 L280.36,303.58 L277.56,302.82 C277.74,304.88 277.93,307.82 276.69,309.58 C275.69,311.01 272.61,311.58 271.04,310.74 C270.003545,310.001101 269.117687,309.07112 268.43,308 L266.38,310 C268.04,311.21 270.73,314.18 272.87,314.35 C274.5,314.48 275.87,313.13 276.94,312.05 C280.256742,308.622511 282.024051,303.985585 281.83,299.22 C281.83,298.391573 281.158427,297.72 280.33,297.72 C279.501573,297.72 278.83,298.391573 278.83,299.22 L278.83,302.64 C278.83,303.468427 279.501573,304.14 280.33,304.14 C281.158427,304.14 281.83,303.468427 281.83,302.64 L281.83,294.25 C281.83,293.421573 281.158427,292.75 280.33,292.75 C279.501573,292.75 278.83,293.421573 278.83,294.25 C278.824556,296.261013 278.650614,298.268035 278.31,300.25 L281.26,300.65 C281.025115,298.260697 280.914966,295.860773 280.93,293.46 C280.920312,292.717214 280.368414,292.093401 279.632346,291.993256 C278.896278,291.89311 278.197781,292.346801 277.99,293.06 C277.54,294.97 276.99,296.85 276.46,298.72 L279.2,298.36 L278.99,297.56 C278.85,295.65 275.85,295.64 275.99,297.56 C276.022928,298.369611 276.234659,299.161896 276.61,299.88 C277.19,301.1 279,300.67 279.35,299.52 C279.92,297.64 280.43,295.76 280.88,293.86 L277.93,293.46 C277.914966,295.860773 278.025115,298.260697 278.26,300.65 C278.41,302.19 280.89,302.85 281.2,301.05 C281.59943,298.791431 281.810157,296.503531 281.83,294.21 L278.83,294.21 L278.83,302.6 L281.83,302.6 L281.83,299.18 L278.83,299.18 C279.006421,302.952421 277.695872,306.643501 275.18,309.46 C274.790311,309.903044 274.369221,310.317449 273.92,310.7 C273.21,311.38 272.56,311.28 271.99,310.39 C270.57,309.8 269.1,308.28 267.86,307.39 C266.62,306.5 264.92,308.26 265.8,309.44 C268.1,312.5 271.53,315.91 275.8,314.44 C280.29,312.85 280.9,306.77 280.56,302.77 C280.45,301.44 278.46,300.54 277.77,302.02 C276.77,304.13 275.77,306.23 274.77,308.35 C274.42,309.09 273.77,310.11 273.87,310.99 C274.2,313.24 276.93,312.87 278.61,312.74 C285.12,312.25 284.09,303.02 283.34,298.38 C283.09,296.84 280.85,297.08 280.45,298.38 C280.132238,299.293444 279.966701,300.252887 279.96,301.22 L282.96,301.22 C282.851294,299.500506 282.370192,297.825177 281.55,296.31 C281.27715,295.855004 280.785536,295.576579 280.255,295.576579 C279.724464,295.576579 279.23285,295.855004 278.96,296.31 C278.06576,297.853728 277.462433,299.548468 277.18,301.31 L280.18,301.71 L280.18,295.42 C280.18,294.591573 279.508427,293.92 278.68,293.92 C277.851573,293.92 277.18,294.591573 277.18,295.42 C277.16996,298.797106 276.949533,302.170306 276.52,305.52 L279.47,305.12 C279.130587,303.485153 278.554523,301.908557 277.76,300.44 C277.48715,299.985004 276.995536,299.706579 276.465,299.706579 C275.934464,299.706579 275.44285,299.985004 275.17,300.44 C273.865871,303.571851 271.990654,306.433846 269.64,308.88 L272.15,309.54 L271.71,307.04 C271.48,305.71 269.6,305.67 268.97,306.68 C267.965402,308.199851 267.635908,310.06819 268.06,311.84 C268.31,313.26 270.11,313.11 270.8,312.2 C271.877669,310.766064 272.843832,309.251627 273.69,307.67 L271.1,306.15 C270.408496,307.644217 269.936939,309.230668 269.7,310.86 C269.52,312.18 271.09,313.56 272.21,312.32 C274.359773,309.967674 275.916328,307.135703 276.75,304.06 C277.12,302.7 275.24,301.41 274.24,302.6 C272.400261,304.804731 270.728884,307.144659 269.24,309.6 L271.98,310.76 L275.03,299.39 C275.196293,298.674848 274.824061,297.943733 274.147926,297.657486 C273.471791,297.371239 272.687752,297.612838 272.29,298.23 L266.29,306.92 C265.17,308.53 267.74,309.92 268.88,308.43 L277.04,297.63 C278.2,296.09 275.6,294.63 274.45,296.11 L274.37,296.11 Z" id="Path" fill="#C9177A"></path>
            <path d="M401.95,332.2 C413.95,324.86 423.49,313.91 434.09,304.75 C445.59,294.82 457.66,285.57 470.09,276.81 C494.23,259.81 519.58,244.6 544.91,229.43 C545.592238,228.998411 545.810531,228.104278 545.403928,227.406861 C544.997325,226.709443 544.111683,226.458917 543.4,226.84 C518.07,242.01 492.71,257.19 468.57,274.22 C457.18,282.22 446.06,290.7 435.4,299.7 C423.8,309.5 413.47,321.7 400.4,329.61 C398.75,330.61 400.26,333.21 401.91,332.2 L401.95,332.2 Z" id="Path" fill="#C9177A"></path>
            <path d="M583.64,182.85 C570.64,184.17 556.64,187.48 548.64,198.85 C541.73,208.63 541.88,225.69 548.37,235.73 C555.74,247.14 570.8,247.55 582.5,243.86 C594.2,240.17 606.31,233.7 606.2,219.72 C606.14,212.22 603.43,204.41 600.44,197.61 C597.86,191.74 593.29,186.61 586.37,187.26 C584.46,187.44 584.44,190.44 586.37,190.26 C595.64,189.4 598.62,200.41 600.82,207.36 C602.82,213.85 604.67,221.53 601.53,227.98 C598.39,234.43 590.82,237.72 584.35,240.08 C577.35,242.62 569.66,244.17 562.35,242.08 C547.87,238.03 543.87,219.68 548.04,206.66 C552.84,191.66 569.84,187.25 583.69,185.85 C585.59,185.66 585.61,182.66 583.69,182.85 L583.64,182.85 Z" id="Path" fill="#C9177A"></path>
            <path d="M603.64,298.85 C590.64,300.17 576.64,303.48 568.64,314.85 C561.73,324.63 561.88,341.69 568.37,351.73 C575.74,363.14 590.8,363.55 602.5,359.86 C614.2,356.17 626.31,349.7 626.2,335.72 C626.14,328.22 623.43,320.41 620.44,313.61 C617.86,307.74 613.29,302.61 606.37,303.26 C604.46,303.44 604.44,306.44 606.37,306.26 C615.64,305.4 618.62,316.41 620.82,323.36 C622.82,329.85 624.67,337.53 621.53,343.98 C618.39,350.43 610.82,353.72 604.35,356.08 C597.35,358.62 589.66,360.17 582.35,358.08 C567.87,354.03 563.87,335.68 568.04,322.66 C572.84,307.66 589.84,303.25 603.69,301.85 C605.59,301.66 605.61,298.66 603.69,298.85 L603.64,298.85 Z" id="Path" fill="#C9177A"></path>
            <path d="M564.03,212.06 L573.5,222.86 C573.88131,223.227992 574.427617,223.36917 574.939474,223.231992 C575.451331,223.094814 575.85382,222.69936 576,222.19 C578,216.93 577.62,211.48 578.09,205.95 C578.608237,200.234377 580.043264,194.63946 582.34,189.38 C586.953674,178.712332 594.776091,169.746961 604.72,163.73 C606.37,162.73 604.86,160.13 603.21,161.14 C593.405097,167.044138 585.539361,175.684977 580.58,186 C578.152309,191.019443 576.467993,196.36546 575.58,201.87 C574.58,208.36 575.49,215.16 573.09,221.39 L575.6,220.72 L566.18,209.94 C564.9,208.49 562.79,210.62 564.06,212.06 L564.03,212.06 Z" id="Path" fill="#C9177A"></path>
            <path d="M406.78,343.89 C458.36,342.316667 509.953333,341.983333 561.56,342.89 C563.49,342.89 563.49,339.89 561.56,339.89 C509.966667,338.97 458.373333,339.303333 406.78,340.89 C404.85,340.95 404.84,343.95 406.78,343.89 Z" id="Path" fill="#C9177A"></path>
            <path d="M572.34,314.31 C589.972554,321.230386 606.933534,329.752717 623.01,339.77 C624.65,340.77 626.16,338.2 624.52,337.18 C608.231761,327.039022 591.046187,318.416108 573.18,311.42 C571.39,310.71 570.61,313.61 572.39,314.31 L572.34,314.31 Z" id="Path" fill="#C9177A"></path>
            <path d="M604.36,300.72 C586.479562,321.564358 576.121936,347.812364 574.95,375.25 C574.87,377.18 577.87,377.18 577.95,375.25 C579.085972,348.600119 589.132258,323.102341 606.48,302.84 C607.73,301.38 605.62,299.25 604.36,300.72 Z" id="Path" fill="#C9177A"></path>
            <path d="M204.41,333 L316.18,331.54 L329.03,331.37 C331.34,331.37 333.65,331.29 335.96,331.28 C339.21,331.28 341.4,333.98 341.34,337.28 C341.19,344.28 336.79,344.03 331.03,344.28 L317.14,344.91 L260.58,347.4 C250.45,347.85 240.31,348.4 230.18,348.75 C221.04,349.03 203.66,346.05 207.72,332.75 C208.28,330.9 205.39,330.11 204.82,331.95 C202.82,338.49 206.36,345.13 212.06,348.56 C220.15,353.42 230.81,351.77 239.74,351.37 L309.18,348.22 L326.04,347.47 C330.36,347.27 336.37,348.15 340.34,346.14 C345,343.79 345.82,334.46 342.88,330.53 C341.37,328.53 339.25,328.35 336.88,328.26 C330.66,328.02 324.33,328.43 318.1,328.51 L283.48,328.97 L204.37,329.97 C202.44,329.97 202.44,332.97 204.37,332.97 L204.41,333 Z" id="Path" fill="#C9177A"></path>
            <g id="b30eccf6-7cfe-48df-9caa-415a128bd568" transform="translate(641.000000, 224.000000)">
                <path d="M14.99,476.5 C12.47,478.08 9.59,478.97 6.99,480.36 C4.39,481.75 1.86,483.84 1.12,486.72 C0.843882976,487.613967 0.889883596,488.576441 1.25,489.44 C1.89695679,490.48293 2.88702107,491.267909 4.05,491.66 C14.7248872,496.400896 26.8806526,496.538331 37.66,492.04 C39.5368331,491.137876 41.4749788,490.369301 43.46,489.74 C45.9053956,489.241294 48.3942792,488.986711 50.89,488.98 C53.5132389,488.826738 56.1227725,488.492611 58.7,487.98 C59.995567,487.835778 61.2233628,487.32593 62.24,486.51 C63.1675957,485.44115 63.725262,484.101348 63.83,482.69 C65.0134517,474.899197 63.22907,466.947993 58.83,460.41 C58.2758436,459.493757 57.5326457,458.70624 56.65,458.1 C55.5738177,457.543691 54.3901493,457.226454 53.18,457.17 C48.18,456.56 42.94,455.44 37.89,455.32 C34.27,455.24 32.45,456.96 29.89,459.45 C24.6,464.74 21.51,472.43 14.99,476.5 Z" id="Path" fill="#323444"></path>
                <path d="M88.68,475.76 C88.68,480.66 89.27,485.85 92.24,489.76 C93.5982206,491.450721 95.243293,492.889313 97.1,494.01 C103.38,498.01 111.7,499.48 118.32,496.09 C119.38939,495.610008 120.303661,494.841188 120.96,493.87 C121.96,492.13 121.43,489.96 120.87,488.04 L111.29,454.84 C105.1,455.79 96,456.46 90.5,459.6 C86.51,461.87 88.68,471.38 88.68,475.76 Z" id="Path" fill="#323444"></path>
                <path d="M9.37,271.33 C8.79,273.16 6.69,274.01 5.54,275.55 C4.19,277.36 4.33,279.87 4.82,282.07 C5.42528818,285.31407 6.94894182,288.316257 9.21,290.72 C11.538304,293.135927 14.8916222,294.276055 18.21,293.78 C21.43,293.17 24.21,290.32 24.32,287.05 C24.2619878,285.562841 23.9438439,284.097348 23.38,282.72 L16.56,263 C16.503754,262.718049 16.3288752,262.473948 16.08,262.33 C15.8226378,262.272771 15.5530879,262.319493 15.33,262.46 C13.72,263.22 10.49,264.02 9.55,265.69 C8.61,267.36 10.05,269.52 9.37,271.33 Z" id="Path" fill="#FBB3B2"></path>
                <path d="M6.18,270.34 C8.67,269.95 10.85,268.49 13.18,267.53 C15.51,266.57 18.43,266.2 20.39,267.8 C20.95,268.26 21.49,268.89 22.22,268.88 C21.2269918,263.990182 19.7254975,259.217575 17.74,254.64 C17.670172,254.420664 17.5338828,254.228461 17.35,254.09 C17.0774647,253.979375 16.7725353,253.979375 16.5,254.09 L9.77,255.85 C7.28,256.5 6.99,256.3 7.18,258.75 C7.23,259.84 7.79,270.34 6.18,270.34 Z" id="Path" fill="#323444"></path>
                <path d="M5.44,127.94 C4.44,129.48 4.44,131.4 4.44,133.21 C4.44,142.06 4.53,150.96 5.84,159.72 C6.15,161.82 6.54,163.92 6.74,166.04 C6.9666619,168.991084 7.01341509,171.953232 6.88,174.91 L5.88,213.41 C5.76,218.12 5.52,223.18 2.61,226.88 C1.72762186,228.120333 1.3131101,229.633123 1.44,231.15 C2.2,240.81 3.8,250.39 5.39,259.94 C10.5829634,257.59765 16.5836096,257.883926 21.53,260.71 C26.5754062,244.845733 29.3660351,228.351063 29.82,211.71 C30.05,203.52 29.7,195.28 30.96,187.19 C33.07,173.57 32.21,159.6 30.66,145.9 C30.17,141.56 29.13,137.09 26.35,133.73 C23.7183387,130.790095 20.213495,128.771305 16.35,127.97 C12.65,127 9.34,128 5.44,127.94 Z" id="Path" fill="#5B5583"></path>
                <path d="M5.44,127.94 C4.44,129.48 4.44,131.4 4.44,133.21 C4.44,142.06 4.53,150.96 5.84,159.72 C6.15,161.82 6.54,163.92 6.74,166.04 C6.9666619,168.991084 7.01341509,171.953232 6.88,174.91 L5.88,213.41 C5.76,218.12 5.52,223.18 2.61,226.88 C1.72762186,228.120333 1.3131101,229.633123 1.44,231.15 C2.2,240.81 3.8,250.39 5.39,259.94 C10.5829634,257.59765 16.5836096,257.883926 21.53,260.71 C26.5754062,244.845733 29.3660351,228.351063 29.82,211.71 C30.05,203.52 29.7,195.28 30.96,187.19 C33.07,173.57 32.21,159.6 30.66,145.9 C30.17,141.56 29.13,137.09 26.35,133.73 C23.7183387,130.790095 20.213495,128.771305 16.35,127.97 C12.65,127 9.34,128 5.44,127.94 Z" id="Path" fill="#000000" opacity="0.1"></path>
                <path d="M17.66,239.59 C10.9532438,273.959294 14.6150019,309.546571 28.18,341.83 C29.3519497,344.219835 30.1737135,346.765956 30.62,349.39 C31.17,354.29 28.91,359 27.62,363.74 C24.62,374.52 26.35,386 28.27,397.03 C29.07,401.63 29.8933333,406.226667 30.74,410.82 C31.57,415.3 32.37,420.17 30.29,424.23 C32.08,431.69 33.14,439.08 34.93,446.54 C35.1197811,447.130234 35.1778109,447.754907 35.1,448.37 C34.7393172,449.346211 34.1037333,450.197129 33.27,450.82 C30.5556311,453.572027 29.4950159,457.552185 30.48,461.29 C35.05,458.01 41.42,459.16 46.64,461.29 C51.86,463.42 57,466.29 62.64,466.29 C61.82,459.67 61.03,452.72 63.47,446.51 C64.89,442.91 67.39,439.51 67.32,435.66 C67.25,432.21 65.14,429.13 64.63,425.72 C64.4404566,423.598388 64.5211016,421.461294 64.87,419.36 C66.21,407.12 64.69,394.76 63.17,382.54 C62.9981413,380.130251 62.4305443,377.765264 61.49,375.54 C60.78,374.1 59.72,372.72 59.74,371.11 C59.74,369.24 61.25,367.72 61.81,365.94 C62.81,362.66 60.97,358.2 63.74,356.17 C71.04,350.81 68.24,338.01 68.08,328.96 C67.9533333,321.153333 67.62,313.353333 67.08,305.56 C71.676188,318.483585 73.5553921,332.216754 72.6,345.9 C72.28,350.38 71.69,355.09 73.44,359.23 C74.78,362.41 77.44,365.03 78.16,368.4 C78.61,370.48 78.29,372.63 78.39,374.75 C78.49,376.87 79.21,379.18 81.04,380.25 C81.18,389.89 82.04,400.2 82.19,409.84 C82.0927076,414.767946 82.4947591,419.693077 83.39,424.54 C83.8388304,426.081747 84.0875367,427.674812 84.13,429.28 C83.9044444,431.292674 83.3715849,433.258858 82.55,435.11 C79.0114265,445.587352 80.8832766,457.136667 87.55,465.96 C89.91,461.77 94.83,459.55 99.63,459.2 C104.43,458.85 109.17,460.06 113.82,461.28 C113.109049,455.437227 114.271564,449.519603 117.14,444.38 C117.909009,443.221753 118.498974,441.95417 118.89,440.62 C119.43,438.08 118.17,435.55 117.49,433.04 C116.38,429.04 116.77,424.73 117.03,420.55 C117.902617,406.550608 117.282456,392.498097 115.18,378.63 C114.855352,375.898354 114.214387,373.213683 113.27,370.63 C112.91,369.71 112.47,368.83 112.17,367.9 C111.69807,366.231788 111.429456,364.512661 111.37,362.78 L110.22,346.78 C109.41,335.57 113.09,324.5 115.66,313.56 C116.81,308.66 118.06,303.77 118.83,298.79 C119.88,292.01 120.05,285.08 121.59,278.39 C122.97,272.39 125.46,266.54 125.98,260.39 C126.78,250.86 122.82,241.65 118.98,232.91 C117.38,229.31 111.33,229.67 107.44,229.03 C79.85,224.5 50.79,224.47 24.77,234.68 C22.0791043,235.794824 19.6556454,237.468408 17.66,239.59 Z" id="Path" fill="#3C354C"></path>
                <path d="M37.55,62.1 L40.61,74 C41.4418781,76.7291803 41.9026805,79.5579012 41.98,82.41 C42.0116029,83.4503462 41.7812116,84.481949 41.31,85.41 C40.8064046,86.1720979 40.1614421,86.8306386 39.41,87.35 C37.32,88.94 35.87,92.65 33.48,93.75 C34.71,95.89 36.41,94.5 38.63,95.57 C42.54,97.47 46.12,100.2 50.36,101.14 C54.36,102.02 58.56,101.19 62.53,100.14 C68.16,98.61 73.76,96.5 78.29,92.81 C82.82,89.12 85.4,85.86 85.3801154,80.03 C80.38,80.62 75.93,75.57 73.72,71.03 C72.9537486,69.3042326 72.3899912,67.4955108 72.04,65.64 L69.36,53.85 C66.44,54.49 64.06,56.58 61.27,57.67 C58.48,58.76 55.18,58.86 52.08,59 C46.5771836,59.2502888 41.1048565,59.9594168 35.72,61.12 C34.98,61.27 34.05,61.74 34.23,62.46" id="Path" fill="#FBB3B2"></path>
                <path d="M37.55,62.1 L40.61,74 C41.4418781,76.7291803 41.9026805,79.5579012 41.98,82.41 C42.0116029,83.4503462 41.7812116,84.481949 41.31,85.41 C40.8064046,86.1720979 40.1614421,86.8306386 39.41,87.35 C37.32,88.94 35.87,92.65 33.48,93.75 C34.71,95.89 36.41,94.5 38.63,95.57 C42.54,97.47 46.12,100.2 50.36,101.14 C54.36,102.02 58.56,101.19 62.53,100.14 C68.16,98.61 73.76,96.5 78.29,92.81 C82.82,89.12 85.4,85.86 85.3801154,80.03 C80.38,80.62 75.93,75.57 73.72,71.03 C72.9537486,69.3042326 72.3899912,67.4955108 72.04,65.64 L69.36,53.85 C66.44,54.49 64.06,56.58 61.27,57.67 C58.48,58.76 55.18,58.86 52.08,59 C46.5771836,59.2502888 41.1048565,59.9594168 35.72,61.12 C34.98,61.27 34.05,61.74 34.23,62.46" id="Path" fill="#000000" opacity="0.1"></path>
                <circle id="Oval" fill="#FBB3B2" cx="50.69" cy="42.18" r="26.48"></circle>
                <path d="M57.98,85.83 C59.3960963,82.7716254 61.4404673,80.0457973 63.98,77.83 C67.71,74.56 72.81,71.91 73.69,67.03 L81.77,76.44 C82.2091127,76.8763322 82.5500403,77.4013607 82.77,77.98 C82.9761047,79.077734 82.6991545,80.2110432 82.01,81.09 C80.01,84.28 76.86,86.56 73.88,88.87 C67.0496679,94.2802983 60.5105189,100.048368 54.29,106.15 C54.0158948,106.468306 53.6485252,106.692227 53.24,106.79 C52.8535113,106.800589 52.4730726,106.692391 52.15,106.48 C46.7829426,103.661963 42.033248,99.799649 38.18,95.12 C37.89,94.77 37.53,94.37 37.06,94.4 C36.7766129,94.4520397 36.5153531,94.5878948 36.31,94.79 C33.62,96.99 30.68,99.62 27.23,99.28 C31.7,96.07 34.23,90.71 35.17,85.28 C35.3558797,83.4215423 35.7380098,81.5879886 36.31,79.81 C36.911795,78.0035666 38.3744153,76.6159524 40.21,76.11 C38.03,79.44 39.52,84.16 42.45,86.85 C45.2967582,89.2663366 48.7098127,90.9212552 52.37,91.66 C55.77,92.3 56.77,88.45 57.98,85.83 Z" id="Path" fill="#323444"></path>
                <path d="M23.53,242.31 C27.3,243.24 30.87,244.82 34.53,245.99 C41.2006089,248.079022 48.2208531,248.816743 55.18,248.16 C57.3219669,248.113009 59.4050413,247.449897 61.18,246.25 C61.65,245.87 62.08,245.42 62.58,245.07 C63.4163625,244.568058 64.3230431,244.193925 65.27,243.96 C74.44,241.09 82.12,234.9 89.57,228.84 C89.81,228.64 90.08,228.39 90.06,228.07 C90.0256039,227.852112 89.9201299,227.651712 89.76,227.5 L85.84,223 C75.56,224.75 65.03,224.09 54.6,223.83 C52.4586713,223.73491 50.3132955,223.791719 48.18,224 C46.12,224.24 44.09,224.76 42.06,225.2 C34.35,226.88 26.47,227.52 18.66,228.62 C18.1136032,228.660307 17.5835483,228.824453 17.11,229.1 C16.7806735,229.354706 16.4995775,229.666282 16.28,230.02 L13.54,233.87 C12.4764652,235.16503 11.6932827,236.666698 11.24,238.28 C10.6,241.28 11.94,242.28 14.49,241.89 C17.5023879,241.449046 20.5714742,241.591637 23.53,242.31 L23.53,242.31 Z" id="Path" fill="#323444"></path>
                <path d="M54.18,101.57 C51.1208903,98.435335 47.6529629,95.7275934 43.87,93.52 C42.3416574,92.549277 40.646195,91.871092 38.87,91.52 C37.0609958,91.1628929 35.1866752,91.6241514 33.75,92.78 C32.86,93.57 32.3,94.67 31.44,95.5 C30.3577154,96.4092586 29.116943,97.1110069 27.78,97.57 C23.2278916,99.5150457 18.9131856,101.974361 14.92,104.9 C12.7433017,106.422664 10.7822409,108.232357 9.09,110.28 C4.56,116.08 3.88,123.97 4,131.33 C4.09,136.45 9,140.25 12.38,144.08 C15.5501331,147.848909 18.4189763,151.861277 20.96,156.08 C22.78,158.96 24.68,162.08 24.45,165.51 C24.26,168.32 22.62,170.96 22.88,173.76 C22.97,174.76 23.29,175.68 23.38,176.65 C23.56,178.65 22.77,180.65 22.57,182.65 C22.3,185.48 23.22,188.29 23.27,191.14 C23.2332933,193.091071 22.985177,195.032413 22.53,196.93 C20.61,206.07 18.2,215.26 18.69,224.59 L13.15,225.59 C14.214341,226.63312 14.718254,228.120783 14.5069443,229.596001 C14.2956346,231.07122 13.3943678,232.357605 12.08,233.06 C20.73,235.95 30.08,234.49 39.25,234.48 C46.84,234.48 54.4,235.48 61.98,235.34 C69.56,235.2 77.38,233.83 83.63,229.54 C85.33,228.38 86.89,227.02 88.68,226.01 C91.0776326,224.767514 93.6613471,223.923163 96.33,223.51 C101.273223,222.567238 106.297944,222.118363 111.33,222.17 C113.79,222.17 116.47,222.27 118.43,220.79 C120.59,219.15 121.14,216.18 121.43,213.49 C121.72,210.65 121.9,207.8 121.95,204.95 C122.033831,202.730641 121.916687,200.508248 121.6,198.31 C121.299817,196.702595 120.909197,195.113404 120.43,193.55 L116.66,180.27 C115.1,174.79 117.27,168.78 117.73,163.1 C117.84,161.76 117.86,160.2 116.83,159.34 C116.46,159.03 115.95,158.82 115.83,158.34 C115.721095,157.879368 115.807991,157.3942 116.07,157 C118.07,153 121.07,149.47 123.81,145.86 C128.412026,139.527772 132.684369,132.962383 136.61,126.19 C135.380654,112.018437 129.41309,98.6742028 119.67,88.31 C117.67,86.14 115.38,84.06 112.58,83.08 C110.75023,82.5211668 108.852675,82.2150011 106.94,82.17 C99.1,81.64 90.94,81.17 84.11,77.23 C83.6198353,76.890469 83.064964,76.6555848 82.48,76.54 C80.97,76.37 79.87,77.86 78.89,79.04 C76.37,82.04 72.66,83.76 69.4,85.97 C63.32,90.1 58.57,95.78 54.18,101.57 Z" id="Path" fill="#5B5583"></path>
                <path d="M137.29,130.28 C138.85,135.22 138.7,140.5 139.21,145.65 C139.512047,148.757847 140.057047,151.837264 140.84,154.86 C141.197473,156.521408 141.840328,158.108247 142.74,159.55 C143.64,160.87 144.93,161.94 145.5,163.43 C145.811575,164.43945 145.950196,165.494323 145.91,166.55 L146.03,173.45 C146.286707,177.106454 145.730031,180.774364 144.4,184.19 L140.09,197.3 C137.76,204.4 135.37,211.61 131.17,217.79 C130.578277,218.835937 129.681763,219.676636 128.6,220.2 C127.753098,220.423862 126.884979,220.557934 126.01,220.6 C122.86515,221.160923 120.561502,223.875788 120.52,227.07 C119.519298,225.607734 118.270469,224.331831 116.83,223.3 L108.06,216.3 C105.06,213.86 101.93,211.38 98.29,209.97 C108.292281,206.846312 115.513146,198.12012 116.71,187.71 C116.706806,186.193051 117.048769,184.695254 117.71,183.33 C118.44,182.15 119.79,181.25 119.89,179.86 C120.01,178.11 118.03,176.79 118.03,175.04 C118.03,173.88 118.89,172.92 119.27,171.83 C119.625168,170.483019 119.625168,169.066981 119.27,167.72 L118.06,161 C117.988667,160.326675 117.784748,159.674133 117.46,159.08 C117.007246,158.510412 116.505316,157.981712 115.96,157.5 C113.88,155.17 114.8,151.5 115.96,148.63 C118.623785,142.259442 122.055875,136.238173 126.18,130.7 C127.647983,128.840271 129.006929,126.897012 130.25,124.88 C131.31,123.04 131.55,120.49 132.67,118.88 C134.11,122.66 136.06,126.39 137.29,130.28 Z" id="Path" fill="#5B5583"></path>
                <path d="M97.98,210.38 C97.5336495,210.711274 97.1479641,211.117259 96.84,211.58 C95.6617956,213.059137 94.0923628,214.178181 92.31,214.81 C93.31,215.53 94.22,216.24 95.16,216.97 C102.114993,222.341294 108.483607,228.431701 114.16,235.14 C114.79,232.89 118.56,233.05 119.48,230.9 C119.696658,230.284618 119.765179,229.626824 119.68,228.98 C119.488928,225.611412 119.007136,222.265635 118.24,218.98 C117.937207,217.288414 117.253256,215.687969 116.24,214.3 C114.84,212.61 112.66,211.8 110.58,211.1 C107.43,210 101.18,208.45 97.98,210.38 Z" id="Path" fill="#323444"></path>
                <path d="M85.48,218.24 C82.48,220.46 79.85,223.24 76.48,224.76 C74.1,225.84 71.39,226.31 69.31,227.92 C70.44,230.41 73.38,231.7 76.11,231.6 C78.8424924,231.331585 81.461539,230.371382 83.72,228.81 C85.51,227.71 87.61,226.43 89.56,227.2 C89.86,228.72 88.56,230.15 88.56,231.69 C88.56,233.23 89.84,234.35 91.1,235.16 C97.1,239.03 104.82,238.71 111.97,238.26 C112.380171,238.275243 112.78406,238.155832 113.12,237.92 C113.433084,237.554643 113.587812,237.079664 113.55,236.6 C113.64,235.02 113.68,233.45 113.69,231.87 C114.102666,229.269092 112.971934,226.664509 110.79,225.19 C106.909971,221.854679 102.72488,218.891634 98.29,216.34 C93.89,213.79 89.43,215.3 85.48,218.24 Z" id="Path" fill="#FBB3B2"></path>
                <path d="M59.99,31.11 C55.55,31.64 52.32,35.11 52.77,38.88 C53.22,42.65 57.18,45.25 61.62,44.71 C66.06,44.17 69.29,40.71 68.84,36.95 C68.39,33.19 64.43,30.58 59.99,31.11 Z M61.5,43.67 C57.74,44.12 54.39,41.91 54,38.73 C53.61,35.55 56.36,32.61 60.11,32.16 C63.86,31.71 67.22,33.92 67.61,37.1 C68,40.28 65.25,43.22 61.5,43.67 L61.5,43.67 Z" id="Shape" fill="#3C354C"></path>
                <path d="M38.35,33.71 C33.91,34.24 30.68,37.71 31.13,41.47 C31.58,45.23 35.54,47.84 39.98,47.31 C44.42,46.78 47.65,43.31 47.2,39.54 C46.75,35.77 42.79,33.18 38.35,33.71 Z M39.86,46.26 C36.1,46.71 32.75,44.5 32.37,41.33 C31.99,38.16 34.72,35.21 38.48,34.75 C42.24,34.29 45.59,36.51 45.97,39.69 C46.35,42.87 43.61,45.81 39.86,46.26 Z" id="Shape" fill="#3C354C"></path>
                <polygon id="Path" fill="#3C354C" points="22.28 35.64 31.93 37.7 30.98 40.24 21.88 37.57"></polygon>
                <polygon id="Path" fill="#3C354C" points="76.07 29.18 67.17 33.47 68.7 35.71 76.91 30.96"></polygon>
                <polygon id="Path" fill="#3C354C" points="46.31 37.06 53.08 36.25 52.73 37.93 46.92 38.32"></polygon>
                <path d="M33.18,34.79 C33.8170187,33.419893 34.1577741,31.9307918 34.18,30.42 C34.2037144,29.5157361 34.3586658,28.6197131 34.64,27.76 C35.1315612,26.6681211 35.8794036,25.7110199 36.82,24.97 C39.94,22.33 44.41,20.97 48.82,20.78 C53.6285925,20.5587746 58.4119928,21.5926507 62.7,23.78 C64.0098297,24.3936901 65.1830368,25.2642438 66.15,26.34 C67.55,28.05 67.85,30.26 69.26,31.95 C71.2172066,34.0356716 74.1225909,34.9459748 76.92,34.35 C77.41,32.61 76.77,30.77 77.02,28.99 C77.4140301,27.4647747 77.9462308,25.9786295 78.61,24.55 C80.16,19.98 77.9,14.68 73.24,11.95 C71.61,10.95 69.68,10.3 68.46,8.95 C67.24,7.6 66.95,6.2 66.11,4.85 C63.88,1.28 58.11,-0.39 53.72,1.26 C52.34,1.78 51.12,2.57 49.72,3.13 C47.12,4.2 44.16,4.39 41.3,4.75 C38.4809797,5.01062491 35.7241064,5.73362844 33.14,6.89 C30.67,8.11 28.6,10.07 28.03,12.41 C27.76,13.49 27.82,14.61 27.55,15.68 C26.17,21.11 17.26,23.75 16.76,29.29 C16.58,31.29 17.67,33.21 19.03,34.84 C19.97,35.95 22.22,38.92 23.81,39.35 C25.4,39.78 26.61,38.27 28.13,37.75 C30.53,37 31.98,36.84 33.18,34.79 Z" id="Path" fill="#CBCEDA"></path>
            </g>
            <path d="M786.99,611 C786.99,661.24 818.51,701.9 857.46,701.9" id="Path" fill="#46455B"></path>
            <path d="M857.46,701.91 C857.46,651.1 892.64,609.99 936.11,609.99" id="Path" fill="#C9177A"></path>
            <path d="M812.53,615.56 C812.53,663.29 832.63,701.91 857.46,701.91" id="Path" fill="#C9177A"></path>
            <path d="M857.46,701.91 C857.46,636.99 898.12,584.45 948.36,584.45" id="Path" fill="#46455B"></path>
            <ellipse id="Oval" fill="#C9177A" opacity="0.1" cx="854.41" cy="716.31" rx="17.52" ry="2.96"></ellipse>
            <path d="M842.64,702.55 C842.64,702.55 852.64,702.24 855.64,700.1 C858.64,697.96 871.01,695.39 871.76,698.83 C872.51,702.27 886.76,715.94 875.49,716.03 C864.22,716.12 849.27,714.27 846.27,712.44 C843.27,710.61 842.64,702.55 842.64,702.55 Z" id="Path" fill="#A8A8A8"></path>
            <path d="M875.7,714.83 C864.42,714.92 849.49,713.07 846.48,711.24 C844.19,709.85 843.28,704.84 842.97,702.54 L842.64,702.54 C842.64,702.54 843.27,710.6 846.28,712.43 C849.29,714.26 864.22,716.11 875.5,716.02 C878.76,716.02 879.88,714.83 879.82,713.12 C879.37,714.16 878.18,714.81 875.7,714.83 Z" id="Path" fill="#000000" opacity="0.2"></path>
            <path d="M22.49,640.36 C22.49,680.36 47.56,712.68 78.55,712.68" id="Path" fill="#46455B"></path>
            <path d="M78.55,712.68 C78.55,672.26 106.55,639.55 141.12,639.55" id="Path" fill="#C9177A"></path>
            <path d="M42.8,644 C42.8,682 58.8,712.7 78.55,712.7" id="Path" fill="#C9177A"></path>
            <path d="M78.55,712.68 C78.55,661.03 110.9,619.23 150.87,619.23" id="Path" fill="#46455B"></path>
            <ellipse id="Oval" fill="#C9177A" opacity="0.1" cx="76.12" cy="724.14" rx="13.94" ry="2.36"></ellipse>
            <path d="M66.76,713.19 C66.76,713.19 74.71,712.94 77.1,711.19 C79.49,709.44 89.34,707.44 89.93,710.19 C90.52,712.94 101.88,723.8 92.93,723.87 C83.98,723.94 72.07,722.47 69.68,721.02 C67.29,719.57 66.76,713.19 66.76,713.19 Z" id="Path" fill="#A8A8A8"></path>
            <path d="M93.06,723 C84.06,723.07 72.2,721.6 69.81,720.14 C67.99,719.04 67.27,715.05 67.02,713.22 L66.76,713.22 C66.76,713.22 67.26,719.63 69.65,721.09 C72.04,722.55 83.93,724.01 92.9,723.94 C95.49,723.94 96.39,723 96.34,721.63 C95.98,722.43 94.99,722.94 93.06,723 Z" id="Path" fill="#000000" opacity="0.2"></path>
        </g>
    </g>
</svg>