<?xml version="1.0" encoding="UTF-8"?>
<svg width="1133px" height="794px" viewBox="0 0 1133 794" version="1.1" xmlns="http://www.w3.org/2000/svg" xmlns:xlink="http://www.w3.org/1999/xlink">
    <!-- Generator: Sketch 61 (89581) - https://sketch.com -->
    <title>Courses</title>
    <desc>Created with Sketch.</desc>
    <g id="Page-1" stroke="none" stroke-width="1" fill="none" fill-rule="evenodd">
        <g id="Courses" fill-rule="nonzero">
            <rect id="Rectangle" fill="#3F3D56" x="124.02923" y="628.17018" width="785.45192" height="2.78529"></rect>
            <path d="M479.270896,924.721763 C595.121942,924.721763 549.62504,881.925327 629.705497,789.97139 C702.91171,705.910936 896.46,773.015669 804.33,425.611763 C783.846835,348.37382 924.5,257.395008 924.5,120.221763 C924.5,-201.097211 673.525471,-238.888174 500.405074,-188.72056 C388.263685,-156.223719 328.550628,63.9377257 248.790869,154.11934 C154.491192,260.740739 253.227485,305.228765 253.227485,479.310461 C253.227485,653.230793 183.673911,604.964667 277.821708,711.57908 C371.969505,818.193494 364.550144,924.721763 479.270896,924.721763 Z" id="Oval" fill="#C9177A" opacity="0.1" transform="translate(566.250000, 358.860881) scale(-1, 1) rotate(-90.000000) translate(-566.250000, -358.860881) "></path>
            <rect id="Rectangle" fill="#3F3D56" x="79" y="134" width="899.86782" height="437.90359"></rect>
            <path d="M978.86783,167.68489 L978.86783,155.65457 L951.19809,155.65457 L951.19809,134 L939.16778,134 L939.16778,155.65457 L118.70006,155.65457 L118.70006,134 L106.66974,134 L106.66974,155.65457 L79,155.65457 L79,167.68489 L106.66974,167.68489 L106.66974,538.2187 L79,538.2187 L79,550.249 L106.66974,550.249 L106.66974,571.90357 L118.70006,571.90357 L118.70006,550.249 L939.16778,550.249 L939.16778,571.90357 L951.19809,571.90357 L951.19809,550.249 L978.86783,550.249 L978.86783,538.2187 L951.19809,538.2187 L951.19809,167.68489 L978.86783,167.68489 Z M939.16783,538.2187 L118.70006,538.2187 L118.70006,167.68489 L939.16783,167.68489 L939.16783,538.2187 Z" id="Shape" fill="#000000" opacity="0.1"></path>
            <rect id="Rectangle" fill="#D0CDE1" x="476.73891" y="191.74553" width="141.88698" height="134.9673"></rect>
            <rect id="Rectangle" fill="#C9177A" x="492.86243" y="207.86905" width="109.63994" height="83.84231"></rect>
            <rect id="Rectangle" fill="#F2F2F2" x="516.98851" y="221.64755" width="38.437" height="38.437"></rect>
            <path d="M531.70273,231.2593 L531.70273,277.93286 L578.37631,277.93286 L578.37631,231.2593 L531.70273,231.2593 Z M576.35181,275.9083 L533.7272,275.9083 L533.7272,233.28377 L576.35181,233.28377 L576.35181,275.9083 Z" id="Shape" fill="#3F3D56"></path>
            <rect id="Rectangle" fill="#F2F2F2" x="492.75384" y="300.03325" width="59.63671" height="3.13877"></rect>
            <circle id="Oval" fill="#3F3D56" cx="547.68239" cy="199.59246" r="6.27755"></circle>
            <rect id="Rectangle" fill="#D0CDE1" x="530.25154" y="386.40895" width="141.88698" height="134.9673"></rect>
            <rect id="Rectangle" fill="#C9177A" x="546.37506" y="402.53247" width="109.63994" height="83.84231"></rect>
            <rect id="Rectangle" fill="#F2F2F2" x="546.26648" y="496.26606" width="59.63671" height="3.13877"></rect>
            <rect id="Rectangle" fill="#F2F2F2" x="546.26648" y="505.68238" width="59.63671" height="3.13877"></rect>
            <circle id="Oval" fill="#3F3D56" cx="565.88382" cy="444.47628" r="12.5551"></circle>
            <circle id="Oval" fill="#F2F2F2" cx="601.19503" cy="444.47628" r="12.5551"></circle>
            <circle id="Oval" fill="#FF6584" cx="636.50625" cy="444.47628" r="12.5551"></circle>
            <circle id="Oval" fill="#3F3D56" cx="601.19503" cy="394.25589" r="6.27755"></circle>
            <rect id="Rectangle" fill="#D0CDE1" x="313.10182" y="344.23848" width="141.88698" height="134.9673"></rect>
            <rect id="Rectangle" fill="#C9177A" x="329.22534" y="360.362" width="109.63994" height="83.84231"></rect>
            <circle id="Oval" fill="#F2F2F2" cx="376.7449" cy="412.08168" r="26.61894"></circle>
            <path d="M384.59074,432.61352 C366.158833,432.61352 351.21682,417.671507 351.21682,399.2396 C351.21682,380.807693 366.158833,365.86568 384.59074,365.86568 C403.022647,365.86568 417.96466,380.807693 417.96466,399.2396 C417.943851,417.662881 403.014021,432.592711 384.59074,432.61352 Z M384.59074,367.07928 C371.5831,367.07928 359.856276,374.914894 354.878468,386.932387 C349.900661,398.94988 352.652164,412.782612 361.849956,421.980401 C371.047748,431.17819 384.880481,433.929689 396.897972,428.951878 C408.915464,423.974067 416.75107,412.24724 416.75107,399.2396 C416.731126,381.48621 402.34413,367.099219 384.59074,367.07928 L384.59074,367.07928 Z" id="Shape" fill="#3F3D56"></path>
            <rect id="Rectangle" fill="#F2F2F2" x="329.11676" y="461.94252" width="59.63671" height="3.13877"></rect>
            <rect id="Rectangle" fill="#F2F2F2" x="329.11676" y="452.5262" width="83.17752" height="3.13877"></rect>
            <circle id="Oval" fill="#3F3D56" cx="384.04531" cy="352.08542" r="6.27755"></circle>
            <rect id="Rectangle" fill="#D0CDE1" x="157.15325" y="189.33946" width="141.88698" height="134.9673"></rect>
            <rect id="Rectangle" fill="#C9177A" x="173.27677" y="205.46299" width="109.63994" height="83.84231"></rect>
            <rect id="Rectangle" fill="#3F3D56" x="216.30344" y="271.09908" width="23.58659" height="6.98967"></rect>
            <rect id="Rectangle" fill="#3F3D56" x="187.78832" y="216.67952" width="80.61684" height="2.99557"></rect>
            <rect id="Rectangle" fill="#3F3D56" x="187.78832" y="226.1655" width="80.61684" height="2.99557"></rect>
            <rect id="Rectangle" fill="#3F3D56" x="187.78832" y="235.65148" width="80.61684" height="2.99557"></rect>
            <rect id="Rectangle" fill="#3F3D56" x="187.78832" y="245.13746" width="80.61684" height="2.99557"></rect>
            <rect id="Rectangle" fill="#3F3D56" x="187.78832" y="254.62344" width="80.61684" height="2.99557"></rect>
            <rect id="Rectangle" fill="#F2F2F2" x="173.16818" y="297.62718" width="59.63671" height="3.13877"></rect>
            <rect id="Rectangle" fill="#F2F2F2" x="173.16818" y="305.47412" width="83.17752" height="3.13877"></rect>
            <circle id="Oval" fill="#3F3D56" cx="228.09674" cy="197.1864" r="6.27755"></circle>
            <path d="M733.79067,277.5099 L836.54835,285.0599 L865.60811,287.195 L863.80356,285.39045 L869.26102,364.3314 L871.98975,403.80188 C872.1,405.39664 872.21312,406.99123 872.3205,408.58618 C872.40977,409.91218 872.7749,411.18973 871.20424,411.51698 C868.08114,412.16767 864.82924,412.43862 861.66531,412.8379 C855.234057,413.64952 848.788307,414.332473 842.32806,414.88676 C816.480371,417.105637 790.497298,417.268533 764.62382,415.37391 C758.158867,414.900437 751.70509,414.297927 745.26249,413.56638 C742.86649,413.29447 739.89259,413.19238 739.01764,410.50579 C738.11543,407.73553 737.96057,404.58637 737.55277,401.71211 C735.735917,388.906497 734.4978,376.035247 733.83842,363.09836 C732.495672,337.315268 733.409273,311.464148 736.56879,285.84017 C736.956123,282.702243 737.37907,279.569137 737.83763,276.44085 C738.16899,274.16892 734.69194,273.18808 734.35746,275.4814 C730.477989,301.96102 728.985792,328.735683 729.89887,355.4824 C730.36503,368.86378 731.43624,382.205667 733.1125,395.50806 C733.536613,398.86788 733.997107,402.22288 734.49398,405.57306 C734.89006,408.23877 734.98761,411.38244 736.57419,413.67317 C738.10489,415.88324 740.67539,416.59223 743.20152,416.92899 C746.41665,417.3576 749.65309,417.66474 752.88096,417.97969 C779.680393,420.592805 806.649661,420.991746 833.51466,419.17246 C840.276093,418.714393 847.026067,418.116277 853.76458,417.37811 C857.084047,417.014263 860.399543,416.616357 863.71107,416.18439 C865.331923,415.97295 866.95182,415.754283 868.57076,415.52839 C870.082138,415.421064 871.578705,415.160497 873.03742,414.7507 C876.07822,413.6544 876.07721,410.72136 875.88825,407.98806 L875.1854,397.82143 L873.77969,377.48815 L868.11551,295.55701 L867.41265,285.39037 C867.384893,284.405477 866.593003,283.613587 865.60811,283.58583 L762.85043,276.03583 L733.79067,273.90071 C731.47355,273.73046 731.48437,277.34035 733.79067,277.5098 L733.79067,277.5099 Z" id="Path" fill="#D0CDE1"></path>
            <path d="M777.82684,320.11775 C778.34567,318.74016 777.041,321.70732 777.6962,320.39456 C777.87032,320.04568 778.03305,319.693 778.21766,319.34918 C778.585319,318.665364 778.992606,318.003607 779.43744,317.36729 C779.88034,316.73305 780.55331,316.48842 779.24356,317.5916 C779.514757,317.313883 779.768572,317.019708 780.00356,316.71075 C780.614918,316.040646 781.266784,315.408653 781.95549,314.81833 C782.45022,314.39374 783.38677,314.0324 781.71114,314.97277 C782.04247,314.78677 782.34996,314.50835 782.66649,314.29553 C783.315623,313.85911 783.985113,313.45523 784.67496,313.08389 C785.019693,312.898183 785.36878,312.72089 785.72222,312.55201 C786.32236,312.26521 787.32178,312.16657 785.43233,312.65001 C786.24339,312.4425 787.02827,312.05875 787.83947,311.82849 C788.528803,311.632817 789.225767,311.468133 789.93036,311.33444 C790.55978,311.21583 791.70202,311.30544 789.55265,311.35485 C789.937,311.34602 790.33039,311.27185 790.71502,311.24585 C791.490122,311.192998 792.267483,311.181352 793.04382,311.21096 C793.43189,311.22596 793.81706,311.26444 794.20439,311.28757 C795.49116,311.36441 792.25694,310.93015 794.20397,311.30111 C794.9677,311.446233 795.722145,311.636544 796.46333,311.87104 C796.822534,312.025288 797.191837,312.154865 797.56867,312.25887 L796.57029,311.82872 C796.815217,311.93512 797.057883,312.046453 797.29829,312.16272 C798.01404,312.509029 798.708596,312.897533 799.37829,313.32618 C799.71188,313.53955 800.03098,313.77118 800.35815,313.99368 C801.38545,314.69238 798.98139,312.81774 800.43828,314.09483 C800.932587,314.528163 801.40673,314.983237 801.86071,315.46005 C802.133277,315.745937 802.39823,316.03884 802.65557,316.33876 C803.08871,316.84317 803.41995,317.76443 802.51657,316.11319 C803.34348,317.62467 804.37692,318.99564 805.1557,320.55388 C805.81999,321.88302 804.55031,318.903 805.05482,320.30227 C805.19082,320.67955 805.33708,321.05212 805.46543,321.43227 C805.722157,322.19277 805.94368,322.963973 806.13,323.74588 C806.31657,324.52896 806.40792,325.32841 806.57991,326.11209 C806.10656,323.9552 806.45272,325.20279 806.49933,325.78882 C806.541737,326.321953 806.567313,326.856067 806.57606,327.39116 C806.586727,328.058753 806.57053,328.726173 806.52747,329.39342 C806.502,329.78408 806.41447,330.19942 806.4197,330.58942 C806.3926,328.56442 806.56627,329.57293 806.44034,330.25312 C806.294896,331.040627 806.107848,331.819878 805.87998,332.5876 C805.765647,332.972133 805.640947,333.353273 805.50588,333.73102 C805.38584,334.066093 805.25932,334.398693 805.12632,334.72882 C805.514193,333.82522 805.54511,333.739343 805.21907,334.47119 C803.22579,338.45778 800.74234,342.1749 798.78181,346.17532 C793.918252,356.14942 792.282576,367.390874 794.1021,378.33739 C794.603036,380.152861 795.793367,381.700819 797.41929,382.65121 C799.104923,383.617349 801.10385,383.878859 802.98129,383.37886 C807.04988,382.06221 808.64944,378.50995 808.02275,374.49963 C807.80199,373.08691 808.13854,375.75931 807.99415,374.33683 C807.93223,373.72678 807.87031,373.11783 807.82715,372.50605 C807.740977,371.283257 807.705867,370.058457 807.72182,368.83165 C807.735293,367.780923 807.785813,366.73167 807.87338,365.68389 C807.87624,365.069484 807.939785,364.456863 808.06309,363.85495 C808.06192,363.85884 807.83058,365.3062 807.98777,364.4731 C808.05264,364.12931 808.09891,363.78119 808.16047,363.43661 C808.575235,361.107928 809.174616,358.815937 809.95294,356.58233 C810.12617,356.08617 810.31559,355.59658 810.49816,355.10391 C810.98007,353.80342 809.99691,356.14791 810.57939,354.88918 C811.09895,353.76637 811.63671,352.65828 812.22839,351.57135 C814.71321,347.00648 817.52376,342.72935 819.33399,337.81935 C820.714714,333.968076 821.260675,329.867216 820.93565,325.78885 C820.26596,317.37028 816.6965,308.82849 810.04387,303.37785 C803.071331,297.573508 793.745806,295.448605 784.94697,297.6593 C775.281164,299.996239 767.400972,306.970046 763.90614,316.28 C762.57273,319.82049 765.3854,324.34787 768.94761,325.15923 C773.05374,326.09447 776.39917,323.90856 777.82684,320.11776 L777.82684,320.11775 Z" id="Path" fill="#D0CDE1"></path>
            <path d="M803.0452,406.11633 C806.358908,406.11633 809.0452,403.430038 809.0452,400.11633 C809.0452,396.802622 806.358908,394.11633 803.0452,394.11633 C799.731492,394.11633 797.0452,396.802622 797.0452,400.11633 C797.081717,403.414794 799.746736,406.079813 803.0452,406.11633 L803.0452,406.11633 Z" id="Path" fill="#D0CDE1"></path>
            <rect id="Rectangle" fill="#C9177A" x="135.7895" y="610.98978" width="33.68489" height="33.68489"></rect>
            <path d="M172.92594,648.42616 L132.02286,648.42616 L132.02286,607.52308 L172.92594,607.52308 L172.92594,648.42616 Z M133.80125,646.64777 L171.14754,646.64777 L171.14754,609.30148 L133.80125,609.30148 L133.80125,646.64777 Z" id="Shape" fill="#3F3D56"></path>
            <path d="M902.47531,434.15645 L897.66319,448.59283 C897.66319,448.59283 867.58739,483.48075 889.24196,488.29288 C910.89653,493.10501 913.3026,450.99888 913.3026,450.99888 L919.31776,438.96856 L902.47531,434.15645 Z" id="Path" fill="#FFB8B8"></path>
            <path d="M936.1602,259.71683 C936.1602,259.71683 928.942,258.51383 926.53594,287.38656 C924.12988,316.25929 922.92685,366.78666 922.92685,366.78666 L895.25711,437.76554 L930.14504,448.59283 L946.98748,367.98969 L936.1602,259.71683 Z" id="Path" fill="#575A89"></path>
            <polygon id="Path" fill="#FFB8B8" points="920.521 689.199 916.912 712.057 949.394 712.057 948.191 689.199"></polygon>
            <polygon id="Path" fill="#FFB8B8" points="1025.185 714.463 1022.778 745.742 1044.433 748.148 1044.433 712.057"></polygon>
            <path d="M933.75413,390.8473 L906.0844,549.6475 L913.30259,694.01132 L950.59659,694.01132 L950.59659,562.88085 L986.68754,495.51107 L1015.56031,579.7233 L1022.7785,720.47803 L1063.68158,713.25983 L1054.05731,576.1142 C1054.05731,576.1142 1046.83912,393.25336 1039.62092,390.8473 C1032.40272,388.44124 933.75413,390.8473 933.75413,390.8473 Z" id="Path" fill="#2F2E41"></path>
            <path d="M924.12988,704.83861 C924.12988,704.83861 924.12988,692.80829 914.50562,700.02648 C904.88136,707.24467 892.85105,720.478 892.85105,720.478 C892.85105,720.478 847.13584,745.74166 879.6177,749.35076 C912.09956,752.95986 932.5511,732.50831 932.5511,732.50831 L936.1602,736.11741 C936.1602,736.11741 955.4087,732.50831 955.4087,727.69619 C955.269376,723.664214 954.867525,719.645597 954.2057,715.66587 C954.2057,715.66587 951.6754,695.25975 948.72994,699.44765 C945.78448,703.63555 928.942,712.0568 924.12988,704.83861 Z" id="Path" fill="#2F2E41"></path>
            <path d="M1045.63609,738.5235 C1045.63609,738.5235 1023.98152,727.69622 1019.16939,737.3205 C1014.35726,746.94478 1010.74817,766.19327 1010.74817,766.19327 C1010.74817,766.19327 995.10876,796.269 1022.77849,793.863 C1050.44822,791.457 1049.24519,775.81752 1049.24519,772.20843 C1049.24519,768.59934 1048.04219,760.17811 1049.24519,756.56901 C1050.44819,752.95991 1045.63609,738.5235 1045.63609,738.5235 Z" id="Path" fill="#2F2E41"></path>
            <circle id="Oval" fill="#FFB8B8" cx="998.11633" cy="178.51218" r="33.68489"></circle>
            <polygon id="Path" fill="#FFB8B8" points="975.86 194.753 974.657 238.062 1017.966 234.453 1017.966 194.753"></polygon>
            <path d="M1020.37242,212.79859 C1020.37242,212.79859 999.92088,226.03194 993.90572,228.438 C987.89056,230.84406 974.65721,218.81375 974.65721,218.81375 C974.65721,218.81375 971.04812,221.21981 971.04812,223.62587 C971.04812,226.03193 968.64206,235.65619 968.64206,235.65619 L939.76931,330.69571 L942.17537,398.06549 C942.17537,398.06549 1029.9967,406.48671 1039.62095,395.65943 C1049.2452,384.83215 1034.80883,229.64103 1034.80883,229.64103 L1020.37242,212.79859 Z" id="Path" fill="#D0CDE1"></path>
            <path d="M1014.35731,238.06225 C1014.35731,238.06225 981.87545,250.09257 971.04816,239.26525 C971.04816,239.26529 986.68753,242.87438 1014.35731,238.06225 Z" id="Path" fill="#000000" opacity="0.1"></path>
            <path d="M1099.77253,499.12017 C1086.53918,507.54139 1043.23003,518.36868 1043.23003,518.36868 C1043.23003,518.36868 1038.50203,416.53207 1021.57546,400.47155 C1004.74505,384.48329 977.2677,269.22074 1001.97802,249.17826 C1002.08833,249.07499 1002.20486,248.97857 1002.32695,248.88954 L1017.96636,212.79854 C1017.96636,212.79854 1020.37242,209.18944 1025.18455,214.00154 C1029.07719,218.17285 1032.69395,222.593328 1036.01184,227.23489 L1036.69765,227.51156 L1069.69673,240.46824 L1056.46338,299.4168 C1056.46338,299.4168 1113.00588,490.69894 1099.77253,499.12017 Z" id="Path" fill="#575A89"></path>
            <path d="M1036.69765,227.51164 L1027.59065,260.91986 L1001.97805,249.17826 C1002.08836,249.07499 1002.20489,248.97857 1002.32698,248.88954 L1017.96639,212.79854 C1017.96639,212.79854 1020.37245,209.18944 1025.18458,214.00154 C1029.07722,218.17285 1032.69398,222.593328 1036.01187,227.23489 L1036.69765,227.51164 Z" id="Path" fill="#000000" opacity="0.1"></path>
            <path d="M974.0557,218.21223 L970.4466,259.11531 L970.25422,260.98 L942.77687,522.57929 C942.77687,522.57929 918.71623,514.15806 910.29501,504.53381 C901.87379,494.90956 929.54352,387.83972 929.54352,387.83972 L931.94958,253.10015 C931.94958,253.10015 953.29136,238.0743 962.01334,229.82144 C964.05843,227.89662 965.40597,226.34474 965.63448,225.43044 C966.83751,220.61829 974.0557,218.21223 974.0557,218.21223 Z" id="Path" fill="#575A89"></path>
            <path d="M974.0557,218.21223 L970.4466,259.11531 L970.25422,260.98 L953.00264,258.5138 L962.01334,229.82144 C964.05843,227.89662 965.40597,226.34474 965.63448,225.43044 C966.83751,220.61829 974.0557,218.21223 974.0557,218.21223 Z" id="Path" fill="#000000" opacity="0.1"></path>
            <path d="M1038.4179,420.9231 L1025.18455,432.95341 C1025.18455,432.95341 1031.19971,458.21708 1038.4179,459.42011 C1038.4179,459.42011 1043.23003,452.20192 1044.43306,446.18676 C1045.63609,440.1716 1056.46338,434.15645 1056.46338,434.15645 L1038.4179,420.9231 Z" id="Path" fill="#FFB8B8"></path>
            <path d="M1054.05731,238.06225 L1069.69672,240.46832 C1069.69672,240.46832 1121.42709,328.28964 1115.41193,359.56847 C1109.39677,390.8473 1061.2755,444.98373 1061.2755,444.98373 L1031.1997,420.9231 L1075.71188,360.7715 L1052.85431,288.58959 L1054.05731,238.06225 Z" id="Path" fill="#575A89"></path>
            <path d="M964.35539,182.29567 C964.35539,182.29567 964.35539,152.58912 971.57432,145.83767 L980.23703,145.83767 C980.23703,145.83767 990.34353,130.98439 1003.3376,136.38558 C1016.33167,141.78677 1037.98846,151.23886 1036.54468,166.09213 C1035.1009,180.9454 1030.5982,190.54254 1030.5982,190.54254 C1030.5982,190.54254 1028.19213,190.54254 1022.82908,182.46788 C1015.66261,171.67797 1032.21369,175.04124 1010.5569,170.99035 C988.90011,166.93946 975.90604,161.53826 973.01847,166.93945 C970.1309,172.34064 964.35539,182.29567 964.35539,182.29567 Z" id="Path" fill="#2F2E41"></path>
            <path d="M980.09431,147.85359 C980.09431,147.85359 981.24805,139.17171 985.99742,137.30233 L980.09431,147.85359 Z" id="Path" fill="#2F2E41"></path>
            <path d="M980.07354,149.63951 C980.07354,149.63951 977.66372,141.21936 981.27121,137.60865 L980.07354,149.63951 Z" id="Path" fill="#2F2E41"></path>
        </g>
    </g>
</svg>