<?xml version="1.0" encoding="UTF-8"?>
<svg width="1064px" height="842px" viewBox="0 0 1064 842" version="1.1" xmlns="http://www.w3.org/2000/svg" xmlns:xlink="http://www.w3.org/1999/xlink">
    <!-- Generator: Sketch 61 (89581) - https://sketch.com -->
    <title>Latest Feed &amp; Posts</title>
    <desc>Created with Sketch.</desc>
    <g id="Page-1" stroke="none" stroke-width="1" fill="none" fill-rule="evenodd">
        <g id="Latest-Feed-&amp;-Posts" transform="translate(-114.000000, -218.000000)">
            <path d="M574.852438,1090.66959 C730.988848,1090.66959 669.67112,1056.59236 777.598285,983.372808 C902.646935,898.537763 1141.88341,1039.47132 1141.88341,521.829549 C1141.88341,265.975028 836.655959,164.12965 603.335692,204.076283 C452.198913,229.952326 371.721587,405.258814 264.226638,477.067128 C137.135744,561.96584 270.206016,597.390025 270.206016,736.004898 C270.206016,874.491284 176.466291,836.058736 303.352491,920.951886 C430.23869,1005.84504 420.239365,1090.66959 574.852438,1090.66959 Z" id="Oval" fill="#C9177A" fill-rule="nonzero" opacity="0.1" transform="translate(675.567402, 643.169591) scale(-1, 1) rotate(-140.000000) translate(-675.567402, -643.169591) "></path>
            <path d="M390.549186,411 C390.555649,422.825873 385.452747,434.07794 376.551972,441.864307 C367.651196,449.650673 355.820506,453.212051 344.10051,451.63313 C343.907735,451.621037 343.716383,451.592147 343.52863,451.54679 C342.044485,451.337805 340.574423,451.038763 339.12658,450.65132 C338.1663,450.41391 337.22758,450.12264 336.29967,449.79891 C319.000564,443.888334 307.704427,427.239083 308.605183,408.980314 C309.50594,390.721546 322.385948,375.264973 340.182811,371.08578 C357.979674,366.906587 376.393286,375.014558 385.32705,390.96391 C386.531243,393.096365 387.535364,395.335757 388.32655,397.6534 C389.191971,400.16147 389.806387,402.749224 390.16077,405.37863 C390.36513,406.790987 390.487605,408.213985 390.52758,409.64049 C390.53841,410.09366 390.549186,410.53606 390.549186,411 Z" id="Path" fill="#2F2E41" fill-rule="nonzero"></path>
            <path d="M207.04918,601.5 L175.04918,614.5 C175.04918,614.5 117.04918,597.5 128.04918,614.5 C139.04918,631.5 178.04918,625.5 178.04918,625.5 L227.04918,614.5 L207.04918,601.5 Z" id="Path" fill="#A0616A" fill-rule="nonzero"></path>
            <path d="M376.04918,768.5 L379.04918,822.5 C379.04918,822.5 379.04918,883.5 383.04918,905.5 C387.04918,927.5 394.04918,965.5 394.04918,965.5 L413.04918,963.5 C413.04918,963.5 411.04918,920.5 413.04918,909.5 C415.04918,898.5 413.04918,829.5 413.04918,829.5 L416.04918,766.5 L376.04918,768.5 Z" id="Path" fill="#A0616A" fill-rule="nonzero"></path>
            <path d="M458.04918,759.5 L475.04918,817.5 C475.04918,817.5 486.04918,883.5 501.04918,913.5 L510.04918,942.5 L535.04918,938.5 L525.04918,897.5 L510.04918,815.5 L499.04918,742.5 L458.04918,759.5 Z" id="Path" fill="#A0616A" fill-rule="nonzero"></path>
            <path d="M414.04918,950.5 C414.04918,950.5 399.04918,948.5 390.04918,955.5 C390.04918,955.5 393.04918,1009.5 397.04918,1010.5 C401.04918,1011.5 428.04918,1017.5 429.04918,1010.5 C430.04918,1003.5 421.04918,988.5 421.04918,988.5 L414.04918,950.5 Z" id="Path" fill="#2F2E41" fill-rule="nonzero"></path>
            <path d="M506.04918,937.5 C506.04918,937.5 511.04918,952.5 509.04918,954.5 C507.04918,956.5 499.04918,979.5 504.04918,982.5 C509.04918,985.5 534.04918,997.5 537.04918,1006.5 C540.04918,1015.5 583.04918,1016.5 579.04918,1008.5 C575.04918,1000.5 549.04918,977.5 549.04918,977.5 L535.04918,933.5 L506.04918,937.5 Z" id="Path" fill="#2F2E41" fill-rule="nonzero"></path>
            <circle id="Oval" fill="#DFB99B" fill-rule="nonzero" cx="363.04921" cy="425.5" r="31"></circle>
            <path d="M340.54918,440 L325.54918,483 L376.54918,491 C376.54918,491 367.54918,450 373.54918,440 C379.54918,430 340.54918,440 340.54918,440 Z" id="Path" fill="#DFB99B" fill-rule="nonzero"></path>
            <path d="M510.04918,728.5 C508.21903,762.3577 454.47267,766.07049 445.35682,766.45692 C444.594881,766.489901 443.912984,765.987341 443.71893,765.24979 L433.24132,725.58452 C433.032974,724.796071 432.27191,724.284662 431.463188,724.389675 C430.654465,724.494688 430.049252,725.183508 430.04918,725.99902 L430.04918,765.37284 C430.047045,766.053218 429.624783,766.661527 428.9881,766.90143 C365.94985,790.49505 340.2757,754.51004 337.33794,749.96326 C337.148851,749.668754 337.061153,749.320537 337.08819,748.9716 L347.70918,605.11 L348.04918,600.5 C347.80918,600.38 347.56918,600.25 347.31918,600.1 C326.91458,588.26777 298.46218,504.73862 294.51118,492.89531 C294.24736,492.103105 294.629246,491.240196 295.393,490.90275 L320.62537,479.68837 C320.902346,479.565268 321.139316,479.367065 321.30944,479.11621 L330.73973,465.21079 C331.025866,464.786619 331.495705,464.522705 332.006817,464.49732 C332.51793,464.475402 333.010133,464.694797 333.33422,465.09073 C336.72172,469.22002 344.78322,476.56346 347.29122,478.82093 C347.754745,479.237822 348.416937,479.350445 348.99222,479.11023 L372.46367,469.40866 C372.684613,469.317333 372.923004,469.275946 373.1618,469.28746 L404.50291,470.79864 C413.105699,471.213444 420.382947,477.299007 422.31348,485.69264 L441.99455,571.26252 C442.029318,571.417564 442.087484,571.566412 442.16705,571.70395 C442.30344,571.93968 442.55672,572.37684 442.91917,573.00003 C443.86917,574.64003 445.55917,577.60003 447.79917,581.59003 C464.50923,611.25 511.69923,698.03 510.04918,728.5 Z" id="Path" fill="#C9177A" fill-rule="nonzero"></path>
            <path d="M303.54918,496 L295.54918,491 C295.54918,491 277.54918,502 277.54918,512 C277.54918,522 253.54918,561 253.54918,561 L201.54918,602 L229.54918,625 L322.54918,558 L303.54918,496 Z" id="Path" fill="#C9177A" fill-rule="nonzero"></path>
            <circle id="Oval" fill="#2F2E41" fill-rule="nonzero" cx="317.26921" cy="374.52" r="14.28"></circle>
            <path d="M300.26918,372.48 C300.270325,365.12132 305.863874,358.968698 313.18918,358.26865 C312.74118,358.22627 312.28834,358.2 311.82918,358.2 C303.942554,358.2 297.54918,364.593374 297.54918,372.48 C297.54918,380.366626 303.942554,386.76 311.82918,386.76 C312.28834,386.76 312.74118,386.73373 313.18918,386.69135 C305.863881,385.991289 300.27034,379.838674 300.26918,372.48 L300.26918,372.48 Z" id="Path" fill="#2F2E41" fill-rule="nonzero"></path>
            <path d="M382.92166,408.65 L388.84966,410.80565 C390.68666,409.65243 394.7836,407.37342 394.94178,407.28303 C394.56895,404.49268 390.13466,390.40438 388.88063,388.19012 C380.78063,385.34323 372.54507,382.75622 364.04963,381.61521 C354.31153,380.29346 344.09898,380.94865 335.17425,385.08342 C326.26082,389.20682 318.82738,397.14871 316.78261,406.75124 C315.77716,411.45081 315.95788,416.65882 313.13361,420.54502 C312.566839,421.320114 311.902344,422.018769 311.15661,422.62365 C314.124513,431.058899 319.410389,438.486546 326.40769,444.05428 C330.468998,447.29152 335.038364,449.833856 339.93035,451.57811 L340.60815,451.81538 C340.60815,451.77015 340.59684,451.71367 340.59684,451.66851 C340.56299,451.34085 340.54037,451.01326 340.50652,450.68567 C340.33703,448.799 340.15631,446.93502 339.98682,445.04843 C339.79482,442.83417 339.60269,440.52959 340.41612,438.4622 C341.24079,436.39481 343.39857,434.67763 345.56759,435.14085 C347.74792,435.604 348.85502,438.93666 347.01359,440.17938 C349.34079,442.02075 352.87679,441.45589 355.28308,439.73878 C357.70067,438.01029 359.28229,435.40066 360.93163,432.93791 C367.49986,423.10363 377.0497,418.60791 386.90087,412.06078 L382.92166,408.65 Z" id="Path" fill="#2F2E41" fill-rule="nonzero"></path>
            <path d="M347.70918,605.11 L348.04918,600.5 C347.80918,600.38 347.56918,600.25 347.31918,600.1 C367.90918,595.02 423.65918,580.96 442.91918,573 C443.86918,574.64 445.55918,577.6 447.79918,581.59 C423.54918,586.95 368.49918,599.28 347.70918,605.11 Z" id="Path" fill="#CFCCE0" fill-rule="nonzero"></path>
            <rect id="Rectangle" fill="#3F3D56" fill-rule="nonzero" transform="translate(235.602173, 691.502978) rotate(6.435950) translate(-235.602173, -691.502978) " x="119.602173" y="635.002978" width="232" height="113"></rect>
            <path d="M225.78904,708.92866 C229.30745,731.918 248.41978,748.066 248.41978,748.066 C248.41978,748.066 261.82765,726.94094 258.30925,703.95161 C254.79085,680.96228 235.67851,664.81428 235.67851,664.81428 C235.67851,664.81428 222.27063,685.93933 225.78904,708.92866 Z" id="Path" fill="#FFFFFF" fill-rule="nonzero"></path>
            <path d="M235.1977,705.13463 C249.9391,723.12295 249.16642,748.1318 249.16642,748.1318 C249.16642,748.1318 224.49321,743.9758 209.75182,725.98749 C195.01043,707.99918 195.7831,682.99032 195.7831,682.99032 C195.7831,682.99032 220.45631,687.14631 235.1977,705.13463 Z" id="Path" fill="#C9177A" fill-rule="nonzero"></path>
            <polygon id="Path" fill="#000000" fill-rule="nonzero" opacity="0.1" points="397.549 523 409.549 568 387.549 602 397.549 568"></polygon>
            <path d="M331.54918,461 C331.54918,461 320.54918,477 322.54918,479 C324.54918,481 347.54918,485 347.54918,485 L347.54918,479 L331.54918,461 Z" id="Path" fill="#CFCCE0" fill-rule="nonzero"></path>
            <path d="M372.54918,461 C372.54918,461 383.54918,477 381.54918,479 C379.54918,481 347.54918,485 347.54918,485 L347.54918,479 L372.54918,461 Z" id="Path" fill="#CFCCE0" fill-rule="nonzero"></path>
            <circle id="Oval" fill="#CFCCE0" fill-rule="nonzero" cx="429.54921" cy="716" r="6"></circle>
            <circle id="Oval" fill="#CFCCE0" fill-rule="nonzero" cx="422.54921" cy="693" r="6"></circle>
            <circle id="Oval" fill="#CFCCE0" fill-rule="nonzero" cx="416.54921" cy="670" r="6"></circle>
            <circle id="Oval" fill="#CFCCE0" fill-rule="nonzero" cx="410.54921" cy="646" r="6"></circle>
            <circle id="Oval" fill="#CFCCE0" fill-rule="nonzero" cx="402.54921" cy="623" r="6"></circle>
            <path d="M397.04918,604.5 L364.04918,632.5 C364.04918,632.5 328.04918,663.5 344.04918,671.5 C360.04918,679.5 379.04918,639.5 379.04918,639.5 L423.04918,607.5 L397.04918,604.5 Z" id="Path" fill="#A0616A" fill-rule="nonzero"></path>
            <path d="M408.04918,474.5 L408.04918,474.5 C415.021443,472.576679 422.459137,475.133169 426.77554,480.93664 C429.304574,484.178613 431.412579,487.728006 433.04918,491.5 C436.04918,499.5 442.04918,616.5 442.04918,616.5 L387.04918,608.5 L408.04918,567.5 L408.04918,474.5 Z" id="Path" fill="#C9177A" fill-rule="nonzero"></path>
            <g id="Group" transform="translate(0.561180, 185.000000)"></g>
            <g id="Group" transform="translate(0.561180, 185.000000)"></g>
            <rect id="Rectangle" fill="#3F3D56" fill-rule="nonzero" x="583.8744" y="657.47266" width="2" height="51.58984"></rect>
            <path d="M911.84023,1015.5918 L631.64882,1015.5918 C605.272326,1015.55821 583.900443,994.180212 583.8744,967.80371 L583.8744,800.31445 L585.8744,800.31445 L585.8744,967.80371 C585.899005,993.076239 606.376299,1013.55965 631.64882,1013.5918 L911.84023,1013.5918 C937.116563,1013.56351 957.600022,993.080043 957.62831,967.80371 L957.62831,797.917 L959.62831,797.917 L959.62831,967.80371 C959.5986,994.184024 938.220544,1015.56208 911.84023,1015.5918 L911.84023,1015.5918 Z" id="Path" fill="#3F3D56" fill-rule="nonzero"></path>
            <rect id="Rectangle" fill="#3F3D56" fill-rule="nonzero" x="957.62831" y="657.61426" width="2" height="50.38477"></rect>
            <g id="Group" transform="translate(0.561180, 185.000000)"></g>
            <g id="Group" transform="translate(0.561180, 185.000000)"></g>
            <path d="M959.62831,567.47266 L957.62831,567.47266 L957.62831,518.38525 L960.76405,518.38525 C961.868794,518.383905 962.763959,517.488534 962.76505,516.38379 L962.76505,430.3042 C962.763948,429.199535 961.868715,428.304302 960.76405,428.3032 L957.62831,428.3032 L957.62831,301.7749 C957.596192,276.502292 937.112847,256.024842 911.84023,256 L631.64882,256 C606.380016,256.028701 585.902836,276.506096 585.8744,301.7749 L585.8744,567.33057 L583.8744,567.33057 L583.8744,301.7749 C583.904104,275.402052 605.275972,254.029968 631.64882,254 L911.84023,254 C938.216893,254.026104 959.59493,275.398245 959.62831,301.7749 L959.62831,426.30322 L960.76405,426.30322 C962.972686,426.305766 964.76505,428.095584 964.76505,430.30422 L964.76505,516.38381 C964.76505,518.5926 962.97284,520.382663 960.76405,520.38527 L959.62831,520.38527 L959.62831,567.47266 Z" id="Path" fill="#3F3D56" fill-rule="nonzero"></path>
            <rect id="Rectangle" fill="#E6E8EC" fill-rule="nonzero" x="736.38287" y="278.99269" width="52.19216" height="10.59797" rx="2.54189"></rect>
            <circle id="Oval" fill="#E6E8EC" fill-rule="nonzero" cx="802.47775" cy="284.29168" r="6.01122"></circle>
            <path d="M936.223332,311.02746 L936.223332,971.68234 C936.215772,988.071592 922.927704,1001.35414 906.53845,1001.35414 L638.32633,1001.35414 C630.451496,1001.36781 622.895058,998.246512 617.325478,992.679379 C611.755898,987.112245 608.631276,979.55718 608.641505,971.68234 L608.641505,311.02746 C608.641505,303.154451 611.768579,295.603802 617.33563,290.036736 C622.90268,284.469671 630.453321,281.342578 638.32633,281.342578 L678.46969,281.342578 L678.46969,286.49319 C678.469784,299.99237 689.413,310.9356 702.91218,310.93571 L839.31836,310.93571 C852.817535,310.935605 863.760739,299.992365 863.7608,286.49319 L863.7608,281.342578 L906.53845,281.342578 C914.412154,281.342578 921.964108,284.466702 927.531658,290.034252 C933.099208,295.601802 936.223332,303.153756 936.223332,311.02746 L936.223332,311.02746 Z" id="Path" fill="#FFFFFF" fill-rule="nonzero"></path>
            <rect id="Rectangle" fill="#000000" fill-rule="nonzero" opacity="0.2" x="655.54921" y="838" width="232" height="113"></rect>
            <path d="M976.24472,658.63473 L568.62018,658.63473 L568.62018,566.31973 L976.24472,566.31973 L976.24472,658.63473 Z M571.01793,656.23694 L973.84693,656.23694 L973.84693,568.71755 L571.01793,568.71755 L571.01793,656.23694 Z" id="Shape" fill="#3F3D56" fill-rule="nonzero"></path>
            <rect id="Rectangle" fill="#C9177A" fill-rule="nonzero" x="600.99033" y="597.49105" width="45.55804" height="45.55804"></rect>
            <path d="M640.55389,637.05461 L592.59806,637.05461 L592.59806,589.09877 L640.55389,589.09877 L640.55389,637.05461 Z M594.99585,634.65682 L638.15614,634.65682 L638.15614,591.49657 L594.99585,591.49657 L594.99585,634.65682 Z" id="Shape" fill="#3F3D56" fill-rule="nonzero"></path>
            <rect id="Rectangle" fill="#3F3D56" fill-rule="nonzero" x="716.08433" y="598.68994" width="213.40346" height="2.39779"></rect>
            <rect id="Rectangle" fill="#3F3D56" fill-rule="nonzero" x="716.08433" y="615.47448" width="213.40346" height="2.39779"></rect>
            <rect id="Rectangle" fill="#3F3D56" fill-rule="nonzero" x="716.08433" y="632.25902" width="213.40346" height="2.39779"></rect>
            <path d="M976.24472,800.31438 L568.62018,800.31438 L568.62018,707.99938 L976.24472,707.99938 L976.24472,800.31438 Z M571.01793,797.91659 L973.84693,797.91659 L973.84693,710.39719 L571.01793,710.39719 L571.01793,797.91659 Z" id="Shape" fill="#3F3D56" fill-rule="nonzero"></path>
            <rect id="Rectangle" fill="#C9177A" fill-rule="nonzero" transform="translate(921.095520, 761.949710) rotate(-180.000000) translate(-921.095520, -761.949710) " x="898.3165" y="739.17069" width="45.55804" height="45.55804"></rect>
            <path d="M952.2668,778.73425 L904.31097,778.73425 L904.31097,730.77842 L952.2668,730.77842 L952.2668,778.73425 Z M906.70876,776.33646 L949.86905,776.33646 L949.86905,733.17621 L906.70876,733.17621 L906.70876,776.33646 Z" id="Shape" fill="#3F3D56" fill-rule="nonzero"></path>
            <rect id="Rectangle" fill="#3F3D56" fill-rule="nonzero" x="615.37708" y="740.36959" width="213.40346" height="2.39779"></rect>
            <rect id="Rectangle" fill="#3F3D56" fill-rule="nonzero" x="615.37708" y="757.15413" width="213.40346" height="2.39779"></rect>
            <rect id="Rectangle" fill="#3F3D56" fill-rule="nonzero" x="615.37708" y="773.93867" width="213.40346" height="2.39779"></rect>
            <rect id="Rectangle" fill="#3F3D56" fill-rule="nonzero" x="665.28055" y="419.07955" width="213.40346" height="2.39779"></rect>
            <rect id="Rectangle" fill="#3F3D56" fill-rule="nonzero" x="665.28055" y="435.8641" width="213.40346" height="2.39779"></rect>
            <rect id="Rectangle" fill="#3F3D56" fill-rule="nonzero" x="665.28055" y="452.64864" width="213.40346" height="2.39779"></rect>
        </g>
    </g>
</svg>