<?xml version="1.0" encoding="UTF-8"?>
<svg width="1024px" height="740px" viewBox="0 0 1024 740" version="1.1" xmlns="http://www.w3.org/2000/svg" xmlns:xlink="http://www.w3.org/1999/xlink">
    <!-- Generator: Sketch 61 (89581) - https://sketch.com -->
    <title>Documents/Materials</title>
    <desc>Created with Sketch.</desc>
    <g id="Page-1" stroke="none" stroke-width="1" fill="none" fill-rule="evenodd">
        <g id="Documents/Materials">
            <path d="M549.82078,4.43447865 C508.021939,1.23455688 468.20583,-28.474939 430.191618,-60.9861442 C392.177406,-93.4973494 354.524865,-129.521358 313.727078,-146.744048 C287.48655,-157.822888 257.474311,-159.387294 236.335929,-128.412051 C215.985473,-98.5461149 209.41081,-47.1340384 205.878059,0.623016276 C203.217193,36.5474714 201.654257,74.3492139 208.945804,107.983947 C214.002741,131.336265 222.986392,150.962452 229.192925,173.40457 C250.80923,251.226667 235.535086,347.195877 212.110426,423.183352 C201.131126,458.837592 188.375763,492.870538 179.902326,530.786055 C171.42889,568.701573 167.502176,612.206287 174.916432,650.918229 C182.272563,689.317291 199.794235,718.102365 218.769049,738.368536 C257.319309,779.540863 302.728402,791.316575 347.039566,797.986634 C445.097633,812.763162 543.672372,806.363318 641.988776,799.963475 C678.375468,797.588422 714.917162,795.184925 750.70968,782.797672 C770.588672,775.914285 791.107046,765.006107 805.541597,738.638752 C823.857653,705.174681 828.397916,648.500511 816.126934,606.545981 C795.531058,536.161924 738.625992,518.68324 724.210817,443.136642 C716.292804,401.566103 724.430403,355.25968 735.939293,316.689956 C760.636259,233.975534 802.028221,161.401308 804.211164,66.854286 C805.709515,1.90298498 785.80469,-63.1194254 755.036816,-93.8528963 C722.789966,-126.179217 678.059006,-122.083317 654.279133,-68.7655096 C629.775919,-13.8264083 586.724146,7.25040981 549.82078,4.43447865 Z" id="Path" fill="#C9177A" fill-rule="nonzero" opacity="0.1" transform="translate(497.000000, 326.500000) rotate(-90.000000) translate(-497.000000, -326.500000) "></path>
            <ellipse id="Oval" fill="#C9177A" fill-rule="nonzero" opacity="0.1" cx="512" cy="715.54" rx="512" ry="23.5"></ellipse>
            <polyline id="Path" stroke="#979797" fill="#FFFFFF" fill-rule="nonzero" points="208.3 478.74 358.94 478.74 358.94 708.33 196 708.33 196 478.74 208.3 478.74"></polyline>
            <rect id="Rectangle" fill="#C9177A" fill-rule="nonzero" x="216.57" y="511.66" width="121.79" height="26.33"></rect>
            <rect id="Rectangle" fill="#373E46" fill-rule="nonzero" x="227.27" y="570.5" width="100.4" height="1.65"></rect>
            <rect id="Rectangle" fill="#373E46" fill-rule="nonzero" x="227.27" y="579.55" width="100.4" height="1.65"></rect>
            <rect id="Rectangle" fill="#373E46" fill-rule="nonzero" x="227.27" y="588.6" width="100.4" height="1.65"></rect>
            <rect id="Rectangle" fill="#373E46" fill-rule="nonzero" x="227.27" y="597.65" width="100.4" height="1.65"></rect>
            <rect id="Rectangle" fill="#373E46" fill-rule="nonzero" x="227.27" y="606.7" width="100.4" height="1.65"></rect>
            <rect id="Rectangle" fill="#373E46" fill-rule="nonzero" x="227.27" y="615.76" width="100.4" height="1.65"></rect>
            <rect id="Rectangle" fill="#373E46" fill-rule="nonzero" x="227.27" y="624.81" width="100.4" height="1.65"></rect>
            <rect id="Rectangle" fill="#373E46" fill-rule="nonzero" x="227.27" y="633.86" width="100.4" height="1.65"></rect>
            <rect id="Rectangle" fill="#373E46" fill-rule="nonzero" x="227.27" y="642.91" width="100.4" height="1.65"></rect>
            <rect id="Rectangle" fill="#373E46" fill-rule="nonzero" x="227.27" y="651.96" width="100.4" height="1.65"></rect>
            <rect id="Rectangle" fill="#373E46" fill-rule="nonzero" x="227.27" y="661.02" width="100.4" height="1.65"></rect>
            <polyline id="Path" stroke="#979797" fill="#FFFFFF" fill-rule="nonzero" points="442.83 478.74 593.47 478.74 593.47 708.33 430.53 708.33 430.53 478.74 442.83 478.74"></polyline>
            <rect id="Rectangle" fill="#C9177A" fill-rule="nonzero" x="451.1" y="511.66" width="121.79" height="26.33"></rect>
            <rect id="Rectangle" fill="#373E46" fill-rule="nonzero" x="461.8" y="570.5" width="100.4" height="1.65"></rect>
            <rect id="Rectangle" fill="#373E46" fill-rule="nonzero" x="461.8" y="579.55" width="100.4" height="1.65"></rect>
            <rect id="Rectangle" fill="#373E46" fill-rule="nonzero" x="461.8" y="588.6" width="100.4" height="1.65"></rect>
            <rect id="Rectangle" fill="#373E46" fill-rule="nonzero" x="461.8" y="597.65" width="100.4" height="1.65"></rect>
            <rect id="Rectangle" fill="#373E46" fill-rule="nonzero" x="461.8" y="606.7" width="100.4" height="1.65"></rect>
            <rect id="Rectangle" fill="#373E46" fill-rule="nonzero" x="461.8" y="615.76" width="100.4" height="1.65"></rect>
            <rect id="Rectangle" fill="#373E46" fill-rule="nonzero" x="461.8" y="624.81" width="100.4" height="1.65"></rect>
            <rect id="Rectangle" fill="#373E46" fill-rule="nonzero" x="461.8" y="633.86" width="100.4" height="1.65"></rect>
            <rect id="Rectangle" fill="#373E46" fill-rule="nonzero" x="461.8" y="642.91" width="100.4" height="1.65"></rect>
            <rect id="Rectangle" fill="#373E46" fill-rule="nonzero" x="461.8" y="651.96" width="100.4" height="1.65"></rect>
            <rect id="Rectangle" fill="#373E46" fill-rule="nonzero" x="461.8" y="661.02" width="100.4" height="1.65"></rect>
            <polyline id="Path" stroke="#979797" fill="#FFFFFF" fill-rule="nonzero" points="677.36 478.74 828 478.74 828 708.33 665.06 708.33 665.06 478.74 677.36 478.74"></polyline>
            <rect id="Rectangle" fill="#C9177A" fill-rule="nonzero" x="685.64" y="511.66" width="121.79" height="26.33"></rect>
            <rect id="Rectangle" fill="#373E46" fill-rule="nonzero" x="696.33" y="570.5" width="100.4" height="1.65"></rect>
            <rect id="Rectangle" fill="#373E46" fill-rule="nonzero" x="696.33" y="579.55" width="100.4" height="1.65"></rect>
            <rect id="Rectangle" fill="#373E46" fill-rule="nonzero" x="696.33" y="588.6" width="100.4" height="1.65"></rect>
            <rect id="Rectangle" fill="#373E46" fill-rule="nonzero" x="696.33" y="597.65" width="100.4" height="1.65"></rect>
            <rect id="Rectangle" fill="#373E46" fill-rule="nonzero" x="696.33" y="606.7" width="100.4" height="1.65"></rect>
            <rect id="Rectangle" fill="#373E46" fill-rule="nonzero" x="696.33" y="615.76" width="100.4" height="1.65"></rect>
            <rect id="Rectangle" fill="#373E46" fill-rule="nonzero" x="696.33" y="624.81" width="100.4" height="1.65"></rect>
            <rect id="Rectangle" fill="#373E46" fill-rule="nonzero" x="696.33" y="633.86" width="100.4" height="1.65"></rect>
            <rect id="Rectangle" fill="#373E46" fill-rule="nonzero" x="696.33" y="642.91" width="100.4" height="1.65"></rect>
            <rect id="Rectangle" fill="#373E46" fill-rule="nonzero" x="696.33" y="651.96" width="100.4" height="1.65"></rect>
            <rect id="Rectangle" fill="#373E46" fill-rule="nonzero" x="696.33" y="661.02" width="100.4" height="1.65"></rect>
            <polyline id="Path" stroke="#373E46" points="512 478.74 512 320.74 277.47 478.74"></polyline>
            <line x1="746.53" y1="478.74" x2="512" y2="320.74" id="Path" stroke="#373E46"></line>
            <g id="Group" opacity="0.1" transform="translate(380.000000, 20.000000)" fill="#000000" fill-rule="nonzero">
                <polygon id="Path" points="19.93 0.54 0 0.54 0 372.54 264 372.54 264 0.54"></polygon>
            </g>
            <polyline id="Path" stroke="#979797" fill="#FFFFFF" fill-rule="nonzero" points="404.45 28.04 638.68 28.04 638.68 385.04 385.32 385.04 385.32 28.04 404.45 28.04"></polyline>
            <rect id="Rectangle" fill="#C9177A" fill-rule="nonzero" x="417.31" y="79.22" width="189.38" height="40.95"></rect>
            <rect id="Rectangle" fill="#373E46" fill-rule="nonzero" x="433.95" y="170.71" width="156.11" height="2.56"></rect>
            <rect id="Rectangle" fill="#373E46" fill-rule="nonzero" x="433.95" y="184.78" width="156.11" height="2.56"></rect>
            <rect id="Rectangle" fill="#373E46" fill-rule="nonzero" x="433.95" y="198.86" width="156.11" height="2.56"></rect>
            <rect id="Rectangle" fill="#373E46" fill-rule="nonzero" x="433.95" y="212.93" width="156.11" height="2.56"></rect>
            <rect id="Rectangle" fill="#373E46" fill-rule="nonzero" x="433.95" y="227.01" width="156.11" height="2.56"></rect>
            <rect id="Rectangle" fill="#373E46" fill-rule="nonzero" x="433.95" y="241.09" width="156.11" height="2.56"></rect>
            <rect id="Rectangle" fill="#373E46" fill-rule="nonzero" x="433.95" y="255.16" width="156.11" height="2.56"></rect>
            <rect id="Rectangle" fill="#373E46" fill-rule="nonzero" x="433.95" y="269.24" width="156.11" height="2.56"></rect>
            <rect id="Rectangle" fill="#373E46" fill-rule="nonzero" x="433.95" y="283.31" width="156.11" height="2.56"></rect>
            <rect id="Rectangle" fill="#373E46" fill-rule="nonzero" x="433.95" y="297.39" width="156.11" height="2.56"></rect>
            <rect id="Rectangle" fill="#373E46" fill-rule="nonzero" x="433.95" y="311.46" width="156.11" height="2.56"></rect>
            <path d="M132.64,634.91 C132.81,638.91 130.28,642.42 127.87,645.59 C126.784115,647.075412 125.80499,648.635997 124.94,650.26 C122.32,654.92 116.69,657.14 113.64,661.54 C112.91,662.61 112.34,663.78 111.69,664.91 C109.482204,668.783629 106.708275,672.305811 103.46,675.36 L98,680.52 C96.343277,681.890868 94.9533959,683.555335 93.9,685.43 C92.9854016,687.737736 92.622428,690.227188 92.84,692.7 L92.84,693.52 C92.84,693.71 92.84,693.89 92.84,694.08 C92.8449309,697.107446 93.1802494,700.125312 93.84,703.08 C94.1997146,703.984308 94.2558669,704.981011 94,705.92 C93.4886502,706.84722 92.6036134,707.510088 91.57,707.74 C90.5183342,708.179402 89.3504498,708.256792 88.25,707.96 C87.2188268,707.486336 86.3545131,706.712636 85.77,705.74 C82.55,701.32 81.25,695.85 79.33,690.74 C79.014401,689.623252 79.2937799,688.422677 80.07,687.56 C80.8336353,686.720275 81.6739427,685.95362 82.58,685.27 C86.38,681.95 88.15,676.94 89.58,672.11 C91.01,667.28 92.43,662.23 95.75,658.44 C97.9,655.98 100.75,654.21 103.13,652 C109.13,646.46 112.13,638.39 113.65,630.39 C115.488291,630.041158 117.373523,630.017466 119.22,630.32 L129.04,631.62 C130.120692,631.636011 131.158619,632.044784 131.96,632.77 C132.413549,633.390306 132.652299,634.141668 132.64,634.91 Z" id="Path" fill="#EFB7B9" fill-rule="nonzero"></path>
            <path d="M174.57,643.02 C174.364112,644.503429 173.842373,645.925425 173.04,647.19 C171.857264,649.009148 170.518911,650.722239 169.04,652.31 C165.29,656.62 164.65,662.75 162.26,667.94 C161.49,669.62 160.52,671.21 159.74,672.94 C157.68,677.35 156.92,682.2 156.47,687.08 C156.42,687.7 156.36,688.33 156.32,688.96 C156.28,689.59 156.2,690.51 156.14,691.28 C155.99,693.28 155.86,695.47 156.72,697.28 C157.17,698.28 157.89,699.02 157.92,700.07 C156.44,701.51 153.92,701.34 152.2,700.18 C150.562006,698.899469 149.306489,697.194317 148.57,695.25 C146.986884,691.799527 145.841335,688.164676 145.16,684.43 C144.9,683.02 144.78,681.35 145.8,680.33 C146.367829,679.882555 146.965922,679.474916 147.59,679.11 C148.84,678.11 149.2,676.41 149.48,674.84 C150.44,669.446667 151.403333,664.056667 152.37,658.67 C152.58213,657.348904 152.865882,656.040308 153.22,654.75 C154.04,651.86 155.29,648.64 157.63,646.75 C158.243522,646.183242 158.522973,645.341111 158.37,644.52 C158.201785,643.714333 157.890166,642.945449 157.45,642.25 C155.71,639.13 153.62,635.99 150.45,634.25 C153.715078,631.518225 157.439654,629.388445 161.45,627.96 C162.153518,627.62585 162.93518,627.490962 163.71,627.57 C164.126427,627.66096 164.525073,627.819742 164.89,628.04 C166.978789,629.361113 168.806015,631.056128 170.28,633.04 C172.61,635.96 175,639.33 174.57,643.02 Z" id="Path" fill="#EFB7B9" fill-rule="nonzero"></path>
            <path d="M98.14,706.79 C97.1673681,705.864782 96.0403822,705.116843 94.81,704.58 C94.5355416,704.413663 94.2286752,704.307965 93.91,704.27 C93.14,704.27 92.56,704.93 91.91,705.27 C90.8180046,705.86031 89.5019954,705.86031 88.41,705.27 C87.3467291,704.6732 86.452178,703.816495 85.81,702.78 C84.41,700.71 84.13,698.65 83.55,696.38 L89.66,695.23 C90.7705265,694.96889 91.8427143,694.565559 92.85,694.03 C92.85,693.84 92.85,693.66 92.85,693.47 L92.85,692.65 C91.72,692.98 89.33,694.09 88.76,694.22 C86.9211001,694.636487 85.0572208,694.933772 83.18,695.11 C82.89,694.53 82.47,694.03 82.18,693.46 C81.4935048,692.325201 81.0571177,691.056951 80.9,689.74 C80.8872066,689.216708 80.7857687,688.699375 80.6,688.21 C80.4013259,687.710468 79.8946684,687.404022 79.36,687.46 C79.1599421,687.510927 78.9726496,687.602871 78.81,687.73 C77.0973142,688.916227 75.7693675,690.577899 74.99,692.51 C73.85,695.37 73.99,698.57 73.56,701.62 C73.21,703.91 72.51,706.18 72.63,708.49 C72.6275633,708.614044 72.6623982,708.735967 72.73,708.84 C72.8332258,708.940444 72.9668891,709.003758 73.11,709.02 C74.38,709.3 75.85,709.55 76.88,708.76 C77.91,707.97 78.06,706.47 78.26,705.17 C78.5254113,703.435588 79.0478157,701.750412 79.81,700.17 C81.3865766,702.101361 82.2106854,704.538165 82.13,707.03 C82.13,708.4 81.97,709.97 82.91,710.97 C83.3713117,711.413079 83.934521,711.735894 84.55,711.91 C85.8050493,712.344292 87.1077068,712.626311 88.43,712.75 C90.832981,712.891356 93.2442225,712.767273 95.62,712.38 C96.37,712.29 97.13,712.19 97.87,712.03 C98.2514166,711.963157 98.613367,711.812913 98.93,711.59 C99.2716245,711.271443 99.4909732,710.843359 99.55,710.38 C99.6544441,709.030569 99.1348647,707.707669 98.14,706.79 L98.14,706.79 Z" id="Path" fill="#464353" fill-rule="nonzero"></path>
            <path d="M161.12,699.14 C160.525215,698.607637 159.850275,698.172301 159.12,697.85 C158.535938,697.487882 157.874706,697.268613 157.19,697.21 C156.419818,697.286865 155.672286,697.514522 154.99,697.88 C154.295283,698.244512 153.474434,698.281157 152.75,697.98 C152.215986,697.590054 151.825764,697.034603 151.64,696.4 C150.78,694.4 150.14,692.22 149.39,690.14 C149.564379,689.862141 149.823971,689.648153 150.13,689.53 C150.362505,689.456351 150.60652,689.425849 150.85,689.44 C152.661956,689.495055 154.473471,689.316928 156.24,688.91 C156.24,688.28 156.34,687.65 156.39,687.03 C155.124304,686.911446 153.847607,687.019813 152.62,687.35 C151.770658,687.678419 150.856644,687.80508 149.95,687.72 C149.33,687.59 148.74,687.21 148.14,687.13 C147.86,686.6 147.55,686.13 147.25,685.57 C146.5,684.24 146.25,682.69 145.53,681.39 C145.301351,680.938904 144.854188,680.639532 144.35,680.6 C143.815031,680.671727 143.331765,680.956637 143.01,681.39 C141.715357,682.552438 140.644382,683.941995 139.85,685.49 C139.55287,686.206555 139.32516,686.949959 139.17,687.71 C138.169865,691.969644 137.689697,696.334807 137.74,700.71 C138.846621,701.063816 140.016221,701.176343 141.17,701.04 C141.763333,698.093333 142.486667,695.176667 143.34,692.29 C143.355412,692.182341 143.412968,692.085217 143.5,692.02 C143.69,691.92 143.88,692.12 143.99,692.3 C145.034447,693.853989 145.877827,695.534029 146.5,697.3 C146.751291,698.588557 147.185695,699.834521 147.79,701 C148.571003,702.067802 149.69855,702.831283 150.98,703.16 C152.255388,703.481707 153.564705,703.649568 154.88,703.66 L156.88,703.76 C157.935598,703.886475 159.005748,703.80494 160.03,703.52 C161.07759,703.216779 161.856429,702.33669 162.03,701.26 C162.049381,700.454626 161.717184,699.680716 161.12,699.14 L161.12,699.14 Z" id="Path" fill="#464353" fill-rule="nonzero"></path>
            <path d="M170.28,631.55 C169.399613,632.293957 168.329821,632.778652 167.19,632.95 L163.8,633.78 C163.406578,633.806822 163.043064,633.999484 162.8,634.31 C162.61,634.67 162.74,635.11 162.65,635.5 C162.614328,635.654684 162.542344,635.798653 162.44,635.92 C161.958945,636.345455 161.331606,636.567713 160.69,636.54 C160.132482,636.519559 159.576105,636.604372 159.05,636.79 C158.830198,636.884144 158.640097,637.036225 158.5,637.23 C158.33,637.48 158.25,637.79 158.07,638.02 C157.763776,638.354473 157.349553,638.570435 156.9,638.63 C156.436102,638.738177 155.964803,638.811713 155.49,638.85 C153.606546,639.017631 151.712852,638.672066 150.01,637.85 C149.611666,637.570333 149.121987,637.452381 148.64,637.52 C148.358582,637.622798 148.119356,637.81629 147.96,638.07 C147.784696,638.340427 147.594399,638.600834 147.39,638.85 C146.52,639.79 145,639.54 143.75,639.28 C142.97,639.11 142.19,638.97 141.41,638.84 C136.714306,638.190523 131.980368,637.856441 127.24,637.84 C121.09,637.65 114.95,637.48 109.01,636.03 C107.71,635.72 106.14,635.03 106.21,633.64 C106.21,632.88 106.85,632.23 106.85,631.47 C106.85,630.18 105.26,629.47 103.99,629.27 C104.45,622.19 108.7,616 110.91,609.27 C111.46,607.6 111.91,605.89 112.49,604.27 C115.18,596.83 121.1,591.11 126.02,584.91 C126.777385,584.042637 127.397871,583.064698 127.86,582.01 C128.282084,580.749244 128.501478,579.429507 128.51,578.1 L128.78,573.43 C135.987708,572.933755 143.22937,573.384257 150.32,574.77 C150.789134,574.821827 151.224822,575.0379 151.55,575.38 C151.701728,575.628995 151.794112,575.90957 151.82,576.2 C152.1,577.9 152.29,579.62 152.4,581.34 C152.407648,581.718446 152.461377,582.094551 152.56,582.46 C152.751997,582.921513 153.015196,583.350054 153.34,583.73 C157.51,589.02 160,595.49 162,602.02 C164,608.55 165.59,615.19 168.11,621.53 C168.97,623.72 170.11,626.18 170.33,628.53 C171.147791,629.378685 171.125437,630.728852 170.28,631.55 Z" id="Path" fill="#464353" fill-rule="nonzero"></path>
            <path d="M141.45,638.81 C136.754306,638.160523 132.020368,637.826441 127.28,637.81 L127.67,624.66 C127.76,621.75 127.85,618.83 128.2,615.94 C128.69,611.83 129.69,607.79 130.2,603.69 C130.484673,601.334369 130.614951,598.962639 130.59,596.59 C130.451284,594.182024 130.518193,591.766604 130.79,589.37 C131.12,587.37 131.97,584.64 133.79,583.57 C135,585.22 133.14,589.85 132.93,591.83 C132.48,595.96 133.59,600.07 134.55,604.1 C135.7,608.94 136.64,613.83 137.55,618.72 C138.863333,625.4 140.163333,632.096667 141.45,638.81 Z" id="Path" fill="#000000" fill-rule="nonzero" opacity="0.1"></path>
            <path d="M155.53,638.85 C153.646546,639.017631 151.752852,638.672066 150.05,637.85 C149.651666,637.570333 149.161987,637.452381 148.68,637.52 C148.398582,637.622798 148.159356,637.81629 148,638.07 C146.39,630.43 146.48,622.47 145.2,614.75 C144.75,611.99 144.12,609.18 144.65,606.45 C145.22,603.52 147.07,600.98 147.79,598.09 C148.173348,596.178689 148.307797,594.225813 148.19,592.28 C148.093458,590.550383 147.672829,588.854298 146.95,587.28 C148.64,587.56 150.02,589.22 150.7,590.72 C151.432454,592.597075 151.805598,594.595089 151.8,596.61 C152.07,601.47 152.11,606.32 152.04,611.18 C151.949794,613.44426 151.99989,615.711933 152.19,617.97 C152.44,620.2 152.99,622.38 153.19,624.61 C153.4,627.29 153.09,630.03 153.74,632.61 C154.24,634.69 155.38,636.79 155.53,638.85 Z" id="Path" fill="#000000" fill-rule="nonzero" opacity="0.1"></path>
            <path d="M162.48,635.92 C161.998945,636.345455 161.371606,636.567713 160.73,636.54 C160.172482,636.519559 159.616105,636.604372 159.09,636.79 L156.27,619.37 C155.881447,617.233195 155.611036,615.076587 155.46,612.91 C155.34,610.4 155.53,607.91 155.36,605.38 C155.043346,602.312819 154.464565,599.278395 153.63,596.31 C153.19,594.54 151.19,589.24 152.31,587.74 C154.06,588.87 155.13,591.29 155.72,593.23 C156.332705,595.47265 156.721277,597.770583 156.88,600.09 C157.32,604.556667 157.766667,609.033333 158.22,613.52 C158.96,620.96 159.73,628.52 162.32,635.52 C162.38,635.64 162.43,635.78 162.48,635.92 Z" id="Path" fill="#000000" fill-rule="nonzero" opacity="0.1"></path>
            <path d="M177.22,553.47 C178.47,552.41 179.73,551.34 180.89,550.17 C182.513726,548.44417 184.014093,546.606304 185.38,544.67 C186.912178,542.740305 188.186247,540.619097 189.17,538.36 C190.17,535.73 190.51,532.74 192.29,530.56 C192.495192,530.277821 192.775995,530.059419 193.1,529.93 C194.1,529.61 194.87,530.93 195.1,531.93 C196.05,537.08 193.79,542.22 191.58,546.93 C190.941891,548.543724 190.005572,550.022835 188.82,551.29 C188.127122,551.885159 187.402743,552.44263 186.65,552.96 C185.538861,553.862593 184.514416,554.866951 183.59,555.96 C182.01,557.76 180.49,559.63 179.06,561.56 C177.388205,564.029245 175.532967,566.369185 173.51,568.56 C171.472412,570.758508 168.778285,572.238875 165.83,572.78 C166.67,572.66 166.39,567.72 166.3,567.1 C166.17,566.19 165.55,565.1 165.53,564.25 C165.53,563.17 165.95,563.01 166.85,562.25 L177.22,553.47 Z" id="Path" fill="#EFB7B9" fill-rule="nonzero"></path>
            <path d="M177.22,553.47 C178.47,552.41 179.73,551.34 180.89,550.17 C182.513726,548.44417 184.014093,546.606304 185.38,544.67 C186.912178,542.740305 188.186247,540.619097 189.17,538.36 C190.17,535.73 190.51,532.74 192.29,530.56 C192.495192,530.277821 192.775995,530.059419 193.1,529.93 C194.1,529.61 194.87,530.93 195.1,531.93 C196.05,537.08 193.79,542.22 191.58,546.93 C190.941891,548.543724 190.005572,550.022835 188.82,551.29 C188.127122,551.885159 187.402743,552.44263 186.65,552.96 C185.538861,553.862593 184.514416,554.866951 183.59,555.96 C182.01,557.76 180.49,559.63 179.06,561.56 C177.388205,564.029245 175.532967,566.369185 173.51,568.56 C171.472412,570.758508 168.778285,572.238875 165.83,572.78 C166.67,572.66 166.39,567.72 166.3,567.1 C166.17,566.19 165.55,565.1 165.53,564.25 C165.53,563.17 165.95,563.01 166.85,562.25 L177.22,553.47 Z" id="Path" fill="#000000" fill-rule="nonzero" opacity="0.1"></path>
            <path d="M141.88,522.31 C141.88,522.31 139,536.6 135.69,539.02 C132.38,541.44 153.78,544.25 153.78,544.25 C153.78,544.25 154.26,532.83 159.97,527.59 C165.68,522.35 141.88,522.31 141.88,522.31 Z" id="Path" fill="#EFB7B9" fill-rule="nonzero"></path>
            <path d="M136.19,537.57 C134.770087,537.777541 133.471579,538.487109 132.53,539.57 C130.29,541.99 129.84,545.67 130.61,548.88 C131.557238,552.050463 133.079194,555.019802 135.1,557.64 C137.425033,561.271099 140.295332,564.522531 143.61,567.28 C145.459135,568.618322 147.378544,569.856758 149.36,570.99 C152.646734,573.010554 155.806035,575.231417 158.82,577.64 C159.484802,578.234164 160.24121,578.717049 161.06,579.07 C161.764997,579.288741 162.502607,579.38348 163.24,579.35 C165.740947,579.327922 168.206215,578.754286 170.46,577.67 C170.671264,577.589935 170.857573,577.455378 171,577.28 C171.160699,576.906554 171.160699,576.483446 171,576.11 C169.65,570.69 172.24,564.53 169.67,559.57 C166.88,560.47 163.81,561.45 161.02,562.36 C160.590716,562.529088 160.131056,562.6074 159.67,562.59 C159.11477,562.474012 158.606568,562.195545 158.21,561.79 C155.21,559.17 153.27,555.52 151.53,551.92 C149.79,548.32 148.1,544.59 145.38,541.66 C142.66,538.73 140.17,537.15 136.19,537.57 Z" id="Path" fill="#C9177A" fill-rule="nonzero"></path>
            <path d="M136.19,537.57 C134.770087,537.777541 133.471579,538.487109 132.53,539.57 C130.29,541.99 129.84,545.67 130.61,548.88 C131.557238,552.050463 133.079194,555.019802 135.1,557.64 C137.425033,561.271099 140.295332,564.522531 143.61,567.28 C145.459135,568.618322 147.378544,569.856758 149.36,570.99 C152.646734,573.010554 155.806035,575.231417 158.82,577.64 C159.484802,578.234164 160.24121,578.717049 161.06,579.07 C161.764997,579.288741 162.502607,579.38348 163.24,579.35 C165.740947,579.327922 168.206215,578.754286 170.46,577.67 C170.671264,577.589935 170.857573,577.455378 171,577.28 C171.160699,576.906554 171.160699,576.483446 171,576.11 C169.65,570.69 172.24,564.53 169.67,559.57 C166.88,560.47 163.81,561.45 161.02,562.36 C160.590716,562.529088 160.131056,562.6074 159.67,562.59 C159.11477,562.474012 158.606568,562.195545 158.21,561.79 C155.21,559.17 153.27,555.52 151.53,551.92 C149.79,548.32 148.1,544.59 145.38,541.66 C142.66,538.73 140.17,537.15 136.19,537.57 Z" id="Path" fill="#000000" fill-rule="nonzero" opacity="0.1"></path>
            <circle id="Oval" fill="#EFB7B9" fill-rule="nonzero" cx="153.07" cy="518.74" r="14.28"></circle>
            <path d="M158.77,559.85 L158.77,559.91 C157.94,561.44 156.71,562.73 155.86,564.25 C154.980362,566.023021 154.38316,567.922598 154.09,569.88 C153.82,571.18 153.58,572.48 153.36,573.79 C153.14,575.1 152.92,576.44 152.72,577.79 C148.41,576.33 143.63,578.79 139.16,577.89 C137.850581,577.492164 136.513628,577.19135 135.16,576.99 C134.16,576.99 133.16,577.17 132.16,577.08 C130.51,576.92 128.87,575.88 127.29,576.41 C126.59,576.65 125.72,577.15 125.21,576.6 C125.094201,576.453873 125.006087,576.287811 124.95,576.11 C124.431839,575.021191 124.247431,573.803405 124.42,572.61 C124.793964,571.656868 125.295178,570.758721 125.91,569.94 C126.674151,568.330721 127.070405,566.57149 127.07,564.79 C127.36,560.2 127.35,555.57 128.07,551.03 C128.79,546.49 130.41,541.97 133.48,538.54 C134.897226,536.757143 136.937682,535.577895 139.19,535.24 C147.45,534.57 154.12,539.12 157.73,546.35 C159.86,550.53 161,555.7 158.77,559.85 Z" id="Path" fill="#C9177A" fill-rule="nonzero"></path>
            <path d="M182.93,555.38 C184.19,554.31 185.45,553.25 186.6,552.07 C188.226528,550.350168 189.727076,548.515421 191.09,546.58 C192.628895,544.649478 193.906569,542.524504 194.89,540.26 C195.89,537.64 196.22,534.65 198.01,532.47 C198.208324,532.185344 198.486781,531.966059 198.81,531.84 C199.81,531.52 200.58,532.84 200.81,533.84 C201.81,538.99 199.49,544.14 197.28,548.84 C196.649222,550.455132 195.715841,551.934965 194.53,553.2 C193.86,553.82 193.08,554.31 192.36,554.86 C191.244123,555.757272 190.21919,556.762108 189.3,557.86 C187.713333,559.673333 186.2,561.54 184.76,563.46 C183.088499,565.926771 181.236778,568.266491 179.22,570.46 C177.176316,572.6578 174.480463,574.140695 171.53,574.69 C172.38,574.57 172.1,569.62 172.01,569 C171.701421,568.068178 171.444366,567.120077 171.24,566.16 C171.24,565.07 171.66,564.91 172.55,564.16 L182.93,555.38 Z" id="Path" fill="#EFB7B9" fill-rule="nonzero"></path>
            <path d="M157.34,560.33 L157.34,560.39 C156.52,561.92 155.28,563.2 154.43,564.73 C153.548213,566.502155 152.950901,568.402078 152.66,570.36 C152.4,571.66 152.15,572.96 151.93,574.27 C150.203644,573.288669 148.5343,572.210273 146.93,571.04 C143.60932,568.285827 140.735253,565.033949 138.41,561.4 C136.389194,558.779802 134.867238,555.810463 133.92,552.64 C133.15,549.43 133.6,545.75 135.85,543.33 C136.793597,542.263503 138.088927,541.571477 139.5,541.38 C143.5,540.95 146,542.49 148.72,545.38 C151.44,548.27 153.13,552.03 154.87,555.64 C155.65,557.25 156.44,558.83 157.34,560.33 Z" id="Path" fill="#000000" fill-rule="nonzero" opacity="0.1"></path>
            <path d="M141.9,539.47 C140.483674,539.679812 139.189065,540.389187 138.25,541.47 C136,543.89 135.55,547.57 136.33,550.78 C137.11,553.99 138.93,556.78 140.81,559.54 C143.14048,563.17 146.013881,566.421125 149.33,569.18 C151.175873,570.514972 153.091953,571.750076 155.07,572.88 C158.358322,574.898139 161.51777,577.119104 164.53,579.53 C165.191718,580.128219 165.948829,580.611553 166.77,580.96 C167.477977,581.181499 168.218773,581.279595 168.96,581.25 C171.460838,581.21767 173.924619,580.640968 176.18,579.56 C176.392445,579.482142 176.579297,579.347193 176.72,579.17 C176.880199,578.799926 176.880199,578.380074 176.72,578.01 C175.38,572.58 177.97,566.42 175.4,561.46 L166.74,564.25 C166.312222,564.424426 165.851402,564.502936 165.39,564.48 C164.838714,564.359236 164.332672,564.085419 163.93,563.69 C160.93,561.07 158.99,557.42 157.25,553.81 C155.51,550.2 153.83,546.49 151.1,543.56 C148.37,540.63 145.88,539.02 141.9,539.47 Z" id="Path" fill="#C9177A" fill-rule="nonzero"></path>
            <path d="M162.3,508.76 C163.69,507.19 163.39,504.64 162.18,502.93 C160.833684,501.296902 159.120449,500.005123 157.18,499.16 C154.23,497.59 150.84,496.08 147.67,497.16 C146.45494,497.65099 145.289633,498.257084 144.19,498.97 C142.09,500.14 139.77,500.88 137.63,501.97 C135.405607,502.948527 133.59411,504.67511 132.51,506.85 C131.61,509.02 131.89,511.47 132.13,513.85 C132.588169,517.464177 132.61167,521.120232 132.2,524.74 C131.775747,528.379117 130.372625,531.835083 128.14,534.74 C126.53,536.74 124.4,538.36 123.43,540.74 C122.956245,542.099014 122.689923,543.521643 122.64,544.96 L122.12,551.1 C121.92,553.55 121.61,556.22 119.84,557.93 C123.63071,557.537213 127.097472,555.616048 129.44,552.61 C131.25,550.61 133.13,548.49 133.67,545.85 C134.08,543.85 133.74,541.64 134.94,540.03 C136.35,538.13 139.36,538.11 141.36,539.37 C143.36,540.63 144.59,542.79 145.66,544.9 C146.73,547.01 147.8,549.22 149.66,550.71 C151.174211,551.863577 152.956592,552.613691 154.84,552.89 C156.089184,553.261343 157.437859,553.075444 158.54,552.38 C159.91,551.28 159.77,549.17 159.33,547.47 C158.74,545.22 157.83,542.88 158.47,540.63 C158.68,539.89 159.05,539.19 159.28,538.45 C159.56027,537.373005 159.691493,536.262658 159.67,535.15 C159.8,529.57 160.06,523.56 158.25,518.15 C157.67,516.43 156.11,514.79 156.91,512.93 C157.92,510.57 160.79,510.49 162.3,508.76 Z" id="Path" fill="#464353" fill-rule="nonzero"></path>
            <g id="Group" opacity="0.1" transform="translate(119.000000, 504.000000)" fill="#000000" fill-rule="nonzero">
                <path d="M13.5,14.32 C13.5750161,11.6821888 13.464745,9.04236546 13.17,6.42 C13.17,5.91 13.06,5.42 13.02,4.87 C12.8905083,6.50056827 12.9408109,8.14043421 13.17,9.76 C13.32,11.27 13.44,12.79 13.5,14.32 Z" id="Path"></path>
                <path d="M39.56,44.95 C38.4560477,45.6404655 37.1095814,45.8260595 35.86,45.46 C33.9765917,45.1836907 32.1942108,44.4335767 30.68,43.28 C28.84,41.78 27.78,39.57 26.68,37.47 C25.58,35.37 24.38,33.19 22.38,31.94 C20.38,30.69 17.38,30.7 15.96,32.6 C14.76,34.21 15.1,36.45 14.69,38.42 C14.15,41.06 12.27,43.19 10.46,45.18 C9.54518115,46.2684166 8.50838835,47.248169 7.37,48.1 C5.94821615,49.0052517 4.38242439,49.6613286 2.74,50.04 C2.51241829,51.4648288 1.856717,52.7866947 0.86,53.83 C4.65070951,53.4372126 8.11747246,51.5160481 10.46,48.51 C12.27,46.51 14.15,44.39 14.69,41.75 C15.1,39.75 14.76,37.54 15.96,35.93 C17.37,34.03 20.38,34.01 22.38,35.27 C24.38,36.53 25.61,38.69 26.68,40.8 C27.75,42.91 28.82,45.12 30.68,46.61 C32.1942108,47.7635767 33.9765917,48.5136907 35.86,48.79 C37.1091845,49.1613428 38.4578592,48.9754444 39.56,48.28 C40.84,47.28 40.8,45.28 40.43,43.7 C40.2592112,44.1881028 39.9583945,44.6203108 39.56,44.95 L39.56,44.95 Z" id="Path"></path>
                <path d="M43.3,1.43 C41.79,3.15 38.92,3.24 37.93,5.53 C37.5838887,6.47644179 37.675458,7.52765693 38.18,8.4 C39.33,6.55 41.9,6.4 43.3,4.76 C44.2671781,3.52458839 44.5069466,1.86904347 43.93,0.41 C43.7820747,0.78463236 43.5687592,1.13000031 43.3,1.43 Z" id="Path"></path>
                <path d="M40.69,27.72 C40.7114929,28.8326575 40.58027,29.9430054 40.3,31.02 C40.07,31.76 39.7,32.45 39.49,33.2 C39.2198667,34.3273774 39.2198667,35.5026226 39.49,36.63 L39.49,36.53 C39.7,35.79 40.07,35.09 40.3,34.35 C40.58027,33.2730054 40.7114929,32.1626575 40.69,31.05 C40.74,28.83 40.81,26.55 40.77,24.26 C40.75,25.42 40.72,26.58 40.69,27.72 Z" id="Path"></path>
            </g>
            <path d="M828.12,604.02 C828.12,654.26 859.64,694.92 898.59,694.92" id="Path" fill="#46455B" fill-rule="nonzero"></path>
            <path d="M898.59,694.93 C898.59,644.12 933.77,603.01 977.24,603.01" id="Path" fill="#C9177A" fill-rule="nonzero"></path>
            <path d="M853.66,608.58 C853.66,656.31 873.76,694.93 898.59,694.93" id="Path" fill="#C9177A" fill-rule="nonzero"></path>
            <path d="M898.59,694.93 C898.59,630.01 939.25,577.47 989.49,577.47" id="Path" fill="#46455B" fill-rule="nonzero"></path>
            <ellipse id="Oval" fill="#C9177A" fill-rule="nonzero" opacity="0.1" cx="895.54" cy="709.33" rx="17.52" ry="2.96"></ellipse>
            <path d="M883.77,695.57 C883.77,695.57 893.77,695.26 896.77,693.12 C899.77,690.98 912.14,688.41 912.89,691.85 C913.64,695.29 927.89,708.96 916.62,709.05 C905.35,709.14 890.4,707.29 887.4,705.46 C884.4,703.63 883.77,695.57 883.77,695.57 Z" id="Path" fill="#A8A8A8" fill-rule="nonzero"></path>
            <path d="M916.83,707.85 C905.55,707.94 890.62,706.09 887.61,704.26 C885.32,702.87 884.41,697.86 884.1,695.56 L883.77,695.56 C883.77,695.56 884.4,703.62 887.41,705.45 C890.42,707.28 905.35,709.13 916.63,709.04 C919.89,709.04 921.01,707.85 920.95,706.14 C920.5,707.18 919.26,707.83 916.83,707.85 Z" id="Path" fill="#000000" fill-rule="nonzero" opacity="0.2"></path>
        </g>
    </g>
</svg>