<?xml version="1.0" encoding="UTF-8"?>
<svg width="1087px" height="790px" viewBox="0 0 1087 790" version="1.1" xmlns="http://www.w3.org/2000/svg" xmlns:xlink="http://www.w3.org/1999/xlink">
    <!-- Generator: Sketch 61 (89581) - https://sketch.com -->
    <title>User-Friendly</title>
    <desc>Created with Sketch.</desc>
    <defs>
        <linearGradient x1="49.9966591%" y1="100%" x2="49.9966591%" y2="-0.00412916013%" id="linearGradient-1">
            <stop stop-color="#808080" stop-opacity="0.25" offset="0%"></stop>
            <stop stop-color="#808080" stop-opacity="0.12" offset="54%"></stop>
            <stop stop-color="#808080" stop-opacity="0.1" offset="100%"></stop>
        </linearGradient>
        <linearGradient x1="50.0029963%" y1="99.9977324%" x2="50.0029963%" y2="1.09563614e-05%" id="linearGradient-2">
            <stop stop-color="#808080" stop-opacity="0.25" offset="0%"></stop>
            <stop stop-color="#808080" stop-opacity="0.12" offset="54%"></stop>
            <stop stop-color="#808080" stop-opacity="0.1" offset="100%"></stop>
        </linearGradient>
        <linearGradient x1="50%" y1="99.9999909%" x2="50%" y2="9.12295312e-06%" id="linearGradient-3">
            <stop stop-color="#808080" stop-opacity="0.25" offset="0%"></stop>
            <stop stop-color="#808080" stop-opacity="0.12" offset="54%"></stop>
            <stop stop-color="#808080" stop-opacity="0.1" offset="100%"></stop>
        </linearGradient>
        <linearGradient x1="49.9943431%" y1="100.058672%" x2="49.9943431%" y2="-0.00146316257%" id="linearGradient-4">
            <stop stop-color="#808080" stop-opacity="0.25" offset="0%"></stop>
            <stop stop-color="#808080" stop-opacity="0.12" offset="54%"></stop>
            <stop stop-color="#808080" stop-opacity="0.1" offset="100%"></stop>
        </linearGradient>
        <linearGradient x1="0%" y1="49.9927018%" x2="100%" y2="49.9927018%" id="linearGradient-5">
            <stop stop-color="#808080" stop-opacity="0.25" offset="0%"></stop>
            <stop stop-color="#808080" stop-opacity="0.12" offset="54%"></stop>
            <stop stop-color="#808080" stop-opacity="0.1" offset="100%"></stop>
        </linearGradient>
        <linearGradient x1="49.999541%" y1="100.008482%" x2="49.999541%" y2="0.0204106532%" id="linearGradient-6">
            <stop stop-color="#808080" stop-opacity="0.25" offset="0%"></stop>
            <stop stop-color="#808080" stop-opacity="0.12" offset="54%"></stop>
            <stop stop-color="#808080" stop-opacity="0.1" offset="100%"></stop>
        </linearGradient>
        <linearGradient x1="49.9952267%" y1="100%" x2="49.9952267%" y2="0%" id="linearGradient-7">
            <stop stop-color="#808080" stop-opacity="0.25" offset="0%"></stop>
            <stop stop-color="#808080" stop-opacity="0.12" offset="54%"></stop>
            <stop stop-color="#808080" stop-opacity="0.1" offset="100%"></stop>
        </linearGradient>
        <linearGradient x1="50.1001262%" y1="100.115842%" x2="50.1001262%" y2="-0.0013548303%" id="linearGradient-8">
            <stop stop-color="#808080" stop-opacity="0.25" offset="0%"></stop>
            <stop stop-color="#808080" stop-opacity="0.12" offset="54%"></stop>
            <stop stop-color="#808080" stop-opacity="0.1" offset="100%"></stop>
        </linearGradient>
        <linearGradient x1="50.002613%" y1="100%" x2="50.002613%" y2="0%" id="linearGradient-9">
            <stop stop-color="#808080" stop-opacity="0.25" offset="0%"></stop>
            <stop stop-color="#808080" stop-opacity="0.12" offset="54%"></stop>
            <stop stop-color="#808080" stop-opacity="0.1" offset="100%"></stop>
        </linearGradient>
    </defs>
    <g id="Page-1" stroke="none" stroke-width="1" fill="none" fill-rule="evenodd">
        <g id="User-Friendly">
            <path d="M153.41,43.62 C145.35,43.39 137.09,43.62 129.53,45.94 C108.96,52.26 99.21,72.94 102.38,90.81 C105.55,108.68 118.59,124.25 132.12,138.48 C145.65,152.71 160.31,166.78 167.73,183.79 C171.43,192.28 173.16,201.79 169.4,210.27 C163.6,223.34 146.11,230.64 129.32,232.16 C112.53,233.68 95.67,230.72 78.82,229.73 C71.75,229.32 64.48,229.27 57.82,231.18 C50.51,233.26 44.42,237.51 38.82,241.94 C16.93,259.3 -0.59,283.01 2.27,307.88 C5.47,336.11 34.01,358.42 65.27,370.39 C75.62,374.39 86.57,377.57 95.68,383.23 C119.68,398.16 125.07,426.16 122.68,450.87 C120.29,475.58 112.15,500.32 116.68,524.81 C122.01,553.3 145.6,579.04 177.42,591.06 C205.77,601.77 241.25,601.06 266.42,585.95 C278.69,578.57 287.97,568.32 296.04,557.72 C308.022609,542.066268 317.922025,524.922967 325.49,506.72 C329,498.23 332.3,489.1 340.49,483.2 C345.49,479.57 351.97,477.54 358.38,475.96 C377.7,471.2 398.05,469.9 417.55,465.66 C437.05,461.42 456.62,453.51 467.22,439.38 C482.22,419.38 475.22,393.76 475.29,370.24 C475.41,316.58 514.4,268.55 528.79,216.24 C533.49,199.15 535.24,180.24 524.74,164.99 C517.61,154.64 505.58,147.17 492.94,141.4 C465.13,128.71 433.52,123.06 402.43,117.56 C359.22,109.92 306.75,108.93 273.26,84.21 C241.17,60.53 197.2,43.62 153.41,43.62 Z" id="Path" fill="#C9177A" fill-rule="nonzero" opacity="0.2"></path>
            <g id="Group" opacity="0.5" transform="translate(24.000000, 321.000000)">
                <path d="M3.34,28.35 C1.2,31.51 -0.56,36.1 2.24,41.45 C7.74,51.95 21.34,49.79 27.95,59.84 C29.7162098,62.6249166 30.7006151,65.8337323 30.8,69.13 C31.05,74.82 29.29,79.3 28.38,84.31 C27.1898265,90.2183259 28.1173628,96.3570584 31,101.65 C34.2447912,107.175684 39.1413836,111.544144 45,114.14 C50.12,116.4 55,116.98 59.9,118.08 C65.9786856,119.473999 71.8993273,121.484403 77.57,124.08 C80.2652164,125.21006 82.8002503,126.68939 85.11,128.48 C87.9272239,130.952399 90.4838898,133.706762 92.74,136.7 L114.01,162.96 C116.712607,166.500114 119.724452,169.793064 123.01,172.8 C126.594548,175.691406 130.532935,178.114253 134.73,180.01 C143.22,184.24 152.1,188.57 159.47,188.08 C166.84,187.59 171.96,180.48 168.47,170.54 C165.17,161.08 155.87,153.11 151.65,143.67 C145,128.79 153.71,117.67 148.14,102.77 C142.8,88.45 127.83,78.85 118.27,65.77 C111.41,56.47 107.59,45.65 101.41,35.88 C92.41,21.88 79.01,11.17 66.41,5.75 C55.3287528,1.03919595 43.1944841,-0.641517604 31.25,0.88 C26.69,1.38 22.2,2.23 18.96,4.96 C15.52,7.86 15.96,13.28 13.72,17.13 C11.15,21.56 6.25,24.07 3.34,28.35 Z" id="Path" fill="#C9177A" fill-rule="nonzero"></path>
                <path d="M16.69,8.21 C16.69,8.21 123.17,107.76 166.11,185.27" id="Path" stroke="#535461" stroke-width="2"></path>
                <path d="M2.65,42.06 C2.65,42.06 45.2,33.79 74.65,66.96" id="Path" stroke="#535461" stroke-width="2"></path>
                <path d="M32.89,104.57 C32.89,104.57 79.89,71.7 96.15,90.82" id="Path" stroke="#535461" stroke-width="2"></path>
                <path d="M66.21,5.51 C66.21,5.51 61.26,30.67 79.07,71.77" id="Path" stroke="#535461" stroke-width="2"></path>
                <path d="M148.09,103.16 C148.09,103.16 143.93,119.66 110.49,107.53" id="Path" stroke="#535461" stroke-width="2"></path>
                <path d="M114.14,160.88 C114.14,160.88 134.55,137.29 125.27,125.71" id="Path" stroke="#535461" stroke-width="2"></path>
            </g>
            <path d="M7.33,233.88 C2.33,239.79 -2.35,247.97 1.33,256.04 C8.41,271.88 34.62,264.13 43.97,278.88 C46.77,283.29 47.15,288.68 46.5,293.49 C45.24,302.9 40.58,310.89 37.36,319.49 C34.14,328.09 32.47,338.49 37.01,347.57 C41.38,356.36 50.59,361.91 59.51,364.12 C68.43,366.33 77.37,365.83 86.28,366.12 C96.865084,366.535137 107.37515,368.083989 117.63,370.74 C122.136931,371.760569 126.45149,373.495846 130.41,375.88 C134.96,378.79 138.64,383.06 142.24,387.26 L174.24,424.55 C178.49,429.55 182.83,434.55 188.1,438.22 C194.18,442.45 201.1,444.6 207.91,446.67 C222.56,451.15 237.91,455.67 251.91,452.6 C265.91,449.53 277.66,436.15 274.16,420.66 C270.83,405.91 255.81,395.45 250.75,381 C242.75,358.23 262.5,337.11 256.57,313.94 C250.89,291.72 225.71,280.26 211.71,261.45 C201.71,247.97 197.77,231.11 189.03,216.77 C176.41,196.07 154.41,182.36 132.51,177.15 C110.61,171.94 88.58,174.37 68.04,179.58 C59.34,181.79 50.64,184.58 43.74,190.1 C36.41,195.97 35.57,204.88 30.23,211.96 C24.04,220.19 14.07,225.88 7.33,233.88 Z" id="Path" fill="#C9177A" fill-rule="nonzero"></path>
            <path d="M38.48,196.28 C38.48,196.28 208.15,329.78 265.24,445.88" id="Path" stroke="#535461" stroke-width="2"></path>
            <path d="M1.87,256.88 C1.87,256.88 84.24,230.23 129.41,276.54" id="Path" stroke="#535461" stroke-width="2"></path>
            <path d="M39.67,351.88 C39.67,351.88 137.78,282.88 162.58,309.79" id="Path" stroke="#535461" stroke-width="2"></path>
            <path d="M132.26,176.76 C132.26,176.76 115.35,220.15 136.26,283.22" id="Path" stroke="#535461" stroke-width="2"></path>
            <path d="M256.31,314.57 C256.31,314.57 243.5,343.3 184.41,333.25" id="Path" stroke="#535461" stroke-width="2"></path>
            <path d="M175.1,420.98 C175.1,420.98 220.57,375.5 206.67,358.98" id="Path" stroke="#535461" stroke-width="2"></path>
            <ellipse id="Oval" fill="#C9177A" fill-rule="nonzero" opacity="0.1" cx="617.97" cy="647.16" rx="465" ry="124.52"></ellipse>
            <path d="M980.15,0.41 C980.15,0.41 944.32,36.24 964.55,89.41 C984.78,142.58 929.87,231 929.87,231 C929.87,231 930.46,230.91 931.55,230.72 C1005.14,217.72 1041.71,133.56 1000.79,71.03 C985.58,47.79 973.09,20.53 980.15,0.41 Z" id="Path" fill="#C9177A" fill-rule="nonzero"></path>
            <path d="M980.15,0.41 C980.15,0.41 959.92,44.33 980.15,80.16 C1000.38,115.99 983.62,216.55 929.87,231" id="Path" stroke="#535461" stroke-width="2"></path>
            <path d="M1043.97,145.34 C1043.97,145.34 1003.08,138.83 999.36,175.47 C995.64,212.11 920.74,217.19 920.74,217.19 L922.14,218.12 C983.98,258.71 1043.14,243.98 1034.14,190.12 C1030.87,170.04 1031.14,149.88 1043.97,145.34 Z" id="Path" fill="#C9177A" fill-rule="nonzero"></path>
            <path d="M1043.97,145.34 C1043.97,145.34 1003.08,138.83 999.36,175.47 C995.64,212.11 920.74,217.19 920.74,217.19 L922.14,218.12 C983.98,258.71 1043.14,243.98 1034.14,190.12 C1030.87,170.04 1031.14,149.88 1043.97,145.34 Z" id="Path" fill="#F5F5F5" fill-rule="nonzero" opacity="0.2"></path>
            <path d="M1043.97,145.34 C1043.97,145.34 1012.23,152.34 1014.84,181.16 C1017.45,209.98 967.71,244.61 920.74,217.16" id="Path" stroke="#535461" stroke-width="2"></path>
            <path d="M246.7,279.8 C246.7,279.8 233.44,234.8 249.19,201.66 C255.88212,187.807156 257.899771,172.157202 254.94,157.06 C253.480175,149.905294 251.368016,142.899355 248.63,136.13" id="Path" stroke="#535461" stroke-width="2"></path>
            <path d="M258.41,115.18 C258.41,120.7 248.41,136.69 248.41,136.69 C248.41,136.69 238.41,120.69 238.41,115.18 C238.41,109.657153 242.887153,105.18 248.41,105.18 C253.932847,105.18 258.41,109.657153 258.41,115.18 Z" id="Path" fill="#C9177A" fill-rule="nonzero"></path>
            <path d="M274.93,145.74 C271.93,150.37 254.85,158.37 254.85,158.37 C254.85,158.37 255.16,139.51 258.16,134.88 C260.018377,131.702262 263.472385,129.802506 267.151258,129.934673 C270.830132,130.06684 274.138911,132.209555 275.764465,135.512456 C277.390019,138.815357 277.069458,142.744286 274.93,145.74 Z" id="Path" fill="#C9177A" fill-rule="nonzero"></path>
            <path d="M274.21,197.96 C269.28,200.44 250.5,198.73 250.5,198.73 C250.5,198.73 260.29,182.61 265.21,180.13 C268.417122,178.335688 272.350005,178.445034 275.452475,180.41477 C278.554946,182.384507 280.327054,185.89722 280.067609,189.56299 C279.808163,193.228761 277.558971,196.456866 274.21,197.97 L274.21,197.96 Z" id="Path" fill="#C9177A" fill-rule="nonzero"></path>
            <path d="M264.77,237.34 C260.33,240.62 241.53,242.1 241.53,242.1 C241.53,242.1 248.45,224.56 252.89,221.28 C255.745446,218.945103 259.654363,218.371671 263.060117,219.78806 C266.46587,221.20445 268.815387,224.380648 269.173026,228.051807 C269.530664,231.722966 267.838347,235.292914 264.77,237.34 Z" id="Path" fill="#C9177A" fill-rule="nonzero"></path>
            <path d="M233.88,159.44 C237.88,163.28 256.27,167.27 256.27,167.27 C256.27,167.27 251.76,148.96 247.8,145.12 C245.280485,142.430969 241.486274,141.345464 237.925774,142.295034 C234.365274,143.244604 231.615512,146.075357 230.76967,149.661915 C229.923827,153.248472 231.118984,157.009583 233.88,159.45 L233.88,159.44 Z" id="Path" fill="#C9177A" fill-rule="nonzero"></path>
            <path d="M223.41,205.64 C228.34,208.12 247.12,206.41 247.12,206.41 C247.12,206.41 237.33,190.29 232.41,187.81 C227.528901,185.604619 221.776864,187.636741 219.364361,192.418859 C216.951857,197.200977 218.735646,203.034805 223.41,205.65 L223.41,205.64 Z" id="Path" fill="#C9177A" fill-rule="nonzero"></path>
            <path d="M219.41,251.94 C223.85,255.22 242.65,256.7 242.65,256.7 C242.65,256.7 235.73,239.16 231.29,235.88 C226.852696,232.919596 220.872921,233.963179 217.70067,238.251592 C214.52842,242.540005 215.280584,248.563377 219.41,251.94 L219.41,251.94 Z" id="Path" fill="#C9177A" fill-rule="nonzero"></path>
            <path d="M1072.41,541.5 L987.32,541.5 C989.289072,537.566481 990.316137,533.228841 990.32,528.83 L990.32,141.35 C990.30896,125.623219 977.556785,112.88 961.83,112.88 L303.16,112.88 C287.425407,112.88 274.67,125.635407 274.67,141.37 L274.67,528.83 C274.673863,533.228841 275.700928,537.566481 277.67,541.5 L189.57,541.5 C185.411296,541.5 182.04,544.871296 182.04,549.03 L182.04,555.1 C182.04,578.373279 200.906721,597.24 224.18,597.24 L1037.86,597.24 C1061.13328,597.24 1080,578.373279 1080,555.1 L1080,549.03 C1080,547.022481 1079.1985,545.098046 1077.77334,543.68416 C1076.34819,542.270274 1074.41746,541.484004 1072.41,541.5 Z M548.12,565.6 L540.82,557.31 L721.93,557.31 L713.85,565.6 L548.12,565.6 Z" id="Shape" fill="url(#linearGradient-1)" fill-rule="nonzero"></path>
            <rect id="Rectangle" fill="#535461" fill-rule="nonzero" x="282.74" y="118.35" width="699.44" height="434.39" rx="23.26"></rect>
            <rect id="Rectangle" fill="#F1F1F4" fill-rule="nonzero" x="297.47" y="181.67" width="668.52" height="354.87"></rect>
            <circle id="Oval" fill="#FFFFFF" fill-rule="nonzero" cx="631.73" cy="150.74" r="5.89"></circle>
            <path d="M734.95,537.27 L711.95,560.83 L549.95,560.83 L529.19,537.27 L199.54,537.27 C195.475184,537.27 192.18,540.565184 192.18,544.63 L192.18,550.57 C192.18,561.500284 196.52545,571.982162 204.259015,579.706349 C211.992581,587.430536 222.479724,591.763271 233.41,591.75003 L1028.61,591.75003 C1051.35309,591.75003 1069.79,573.313086 1069.79,550.57 L1069.79,544.63 C1069.79,540.565184 1066.49482,537.27 1062.43,537.27 L734.95,537.27 Z" id="Path" fill="#535461" fill-rule="nonzero"></path>
            <rect id="Rectangle" fill="#FFFFFF" fill-rule="nonzero" x="338.3" y="208.71" width="182.77" height="137.74"></rect>
            <rect id="Rectangle" fill="#C9177A" fill-rule="nonzero" opacity="0.2" x="356.18" y="220.63" width="60.92" height="34.43"></rect>
            <rect id="Rectangle" fill="#E6E8EC" fill-rule="nonzero" x="431.67" y="220.63" width="71.52" height="7.95"></rect>
            <rect id="Rectangle" fill="#E6E8EC" fill-rule="nonzero" x="431.67" y="233.87" width="50.33" height="7.95"></rect>
            <rect id="Rectangle" fill="#E6E8EC" fill-rule="nonzero" x="431.67" y="247.11" width="71.52" height="7.95"></rect>
            <rect id="Rectangle" fill="#E6E8EC" fill-rule="nonzero" x="356.18" y="260.36" width="147.01" height="7.95"></rect>
            <rect id="Rectangle" fill="#E6E8EC" fill-rule="nonzero" x="356.18" y="273.6" width="147.01" height="7.95"></rect>
            <rect id="Rectangle" fill="#E6E8EC" fill-rule="nonzero" x="356.18" y="286.85" width="147.01" height="7.95"></rect>
            <rect id="Rectangle" fill="#E6E8EC" fill-rule="nonzero" x="356.18" y="300.09" width="135.09" height="7.95"></rect>
            <rect id="Rectangle" fill="#E6E8EC" fill-rule="nonzero" x="356.18" y="313.33" width="147.01" height="7.95"></rect>
            <rect id="Rectangle" fill="#E6E8EC" fill-rule="nonzero" x="356.18" y="326.58" width="147.01" height="7.95"></rect>
            <rect id="Rectangle" fill="#FFFFFF" fill-rule="nonzero" x="539.61" y="208.71" width="182.77" height="137.74"></rect>
            <rect id="Rectangle" fill="#C9177A" fill-rule="nonzero" opacity="0.2" x="557.48" y="220.63" width="60.92" height="34.43"></rect>
            <rect id="Rectangle" fill="#E6E8EC" fill-rule="nonzero" x="632.98" y="220.63" width="71.52" height="7.95"></rect>
            <rect id="Rectangle" fill="#E6E8EC" fill-rule="nonzero" x="632.98" y="233.87" width="50.33" height="7.95"></rect>
            <rect id="Rectangle" fill="#E6E8EC" fill-rule="nonzero" x="632.98" y="247.11" width="71.52" height="7.95"></rect>
            <rect id="Rectangle" fill="#E6E8EC" fill-rule="nonzero" x="557.48" y="260.36" width="147.01" height="7.95"></rect>
            <rect id="Rectangle" fill="#E6E8EC" fill-rule="nonzero" x="557.48" y="273.6" width="147.01" height="7.95"></rect>
            <rect id="Rectangle" fill="#E6E8EC" fill-rule="nonzero" x="557.48" y="286.85" width="147.01" height="7.95"></rect>
            <rect id="Rectangle" fill="#E6E8EC" fill-rule="nonzero" x="557.48" y="300.09" width="135.09" height="7.95"></rect>
            <rect id="Rectangle" fill="#E6E8EC" fill-rule="nonzero" x="557.48" y="313.33" width="147.01" height="7.95"></rect>
            <rect id="Rectangle" fill="#E6E8EC" fill-rule="nonzero" x="557.48" y="326.58" width="147.01" height="7.95"></rect>
            <rect id="Rectangle" fill="#FFFFFF" fill-rule="nonzero" x="740.91" y="208.71" width="182.77" height="137.74"></rect>
            <rect id="Rectangle" fill="#C9177A" fill-rule="nonzero" opacity="0.2" x="758.79" y="220.63" width="60.92" height="34.43"></rect>
            <rect id="Rectangle" fill="#E6E8EC" fill-rule="nonzero" x="834.28" y="220.63" width="71.52" height="7.95"></rect>
            <rect id="Rectangle" fill="#E6E8EC" fill-rule="nonzero" x="834.28" y="233.87" width="50.33" height="7.95"></rect>
            <rect id="Rectangle" fill="#E6E8EC" fill-rule="nonzero" x="834.28" y="247.11" width="71.52" height="7.95"></rect>
            <rect id="Rectangle" fill="#E6E8EC" fill-rule="nonzero" x="758.79" y="260.36" width="147.01" height="7.95"></rect>
            <rect id="Rectangle" fill="#E6E8EC" fill-rule="nonzero" x="758.79" y="273.6" width="147.01" height="7.95"></rect>
            <rect id="Rectangle" fill="#E6E8EC" fill-rule="nonzero" x="758.79" y="286.85" width="147.01" height="7.95"></rect>
            <rect id="Rectangle" fill="#E6E8EC" fill-rule="nonzero" x="758.79" y="300.09" width="135.09" height="7.95"></rect>
            <rect id="Rectangle" fill="#E6E8EC" fill-rule="nonzero" x="758.79" y="313.33" width="147.01" height="7.95"></rect>
            <rect id="Rectangle" fill="#E6E8EC" fill-rule="nonzero" x="758.79" y="326.58" width="147.01" height="7.95"></rect>
            <rect id="Rectangle" fill="#FFFFFF" fill-rule="nonzero" x="338.3" y="363.66" width="182.77" height="137.74"></rect>
            <rect id="Rectangle" fill="#C9177A" fill-rule="nonzero" opacity="0.2" x="356.18" y="375.58" width="60.92" height="34.43"></rect>
            <rect id="Rectangle" fill="#E6E8EC" fill-rule="nonzero" x="431.67" y="375.58" width="71.52" height="7.95"></rect>
            <rect id="Rectangle" fill="#E6E8EC" fill-rule="nonzero" x="431.67" y="388.83" width="50.33" height="7.95"></rect>
            <rect id="Rectangle" fill="#E6E8EC" fill-rule="nonzero" x="431.67" y="402.07" width="71.52" height="7.95"></rect>
            <rect id="Rectangle" fill="#E6E8EC" fill-rule="nonzero" x="356.18" y="415.31" width="147.01" height="7.95"></rect>
            <rect id="Rectangle" fill="#E6E8EC" fill-rule="nonzero" x="356.18" y="428.56" width="147.01" height="7.95"></rect>
            <rect id="Rectangle" fill="#E6E8EC" fill-rule="nonzero" x="356.18" y="441.8" width="147.01" height="7.95"></rect>
            <rect id="Rectangle" fill="#E6E8EC" fill-rule="nonzero" x="356.18" y="455.05" width="135.09" height="7.95"></rect>
            <rect id="Rectangle" fill="#E6E8EC" fill-rule="nonzero" x="356.18" y="468.29" width="147.01" height="7.95"></rect>
            <rect id="Rectangle" fill="#E6E8EC" fill-rule="nonzero" x="356.18" y="481.53" width="147.01" height="7.95"></rect>
            <rect id="Rectangle" fill="#FFFFFF" fill-rule="nonzero" x="539.61" y="363.66" width="182.77" height="137.74"></rect>
            <rect id="Rectangle" fill="#C9177A" fill-rule="nonzero" opacity="0.2" x="557.48" y="375.58" width="60.92" height="34.43"></rect>
            <rect id="Rectangle" fill="#E6E8EC" fill-rule="nonzero" x="632.98" y="375.58" width="71.52" height="7.95"></rect>
            <rect id="Rectangle" fill="#E6E8EC" fill-rule="nonzero" x="632.98" y="388.83" width="50.33" height="7.95"></rect>
            <rect id="Rectangle" fill="#E6E8EC" fill-rule="nonzero" x="632.98" y="402.07" width="71.52" height="7.95"></rect>
            <rect id="Rectangle" fill="#E6E8EC" fill-rule="nonzero" x="557.48" y="415.31" width="147.01" height="7.95"></rect>
            <rect id="Rectangle" fill="#E6E8EC" fill-rule="nonzero" x="557.48" y="428.56" width="147.01" height="7.95"></rect>
            <rect id="Rectangle" fill="#E6E8EC" fill-rule="nonzero" x="557.48" y="441.8" width="147.01" height="7.95"></rect>
            <rect id="Rectangle" fill="#E6E8EC" fill-rule="nonzero" x="557.48" y="455.05" width="135.09" height="7.95"></rect>
            <rect id="Rectangle" fill="#E6E8EC" fill-rule="nonzero" x="557.48" y="468.29" width="147.01" height="7.95"></rect>
            <rect id="Rectangle" fill="#E6E8EC" fill-rule="nonzero" x="557.48" y="481.53" width="147.01" height="7.95"></rect>
            <rect id="Rectangle" fill="#000000" fill-rule="nonzero" opacity="0.1" x="740.91" y="363.66" width="182.77" height="137.74"></rect>
            <path d="M442.07,255.059952 L160.07,255.059952 C153.212531,255.046725 146.631235,257.760858 141.776639,262.604199 C136.922043,267.44754 134.19,274.022519 134.19,280.88 L134.19,671.62 C134.19795,678.472278 136.92832,685.040599 141.780175,689.879326 C146.632031,694.718053 153.207725,697.430616 160.06,697.420031 L442.06,697.420031 C448.912275,697.430616 455.487969,694.718053 460.339825,689.879326 C465.19168,685.040599 467.92205,678.472278 467.93,671.62 L467.93,280.88 C467.93,274.02599 465.200695,267.454048 460.350428,262.611283 C455.500161,257.768519 448.924006,255.052039 442.07,255.059952 L442.07,255.059952 Z" id="Path" fill="url(#linearGradient-2)" fill-rule="nonzero"></path>
            <rect id="Rectangle" fill="#535461" fill-rule="nonzero" x="138.17" y="260.36" width="325.8" height="433.08" rx="20"></rect>
            <rect id="Rectangle" fill="#F1F1F4" fill-rule="nonzero" x="154.72" y="301.33" width="292.69" height="351.15"></rect>
            <circle id="Oval" fill="#FFFFFF" fill-rule="nonzero" cx="299.74" cy="280.23" r="3.97"></circle>
            <circle id="Oval" fill="#FFFFFF" fill-rule="nonzero" cx="299.74" cy="672.25" r="11.92"></circle>
            <rect id="Rectangle" fill="#FFFFFF" fill-rule="nonzero" x="167.37" y="337.21" width="83.48" height="62.92"></rect>
            <rect id="Rectangle" fill="#C9177A" fill-rule="nonzero" opacity="0.2" x="175.54" y="342.66" width="27.83" height="15.73"></rect>
            <rect id="Rectangle" fill="#E6E8EC" fill-rule="nonzero" x="210.02" y="342.66" width="32.67" height="3.63"></rect>
            <rect id="Rectangle" fill="#E6E8EC" fill-rule="nonzero" x="210.02" y="348.71" width="22.99" height="3.63"></rect>
            <rect id="Rectangle" fill="#E6E8EC" fill-rule="nonzero" x="210.02" y="354.76" width="32.67" height="3.63"></rect>
            <rect id="Rectangle" fill="#E6E8EC" fill-rule="nonzero" x="175.54" y="360.81" width="67.15" height="3.63"></rect>
            <rect id="Rectangle" fill="#E6E8EC" fill-rule="nonzero" x="175.54" y="366.86" width="67.15" height="3.63"></rect>
            <rect id="Rectangle" fill="#E6E8EC" fill-rule="nonzero" x="175.54" y="372.91" width="67.15" height="3.63"></rect>
            <rect id="Rectangle" fill="#E6E8EC" fill-rule="nonzero" x="175.54" y="378.96" width="61.71" height="3.63"></rect>
            <rect id="Rectangle" fill="#E6E8EC" fill-rule="nonzero" x="175.54" y="385.01" width="67.15" height="3.63"></rect>
            <rect id="Rectangle" fill="#E6E8EC" fill-rule="nonzero" x="175.54" y="391.06" width="67.15" height="3.63"></rect>
            <rect id="Rectangle" fill="#FFFFFF" fill-rule="nonzero" x="259.33" y="337.21" width="83.48" height="62.92"></rect>
            <rect id="Rectangle" fill="#C9177A" fill-rule="nonzero" opacity="0.2" x="267.49" y="342.66" width="27.83" height="15.73"></rect>
            <rect id="Rectangle" fill="#E6E8EC" fill-rule="nonzero" x="301.98" y="342.66" width="32.67" height="3.63"></rect>
            <rect id="Rectangle" fill="#E6E8EC" fill-rule="nonzero" x="301.98" y="348.71" width="22.99" height="3.63"></rect>
            <rect id="Rectangle" fill="#E6E8EC" fill-rule="nonzero" x="301.98" y="354.76" width="32.67" height="3.63"></rect>
            <rect id="Rectangle" fill="#E6E8EC" fill-rule="nonzero" x="267.49" y="360.81" width="67.15" height="3.63"></rect>
            <rect id="Rectangle" fill="#E6E8EC" fill-rule="nonzero" x="267.49" y="366.86" width="67.15" height="3.63"></rect>
            <rect id="Rectangle" fill="#E6E8EC" fill-rule="nonzero" x="267.49" y="372.91" width="67.15" height="3.63"></rect>
            <rect id="Rectangle" fill="#E6E8EC" fill-rule="nonzero" x="267.49" y="378.96" width="61.71" height="3.63"></rect>
            <rect id="Rectangle" fill="#E6E8EC" fill-rule="nonzero" x="267.49" y="385.01" width="67.15" height="3.63"></rect>
            <rect id="Rectangle" fill="#E6E8EC" fill-rule="nonzero" x="267.49" y="391.06" width="67.15" height="3.63"></rect>
            <rect id="Rectangle" fill="#FFFFFF" fill-rule="nonzero" x="351.28" y="337.21" width="83.48" height="62.92"></rect>
            <rect id="Rectangle" fill="#C9177A" fill-rule="nonzero" opacity="0.2" x="359.45" y="342.66" width="27.83" height="15.73"></rect>
            <rect id="Rectangle" fill="#E6E8EC" fill-rule="nonzero" x="393.93" y="342.66" width="32.67" height="3.63"></rect>
            <rect id="Rectangle" fill="#E6E8EC" fill-rule="nonzero" x="393.93" y="348.71" width="22.99" height="3.63"></rect>
            <rect id="Rectangle" fill="#E6E8EC" fill-rule="nonzero" x="393.93" y="354.76" width="32.67" height="3.63"></rect>
            <rect id="Rectangle" fill="#E6E8EC" fill-rule="nonzero" x="359.45" y="360.81" width="67.15" height="3.63"></rect>
            <rect id="Rectangle" fill="#E6E8EC" fill-rule="nonzero" x="359.45" y="366.86" width="67.15" height="3.63"></rect>
            <rect id="Rectangle" fill="#E6E8EC" fill-rule="nonzero" x="359.45" y="372.91" width="67.15" height="3.63"></rect>
            <rect id="Rectangle" fill="#E6E8EC" fill-rule="nonzero" x="359.45" y="378.96" width="61.71" height="3.63"></rect>
            <rect id="Rectangle" fill="#E6E8EC" fill-rule="nonzero" x="359.45" y="385.01" width="67.15" height="3.63"></rect>
            <rect id="Rectangle" fill="#E6E8EC" fill-rule="nonzero" x="359.45" y="391.06" width="67.15" height="3.63"></rect>
            <rect id="Rectangle" fill="#FFFFFF" fill-rule="nonzero" x="167.37" y="407.99" width="83.48" height="62.92"></rect>
            <rect id="Rectangle" fill="#C9177A" fill-rule="nonzero" opacity="0.2" x="175.54" y="413.44" width="27.83" height="15.73"></rect>
            <rect id="Rectangle" fill="#E6E8EC" fill-rule="nonzero" x="210.02" y="413.44" width="32.67" height="3.63"></rect>
            <rect id="Rectangle" fill="#E6E8EC" fill-rule="nonzero" x="210.02" y="419.49" width="22.99" height="3.63"></rect>
            <rect id="Rectangle" fill="#E6E8EC" fill-rule="nonzero" x="210.02" y="425.54" width="32.67" height="3.63"></rect>
            <rect id="Rectangle" fill="#E6E8EC" fill-rule="nonzero" x="175.54" y="431.59" width="67.15" height="3.63"></rect>
            <rect id="Rectangle" fill="#E6E8EC" fill-rule="nonzero" x="175.54" y="437.64" width="67.15" height="3.63"></rect>
            <rect id="Rectangle" fill="#E6E8EC" fill-rule="nonzero" x="175.54" y="443.69" width="67.15" height="3.63"></rect>
            <rect id="Rectangle" fill="#E6E8EC" fill-rule="nonzero" x="175.54" y="449.74" width="61.71" height="3.63"></rect>
            <rect id="Rectangle" fill="#E6E8EC" fill-rule="nonzero" x="175.54" y="455.79" width="67.15" height="3.63"></rect>
            <rect id="Rectangle" fill="#E6E8EC" fill-rule="nonzero" x="175.54" y="461.84" width="67.15" height="3.63"></rect>
            <rect id="Rectangle" fill="#FFFFFF" fill-rule="nonzero" x="259.33" y="407.99" width="83.48" height="62.92"></rect>
            <rect id="Rectangle" fill="#C9177A" fill-rule="nonzero" opacity="0.2" x="267.49" y="413.44" width="27.83" height="15.73"></rect>
            <rect id="Rectangle" fill="#E6E8EC" fill-rule="nonzero" x="301.98" y="413.44" width="32.67" height="3.63"></rect>
            <rect id="Rectangle" fill="#E6E8EC" fill-rule="nonzero" x="301.98" y="419.49" width="22.99" height="3.63"></rect>
            <rect id="Rectangle" fill="#E6E8EC" fill-rule="nonzero" x="301.98" y="425.54" width="32.67" height="3.63"></rect>
            <rect id="Rectangle" fill="#E6E8EC" fill-rule="nonzero" x="267.49" y="431.59" width="67.15" height="3.63"></rect>
            <rect id="Rectangle" fill="#E6E8EC" fill-rule="nonzero" x="267.49" y="437.64" width="67.15" height="3.63"></rect>
            <rect id="Rectangle" fill="#E6E8EC" fill-rule="nonzero" x="267.49" y="443.69" width="67.15" height="3.63"></rect>
            <rect id="Rectangle" fill="#E6E8EC" fill-rule="nonzero" x="267.49" y="449.74" width="61.71" height="3.63"></rect>
            <rect id="Rectangle" fill="#E6E8EC" fill-rule="nonzero" x="267.49" y="455.79" width="67.15" height="3.63"></rect>
            <rect id="Rectangle" fill="#E6E8EC" fill-rule="nonzero" x="267.49" y="461.84" width="67.15" height="3.63"></rect>
            <rect id="Rectangle" fill="#FFFFFF" fill-rule="nonzero" x="351.28" y="407.99" width="83.48" height="62.92"></rect>
            <rect id="Rectangle" fill="#C9177A" fill-rule="nonzero" opacity="0.2" x="359.45" y="413.44" width="27.83" height="15.73"></rect>
            <rect id="Rectangle" fill="#E6E8EC" fill-rule="nonzero" x="393.93" y="413.44" width="32.67" height="3.63"></rect>
            <rect id="Rectangle" fill="#E6E8EC" fill-rule="nonzero" x="393.93" y="419.49" width="22.99" height="3.63"></rect>
            <rect id="Rectangle" fill="#E6E8EC" fill-rule="nonzero" x="393.93" y="425.54" width="32.67" height="3.63"></rect>
            <rect id="Rectangle" fill="#E6E8EC" fill-rule="nonzero" x="359.45" y="431.59" width="67.15" height="3.63"></rect>
            <rect id="Rectangle" fill="#E6E8EC" fill-rule="nonzero" x="359.45" y="437.64" width="67.15" height="3.63"></rect>
            <rect id="Rectangle" fill="#E6E8EC" fill-rule="nonzero" x="359.45" y="443.69" width="67.15" height="3.63"></rect>
            <rect id="Rectangle" fill="#E6E8EC" fill-rule="nonzero" x="359.45" y="449.74" width="61.71" height="3.63"></rect>
            <rect id="Rectangle" fill="#E6E8EC" fill-rule="nonzero" x="359.45" y="455.79" width="67.15" height="3.63"></rect>
            <rect id="Rectangle" fill="#E6E8EC" fill-rule="nonzero" x="359.45" y="461.84" width="67.15" height="3.63"></rect>
            <rect id="Rectangle" fill="#FFFFFF" fill-rule="nonzero" x="167.37" y="481.57" width="83.48" height="62.92"></rect>
            <rect id="Rectangle" fill="#C9177A" fill-rule="nonzero" opacity="0.2" x="175.54" y="487.02" width="27.83" height="15.73"></rect>
            <rect id="Rectangle" fill="#E6E8EC" fill-rule="nonzero" x="210.02" y="487.02" width="32.67" height="3.63"></rect>
            <rect id="Rectangle" fill="#E6E8EC" fill-rule="nonzero" x="210.02" y="493.07" width="22.99" height="3.63"></rect>
            <rect id="Rectangle" fill="#E6E8EC" fill-rule="nonzero" x="210.02" y="499.12" width="32.67" height="3.63"></rect>
            <rect id="Rectangle" fill="#E6E8EC" fill-rule="nonzero" x="175.54" y="505.17" width="67.15" height="3.63"></rect>
            <rect id="Rectangle" fill="#E6E8EC" fill-rule="nonzero" x="175.54" y="511.22" width="67.15" height="3.63"></rect>
            <rect id="Rectangle" fill="#E6E8EC" fill-rule="nonzero" x="175.54" y="517.27" width="67.15" height="3.63"></rect>
            <rect id="Rectangle" fill="#E6E8EC" fill-rule="nonzero" x="175.54" y="523.32" width="61.71" height="3.63"></rect>
            <rect id="Rectangle" fill="#E6E8EC" fill-rule="nonzero" x="175.54" y="529.37" width="67.15" height="3.63"></rect>
            <rect id="Rectangle" fill="#E6E8EC" fill-rule="nonzero" x="175.54" y="535.42" width="67.15" height="3.63"></rect>
            <rect id="Rectangle" fill="#FFFFFF" fill-rule="nonzero" x="259.33" y="481.57" width="83.48" height="62.92"></rect>
            <rect id="Rectangle" fill="#C9177A" fill-rule="nonzero" opacity="0.2" x="267.49" y="487.02" width="27.83" height="15.73"></rect>
            <rect id="Rectangle" fill="#E6E8EC" fill-rule="nonzero" x="301.98" y="487.02" width="32.67" height="3.63"></rect>
            <rect id="Rectangle" fill="#E6E8EC" fill-rule="nonzero" x="301.98" y="493.07" width="22.99" height="3.63"></rect>
            <rect id="Rectangle" fill="#E6E8EC" fill-rule="nonzero" x="301.98" y="499.12" width="32.67" height="3.63"></rect>
            <rect id="Rectangle" fill="#E6E8EC" fill-rule="nonzero" x="267.49" y="505.17" width="67.15" height="3.63"></rect>
            <rect id="Rectangle" fill="#E6E8EC" fill-rule="nonzero" x="267.49" y="511.22" width="67.15" height="3.63"></rect>
            <rect id="Rectangle" fill="#E6E8EC" fill-rule="nonzero" x="267.49" y="517.27" width="67.15" height="3.63"></rect>
            <rect id="Rectangle" fill="#E6E8EC" fill-rule="nonzero" x="267.49" y="523.32" width="61.71" height="3.63"></rect>
            <rect id="Rectangle" fill="#E6E8EC" fill-rule="nonzero" x="267.49" y="529.37" width="67.15" height="3.63"></rect>
            <rect id="Rectangle" fill="#E6E8EC" fill-rule="nonzero" x="267.49" y="535.42" width="67.15" height="3.63"></rect>
            <rect id="Rectangle" fill="#FFFFFF" fill-rule="nonzero" x="351.28" y="481.57" width="83.48" height="62.92"></rect>
            <rect id="Rectangle" fill="#C9177A" fill-rule="nonzero" opacity="0.2" x="359.45" y="487.02" width="27.83" height="15.73"></rect>
            <rect id="Rectangle" fill="#E6E8EC" fill-rule="nonzero" x="393.93" y="487.02" width="32.67" height="3.63"></rect>
            <rect id="Rectangle" fill="#E6E8EC" fill-rule="nonzero" x="393.93" y="493.07" width="22.99" height="3.63"></rect>
            <rect id="Rectangle" fill="#E6E8EC" fill-rule="nonzero" x="393.93" y="499.12" width="32.67" height="3.63"></rect>
            <rect id="Rectangle" fill="#E6E8EC" fill-rule="nonzero" x="359.45" y="505.17" width="67.15" height="3.63"></rect>
            <rect id="Rectangle" fill="#E6E8EC" fill-rule="nonzero" x="359.45" y="511.22" width="67.15" height="3.63"></rect>
            <rect id="Rectangle" fill="#E6E8EC" fill-rule="nonzero" x="359.45" y="517.27" width="67.15" height="3.63"></rect>
            <rect id="Rectangle" fill="#E6E8EC" fill-rule="nonzero" x="359.45" y="523.32" width="61.71" height="3.63"></rect>
            <rect id="Rectangle" fill="#E6E8EC" fill-rule="nonzero" x="359.45" y="529.37" width="67.15" height="3.63"></rect>
            <rect id="Rectangle" fill="#E6E8EC" fill-rule="nonzero" x="359.45" y="535.42" width="67.15" height="3.63"></rect>
            <rect id="Rectangle" fill="#FFFFFF" fill-rule="nonzero" x="167.37" y="552.35" width="83.48" height="62.92"></rect>
            <rect id="Rectangle" fill="#C9177A" fill-rule="nonzero" opacity="0.2" x="175.54" y="557.8" width="27.83" height="15.73"></rect>
            <rect id="Rectangle" fill="#E6E8EC" fill-rule="nonzero" x="210.02" y="557.8" width="32.67" height="3.63"></rect>
            <rect id="Rectangle" fill="#E6E8EC" fill-rule="nonzero" x="210.02" y="563.85" width="22.99" height="3.63"></rect>
            <rect id="Rectangle" fill="#E6E8EC" fill-rule="nonzero" x="210.02" y="569.9" width="32.67" height="3.63"></rect>
            <rect id="Rectangle" fill="#E6E8EC" fill-rule="nonzero" x="175.54" y="575.95" width="67.15" height="3.63"></rect>
            <rect id="Rectangle" fill="#E6E8EC" fill-rule="nonzero" x="175.54" y="582" width="67.15" height="3.63"></rect>
            <rect id="Rectangle" fill="#E6E8EC" fill-rule="nonzero" x="175.54" y="588.05" width="67.15" height="3.63"></rect>
            <rect id="Rectangle" fill="#E6E8EC" fill-rule="nonzero" x="175.54" y="594.1" width="61.71" height="3.63"></rect>
            <rect id="Rectangle" fill="#E6E8EC" fill-rule="nonzero" x="175.54" y="600.15" width="67.15" height="3.63"></rect>
            <rect id="Rectangle" fill="#E6E8EC" fill-rule="nonzero" x="175.54" y="606.2" width="67.15" height="3.63"></rect>
            <rect id="Rectangle" fill="#FFFFFF" fill-rule="nonzero" x="259.33" y="552.35" width="83.48" height="62.92"></rect>
            <rect id="Rectangle" fill="#C9177A" fill-rule="nonzero" opacity="0.2" x="267.49" y="557.8" width="27.83" height="15.73"></rect>
            <rect id="Rectangle" fill="#E6E8EC" fill-rule="nonzero" x="301.98" y="557.8" width="32.67" height="3.63"></rect>
            <rect id="Rectangle" fill="#E6E8EC" fill-rule="nonzero" x="301.98" y="563.85" width="22.99" height="3.63"></rect>
            <rect id="Rectangle" fill="#E6E8EC" fill-rule="nonzero" x="301.98" y="569.9" width="32.67" height="3.63"></rect>
            <rect id="Rectangle" fill="#E6E8EC" fill-rule="nonzero" x="267.49" y="575.95" width="67.15" height="3.63"></rect>
            <rect id="Rectangle" fill="#E6E8EC" fill-rule="nonzero" x="267.49" y="582" width="67.15" height="3.63"></rect>
            <rect id="Rectangle" fill="#E6E8EC" fill-rule="nonzero" x="267.49" y="588.05" width="67.15" height="3.63"></rect>
            <rect id="Rectangle" fill="#E6E8EC" fill-rule="nonzero" x="267.49" y="594.1" width="61.71" height="3.63"></rect>
            <rect id="Rectangle" fill="#E6E8EC" fill-rule="nonzero" x="267.49" y="600.15" width="67.15" height="3.63"></rect>
            <rect id="Rectangle" fill="#E6E8EC" fill-rule="nonzero" x="267.49" y="606.2" width="67.15" height="3.63"></rect>
            <rect id="Rectangle" fill="#000000" fill-rule="nonzero" opacity="0.1" x="351.28" y="552.35" width="83.48" height="62.92"></rect>
            <path d="M227.12,387.499968 L82.32,387.499968 C78.5220973,387.492035 74.8765838,388.993112 72.1854349,391.673008 C69.4942861,394.352905 67.9779482,397.992097 67.97,401.79 L67.97,718.88 C67.9779482,722.677903 69.4942861,726.317095 72.1854349,728.996992 C74.8765838,731.676888 78.5220973,733.177965 82.32,733.170032 L227.12,733.170032 C230.917903,733.177965 234.563416,731.676888 237.254565,728.996992 C239.945714,726.317095 241.462052,722.677903 241.47,718.88 L241.47,401.8 C241.464702,398.000363 239.949533,394.358602 237.258096,391.676543 C234.56666,388.994485 230.919632,387.492036 227.12,387.499968 Z" id="Path" fill="url(#linearGradient-3)" fill-rule="nonzero"></path>
            <rect id="Rectangle" fill="#535461" fill-rule="nonzero" x="69.3" y="390.16" width="170.85" height="341.7" rx="11"></rect>
            <rect id="Rectangle" fill="#F1F1F4" fill-rule="nonzero" x="81.88" y="421.94" width="145.68" height="278.12"></rect>
            <circle id="Oval" fill="#FFFFFF" fill-rule="nonzero" cx="137.5" cy="406.05" r="1.32"></circle>
            <rect id="Rectangle" fill="#FFFFFF" fill-rule="nonzero" x="144.13" y="404.72" width="29.14" height="2.65" rx="1"></rect>
            <circle id="Oval" fill="#FFFFFF" fill-rule="nonzero" cx="154.06" cy="713.31" r="9.27"></circle>
            <rect id="Rectangle" fill="#000000" fill-rule="nonzero" opacity="0.1" x="105.05" y="438.59" width="99.34" height="74.87"></rect>
            <rect id="Rectangle" fill="#FFFFFF" fill-rule="nonzero" x="105.05" y="522.82" width="99.34" height="74.87"></rect>
            <rect id="Rectangle" fill="#C9177A" fill-rule="nonzero" opacity="0.2" x="114.77" y="529.3" width="33.11" height="18.72"></rect>
            <rect id="Rectangle" fill="#E6E8EC" fill-rule="nonzero" x="155.8" y="529.3" width="38.87" height="4.32"></rect>
            <rect id="Rectangle" fill="#E6E8EC" fill-rule="nonzero" x="155.8" y="536.5" width="27.36" height="4.32"></rect>
            <rect id="Rectangle" fill="#E6E8EC" fill-rule="nonzero" x="155.8" y="543.69" width="38.87" height="4.32"></rect>
            <rect id="Rectangle" fill="#E6E8EC" fill-rule="nonzero" x="114.77" y="550.89" width="79.91" height="4.32"></rect>
            <rect id="Rectangle" fill="#E6E8EC" fill-rule="nonzero" x="114.77" y="558.09" width="79.91" height="4.32"></rect>
            <rect id="Rectangle" fill="#E6E8EC" fill-rule="nonzero" x="114.77" y="565.29" width="79.91" height="4.32"></rect>
            <rect id="Rectangle" fill="#E6E8EC" fill-rule="nonzero" x="114.77" y="572.49" width="73.43" height="4.32"></rect>
            <rect id="Rectangle" fill="#E6E8EC" fill-rule="nonzero" x="114.77" y="579.69" width="79.91" height="4.32"></rect>
            <rect id="Rectangle" fill="#E6E8EC" fill-rule="nonzero" x="114.77" y="586.89" width="79.91" height="4.32"></rect>
            <rect id="Rectangle" fill="#FFFFFF" fill-rule="nonzero" x="105.05" y="607.22" width="99.34" height="74.87"></rect>
            <rect id="Rectangle" fill="#C9177A" fill-rule="nonzero" opacity="0.2" x="114.77" y="613.7" width="33.11" height="18.72"></rect>
            <rect id="Rectangle" fill="#E6E8EC" fill-rule="nonzero" x="155.8" y="613.7" width="38.87" height="4.32"></rect>
            <rect id="Rectangle" fill="#E6E8EC" fill-rule="nonzero" x="155.8" y="620.9" width="27.36" height="4.32"></rect>
            <rect id="Rectangle" fill="#E6E8EC" fill-rule="nonzero" x="155.8" y="628.1" width="38.87" height="4.32"></rect>
            <rect id="Rectangle" fill="#E6E8EC" fill-rule="nonzero" x="114.77" y="635.3" width="79.91" height="4.32"></rect>
            <rect id="Rectangle" fill="#E6E8EC" fill-rule="nonzero" x="114.77" y="642.5" width="79.91" height="4.32"></rect>
            <rect id="Rectangle" fill="#E6E8EC" fill-rule="nonzero" x="114.77" y="649.7" width="79.91" height="4.32"></rect>
            <rect id="Rectangle" fill="#E6E8EC" fill-rule="nonzero" x="114.77" y="656.9" width="73.43" height="4.32"></rect>
            <rect id="Rectangle" fill="#E6E8EC" fill-rule="nonzero" x="114.77" y="664.09" width="79.91" height="4.32"></rect>
            <rect id="Rectangle" fill="#E6E8EC" fill-rule="nonzero" x="114.77" y="671.29" width="79.91" height="4.32"></rect>
            <path d="M543.66,642.59 C536.94,634.44 528.8,625.07 529.94,614.22 C530.86,605.43 528.65,597.31 529.09,588.5 C529.71,575.98 527.18,566.17 518.16,558.14 C512.89,553.45 504.08,549.76 501.46,550.7 C496.26,552.56 490.59,551.85 485.24,553.1 C481.18,554.1 478.47,555.51 476.8,557.34 C473.43,560.34 473.37,564.6 474.91,569.15 C472.190693,574.120357 471.714136,580.01283 473.599364,585.355581 C475.484592,590.698333 479.553593,594.986873 484.79,597.15 C481.04,598.71 477.79,602.32 476.54,609.64 C475.650691,614.669707 474.311993,619.609502 472.54,624.4 C471.745607,624.777797 470.931045,625.111634 470.1,625.4 C470.28,625.47 470.47,625.52 470.66,625.59 C470.27,625.74 469.87,625.89 469.48,626.03 C470.199333,626.309407 470.942322,626.523602 471.7,626.67 C468.971754,633.751049 465.305712,640.434008 460.8,646.54 C460.8,646.54 449.48,649.04 445.08,644.67 C445.08,644.67 445.8,645.51 446.77,646.77 C442.46,644.98 435.4,642.07 429.36,639.67 C424.98,637.93 423.85,639.67 423.91,642.09 C422.833308,642.214974 421.792709,642.555039 420.85,643.09 C419.555477,642.258756 418.198017,641.529873 416.79,640.91 C414.27,640.29 406.1,635.91 397.92,650.91 C393.16,659.64 380.92,675.56 371.57,687.35 C353.32,695.74 329.57,706.35 320.75,709.04 L315.11,709.04 C314.37,707.83 313.85,707.04 313.85,707.04 L313.41,707.33 L313.22,707.04 C313.22,707.04 302.11,714.73 290.83,714.79 C289.22499,714.764037 287.628109,714.55604 286.07,714.17 C280.88,712.86 277.23,712.28 274.62,712.33 C271.53,712.28 269.78,713.01 268.69,714.39 L268.69,714.39 C268.548036,714.571532 268.417773,714.761917 268.3,714.96 L268.3,714.96 C268.178941,715.164019 268.068786,715.374314 267.97,715.59 L267.97,715.59 C267.87,715.81 267.78,716.04 267.69,716.28 C267.619773,716.706179 267.748756,717.141036 268.04,717.46 C268.19024,717.676686 268.353893,717.883757 268.53,718.08 L268.84,718.42 C271.0743,720.500138 273.494406,722.371285 276.07,724.01 C277,724.64 277.98,725.28 279.01,725.94 L280.96,727.18 L282.7,728.27 L283.4,728.7 L284.18,729.18 L285.57,730.03 L286.4,730.53 L287.96,731.46 L289.22,732.21 C292.52,734.21 295.82,736.05 298.78,737.72 L300.86,738.89 L301.06,739 L302.39,739.74 L304.7,741.02 L306.29,741.89 L307.03,742.3 L307.83,742.73 L307.99,742.82 L309.37,743.57 C309.945144,743.664972 310.533101,743.504289 310.98,743.13 C311.38,741.43 312.36,737.79 313.4,737.51 C314.44,737.23 318.98,729.27 320.27,723.97 L332.54,723.97 C334.951687,723.767422 337.347066,723.403271 339.71,722.88 C336.54,725.14 333.4,726.56 330.96,725.95 C325.8,724.67 320.91,727.81 320.42,730.95 L320.36,731.14 C320.36,731.2 320.36,731.27 320.36,731.33 C320.36,731.39 320.36,731.48 320.36,731.56 C320.36,731.64 320.36,731.69 320.36,731.75 C320.36,731.81 320.36,731.9 320.36,731.98 C320.36,732.06 320.36,732.11 320.36,732.17 C320.36,732.23 320.36,732.33 320.36,732.4 C320.36,732.47 320.36,732.52 320.36,732.58 C320.36,732.64 320.36,732.75 320.42,732.83 C320.48,732.91 320.42,732.94 320.42,732.99 C320.457152,733.099075 320.500557,733.205918 320.55,733.31 L320.55,733.39 C320.617965,733.521733 320.694809,733.648693 320.78,733.77 L320.88,733.9 L321.08,734.15 L321.22,734.29 L321.45,734.51 L321.62,734.65 L321.89,734.85 L322.09,734.98 L322.42,735.17 L322.64,735.29 L323.05,735.48 L323.26,735.57 C323.48,735.66 323.71,735.75 323.96,735.83 C324.21,735.91 324.82,736.09 325.35,736.22 L325.88,736.35 L326.65,736.53 L327.06,736.62 L328.74,736.96 L329.56,737.11 L330.23,737.23 L331.77,737.5 L334.77,737.99 L337.42,738.39 L340.87,738.88 L341.63,738.98 L342.87,739.15 L344.65,739.39 L345.87,739.55 L345.87,739.55 L349.02,739.95 L350.02,740.07 L352.02,740.31 C354.63,740.62 357.16,740.92 359.48,741.18 L362.17,741.48 L363.53,741.63 L364.11,741.69 L365.74,741.87 L366.65,741.97 L367.76,742.09 L369.33,742.25 L369.5,742.25 L370.5,742.35 L370.5,742.35 C370.753075,742.37519 371.005145,742.293325 371.195125,742.124242 C371.385106,741.955159 371.495661,741.714289 371.5,741.46 L371.5,741.46 L371.5,741.46 C371.5,741.46 371.5,741.39 371.5,741.36 C371.595104,741.217747 371.647183,741.051093 371.65,740.88 C371.675272,739.384084 371.863041,737.895343 372.21,736.44 C372.28,736.19 372.36,735.93 372.44,735.68 L372.54,735.39 C372.65,735.08 372.76,734.77 372.89,734.45 C372.979011,734.224301 373.055789,733.993966 373.12,733.76 L373.18,733.54 C373.18,733.42 373.24,733.29 373.27,733.16 C374.54,728.84 373.01,720.79 372.57,717.63 C372.431963,716.611051 372.201001,715.606867 371.88,714.63 C371.959806,714.637888 372.040194,714.637888 372.12,714.63 C372.772039,714.386882 373.385152,714.050006 373.94,713.63 C383.21,710.32 391.04,706.54 393.51,702.75 C397.527853,701.679844 401.79896,702.124751 405.51,704 C410.31,706.39 446.64,718.24 463.56,723.72 C466.56,726.34 468.98,727.87 470.29,727.72 C470.29,727.72 491.82,731.2 500.48,724.4 C501.25,724.93 501.73,725.22 501.73,725.22 C501.73,725.22 514.31,718.97 516.2,710.85 C516.81,708.22 517.36,704.33 517.92,700.03 C520.840969,697.0894 522.483287,693.114773 522.49,688.97 C522.88,675.32 528.17,659.73 532.09,645.84 C536.85,646.21 538.69,645.32 543.09,643.16 L542.9,642.91 L543.66,642.59 Z M471.54,663.03 L469.14,662.22 C469.95289,661.133886 470.653163,659.967881 471.23,658.74 L471.54,663.03 Z M458,668.77 L472.58,677.52 L472.71,679.3 C472.532061,680.654353 472.572576,682.028483 472.83,683.37 C466.41,677.66 458.89,670.73 458.01,668.77 L458,668.77 Z M452.05,656.03 C450.46,655.37 449.14,654.78 448.24,654.29 L451.62,654.5 C451.820177,654.993068 451.967663,655.505919 452.06,656.03 L452.05,656.03 Z M413.05,670.28 C413.05,670.28 415.57,664.66 421.23,674.03 C422.11,675.49 423.73,677.8 425.87,680.68 L409.41,678.47 C411.11977,675.99127 412.347807,673.212922 413.03,670.28 L413.05,670.28 Z" id="Shape" fill="url(#linearGradient-4)" fill-rule="nonzero"></path>
            <path d="M449.26,647.69 C449.26,647.69 437.72,642.83 428.62,639.19 C419.52,635.55 424.98,647.69 424.98,647.69 C424.98,647.69 440.16,651.94 440.16,652.55 C440.16,653.16 452.91,653.76 452.91,653.76 L449.26,647.69 Z" id="Path" fill="#F7C4A7" fill-rule="nonzero"></path>
            <path d="M449.26,647.69 C449.26,647.69 437.72,642.83 428.62,639.19 C419.52,635.55 424.98,647.69 424.98,647.69 C424.98,647.69 440.16,651.94 440.16,652.55 C440.16,653.16 452.91,653.76 452.91,653.76 L449.26,647.69 Z" id="Path" fill="#000000" fill-rule="nonzero" opacity="0.05"></path>
            <path d="M498.41,599.73 C498.41,599.73 477.77,588.8 474.12,610.05 C471.84752,622.986218 466.667288,635.237553 458.97,645.88 C458.97,645.88 448.04,648.31 443.79,644.06 C443.79,644.06 454.11,656.2 449.25,657.42 C449.25,657.42 460.18,665.31 465.04,662.88 C469.9,660.45 473.54,644.06 475.36,639.81 C477.18,635.56 483.86,598.51 498.41,599.73 Z" id="Path" fill="#575988" fill-rule="nonzero"></path>
            <path d="M498.41,599.73 C498.41,599.73 477.77,588.8 474.12,610.05 C471.84752,622.986218 466.667288,635.237553 458.97,645.88 C458.97,645.88 448.04,648.31 443.79,644.06 C443.79,644.06 454.11,656.2 449.25,657.42 C449.25,657.42 460.18,665.31 465.04,662.88 C469.9,660.45 473.54,644.06 475.36,639.81 C477.18,635.56 483.86,598.51 498.41,599.73 Z" id="Path" fill="#000000" fill-rule="nonzero" opacity="0.1"></path>
            <path d="M486.9,592.44 C486.9,592.44 499.65,607.01 500.26,619.15 C500.87,631.29 514.83,606.4 516.05,605.79 C517.27,605.18 503.9,584.55 502.68,577.88 C501.46,571.21 486.9,592.44 486.9,592.44 Z" id="Path" fill="#F7C4A7" fill-rule="nonzero"></path>
            <polygon id="Path" fill="#F7C4A7" fill-rule="nonzero" points="495.7 598.67 487.66 605.95 491.45 621.28 501.77 611.57 500.56 601.86"></polygon>
            <polygon id="Path" fill="#F7C4A7" fill-rule="nonzero" points="327.83 706.59 313.87 706.59 319.33 719.94 332.69 716.3"></polygon>
            <path d="M317.09,704.66 C317.09,704.66 302.65,714.73 290.28,711.59 C277.91,708.45 274.57,709.59 273.13,713.68 C271.8,717.4 307.64,737.09 313.35,740.2 C313.532877,740.321465 313.76471,740.342408 313.966394,740.255684 C314.168078,740.16896 314.312357,739.986288 314.35,739.77 C314.74,738.12 315.68,734.58 316.68,734.31 C317.99,733.96 323.98,722.79 323.68,718.38 C323.38,713.97 317.09,704.66 317.09,704.66 Z" id="Path" fill="#000000" fill-rule="nonzero" opacity="0.1"></path>
            <path d="M316.49,704.66 C316.49,704.66 302.05,714.73 289.68,711.59 C277.31,708.45 273.97,709.59 272.53,713.68 C271.2,717.4 307.04,737.09 312.75,740.2 C312.932877,740.321465 313.16471,740.342408 313.366394,740.255684 C313.568078,740.16896 313.712357,739.986288 313.75,739.77 C314.14,738.12 315.08,734.58 316.08,734.31 C317.39,733.96 323.38,722.79 323.08,718.38 C322.78,713.97 316.49,704.66 316.49,704.66 Z" id="Path" fill="#F3B5B7" fill-rule="nonzero"></path>
            <path d="M435.9,680.48 L395.22,675.02 C395.22,675.02 329.04,706.59 321.15,707.2 L322.97,721.2 L335.11,721.2 C339.97,721.2 387.32,710.88 394,700.56 C397.864572,699.530395 401.973045,699.96118 405.54,701.77 C411.61,704.77 469.9,723.63 469.9,723.63 L435.9,680.48 Z" id="Path" fill="#575988" fill-rule="nonzero"></path>
            <path d="M435.9,680.48 L395.22,675.02 C395.22,675.02 329.04,706.59 321.15,707.2 L322.97,721.2 L335.11,721.2 C339.97,721.2 387.32,710.88 394,700.56 C397.864572,699.530395 401.973045,699.96118 405.54,701.77 C411.61,704.77 469.9,723.63 469.9,723.63 L435.9,680.48 Z" id="Path" fill="#000000" fill-rule="nonzero" opacity="0.1"></path>
            <polygon id="Path" fill="#F7C4A7" fill-rule="nonzero" points="363.65 699.3 356.97 707.8 363.65 711.44 373.37 704.16"></polygon>
            <path d="M479.61,689.58 C479.61,689.58 457.77,670.88 456.24,667.48 C454.71,664.08 418.9,641.02 416.47,640.41 C414.04,639.8 406.15,635.55 398.26,650.12 C390.37,664.69 361.26,699.9 361.26,699.9 C361.26,699.9 370.37,712.65 373.4,712.04 C376.43,711.43 410.4,682.9 412.86,668.93 C412.86,668.93 415.29,663.47 420.75,672.57 C426.21,681.67 461.43,725.39 468.11,724.78 C468.11,724.78 494.22,729.03 499.68,718.71 C505.14,708.39 479.61,689.58 479.61,689.58 Z" id="Path" fill="#575988" fill-rule="nonzero"></path>
            <rect id="Rectangle" fill="url(#linearGradient-5)" fill-rule="nonzero" x="382.57" y="591.56" width="90.91" height="68.51"></rect>
            <rect id="Rectangle" fill="#FFFFFF" fill-rule="nonzero" x="386.28" y="594.35" width="83.48" height="62.92"></rect>
            <rect id="Rectangle" fill="#C9177A" fill-rule="nonzero" opacity="0.2" x="394.45" y="599.8" width="27.83" height="15.73"></rect>
            <rect id="Rectangle" fill="#E6E8EC" fill-rule="nonzero" x="428.93" y="599.8" width="32.67" height="3.63"></rect>
            <rect id="Rectangle" fill="#E6E8EC" fill-rule="nonzero" x="428.93" y="605.85" width="22.99" height="3.63"></rect>
            <rect id="Rectangle" fill="#E6E8EC" fill-rule="nonzero" x="428.93" y="611.9" width="32.67" height="3.63"></rect>
            <rect id="Rectangle" fill="#E6E8EC" fill-rule="nonzero" x="394.45" y="617.95" width="67.15" height="3.63"></rect>
            <rect id="Rectangle" fill="#E6E8EC" fill-rule="nonzero" x="394.45" y="624" width="67.15" height="3.63"></rect>
            <rect id="Rectangle" fill="#E6E8EC" fill-rule="nonzero" x="394.45" y="630.05" width="67.15" height="3.63"></rect>
            <rect id="Rectangle" fill="#E6E8EC" fill-rule="nonzero" x="394.45" y="636.1" width="61.71" height="3.63"></rect>
            <rect id="Rectangle" fill="#E6E8EC" fill-rule="nonzero" x="394.45" y="642.15" width="67.15" height="3.63"></rect>
            <rect id="Rectangle" fill="#E6E8EC" fill-rule="nonzero" x="394.45" y="648.2" width="67.15" height="3.63"></rect>
            <path d="M492.06,600.64 C492.06,600.64 484.47,603.98 483.86,617.94 C483.25,631.9 469.86,655.58 469.86,655.58 L471.07,683.51 C471.07,683.51 485.64,698.08 486.86,707.19 C488.08,716.3 498.41,722.37 498.41,722.37 C498.41,722.37 510.55,716.3 512.41,708.37 C514.27,700.44 515.41,681.05 518.48,673.76 C521.55,666.47 519.69,620.94 519.69,620.94 L510.58,605.15 L505.72,599.69 L492.97,614.26 C492.97,614.26 485.99,604.88 492.06,600.64 Z" id="Path" fill="#F3B5B7" fill-rule="nonzero"></path>
            <path d="M474.15,674.4 C474.15,674.4 472.33,652.54 477.79,647.69 L488.72,616.69 C488.72,616.69 492.67,601.82 492.06,600.6 C491.45,599.38 477.79,612.44 477.79,612.44 L468.68,644.62 L471.11,678.62 L474.15,674.4 Z" id="Path" fill="#000000" fill-rule="nonzero" opacity="0.1"></path>
            <path d="M473.54,674.4 C473.54,674.4 471.72,652.54 477.18,647.69 L488.11,616.69 C488.11,616.69 492.36,601.51 491.75,600.3 C491.14,599.09 477.18,612.44 477.18,612.44 L468.07,644.62 L470.5,678.62 L473.54,674.4 Z" id="Path" fill="#575988" fill-rule="nonzero"></path>
            <path d="M477.79,664.69 C477.79,664.69 447.41,654.98 445.61,652.55 C443.81,650.12 424.36,634.34 417.68,645.26 C411,656.18 442.57,659.26 442.57,659.26 L474.75,678.69 L477.79,664.69 Z" id="Path" fill="#F7C4A7" fill-rule="nonzero"></path>
            <path d="M364.96,707.74 L355.96,706.12 C355.96,706.12 341.24,724.97 333.58,723.06 C325.92,721.15 318.86,729.4 326.96,732.06 C334.28,734.45 365.87,737.8 371.91,738.42 C372.159921,738.454425 372.412598,738.379931 372.603873,738.215434 C372.795149,738.050937 372.906626,737.812258 372.91,737.56 C372.938519,735.21764 373.392566,732.89997 374.25,730.72 C375.87,726.72 374.25,718.2 373.8,714.96 C373.549775,713.050033 372.949758,711.202522 372.03,709.51 L364.96,707.74 Z" id="Path" fill="#000000" fill-rule="nonzero" opacity="0.1"></path>
            <path d="M364.82,708.33 L355.82,706.71 C355.82,706.71 341.12,725.57 333.41,723.65 C325.7,721.73 318.69,729.99 326.79,732.65 C334.11,735.04 365.7,738.39 371.74,739.01 C371.989921,739.044425 372.242598,738.969931 372.433873,738.805434 C372.625149,738.640937 372.736626,738.402258 372.74,738.15 C372.768519,735.80764 373.222566,733.48997 374.08,731.31 C375.7,727.31 374.08,718.79 373.63,715.55 C373.379775,713.640033 372.779758,711.792522 371.86,710.1 L364.82,708.33 Z" id="Path" fill="#F3B5B7" fill-rule="nonzero"></path>
            <circle id="Oval" fill="#000000" fill-rule="nonzero" opacity="0.1" cx="491.45" cy="580" r="19.43"></circle>
            <circle id="Oval" fill="#F7C4A7" fill-rule="nonzero" cx="489.63" cy="580" r="19.43"></circle>
            <path d="M508.75,599.12 C508.75,599.12 531.82,607.01 531.82,623.41 C531.82,639.81 519.07,665.91 518.46,687.16 C517.85,708.41 484.46,705.37 484.46,705.37 C484.46,705.37 479.6,633.73 484.46,628.26 C489.32,622.79 511.18,601.55 508.75,599.12 Z" id="Path" fill="#575988" fill-rule="nonzero"></path>
            <path d="M504.5,633.12 C504.5,633.12 496,670.76 475.96,664.12 C475.96,664.12 465.64,679.3 472.96,685.98 C472.96,685.98 490.57,690.23 502.1,678.69 C513.63,667.15 522.11,662.88 523.93,648.88 C525.75,634.88 526.93,615.49 520.93,617.31 C514.93,619.13 504.5,633.12 504.5,633.12 Z" id="Path" fill="#000000" fill-rule="nonzero" opacity="0.1"></path>
            <path d="M505.11,632.51 C505.11,632.51 496.61,670.15 476.57,663.51 C476.57,663.51 466.25,678.69 473.57,685.37 C473.57,685.37 491.18,689.62 502.71,678.08 C514.24,666.54 522.71,662.29 524.57,648.33 C526.43,634.37 527.57,614.94 521.57,616.76 C515.57,618.58 505.11,632.51 505.11,632.51 Z" id="Path" fill="#575988" fill-rule="nonzero"></path>
            <path d="M374.6,729.36 C374.6,729.42 374.6,729.48 374.54,729.53 C374.106021,730.566011 373.771191,731.640815 373.54,732.74 C373.68,732.26 373.85,731.74 374.05,731.29 C374.306247,730.669716 374.490777,730.022182 374.6,729.36 Z" id="Path" fill="#DDDBE2" fill-rule="nonzero"></path>
            <path d="M327.28,730.88 C324.78,730.06 323.73,728.71 323.69,727.29 C322.69,729.29 323.31,731.49 326.84,732.65 C334.16,735.04 365.76,738.39 371.79,739.01 C372.041637,739.044638 372.295967,738.968854 372.487603,738.80213 C372.679239,738.635407 372.789486,738.394009 372.790139,738.14 L372.790139,738.14 C372.798054,737.681203 372.45597,737.291487 372,737.24 C365.35,736.52 334.5,733.23 327.28,730.88 Z" id="Path" fill="#DDDBE2" fill-rule="nonzero"></path>
            <path d="M273.36,712.61 C273.515358,712.162281 273.712912,711.730339 273.95,711.32 C273.294087,711.983041 272.804111,712.791673 272.52,713.68 C271.19,717.4 307.03,737.08 312.74,740.2 C312.923947,740.316218 313.153355,740.334307 313.353243,740.248355 C313.553131,740.162403 313.697813,739.983455 313.74,739.77 L313.74,739.77 C313.808896,739.482458 313.678145,739.184182 313.42,739.04 C307.08,735.58 272.04,716.29 273.36,712.61 Z" id="Path" fill="#DDDBE2" fill-rule="nonzero"></path>
            <path d="M316.87,733.24 C316.55,733.33 316.23,733.75 315.94,734.35 L316.04,734.35 C316.3,734.28 316.76,733.76 317.32,732.95 C317.194199,733.079866 317.040237,733.179086 316.87,733.24 Z" id="Path" fill="#DDDBE2" fill-rule="nonzero"></path>
            <path d="M486.93,597.1 C485.22,600.87 484.86,605.1 483.6,609.1 C481.112441,616.948672 475.101718,623.185028 467.35,625.96 C473.66,628.48 481.1,625.4 485.98,620.3 C490.86,615.2 493.71,608.41 496.45,601.81 C503.53,606.57 502.67,617.51 505.04,626.03 C507.10732,633.528479 512.323681,639.762579 519.34,643.12 C526.337299,646.261532 534.374532,646.100054 541.24,642.68 C534.75,634.76 525.51,623.9 526.61,613.36 C527.5,604.82 521.37,598.3 521.8,589.74 C522.4,577.58 517.8,571.43 509.05,563.63 C503.96,559.07 511.97,552.63 505.41,554.52 C502.83,555.26 500.11,552.52 497.58,553.41 C492.58,555.21 487.09,554.53 481.93,555.74 C455.1,562.02 489.41,591.59 486.93,597.1 Z" id="Path" fill="#000000" fill-rule="nonzero" opacity="0.1"></path>
            <path d="M487.54,596.49 C485.83,600.26 485.47,604.49 484.21,608.49 C481.722441,616.338672 475.711718,622.575028 467.96,625.35 C474.27,627.87 481.71,624.79 486.59,619.69 C491.47,614.59 494.32,607.8 497.06,601.2 C504.14,605.96 503.28,616.9 505.65,625.42 C507.71732,632.918479 512.933681,639.152579 519.95,642.51 C526.947299,645.651532 534.984532,645.490054 541.85,642.07 C535.36,634.15 526.73,625.07 527.85,614.57 C528.74,606.03 527.41,597.26 527.85,588.7 C528.45,576.54 522.5,564.83 513.79,557.03 C508.7,552.47 500.79,551.89 498.22,552.8 C493.22,554.6 487.73,553.92 482.57,555.13 C455.71,561.42 490.04,590.98 487.54,596.49 Z" id="Path" fill="#B96B6B" fill-rule="nonzero"></path>
            <path d="M163.83,781.37 C198.83,770.6 219.49,771.49 219.49,771.49 L216.62,755.22 C217.516623,754.619248 218.330276,753.903098 219.04,753.09 C219.04,753.09 215.45,733.34 219.04,728.4 C222.63,723.46 232.51,678.58 232.51,678.58 L232.51,663.31 C250.51,657.03 271.56,620.67 271.56,620.67 L298.05,688.88 C298.05,688.88 324.53,741.4 328.12,743.19 C330.99,744.62 332.42,756.37 332.89,761.04 L332.67,761.11 C332.78,762.24 332.83,762.94 332.83,762.94 L333.04,762.8 L333.04,762.94 C333.484357,762.630245 333.952478,762.356059 334.44,762.12 C329.27,768.06 321.53,776.6 315.09,782.24 C311.54,785.35 317.91,787.75 320.89,787.7 C322.585234,787.644839 324.277137,787.885089 325.89,788.41 C340.98,793.62 365.79,774.6 365.79,774.6 L359.58,757.28 C361.2,757.15 362.2,757.09 362.2,757.09 C362.2,757.09 342,686.17 332.57,679.43 C329.589245,677.256935 326.9005,674.70935 324.57,671.85 C320.085124,666.399495 317.824275,659.456225 318.24,652.41 L321.55,594.22 C326.87,593.44 330.3,592.79 330.3,592.79 C330.3,592.79 331.54,576.89 331.5,564.69 C331.5,558.34 331.24,552.77 330.3,550.59 C329.19,548.01 328.84,542.85 328.82,537.67 C328.82,530.67 329.4,524.11 329.4,524.11 C329.4,524.11 336.58,514.68 346.46,493.11 C350.81,483.62 351.94,476.11 351.84,470.73 C351.907289,468.2232 351.665468,465.71766 351.12,463.27 C350.554874,460.824962 349.030607,458.709725 346.89,457.4 C341.21,453.92 328.28,445.33 324.47,437.01 C319.63,426.45 312.64,424.95 312.36,424.89 L311.93,423.03 C314.610595,420.813576 316.567661,417.846636 317.55,414.51 C319.01,410.01 319.31,405.21 320.55,400.64 C321.15,398.44 321.98,396.31 322.55,394.11 C323.11931,391.89589 323.391697,389.615912 323.36,387.33 C323.46823,384.000227 322.782688,380.692484 321.36,377.68 C319.04,372.91 314.42,369.16 309.16,368.54 C306.26,368.2 303.05,368.7 300.67,367.01 C299.03,365.84 298.17,363.85 296.67,362.46 C293.82,359.76 289.26,359.9 285.55,361.16 C280.554417,362.873032 276.274469,366.206182 273.39,370.63 C271.66,373.29 270.45,376.34 268.23,378.63 C266.36,380.54 263.91,381.76 261.85,383.46 C258.761871,385.86981 256.92497,389.543611 256.85,393.46 C256.85,393.46 256.85,393.56 256.85,393.61 C256.85,393.86 256.85,394.11 256.85,394.36 C256.95,398.22 259.64,402.06 263.42,402.84 C264.409795,403.022136 265.421905,403.049126 266.42,402.92 C264.697814,409.284883 265.642858,416.076687 269.037261,421.729623 C272.431665,427.38256 277.982474,431.408753 284.41,432.88 C284.35,433.2 284.28,433.52 284.21,433.88 L284.42,433.88 C283.986931,435.435897 283.445611,436.959612 282.8,438.44 L282.51,438.44 L283.24,437.14 L272.94,436.43 C269.940964,436.204334 266.935013,436.766226 264.22,438.06 C260.67,439.78 256.79,443.06 256.31,449.26 C255.41,460.88 233.41,478.38 233.41,478.38 C225.78,490.5 175.95,492.74 175.95,492.74 C175.95,492.74 176.17,493.02 176.27,493.17 L175.27,492.98 L171.5,492.29 C171.5,492.29 159.83,457.73 148.61,464.01 C137.39,470.29 167.91,504.41 167.91,504.41 L176.73,505 L177.62,505.06 C177.296269,507.296982 176.832017,509.511362 176.23,511.69 L176.23,511.69 C176.11,512.13 176.02,512.41 176,512.48 L176,512.48 C176,512.48 199.2,509.8 218.91,510.23 L220.69,510.23 L221.95,510.17 C222.95,521 238.39,543.01 238.39,543.01 L247.92,545.01 L248.64,545.16 C245.569049,551.510985 241.668285,557.426023 237.04,562.75 L233.9,580.26 L234.15,580.2 L233.9,581.61 C234.438164,581.478929 234.936013,581.217987 235.35,580.85 C229.2,597.17 219,622.57 211.91,631.43 C201.14,644.9 202.48,666.43 202.48,666.43 C202.48,666.43 191.71,722.99 192.16,733.31 C192.212037,738.291334 190.864207,743.187179 188.27,747.44 C186.157332,749.865624 184.300817,752.502947 182.73,755.31 C174.65,769.23 161.63,768.31 161.63,768.31 C150.41,775.53 163.83,781.37 163.83,781.37 Z M233.16,507.58 L233.16,507.58 L234.32,507.12 L234.59,507.01 L235.7,506.53 L235.89,506.44 L236.89,505.98 L237.11,505.88 L238.17,505.35 L238.42,505.22 L239.42,504.69 L239.5,504.69 L240.5,504.11 L240.74,503.97 L241.74,503.39 L241.9,503.29 L242.77,502.76 L242.97,502.64 L243.9,502.05 L244.11,501.91 L244.97,501.34 L245.05,501.29 L245.93,500.68 L246.13,500.54 L246.97,499.94 L247.1,499.85 L247.84,499.31 L248,499.19 L248.77,498.6 L248.93,498.48 L249.63,497.93 L249.69,497.93 L250.4,497.36 L250.55,497.24 L251.22,496.69 L251.28,496.64 L251.88,496.13 L251.98,496.04 L252.57,495.53 L252.66,495.45 L253.2,494.96 L253.2,494.96 L253.72,494.49 L253.79,494.42 L254.79,493.42 L256.25,493.3 C257.49,494.91 257.98,497.76 258.03,501.03 C257.89,509.42 255.35,519.78 255.35,519.78 C255.133478,524.921737 254.239084,530.012386 252.69,534.92 C251.594985,534.860378 250.52035,534.599347 249.52,534.15 C249.52,534.15 249.46,534.47 249.37,535.01 L248.51,534.79 L244.14,533.7 C244.14,533.7 240.51,515.22 233.16,507.58 Z" id="Shape" fill="url(#linearGradient-6)" fill-rule="nonzero"></path>
            <path d="M354.89,746.67 L363.22,769.88 C363.22,769.88 340.41,787.38 325.59,783.76 C323.357807,783.205162 321.083277,782.837224 318.79,782.66 C315.72,782.43 310.44,780.2 313.7,777.35 C324.22,768.15 338.24,751.06 338.24,751.06 L354.89,746.67 Z" id="Path" fill="#4F4D59" fill-rule="nonzero"></path>
            <path d="M216.41,744.48 L220.35,766.83 C220.35,766.83 200.19,765.95 166.01,776.47 C166.01,776.47 152.86,770.77 163.82,763.76 C163.82,763.76 176.53,764.64 184.42,751.05 C192.31,737.46 197.13,739.22 197.13,739.22 L216.41,744.48 Z" id="Path" fill="#4F4D59" fill-rule="nonzero"></path>
            <path d="M320.71,582.33 L316.85,650.33 C316.436478,657.577433 318.840714,664.704148 323.56,670.22 C325.693507,672.752583 328.124354,675.018912 330.8,676.97 C340,683.54 359.72,752.78 359.72,752.78 C359.72,752.78 337.37,754.09 331.24,758.48 C331.24,758.48 329.93,740.95 326.42,739.2 C322.91,737.45 297.06,686.2 297.06,686.2 L271.19,619.58 C271.19,619.58 250.59,655.08 233.06,661.21 L233.06,676.11 C233.06,676.11 223.42,719.93 219.91,724.75 C216.4,729.57 219.91,748.85 219.91,748.85 C219.91,748.85 209.83,761.56 186.61,747.97 C186.61,747.97 194.06,739.64 193.61,729.56 C193.16,719.48 203.71,664.28 203.71,664.28 C203.71,664.28 202.4,643.28 212.91,630.1 C223.42,616.92 240.91,566.56 240.91,566.56 L252.97,540.61 L320.71,582.33 Z" id="Path" fill="#787C9C" fill-rule="nonzero"></path>
            <g id="Group" opacity="0.1" transform="translate(204.000000, 540.000000)" fill="#000000" fill-rule="nonzero">
                <path d="M151.55,212.8 C151.55,212.8 131.83,143.56 122.63,136.99 C119.801693,134.92214 117.244929,132.506485 115.02,129.8 C110.51824,124.35877 108.255167,117.40867 108.69,110.36 L112.55,42.36 L47.92,2.52 L48.8,0.63 L116.49,42.35 L112.63,110.35 C112.195167,117.39867 114.45824,124.34877 118.96,129.79 C121.184929,132.496485 123.741693,134.91214 126.57,136.98 C135.77,143.55 155.49,212.79 155.49,212.79 C155.49,212.79 133.14,214.1 127.01,218.49 C127.01,218.49 126.96,217.81 126.85,216.7 C135.47,213.75 151.55,212.8 151.55,212.8 Z" id="Path"></path>
                <path d="M11.76,208.88 C11.76,208.88 8.25,189.6 11.76,184.78 C15.27,179.96 24.91,136.14 24.91,136.14 L24.91,121.24 C42.44,115.1 63.04,79.61 63.04,79.61 L64.57,83.56 C58.63,92.98 42.78,116.37 28.86,121.24 L28.86,136.14 C28.86,136.14 19.22,179.96 15.71,184.78 C12.2,189.6 15.71,208.88 15.71,208.88 C15.71,208.88 10.82,215.03 0.02,214.2 C8.07,213.51 11.76,208.88 11.76,208.88 Z" id="Path"></path>
            </g>
            <path d="M169.96,506.08 L178.57,506.65 L183.11,506.95 L183.11,495.95 L177.11,494.87 L173.42,494.2 C173.42,494.2 162.03,460.46 151.07,466.59 C140.11,472.72 169.96,506.08 169.96,506.08 Z" id="Path" fill="#714B4F" fill-rule="nonzero"></path>
            <path d="M308,415.81 C308,415.81 313.7,437.72 315.45,451.31 C317.2,464.9 274.7,453.94 274.7,453.94 C274.7,453.94 290.91,434.22 281.7,423.7 L308,415.81 Z" id="Path" fill="#714B4F" fill-rule="nonzero"></path>
            <path d="M261.99,506.96 L261.11,515.29 L274.69,514.41 L288.27,502.58 L301.85,464.45 L310.63,450.88 L317.2,442.55 L314.57,432.47 C314.57,432.47 313.37,433.47 311.34,435.07 C304.67,440.18 289.01,450.79 277.57,447.86 C277.040669,447.72801 276.519733,447.564383 276.01,447.37 L258.92,476.73 L261.99,506.96 Z" id="Path" fill="#E6E6F0" fill-rule="nonzero"></path>
            <path d="M311.07,429.88 C311.07,429.88 318.07,431.19 322.9,441.71 C326.61,449.8 339.12,458.14 344.71,461.57 C346.863071,462.886987 348.392262,465.018477 348.95,467.48 C350.08,472.48 350.51,481.78 344.37,495.18 C334.73,516.18 327.72,525.42 327.72,525.42 C327.72,525.42 325.97,546.42 328.6,552.59 C331.23,558.76 328.6,592.47 328.6,592.47 C328.6,592.47 282.6,601.23 267.25,592.47 C251.9,583.71 254.1,549.88 254.1,549.88 C254.1,549.88 239.64,580.58 234.41,581.46 L237.41,564.37 C237.41,564.37 254.5,545.96 255.41,522.3 C255.41,522.3 260.67,500.83 256.29,495.13 C256.29,495.13 182.23,501.27 177.85,496.01 C177.85,496.01 226.49,493.82 233.94,482.01 C233.94,482.01 255.41,464.92 256.29,453.53 C256.551006,449.186284 259.034868,445.284693 262.86,443.21 C265.840995,441.515233 269.261378,440.752439 272.68,441.02 L282.58,441.7 C282.58,441.7 265.5,471.88 266.41,475.88 C267.32,479.88 265.53,511.81 265.53,511.81 C265.53,511.81 285.25,469.3 294.01,464.48 C302.77,459.66 312.82,439.88 312.82,439.88 L311.07,429.88" id="Path" fill="#000000" fill-rule="nonzero" opacity="0.1"></path>
            <path d="M261.99,506.96 L261.11,515.29 L274.69,514.41 L288.27,502.58 L301.85,464.45 L310.63,450.88 L317.2,442.55 L314.57,432.47 C314.57,432.47 313.37,433.47 311.34,435.07 L311.94,438.53 C311.94,438.53 301.86,458.32 293.1,463.14 C284.34,467.96 264.62,510.47 264.62,510.47 C264.62,510.47 266.37,478.47 265.5,474.54 C264.9,471.86 272.58,457.09 277.57,447.86 C277.040669,447.72801 276.519733,447.564383 276.01,447.37 L258.92,476.73 L261.99,506.96 Z" id="Path" fill="#000000" fill-rule="nonzero" opacity="0.1"></path>
            <path d="M178.57,506.66 L183.11,506.96 L183.11,495.96 L177.11,494.88 C179.22,497.68 179.15,502.54 178.57,506.66 Z" id="Path" fill="#000000" fill-rule="nonzero" opacity="0.1"></path>
            <path d="M311.07,428.52 C311.07,428.52 318.07,429.83 322.9,440.35 C326.61,448.44 339.12,456.78 344.71,460.21 C346.863071,461.526987 348.392262,463.658477 348.95,466.12 C350.08,471.12 350.51,480.42 344.37,493.82 C334.73,514.82 327.72,524.06 327.72,524.06 C327.72,524.06 325.97,545.06 328.6,551.23 C331.23,557.4 328.6,591.11 328.6,591.11 C328.6,591.11 282.6,599.87 267.25,591.11 C251.9,582.35 254.1,548.6 254.1,548.6 C254.1,548.6 239.64,579.27 234.41,580.14 L237.41,563.05 C237.41,563.05 254.5,544.64 255.41,520.98 C255.41,520.98 260.67,499.51 256.29,493.81 C256.29,493.81 239.2,512.22 219.92,511.81 C200.64,511.4 177.85,514 177.85,514 C177.85,514 182.23,500 177.85,494.72 C177.85,494.72 226.49,492.53 233.94,480.72 C233.94,480.72 255.41,463.63 256.29,452.24 C256.539581,447.879659 259.029382,443.959547 262.87,441.88 C265.850995,440.185233 269.271378,439.422439 272.69,439.69 L282.59,440.37 C282.59,440.37 265.5,470.59 266.41,474.53 C267.32,478.47 265.53,510.46 265.53,510.46 C265.53,510.46 285.25,467.95 294.01,463.13 C302.77,458.31 312.85,438.52 312.85,438.52 L311.1,428.52" id="Path" fill="#67647E" fill-rule="nonzero"></path>
            <path d="M320.71,474.53 C320.71,474.53 310.19,510.03 304.06,514.41 C297.93,518.79 260.68,541.14 249.72,535.88 C249.72,535.88 247.09,549.03 251.03,552.09 C251.03,552.09 291.89,550.49 292.22,550.34 C292.22,550.34 318.95,546.83 323.33,533.69 C327.71,520.55 332.97,498.19 332.97,498.19 L320.71,474.53 Z" id="Path" fill="#000000" fill-rule="nonzero" opacity="0.1"></path>
            <ellipse id="Oval" fill="#BA7855" fill-rule="nonzero" cx="264.62" cy="512.44" rx="1.53" ry="2.19"></ellipse>
            <ellipse id="Oval" fill="#BA7855" fill-rule="nonzero" cx="260.24" cy="527.78" rx="1.53" ry="2.19"></ellipse>
            <g id="Group" opacity="0.1" transform="translate(177.000000, 428.000000)" fill="#000000" fill-rule="nonzero">
                <path d="M148.53,162.66 C148.53,162.66 151.16,128.92 148.53,122.78 C145.9,116.64 147.65,95.61 147.65,95.61 C147.65,95.61 154.65,86.41 164.3,65.37 C170.44,51.97 170,42.67 168.88,37.67 C168.319861,35.2067684 166.786861,33.0749967 164.63,31.76 C159.04,28.33 146.53,19.99 142.83,11.9 C140.11,5.97 136.7,2.96 134.23,1.47 L134.06,0.47 C134.06,0.47 141.06,1.78 145.89,12.3 C149.6,20.39 162.11,28.73 167.69,32.16 C169.846861,33.4749967 171.379861,35.6067684 171.94,38.07 C173.07,43.07 173.5,52.37 167.36,65.77 C157.72,86.77 150.71,96.01 150.71,96.01 C150.71,96.01 148.96,117.01 151.59,123.18 C154.22,129.35 151.59,163.06 151.59,163.06 C151.59,163.06 118.72,169.32 99.28,165.97 C118.92,168.3 148.53,162.66 148.53,162.66 Z" id="Path"></path>
                <path d="M89.41,46.53 C90.01,49.23 89.41,65.11 88.92,74.83 C86.8,79.16 85.47,82.02 85.47,82.02 C85.47,82.02 87.22,50.02 86.35,46.09 C85.52,42.34 100.91,14.84 102.44,12.09 L105.63,12.31 C105.63,12.31 88.5,42.59 89.41,46.53 Z" id="Path"></path>
                <path d="M39.85,83.34 C59.13,83.78 76.22,65.34 76.22,65.34 C76.7368327,66.0562031 77.1134593,66.8637447 77.33,67.72 C72.33,72.43 58.33,84.1 42.92,83.72 C23.64,83.28 0.85,85.91 0.85,85.91 C0.85,85.91 0.94,85.62 1.08,85.12 C13.9602897,83.8076853 26.9036486,83.2134326 39.85,83.34 L39.85,83.34 Z" id="Path"></path>
                <path d="M74.03,120.15 C74.03,120.15 73.85,122.89 73.95,127 C69.39,136 61.09,151.52 57.38,152.14 L58.03,148.54 C64.41,140.53 74.03,120.15 74.03,120.15 Z" id="Path"></path>
            </g>
            <rect id="Rectangle" fill="url(#linearGradient-7)" fill-rule="nonzero" x="151.35" y="437.56" width="104.75" height="78.94"></rect>
            <rect id="Rectangle" fill="#FFFFFF" fill-rule="nonzero" x="154.05" y="439.59" width="99.34" height="74.87"></rect>
            <rect id="Rectangle" fill="#C9177A" fill-rule="nonzero" opacity="0.2" x="163.77" y="446.07" width="33.11" height="18.72"></rect>
            <rect id="Rectangle" fill="#E6E8EC" fill-rule="nonzero" x="204.8" y="446.07" width="38.87" height="4.32"></rect>
            <rect id="Rectangle" fill="#E6E8EC" fill-rule="nonzero" x="204.8" y="453.27" width="27.36" height="4.32"></rect>
            <rect id="Rectangle" fill="#E6E8EC" fill-rule="nonzero" x="204.8" y="460.47" width="38.87" height="4.32"></rect>
            <rect id="Rectangle" fill="#E6E8EC" fill-rule="nonzero" x="163.77" y="467.67" width="79.91" height="4.32"></rect>
            <rect id="Rectangle" fill="#E6E8EC" fill-rule="nonzero" x="163.77" y="474.87" width="79.91" height="4.32"></rect>
            <rect id="Rectangle" fill="#E6E8EC" fill-rule="nonzero" x="163.77" y="482.06" width="79.91" height="4.32"></rect>
            <rect id="Rectangle" fill="#E6E8EC" fill-rule="nonzero" x="163.77" y="489.26" width="73.43" height="4.32"></rect>
            <rect id="Rectangle" fill="#E6E8EC" fill-rule="nonzero" x="163.77" y="496.46" width="79.91" height="4.32"></rect>
            <rect id="Rectangle" fill="#E6E8EC" fill-rule="nonzero" x="163.77" y="503.66" width="79.91" height="4.32"></rect>
            <path d="M238.76,543.77 L248.07,545.77 L255.41,547.28 L251.47,536.28 L248.73,535.59 L244.46,534.53 C244.46,534.53 238.33,503.88 226.06,506.08 C213.79,508.28 238.76,543.77 238.76,543.77 Z" id="Path" fill="#714B4F" fill-rule="nonzero"></path>
            <path d="M248.07,545.73 L255.41,547.28 L251.47,536.28 L248.73,535.59 C248.117072,538.932913 247.89558,542.335839 248.07,545.73 Z" id="Path" fill="#000000" fill-rule="nonzero" opacity="0.1"></path>
            <path d="M320.71,473.66 C320.71,473.66 310.19,509.16 304.06,513.54 C297.93,517.92 260.68,540.27 249.72,535.01 C249.72,535.01 247.09,548.16 251.03,551.22 C251.03,551.22 291.89,549.62 292.22,549.47 C292.22,549.47 318.95,545.96 323.33,532.82 C327.71,519.68 332.97,497.32 332.97,497.32 L320.71,473.66 Z" id="Path" fill="#67647E" fill-rule="nonzero"></path>
            <path d="M307.56,416.69 C307.56,416.69 308.45,420.12 309.64,425.11 C304.641953,434.549248 293.93749,439.467072 283.52,437.11 C284.57,432.61 284.34,428.11 281.26,424.54 L307.56,416.69 Z" id="Path" fill="#000000" fill-rule="nonzero" opacity="0.1"></path>
            <circle id="Oval" fill="#714B4F" fill-rule="nonzero" cx="289.16" cy="413.19" r="23.66"></circle>
            <path d="M268.61,406.67 C266.892117,407.146968 265.092912,407.256011 263.33,406.99 C259.64,406.23 257.01,402.48 256.92,398.71 C256.994744,394.885198 258.786935,391.297145 261.8,388.94 C263.8,387.27 266.2,386.08 268.03,384.22 C270.2,382.01 271.38,379.03 273.03,376.43 C275.849196,372.111745 280.030658,368.859496 284.91,367.19 C288.54,365.96 292.98,365.82 295.77,368.46 C297.2,369.81 298.04,371.76 299.64,372.9 C301.96,374.55 305.1,374.06 307.93,374.39 C313.139252,375.190809 317.606215,378.536342 319.84,383.31 C321.988949,388.071849 322.399447,393.436638 321,398.47 C320.45,400.62 319.65,402.71 319.06,404.85 C317.83,409.31 317.54,413.99 316.12,418.39 C314.7,422.79 311.77,427.09 307.34,428.39 C307.690488,423.457242 306.716929,418.520401 304.52,414.09 C304.156321,413.124766 303.442185,412.332076 302.52,411.87 C301.729462,411.66723 300.900538,411.66723 300.11,411.87 C294.56192,412.692763 288.900898,411.546406 284.11,408.63 C282.43,407.63 279.81,404.12 278.01,403.77 C275.74,403.36 271.01,406.13 268.61,406.67 Z" id="Path" fill="#000000" fill-rule="nonzero" opacity="0.1"></path>
            <path d="M268.61,405.79 C266.892117,406.266968 265.092912,406.376011 263.33,406.11 C259.64,405.35 257.01,401.6 256.92,397.83 C256.994744,394.005198 258.786935,390.417145 261.8,388.06 C263.8,386.39 266.2,385.2 268.03,383.34 C270.2,381.13 271.38,378.15 273.03,375.55 C275.849196,371.231745 280.030658,367.979496 284.91,366.31 C288.54,365.08 292.98,364.94 295.77,367.58 C297.2,368.93 298.04,370.88 299.64,372.02 C301.96,373.67 305.1,373.18 307.93,373.51 C313.139252,374.310809 317.606215,377.656342 319.84,382.43 C321.988949,387.191849 322.399447,392.556638 321,397.59 C320.45,399.74 319.65,401.83 319.06,403.97 C317.83,408.43 317.54,413.11 316.12,417.51 C314.7,421.91 311.77,426.21 307.34,427.51 C307.690488,422.577242 306.716929,417.640401 304.52,413.21 C304.156321,412.244766 303.442185,411.452076 302.52,410.99 C301.729462,410.78723 300.900538,410.78723 300.11,410.99 C294.56192,411.812763 288.900898,410.666406 284.11,407.75 C282.43,406.75 279.81,403.24 278.01,402.89 C275.74,402.48 271.01,405.26 268.61,405.79 Z" id="Path" fill="#503F43" fill-rule="nonzero"></path>
            <path d="M86.17,760.29 C88.0027698,758.795856 89.3384046,756.780199 90,754.51 C90.5,752.21 89.52,749.46 87.32,748.62 C84.86,747.68 82.23,749.38 80.24,751.11 C78.25,752.84 75.96,754.8 73.35,754.43 C76.0787286,751.95648 77.3087834,748.232148 76.59,744.62 C76.4771808,743.883976 76.1660488,743.192571 75.69,742.62 C74.32,741.16 71.85,741.79 70.21,742.94 C65.01,746.6 63.56,753.66 63.53,760.02 C63.01,757.73 63.45,755.34 63.43,753.02 C63.41,750.7 62.77,748.02 60.79,746.8 C59.5621913,746.140285 58.183325,745.812804 56.79,745.85 C54.45,745.76 51.85,746 50.25,747.71 C48.25,749.83 48.78,753.4 50.51,755.71 C52.24,758.02 54.86,759.51 57.28,761.13 C59.2195325,762.283074 60.8739361,763.858859 62.12,765.74 C62.2665566,766.000888 62.3871354,766.27554 62.48,766.56 L77.11,766.56 C80.3994181,764.888946 83.4471605,762.779747 86.17,760.29 L86.17,760.29 Z" id="Path" fill="#C9177A" fill-rule="nonzero"></path>
            <path d="M955.17,621.29 C957.00277,619.795856 958.338405,617.780199 959,615.51 C959.5,613.21 958.52,610.46 956.32,609.62 C953.86,608.68 951.23,610.38 949.24,612.11 C947.25,613.84 944.96,615.8 942.35,615.43 C945.078729,612.95648 946.308783,609.232148 945.59,605.62 C945.477181,604.883976 945.166049,604.192571 944.69,603.62 C943.32,602.16 940.85,602.79 939.21,603.94 C934.01,607.6 932.56,614.66 932.53,621.02 C932.01,618.73 932.45,616.34 932.43,614.02 C932.41,611.7 931.77,609.02 929.79,607.8 C928.562191,607.140285 927.183325,606.812804 925.79,606.85 C923.45,606.76 920.85,607 919.25,608.71 C917.25,610.83 917.78,614.4 919.51,616.71 C921.24,619.02 923.86,620.51 926.28,622.13 C928.219532,623.283074 929.873936,624.858859 931.12,626.74 C931.266557,627.000888 931.387135,627.27554 931.48,627.56 L946.13,627.56 C949.412397,625.887398 952.453328,623.778257 955.17,621.29 Z" id="Path" fill="#C9177A" fill-rule="nonzero"></path>
            <path d="M1085.15,320.69 C1083.08,314.63 1080.09,306.95 1077.73,305.14 C1077.58608,305.024061 1077.42818,304.926634 1077.26,304.85 L1076.97,304.85 L1076.97,297.36 L1071.39,298.25 C1070.50319,295.544461 1069.83439,292.772274 1069.39,289.96 C1070.48881,291.060572 1072.14187,291.391972 1073.58,290.8 C1073.49,290.65 1073.41,290.49 1073.33,290.33 L1073.58,290.22 C1072.70119,288.670708 1072.23625,286.921172 1072.23,285.14 C1072.27453,283.513106 1072.53343,281.899191 1073,280.34 C1074,276.89 1075.69,273.67 1076.63,270.2 C1077.22996,267.967379 1077.51273,265.661433 1077.47,263.35 C1077.50089,259.431624 1076.61027,255.560853 1074.87,252.05 C1074.42989,251.036097 1073.74219,250.148962 1072.87,249.47 C1072.08468,249.03431 1071.27689,248.640427 1070.45,248.29 C1069.06293,247.355957 1067.86798,246.16441 1066.93,244.78 C1062.96613,239.952254 1057.65876,236.409371 1051.68,234.6 C1050.12142,234.017951 1048.43124,233.882875 1046.8,234.21 C1043.05,235.21 1041.69,239.86 1038.65,242.3 C1035.97,244.45 1032.29,244.67 1028.92,245.39 C1025.55,246.11 1022.16,247.54 1019.86,250.14 C1018.2753,251.952134 1017.41065,254.282775 1017.43,256.69 C1017.24232,258.976682 1018.25747,261.196386 1020.11,262.55 C1022.21198,263.927753 1024.81953,264.294497 1027.22,263.55 C1025.3464,270.020799 1026.25717,276.979859 1029.73288,282.750563 C1033.2086,288.521268 1038.93411,292.580397 1045.53,293.95 L1046.18,295.12 L1046.18,295.12 C1048.18969,298.86151 1049.71526,302.84347 1050.72,306.97 C1045.58,309.88 1039.97,312.61 1036.58,312.87 C1036.44338,314.19506 1036.19584,315.506323 1035.84,316.79 C1035.0472,320.009293 1033.52463,323.003124 1031.39,325.54 C1026.78,330.72 1006.05,369.88 1006.05,369.88 C1006.05,369.88 1005.4,371.44 1004.33,374.1 C991.46,375.68 970.45,377.96 964.59,376.79 L941.59,354.91 C941.59,354.91 934.15,360.59 934.8,367.49 L930.65,363.55 C930.65,363.55 908.77,380.25 943.32,391.19 L995.89,397.29 C990.89,412.4 986.21,429.99 987.66,439.56 L988.09,439.56 C989.094374,439.559226 990.097246,439.482339 991.09,439.33 L991,441.03 L985.94,531.69 C985.94,531.69 984.79,548.39 1000.34,555.87 C1000.34,555.87 1019.34,611.72 1011.86,618.06 C1011.86,618.06 1012.75,618.53 1014.25,619.18 L998.62,633.03 C998.62,633.03 987.1,635.91 980.77,635.33 C978.466921,635.013964 976.293572,636.477208 975.72,638.73 C975.72,638.85 975.72,638.97 975.66,639.09 L975.66,639.24 C975.66,639.36 975.66,639.48 975.66,639.61 C975.66,639.74 975.66,639.7 975.66,639.75 C975.66,639.8 975.66,639.96 975.66,640.07 C975.66,640.18 975.66,640.16 975.66,640.2 C975.66,640.24 975.66,640.45 975.73,640.57 L975.73,640.71 C975.763333,640.843333 975.806667,640.976667 975.86,641.11 L975.91,641.23 C975.96,641.36 976.02,641.49 976.09,641.62 L976.09,641.71 C976.16,641.84 976.24,641.96 976.32,642.09 L976.39,642.2 C976.483333,642.333333 976.586667,642.466667 976.7,642.6 L976.79,642.7 C976.91,642.84 977.04,642.97 977.17,643.1 L977.23,643.15 L977.66,643.52 L977.75,643.59 C977.91,643.72 978.09,643.84 978.27,643.96 L978.39,644.04 C978.58,644.16 978.78,644.28 978.99,644.39 L979.08,644.39 L979.73,644.71 L979.82,644.71 L980.58,645.01 L980.74,645.07 L981.57,645.34 L981.71,645.34 L982.62,645.58 L982.69,645.58 L983.69,645.78 L983.89,645.78 L984.97,645.94 L985.18,645.94 L986.4,646.06 C988.77,646.24 991.96,646.31 995.65,646.29 L995.65,646.29 C995.65,646.29 995.65,646.38 995.65,646.43 C995.65,646.48 995.65,646.64 995.65,646.75 L995.65,646.88 C995.65,647 995.65,647.13 995.72,647.25 L995.72,647.39 C995.753333,647.523333 995.796667,647.656667 995.85,647.79 L995.9,647.91 C995.95,648.04 996.01,648.17 996.08,648.3 L996.08,648.39 C996.15,648.52 996.23,648.64 996.31,648.77 L996.38,648.88 C996.473333,649.013333 996.576667,649.146667 996.69,649.28 L996.78,649.38 C996.9,649.52 997.03,649.65 997.16,649.78 L997.22,649.83 L997.65,650.2 L997.74,650.27 C997.9,650.4 998.08,650.52 998.26,650.64 L998.39,650.72 C998.58,650.84 998.78,650.96 998.99,651.07 L999.08,651.07 L999.73,651.39 L999.82,651.39 L1000.58,651.69 L1000.74,651.75 L1001.57,652.02 L1001.71,652.02 L1002.62,652.26 L1002.69,652.26 L1003.69,652.46 L1003.89,652.46 L1004.97,652.62 L1005.18,652.62 L1006.4,652.74 C1021.4,653.89 1069.16,650.44 1069.16,650.44 L1069.16,650.31 L1069.16,650.31 L1069.16,650.14 L1069.16,650.14 C1069.63,647.91 1071.93,634.95 1063.77,625.37 C1064.01,625.12 1064.25,624.85 1064.47,624.57 C1064.47,624.57 1058.14,613.63 1061.59,610.17 C1065.04,606.71 1044.32,546.83 1044.32,546.83 C1044.32,546.83 1033.38,529.56 1039.71,509.98 C1046.04,490.4 1039.13,469.1 1039.13,469.1 C1039.13,469.1 1054.23,464.61 1054.54,446.02 C1054.54,445.46 1054.54,444.88 1054.54,444.29 C1054.87113,444.337339 1055.20559,444.357407 1055.54,444.35 C1055.75306,444.365292 1055.96694,444.365292 1056.18,444.35 C1056.18,444.35 1053.3,433.99 1056.76,426.5 C1060.22,419.01 1067.7,425.92 1074.61,395.41 C1079.61,373.33 1084.01,347.93 1086.06,335.57 C1086.95124,330.608613 1086.63918,325.50581 1085.15,320.69 Z M953.74,385.46 L948.49,380.46 C950.23,381.18 952.16,381.89 954.32,382.57 L974.12,384.87 C965.28,385.69 957.07,386.13 953.74,385.47 L953.74,385.46 Z" id="Shape" fill="url(#linearGradient-8)" fill-rule="nonzero"></path>
            <path d="M1003.86,382.53 C1003.86,382.53 963.13,388.19 954.64,386.53 L932.01,365.03 C932.01,365.03 910.51,381.44 944.46,392.18 L1007.82,399.53 L1003.86,382.53 Z" id="Path" fill="#FDC2CC" fill-rule="nonzero"></path>
            <path d="M1003.86,382.53 C1003.86,382.53 963.13,388.19 954.64,386.53 L932.01,365.03 C932.01,365.03 910.51,381.44 944.46,392.18 L1007.82,399.53 L1003.86,382.53 Z" id="Path" fill="#000000" fill-rule="nonzero" opacity="0.05"></path>
            <path d="M1018.57,612.21 L998.77,629.75 C998.77,629.75 987.46,632.58 981.23,632.01 C975,631.44 972.18,641.63 986.89,642.76 C1001.6,643.89 1048.55,640.5 1048.55,640.5 C1048.55,640.5 1053.08,622.4 1039.5,612.21 L1018.57,612.21 Z" id="Path" fill="#47465A" fill-rule="nonzero"></path>
            <path d="M1018.57,612.21 L998.77,629.75 C998.77,629.75 987.46,632.58 981.23,632.01 C975,631.44 972.18,641.63 986.89,642.76 C1001.6,643.89 1048.55,640.5 1048.55,640.5 C1048.55,640.5 1053.08,622.4 1039.5,612.21 L1018.57,612.21 Z" id="Path" fill="#000000" fill-rule="nonzero" opacity="0.05"></path>
            <path d="M1049.26,632.66 C1049.22648,634.721775 1048.98865,636.77515 1048.55,638.79 C1048.55,638.79 1001.55,642.18 986.89,641.05 C979.82,640.51 976.81,637.87 976.27,635.34 C975.63,638.24 978.19,642.08 986.89,642.75 C1001.6,643.88 1048.55,640.49 1048.55,640.49 C1049.10081,637.918068 1049.3392,635.289059 1049.26,632.66 L1049.26,632.66 Z" id="Path" fill="#FFFFFF" fill-rule="nonzero" opacity="0.3"></path>
            <path d="M1041.76,291.45 C1041.76,291.45 1054.21,308.99 1049.68,320.87 C1045.15,332.75 1073.41,308.42 1073.41,308.42 C1073.41,308.42 1064.36,292.58 1068.88,275.61 L1041.76,291.45 Z" id="Path" fill="#FDC2CC" fill-rule="nonzero"></path>
            <path d="M1038.41,618.99 L1018.61,636.53 C1018.61,636.53 1007.3,639.36 1001.07,638.79 C994.84,638.22 992.02,648.41 1006.73,649.54 C1021.44,650.67 1068.39,647.28 1068.39,647.28 C1068.39,647.28 1072.92,629.18 1059.34,618.99 L1038.41,618.99 Z" id="Path" fill="#47465A" fill-rule="nonzero"></path>
            <path d="M1044.03,615.03 C1041.08,618.67 1036.92,620.03 1032.57,620.28 C1022.68,620.75 1011.79,615.03 1011.79,615.03 C1019.14,608.81 1000.48,553.93 1000.48,553.93 C985.21,546.58 986.34,530.17 986.34,530.17 L991.34,441.1 L992.59,418.73 L1008.43,409.11 L1020.92,418.69 L1032.76,427.78 C1033.52966,430.670297 1034.02519,433.626705 1034.24,436.61 C1035.61,457.4 1019.18,462.29 1019.18,462.29 C1019.18,462.29 1025.97,483.22 1019.75,502.45 C1013.53,521.68 1024.28,538.65 1024.28,538.65 C1024.28,538.65 1044.65,597.48 1041.28,600.88 C1037.91,604.28 1044.03,615.03 1044.03,615.03 Z" id="Path" fill="#565171" fill-rule="nonzero"></path>
            <path d="M1044.03,615.03 C1041.08,618.67 1036.92,620.03 1032.57,620.28 C1022.68,620.75 1011.79,615.03 1011.79,615.03 C1019.14,608.81 1000.48,553.93 1000.48,553.93 C985.21,546.58 986.34,530.17 986.34,530.17 L991.34,441.1 L992.59,418.73 L1008.43,409.11 L1020.92,418.69 L1032.76,427.78 C1033.52966,430.670297 1034.02519,433.626705 1034.24,436.61 C1035.61,457.4 1019.18,462.29 1019.18,462.29 C1019.18,462.29 1025.97,483.22 1019.75,502.45 C1013.53,521.68 1024.28,538.65 1024.28,538.65 C1024.28,538.65 1044.65,597.48 1041.28,600.88 C1037.91,604.28 1044.03,615.03 1044.03,615.03 Z" id="Path" fill="#000000" fill-rule="nonzero" opacity="0.05"></path>
            <path d="M1063.83,621.82 C1054.21,633.7 1031.59,621.82 1031.59,621.82 C1032.05084,621.401734 1032.39538,620.871142 1032.59,620.28 C1036.74,609 1018.59,555.07 1018.59,555.07 C1003.32,547.72 1001.59,530.18 1001.59,530.18 L997.59,439.53 L997.07,427.79 L1020.87,418.7 L1028.18,415.91 L1052.51,434.58 C1053.56331,438.434497 1054.0881,442.414218 1054.07,446.41 C1053.76,464.68 1038.93,469.09 1038.93,469.09 C1038.93,469.09 1045.72,490.02 1039.5,509.25 C1033.28,528.48 1044.03,545.45 1044.03,545.45 C1044.03,545.45 1064.4,604.28 1061.03,607.68 C1057.66,611.08 1063.83,621.82 1063.83,621.82 Z" id="Path" fill="#565171" fill-rule="nonzero"></path>
            <path d="M1054.07029,446.4 C1049.18,445.7 1039.28,439.81 1034.19,436.61 C1032.25,435.39 1031.01,434.61 1031.01,434.61 C1031.01,434.61 1025.92,420.47 1012.34,431.22 C1007.9247,434.805852 1002.93875,437.62503 997.59,439.56 C995.544342,440.283555 993.435002,440.812564 991.29,441.14 L992.54,418.77 L1008.38,409.15 L1020.87,418.73 L1028.18,415.94 L1052.51,434.61 C1053.55972,438.451584 1054.08449,442.417606 1054.07029,446.4 L1054.07029,446.4 Z" id="Path" fill="#000000" fill-rule="nonzero" opacity="0.1"></path>
            <path d="M1084.69,337.88 C1082.69,350.02 1078.35,374.97 1073.44,396.67 C1066.65,426.67 1059.3,419.86 1055.9,427.22 C1052.5,434.58 1055.33,444.76 1055.33,444.76 C1049.67,445.33 1031,432.88 1031,432.88 C1031,432.88 1025.91,418.74 1012.33,429.49 C998.75,440.24 988,439.67 988,439.67 C985.17,421 1006.1,371.22 1006.1,371.22 C1006.1,371.22 1026.47,332.75 1030.99,327.66 C1033.08698,325.166441 1034.58221,322.223891 1035.36,319.06 C1035.70717,317.799043 1035.94801,316.511199 1036.08,315.21 C1043.43,314.64 1061.54,302.21 1061.54,302.21 L1075.68,299.95 L1075.68,307.3 C1075.84436,307.373872 1075.99889,307.467929 1076.14,307.58 C1078.47,309.36 1081.4,316.91 1083.43,322.86 C1085.07931,327.68676 1085.5121,332.845919 1084.69,337.88 Z" id="Path" fill="#F68080" fill-rule="nonzero"></path>
            <path d="M1073.41,314.65 C1073.41,314.65 1058.7,302.77 1036.64,341.24 C1014.58,379.71 1009.49,373.48 1009.49,373.48 C1009.49,373.48 1014.02,390.48 1011.75,393.85 C1011.75,393.85 1027.02,392.72 1032.68,393.85 C1038.34,394.98 1073.41,350.88 1073.41,350.88 C1073.41,350.88 1091.55,325.96 1073.41,314.65 Z" id="Path" fill="#000000" fill-rule="nonzero" opacity="0.1"></path>
            <path d="M1072.88,312.38 C1072.88,312.38 1058.17,300.5 1036.11,338.97 C1014.05,377.44 1008.96,371.21 1008.96,371.21 C1008.96,371.21 1026.5,390.44 1032.15,391.58 C1037.8,392.72 1072.88,348.58 1072.88,348.58 C1072.88,348.58 1090.98,323.7 1072.88,312.38 Z" id="Path" fill="#000000" fill-rule="nonzero" opacity="0.1"></path>
            <path d="M1011.26,390.17 C1011.49,385.98 1009.91,378.61 1009,374.79 C1012.44,374.34 1014.61,374.04 1014.61,374.04 L1018.61,391.04 L1011.26,390.17 Z" id="Path" fill="#000000" fill-rule="nonzero" opacity="0.1"></path>
            <path d="M1069.48,276.75 L1042.33,292.59 C1043.47299,294.260348 1044.52777,295.98938 1045.49,297.77 C1047.05659,298.089001 1048.65126,298.25 1050.25,298.25 C1057.5,298.25 1060.88,290.64 1065.25,285.52 C1064.94,281.41 1068.27,281.3 1069.48,276.75 Z" id="Path" fill="#000000" fill-rule="nonzero" opacity="0.1"></path>
            <circle id="Oval" fill="#FDC2CC" fill-rule="nonzero" cx="1049.69" cy="273.35" r="23.76"></circle>
            <rect id="Rectangle" fill="url(#linearGradient-9)" fill-rule="nonzero" x="821.62" y="300.43" width="191.35" height="144.2"></rect>
            <rect id="Rectangle" fill="#FFFFFF" fill-rule="nonzero" x="825.91" y="303.66" width="182.77" height="137.74"></rect>
            <rect id="Rectangle" fill="#C9177A" fill-rule="nonzero" opacity="0.2" x="843.79" y="315.58" width="60.92" height="34.43"></rect>
            <rect id="Rectangle" fill="#E6E8EC" fill-rule="nonzero" x="919.28" y="315.58" width="71.52" height="7.95"></rect>
            <rect id="Rectangle" fill="#E6E8EC" fill-rule="nonzero" x="919.28" y="328.83" width="50.33" height="7.95"></rect>
            <rect id="Rectangle" fill="#E6E8EC" fill-rule="nonzero" x="919.28" y="342.07" width="71.52" height="7.95"></rect>
            <rect id="Rectangle" fill="#E6E8EC" fill-rule="nonzero" x="843.79" y="355.31" width="147.01" height="7.95"></rect>
            <rect id="Rectangle" fill="#E6E8EC" fill-rule="nonzero" x="843.79" y="368.56" width="147.01" height="7.95"></rect>
            <rect id="Rectangle" fill="#E6E8EC" fill-rule="nonzero" x="843.79" y="381.8" width="147.01" height="7.95"></rect>
            <rect id="Rectangle" fill="#E6E8EC" fill-rule="nonzero" x="843.79" y="395.05" width="135.09" height="7.95"></rect>
            <rect id="Rectangle" fill="#E6E8EC" fill-rule="nonzero" x="843.79" y="408.29" width="147.01" height="7.95"></rect>
            <rect id="Rectangle" fill="#E6E8EC" fill-rule="nonzero" x="843.79" y="421.53" width="147.01" height="7.95"></rect>
            <path d="M1019.63,254.13 C1022.0282,251.671377 1025.14415,250.036382 1028.53,249.46 C1031.83,248.75 1035.45,248.53 1038.09,246.46 C1041.09,244.07 1042.41,239.53 1046.09,238.52 C1047.69091,238.198263 1049.34985,238.32987 1050.88,238.9 C1056.76023,240.673778 1061.98104,244.154315 1065.88,248.9 C1066.79893,250.259931 1067.97007,251.431071 1069.33,252.35 C1070.14327,252.694357 1070.93771,253.081566 1071.71,253.51 C1072.55727,254.17861 1073.22412,255.048263 1073.65,256.04 C1076.30331,261.396274 1076.91475,267.535621 1075.37,273.31 C1074.45,276.72 1072.79,279.88 1071.81,283.31 C1070.83,286.74 1070.58,290.55 1072.38,293.58 C1070.64,294.47 1068.44,293.35 1067.38,291.73 C1066.32,290.11 1065.96,288.11 1065.38,286.24 C1064.2485,282.561654 1062.12796,279.264967 1059.25,276.71 C1057.47,275.13 1054.25,274.07 1053.04,276.11 C1052.56,276.9 1052.59,277.9 1052.18,278.72 C1051.37,280.32 1049.03,280.64 1047.48,279.72 C1045.98605,278.688621 1044.93616,277.131634 1044.54,275.36 C1042.21,267.48 1038.24,262.52 1029.81,265.89 C1026.67,267.15 1022.97,268 1019.95,265.84 C1016.01,262.99 1016.78,257.35 1019.63,254.13 Z" id="Path" fill="#000000" fill-rule="nonzero" opacity="0.1"></path>
            <path d="M1019.63,253.56 C1022.0282,251.101377 1025.14415,249.466382 1028.53,248.89 C1031.83,248.18 1035.45,247.96 1038.09,245.89 C1041.09,243.5 1042.41,238.96 1046.09,237.95 C1047.69091,237.628263 1049.34985,237.75987 1050.88,238.33 C1056.76023,240.103778 1061.98104,243.584315 1065.88,248.33 C1066.79893,249.689931 1067.97007,250.861071 1069.33,251.78 C1070.14327,252.124357 1070.93771,252.511566 1071.71,252.94 C1072.55727,253.60861 1073.22412,254.478263 1073.65,255.47 C1076.30331,260.826274 1076.91475,266.965621 1075.37,272.74 C1074.45,276.15 1072.79,279.31 1071.81,282.74 C1070.83,286.17 1070.58,289.98 1072.38,293.01 C1070.64,293.9 1068.44,292.78 1067.38,291.16 C1066.32,289.54 1065.96,287.54 1065.38,285.67 C1064.2485,281.991654 1062.12796,278.694967 1059.25,276.14 C1057.47,274.56 1054.25,273.5 1053.04,275.54 C1052.56,276.33 1052.59,277.33 1052.18,278.15 C1051.37,279.75 1049.03,280.07 1047.48,279.15 C1045.98605,278.118621 1044.93616,276.561634 1044.54,274.79 C1042.21,266.91 1038.24,261.95 1029.81,265.32 C1026.67,266.58 1022.97,267.43 1019.95,265.27 C1016.01,262.42 1016.78,256.79 1019.63,253.56 Z" id="Path" fill="#B96B6B" fill-rule="nonzero"></path>
            <path d="M1076.17,307.58 L1064.67,307.58 C1064.67,307.58 1042.04,318.89 1041.48,318.33 C1041.1,317.95 1037.6,318.6 1035.38,319.07 C1035.72717,317.809043 1035.96801,316.521199 1036.1,315.22 C1043.45,314.65 1061.56,302.22 1061.56,302.22 L1075.7,299.96 L1075.7,307.31 C1075.86734,307.380003 1076.02523,307.47071 1076.17,307.58 L1076.17,307.58 Z" id="Path" fill="#000000" fill-rule="nonzero" opacity="0.05"></path>
            <path d="M1069.06,639.45 C1069.02648,641.511775 1068.78865,643.56515 1068.35,645.58 C1068.35,645.58 1021.35,648.97 1006.69,647.84 C999.62,647.3 996.61,644.66 996.07,642.13 C995.43,645.03 997.99,648.87 1006.69,649.54 C1021.4,650.67 1068.35,647.28 1068.35,647.28 C1068.90081,644.708068 1069.1392,642.079059 1069.06,639.45 L1069.06,639.45 Z" id="Path" fill="#FFFFFF" fill-rule="nonzero" opacity="0.3"></path>
            <g id="Group" opacity="0.05" transform="translate(988.000000, 307.000000)" fill="#000000" fill-rule="nonzero">
                <path d="M18.97,121.88 C11.34,127.88 4.59,130.39 0.16,131.39 C0.16,131.81 0.24,132.23 0.3,132.63 C0.3,132.63 11.05,133.2 24.63,122.45 C26.733172,120.64747 29.2194452,119.347905 31.9,118.65 C28.94,117.28 24.71,117.37 18.97,121.88 Z" id="Path"></path>
                <path d="M95.75,15.88 C93.75,9.88 90.75,2.38 88.46,0.6 C88.3188874,0.487928978 88.1643645,0.393871562 88,0.32 C88,0.32 83.32,0.48 83.47,0.6 C85.8,2.38 88.06,9.36 90.09,15.31 C91.7259401,20.133051 92.1483896,25.284874 91.32,30.31 C89.32,42.45 84.98,67.4 80.07,89.1 C73.28,119.1 65.93,112.29 62.53,119.65 C59.75,125.65 61.14,133.59 61.74,136.26 C64.16,137.26 66.26,137.89 67.62,137.75 C67.62,137.75 64.79,127.57 68.19,120.21 C71.59,112.85 78.94,119.64 85.73,89.66 C90.64,67.97 94.96,43.01 96.98,30.87 C97.8067192,25.8481222 97.3842867,20.6999407 95.75,15.88 L95.75,15.88 Z" id="Path"></path>
            </g>
            <path d="M1018.57,391.02 L1011.26,390.17 L955.26,383.66 C921.32,372.91 942.81,356.51 942.81,356.51 L965.44,378.01 C971.97,379.32 997.57,376.27 1009.04,374.8 C1012.48,374.35 1014.65,374.05 1014.65,374.05 L1018.57,391.02 Z" id="Path" fill="#FDC2CC" fill-rule="nonzero"></path>
            <path d="M1073.41,313.52 C1073.41,313.52 1058.7,301.64 1036.64,340.11 C1014.58,378.58 1009.49,372.35 1009.49,372.35 C1009.49,372.35 1014.02,389.35 1011.75,392.72 C1011.75,392.72 1027.02,391.59 1032.68,392.72 C1038.34,393.85 1073.41,349.72 1073.41,349.72 C1073.41,349.72 1091.55,324.83 1073.41,313.52 Z" id="Path" fill="#F68080" fill-rule="nonzero"></path>
        </g>
    </g>
</svg>