<svg xmlns="http://www.w3.org/2000/svg" width="24.513" height="25.516" viewBox="0 0 24.513 25.516">
  <g id="Admin" transform="translate(0.249 0.251)">
    <g id="Group_1663" data-name="Group 1663">
      <g id="Group_1662" data-name="Group 1662">
        <path id="Union_7" data-name="Union 7" d="M9449.214,9651.63v-14.21h-4.4a.4.4,0,0,1,0-.8h4.4v-.4a.4.4,0,0,1,.8,0v15.411a.4.4,0,0,1-.8,0Zm-18.613.4a.4.4,0,0,1,0-.8h14.811a.4.4,0,1,1,0,.8Zm-3-.4v-3.043a2,2,0,0,1-1.6-1.959c0-.054.021-5.2,2-5.2s2,5.149,2,5.2a2,2,0,0,1-1.6,1.959v3.043a.4.4,0,0,1-.8,0Zm-.8-5a1.2,1.2,0,0,0,2.4,0c0-2-.538-4.4-1.2-4.4S9426.8,9644.632,9426.8,9646.628Zm16.01.8V9635.42a.4.4,0,0,1,.8,0v12.007a.4.4,0,0,1-.8,0Zm-10.406,0v-11.607a.4.4,0,0,1,.8,0v11.607a.4.4,0,0,1-.8,0Zm13.209-4.8a.4.4,0,0,1-.4-.4v-2.4a.4.4,0,0,1,.4-.4h1.6a.4.4,0,0,1,.4.4v2.4a.4.4,0,0,1-.4.4Zm.4-.8h.8v-1.6h-.8Zm-16.009,0v-2h-.8v.4a.4.4,0,1,1-.8,0v-.8a.4.4,0,0,1,.4-.4h1.6a.4.4,0,0,1,.4.4v2.4a.4.4,0,0,1-.8,0Zm-4-1.2v-4.4a.4.4,0,0,1,.8,0v.4h4.4a.4.4,0,0,1,0,.8h-4.4v3.2a.4.4,0,0,1-.8,0Zm9.205-3.2a.4.4,0,0,1-.4-.4v-2.4a.4.4,0,0,1,.4-.4h5.6a.4.4,0,0,1,.4.4v2.4a.4.4,0,0,1-.4.4Zm.4-.8h4.8v-1.6h-4.8Zm8.2-2.06-5.8-3.478-5.8,3.478a.4.4,0,1,1-.411-.685l5.809-3.486v-2.975a.4.4,0,0,1,.4-.4h2.8a.4.4,0,0,1,.4.4v1.6a.4.4,0,0,1-.4.4h-1.6a.4.4,0,0,1,0-.8h1.2v-.8h-2v2.575l5.809,3.486a.4.4,0,1,1-.412.685Z" transform="translate(-9426 -9627.015)" fill="#00144c" stroke="#00144c" stroke-width="0.5"/>
      </g>
    </g>
  </g>
</svg>
