<svg id="Layer_1" data-name="Layer 1" xmlns="http://www.w3.org/2000/svg" viewBox="0 0 1200 1200"><title>Artboard 3</title><polygon points="921.37 1140.92 1074.45 1018.81 1202.02 1179.19 921.37 1140.92" fill="#083e64" opacity="0.2"/><polygon points="1074.45 1018.81 921.37 1140.92 793.8 1044.33 1074.45 1018.81" fill="#083e64" opacity="0.24"/><polygon points="691.75 1179.19 793.8 1044.33 921.37 1140.92 691.75 1179.19" fill="#083e64" opacity="0.15"/><polygon points="793.8 1044.33 691.75 1179.19 564.18 1018.81 793.8 1044.33" fill="#083e64" opacity="0.25"/><polygon points="436.61 1179.19 564.18 1018.81 691.75 1179.19 436.61 1179.19" fill="#083e64" opacity="0.22"/><polygon points="564.18 1018.81 436.61 1179.19 309.04 1108.11 564.18 1018.81" fill="#083e64" opacity="0.25"/><polygon points="946.88 745.67 1074.45 1018.81 1202.02 860.48 946.88 745.67" fill="#083e64" opacity="0.03"/><polygon points="-73.66 873.24 53.91 1057.08 181.47 809.46 -73.66 873.24" fill="#083e64" opacity="0.02"/><polygon points="1074.45 1018.81 946.88 745.67 793.8 1044.33 1074.45 1018.81" fill="#083e64" opacity="0.1"/><polygon points="691.75 886 793.8 1044.33 946.88 745.67 691.75 886" fill="#083e64" opacity="0.07"/><polygon points="793.8 1044.33 691.75 886 564.18 1018.81 793.8 1044.33" fill="#083e64" opacity="0.1"/><polygon points="436.61 924.27 564.18 1018.81 691.75 886 436.61 924.27" fill="#083e64" opacity="0.04"/><polygon points="564.18 1018.81 436.61 924.27 309.04 1108.11 564.18 1018.81" fill="#083e64" opacity="0.1"/><polygon points="181.47 809.46 309.04 1108.11 436.61 924.27 181.47 809.46" fill="#083e64" opacity="0.05"/><polygon points="309.04 1108.11 181.47 809.46 53.9 1057.08 309.04 1108.11" fill="#083e64" opacity="0.1"/><polygon points="136.08 1337.24 -53.51 1186.01 -211.51 1384.64 136.08 1337.24" fill="#083e64" opacity="0.2"/><polygon points="-53.51 1186.01 136.08 1337.24 294.07 1217.61 -53.51 1186.01" fill="#083e64" opacity="0.24"/><polygon points="294.07 1217.61 420.47 1384.64 578.46 1186.01 294.07 1217.61" fill="#083e64" opacity="0.25"/><polygon points="736.45 1384.64 578.46 1186.01 420.47 1384.64 736.45 1384.64" fill="#083e64" opacity="0.22"/><polygon points="578.46 1186.01 736.45 1384.64 894.45 1296.61 578.46 1186.01" fill="#083e64" opacity="0.25"/><polygon points="104.48 847.73 -53.51 1186.01 -211.51 989.92 104.48 847.73" fill="#083e64" opacity="0.03"/><polygon points="1368.42 1005.72 1210.43 1233.41 1052.44 926.72 1368.42 1005.72" fill="#083e64" opacity="0.02"/><polygon points="-53.51 1186.01 104.48 847.73 294.07 1217.61 -53.51 1186.01" fill="#083e64" opacity="0.1"/><polygon points="420.47 1021.52 294.07 1217.61 104.48 847.73 420.47 1021.52" fill="#083e64" opacity="0.07"/><polygon points="294.07 1217.61 420.47 1021.52 578.46 1186.01 294.07 1217.61" fill="#083e64" opacity="0.1"/><polygon points="736.45 1068.92 578.46 1186.01 420.47 1021.52 736.45 1068.92" fill="#083e64" opacity="0.04"/><polygon points="578.46 1186.01 736.45 1068.92 894.45 1296.61 578.46 1186.01" fill="#083e64" opacity="0.1"/><polygon points="1052.44 926.72 894.45 1296.61 736.45 1068.92 1052.44 926.72" fill="#083e64" opacity="0.05"/><polygon points="894.45 1296.61 1052.44 926.72 1210.43 1233.41 894.45 1296.61" fill="#083e64" opacity="0.1"/><rect x="53.9" y="639.79" width="1020.55" height="1020.55" fill="none"/></svg>