<?xml version="1.0" encoding="UTF-8"?>
<svg width="84px" height="84px" viewBox="0 0 84 84" version="1.1" xmlns="http://www.w3.org/2000/svg" xmlns:xlink="http://www.w3.org/1999/xlink">
    <!-- Generator: Sketch 61 (89581) - https://sketch.com -->
    <title>Built-In Accessibility Features - Active</title>
    <desc>Created with Sketch.</desc>
    <g id="Page-1" stroke="none" stroke-width="1" fill="none" fill-rule="evenodd">
        <g id="Home-Page-USPs-Copy-2" transform="translate(-418.000000, -119.000000)" fill="#CB097A" fill-rule="nonzero" stroke="#FFFFFF" stroke-width="3">
            <g id="Built-In-Accessibility-Features---Active" transform="translate(420.000000, 121.000000)">
                <path d="M6.42678959,30 C5.76049705,30 5.09420451,29.7289009 4.61227447,29.1994603 C3.72280627,28.2107458 3.81337031,26.6989696 4.81280912,25.8218842 C11.2978409,20.1319921 19.6200287,17 28.2494874,17 C29.4721019,17 30.6591376,17.0669774 31.8494078,17.2009323 C33.1787585,17.3476447 34.1361497,18.5341021 33.9841315,19.8481354 C33.8321133,21.1589794 32.6353743,22.0998528 31.2995547,21.9563297 C30.2936471,21.8415113 29.2909738,21.7841021 28.2494874,21.7841021 C20.8102989,21.7841021 13.6330992,24.4887144 8.04077006,29.3972031 C7.5782466,29.8022571 7.00251809,30 6.42678959,30 Z" id="Path"></path>
                <path d="M2.46148843,44 C1.98197674,44 1.4958964,43.8541853 1.06564962,43.5523827 C-0.0543057605,42.7554881 -0.33675785,41.1718722 0.435058906,40.0155274 C6.70483843,30.6121721 16.9847807,25 27.93801,25 C29.3601235,25 30.6442952,25.081385 31.8660647,25.254328 C33.2126386,25.4408353 34.1585246,26.7226486 33.9778867,28.1129752 C33.7972487,29.5033018 32.5623419,30.4900946 31.205915,30.2934142 C30.220617,30.1543816 29.1203676,30.0865608 27.93801,30.0865608 C18.6072381,30.0865608 9.84137035,34.878101 4.49448661,42.8979118 C4.01825925,43.6134214 3.24972682,44 2.46148843,44 L2.46148843,44 Z" id="Path"></path>
                <path d="M22.6633032,80 C22.0242521,80 21.3818375,79.763002 20.8941406,79.2890059 C20.4468047,78.8610928 10,68.6570112 10,58.7491771 C10,48.4101382 18.5229244,40 29,40 C39.4770756,40 48,48.4101382 48,58.7491771 C48,60.1119157 46.8698885,61.2179065 45.4774296,61.2179065 C44.0849708,61.2179065 42.9548593,60.1119157 42.9548593,58.7491771 C42.9548593,51.1356155 36.6955213,44.9374589 29,44.9374589 C21.3044787,44.9374589 15.0451407,51.1323239 15.0451407,58.7491771 C15.0451407,66.5865701 24.3450168,75.6879526 24.4391928,75.7768269 C25.4280404,76.7379855 25.4381306,78.2982225 24.4593733,79.2692561 C23.9649495,79.7531271 23.3158081,80 22.6633032,80 Z" id="Path"></path>
                <path d="M10.0523023,76 C9.31751711,76 8.58947303,75.6863699 8.09062801,75.0855206 C4.10660903,70.2820276 2,64.4947265 2,58.3442746 C2,51.0515489 5.10766963,44.01633 10.5208122,39.0444671 C15.947437,34.0660016 23.0155316,31.5899742 30.4409071,32.0554674 C32.4463989,32.1974263 34.3844792,32.560577 36.2281834,33.1284125 C37.5629309,33.5377824 38.3010867,34.9276591 37.8831355,36.2317001 C37.4651843,37.5357412 36.0360607,38.2686452 34.7147955,37.8526726 C33.2418545,37.400385 31.6880197,37.1131658 30.093738,36.9976179 C24.1581564,36.6245631 18.3742506,38.6218918 13.9790216,42.6561656 C9.58042192,46.6937408 7.05586166,52.4117132 7.05586166,58.3409733 C7.05586166,63.3425484 8.77148405,68.0503017 12.0139767,71.9624248 C12.8970672,73.0221645 12.7285384,74.580411 11.646584,75.4453699 C11.1780742,75.8151233 10.6151883,76 10.0523023,76 L10.0523023,76 Z" id="Path"></path>
                <path d="M34.6915571,80 C29.7196409,80 18.1936823,70.7650888 17.0760952,60.4857331 C16.6822467,56.7762704 17.8301299,53.1207145 20.2201505,50.448958 C22.3375068,48.0804273 25.212264,46.7664487 28.3192908,46.7462337 L28.3933478,46.7462337 C31.3993878,46.7462337 34.2236517,47.9153377 36.3645715,50.0446569 C38.5559848,52.2211445 39.76446,55.1354817 39.76446,58.2486003 L39.76446,59.5255179 C39.76446,62.3758408 42.0433952,64.697203 44.8440954,64.697203 C46.2107833,64.697203 47.4798506,64.1648732 48.4190277,63.2012889 C49.4255293,62.2174895 49.9540269,60.9270951 49.9540269,59.5288871 L49.9540269,59.1043709 C49.9540269,55.1051591 48.9273279,51.1868075 46.9883816,47.7772015 C46.2983052,46.5642982 46.7190835,45.0212156 47.9309249,44.3305345 C49.1461326,43.6398535 50.684498,44.0677388 51.3712081,45.277273 C53.7443976,49.4516819 55,54.2325426 55,59.1043709 L55,59.5288871 C55,62.2983497 53.9329063,64.8690309 51.9872275,66.7726153 C50.1324369,68.6795689 47.5774711,69.754336 44.837363,69.754336 C39.2527937,69.754336 34.7083882,65.1688876 34.7083882,59.5288871 L34.7083882,58.2519694 C34.7083882,56.4966288 34.0317768,54.8558401 32.8031042,53.6328292 C31.6114601,52.4435101 30.1101232,51.7528291 28.3428544,51.8067359 C26.2120332,51.8168434 24.7914857,52.9118256 23.976859,53.8248723 C22.5563115,55.4117541 21.849404,57.7027938 22.0884061,59.9534033 C22.9737236,68.0225796 32.6112293,74.9462361 34.6915571,74.9462361 C36.0851748,74.9462361 37.2162268,76.0782792 37.2162268,77.4731181 C37.2162268,78.8679569 36.0851748,80 34.6915571,80 L34.6915571,80 Z" id="Path"></path>
                <path d="M41.4760893,76 C34.0120439,76 25,67.721843 25,57.4433757 C25,56.0946323 26.130712,55 27.5239107,55 C28.9171095,55 30.0478215,56.0946323 30.0478215,57.4433757 C30.0478215,64.98852 36.9633369,71.1132485 41.4760893,71.1132485 C42.869288,71.1132485 44,72.2078809 44,73.5566243 C44,74.9053677 42.869288,76 41.4760893,76 L41.4760893,76 Z" id="Path"></path>
                <path d="M58,44 C45.8695385,44 36,34.1304615 36,22 C36,9.86953846 45.8695385,0 58,0 C70.1304615,0 80,9.86953846 80,22 C80,34.1304615 70.1304615,44 58,44 Z M58,5.07692308 C48.6686154,5.07692308 41.0769231,12.6686154 41.0769231,22 C41.0769231,31.3313846 48.6686154,38.9230769 58,38.9230769 C67.3313846,38.9230769 74.9230769,31.3313846 74.9230769,22 C74.9230769,12.6686154 67.3313846,5.07692308 58,5.07692308 Z" id="Shape"></path>
                <path d="M55.0326245,31 C54.3822164,31 53.7515176,30.7414784 53.2916331,30.2800665 L46.7218544,23.7352168 C45.7593819,22.7763963 45.7593819,21.2219945 46.7218544,20.263174 C47.684327,19.3043535 49.2446494,19.3043535 50.207122,20.263174 L54.9176533,24.9525588 L64.6803445,13.839404 C65.5804041,12.815135 67.1341568,12.7169622 68.1590423,13.6070618 C69.1839278,14.5004338 69.2857593,16.0515632 68.3889845,17.0692873 L56.8918718,30.1589868 C56.441842,30.6694851 55.8012886,30.9738206 55.1213165,30.9967276 C55.0884676,31 55.0589036,31 55.0326245,31 L55.0326245,31 Z" id="Path"></path>
            </g>
        </g>
    </g>
</svg>