<?xml version="1.0" encoding="UTF-8"?>
<svg width="32px" height="32px" viewBox="0 0 32 32" version="1.1" xmlns="http://www.w3.org/2000/svg" xmlns:xlink="http://www.w3.org/1999/xlink">
    <!-- Generator: Sketch 53.2 (72643) - https://sketchapp.com -->
    <title>calendar</title>
    <desc>Created with Sketch.</desc>
    <g id="calendar" stroke="none" stroke-width="1" fill="none" fill-rule="evenodd" stroke-linecap="round">
        <g transform="translate(2.500000, 4.500000)" stroke="#00A6EF" stroke-width="2">
            <path d="M21.0243397,3.54052733 C24.004385,3.2175435 25.7024892,3.68020499 26.1186523,4.92851181 C26.1186523,13.4009908 26.1186523,18.559397 26.1186523,21.5136561 C26.1186523,24.4679152 9.22622839,21.5136561 2.13800575,21.5136561 C-1.16804059,21.5136561 0.346034151,21.1838654 0.346034151,10.5183248 C0.346034151,-0.147215779 -0.147695942,4.18486622 5.68119075,3.54052733" id="Path"></path>
            <path d="M0.7578125,8.9934082 C9.21142578,9.07609049 17.6650391,9.15877279 26.1186523,9.24145508" id="Path-12"></path>
            <path d="M9.08032227,4.37451172 C9.0949707,3.09667969 9.10961914,1.81884766 9.12426758,0.541015625" id="Path-13"></path>
            <path d="M17.2592773,4.37451172 C17.1774089,3.13975428 17.0955404,1.90499684 17.0136719,0.670239402" id="Path-14"></path>
        </g>
    </g>
</svg>