<?xml version="1.0" encoding="UTF-8"?>
<svg width="73px" height="75px" viewBox="0 0 73 75" version="1.1" xmlns="http://www.w3.org/2000/svg" xmlns:xlink="http://www.w3.org/1999/xlink">
    <!-- Generator: Sketch 61 (89581) - https://sketch.com -->
    <title>Collaboration &amp; Communication - Active</title>
    <desc>Created with Sketch.</desc>
    <g id="Page-1" stroke="none" stroke-width="1" fill="none" fill-rule="evenodd">
        <g id="Home-Page-USPs-Copy-2" transform="translate(-601.000000, -127.000000)" fill="#CB097A" fill-rule="nonzero">
            <g id="Collaboration-&amp;-Communication---Active" transform="translate(602.000000, 128.000000)">
                <path d="M69.6134199,60.3785889 C68.8478125,60.3785889 68.2268398,61.0250412 68.2268398,61.8220629 L68.2268398,70.113052 L61.3979434,70.113052 L61.3979434,64.487993 C61.3979434,63.6909713 60.7769707,63.044519 60.0113633,63.044519 C59.2457559,63.044519 58.6247832,63.6909713 58.6247832,64.487993 L58.6247832,70.113052 L36.9184746,70.113052 L36.9184746,63.2655369 L54.9592695,63.2655369 C58.3711523,63.2655369 61.1468086,60.375846 61.1468086,56.8241118 C61.1468086,53.2723775 58.3710137,50.3826866 54.9592695,50.3826866 L40.300959,50.3826866 C39.5353516,50.3826866 38.9143789,51.0291389 38.9143789,51.8261606 C38.9143789,52.6231823 39.5353516,53.2696346 40.300959,53.2696346 L54.9591309,53.2696346 C56.8418789,53.2696346 58.3735098,54.8642555 58.3735098,56.8241118 C58.3735098,58.7841124 56.8417402,60.3785889 54.9591309,60.3785889 L35.5318945,60.3785889 C35.5192754,60.3785889 35.5158086,60.3791664 35.5123418,60.3791664 C35.4850234,60.3795995 35.4599238,60.3808987 35.436627,60.3830641 C34.7112344,60.429693 34.1361621,61.0552129 34.1361621,61.8220629 L34.1361621,67.2350544 C34.1130039,67.3398611 34.0994141,67.4484212 34.0994141,67.560446 L34.0994141,70.1129076 L12.3752168,70.1129076 L12.3752168,64.4878486 C12.3752168,63.6908269 11.7542441,63.0443746 10.9886367,63.0443746 C10.2230293,63.0443746 9.60205664,63.6908269 9.60205664,64.4878486 L9.60205664,70.1129076 L2.77316016,70.1129076 L2.77316016,52.1964487 C2.77316016,47.5335614 6.22719922,43.6971455 10.6113105,43.3083791 C9.97411328,44.3207887 9.60205664,45.5296747 9.60205664,46.8279207 C9.60205664,50.3797993 12.3778516,53.2693459 15.7895957,53.2693459 L40.3061095,53.2693459 C41.0717169,53.2693459 41.6926896,52.6228936 41.6926896,51.8258719 C41.6926896,51.0288502 41.0717169,50.3823979 40.3061095,50.3823979 L15.7895957,50.3823979 C13.9068477,50.3823979 12.3750781,48.787777 12.3750781,46.8279207 C12.3750781,44.86792 13.9068477,43.2734435 15.7895957,43.2734435 L28.1182188,43.2734435 L59.6556699,43.2734435 C64.3818848,43.2734435 68.2267012,47.2761642 68.2267012,52.1963043 L68.2267012,61.7836386 C68.2267012,62.5806603 68.8476738,63.2271126 69.6132812,63.2271126 C70.3788887,63.2271126 71,62.5806603 71,61.7836386 L71,52.1964487 C71,45.6845749 65.9110195,40.3866399 59.6558086,40.3866399 L54.5159355,40.3866399 C56.3950781,38.5060382 57.5679648,35.8660933 57.5679648,32.9446428 L57.5679648,31.3289451 C57.5679648,25.6335819 53.1170137,21 47.6461309,21 C42.175248,21 37.7242969,25.6335819 37.7242969,31.3289451 L37.7242969,32.9444984 C37.7242969,35.8659489 38.8971836,38.5057495 40.7763262,40.3864955 L30.129793,40.3864955 C32.0089355,38.5058938 33.1818223,35.8659489 33.1818223,32.9444984 L33.1818223,31.3289451 C33.1818223,25.6335819 28.7308711,21 23.2599883,21 C17.7891055,21 13.3381543,25.6335819 13.3381543,31.3289451 L13.3381543,32.9444984 C13.3381543,35.8659489 14.511041,38.5057495 16.3901836,40.3864955 L15.7891797,40.3864955 L11.3439141,40.3864955 C5.08898047,40.3864955 0,45.6844306 0,52.1964487 L0,71.556526 C0,72.3535477 0.620972656,73 1.38658008,73 L69.6134199,73 C70.3790273,73 71,72.3535477 71,71.556526 L71,61.8220629 C71,61.0250412 70.3790273,60.3785889 69.6134199,60.3785889 Z M40.497457,32.9446428 L40.497457,31.3289451 C40.497457,27.2254599 43.7043828,23.886948 47.6461309,23.886948 C51.5878789,23.886948 54.7948047,27.2254599 54.7948047,31.3289451 L54.7948047,32.9444984 C54.7948047,37.0479837 51.5878789,40.3864955 47.6461309,40.3864955 C43.7043828,40.3864955 40.497457,37.0479837 40.497457,32.9446428 Z M16.1115918,32.9446428 L16.1115918,31.3289451 C16.1115918,27.2254599 19.3185176,23.886948 23.2602656,23.886948 C27.2020137,23.886948 30.4089395,27.2254599 30.4089395,31.3289451 L30.4089395,32.9444984 C30.4089395,37.0479837 27.2020137,40.3864955 23.2602656,40.3864955 C19.3185176,40.3864955 16.1115918,37.0479837 16.1115918,32.9446428 Z" id="Shape" stroke="#FFFFFF"></path>
                <path d="M50.6367578,-2.84217094e-14 L20.3632422,-2.84217094e-14 C15.7518046,-2.84217094e-14 12,3.97747997 12,8.86630089 C12,13.7551218 15.7518046,17.7326018 20.3632422,17.7326018 L31.8334951,17.7326018 L34.3029009,22.2671752 C34.5498138,22.7206472 35.0061741,23 35.5,23 C35.9938259,23 36.4501862,22.7206472 36.6970991,22.2671752 L39.1665049,17.7326018 L50.6367578,17.7326018 C55.2481954,17.7326018 59,13.7551218 59,8.86630089 C59,3.97747997 55.2480572,-2.84217094e-14 50.6367578,-2.84217094e-14 Z M50.6367578,14.8015956 L38.368531,14.8015956 C37.8747051,14.8015956 37.4183448,15.0809485 37.1714318,15.5344205 L35.5,18.6034908 L33.8285682,15.5344205 C33.5816552,15.0809485 33.1252949,14.8015956 32.631469,14.8015956 L20.3632422,14.8015956 C17.2761394,14.8015956 14.7647059,12.1390965 14.7647059,8.86630089 C14.7647059,5.59350526 17.2761394,2.93100614 20.3632422,2.93100614 L50.6367578,2.93100614 C53.7238606,2.93100614 56.2352941,5.59350526 56.2352941,8.86630089 C56.2352941,12.1390965 53.7238606,14.8015956 50.6367578,14.8015956 Z" id="Shape" stroke="#FFFFFF"></path>
                <path d="M28.7079708,8.2930293 C28.5209521,8.1070107 28.2629263,8 28,8 C27.7370737,8 27.4790479,8.10691069 27.2931293,8.2930293 C27.1071107,8.4790479 27,8.73707371 27,9 C27,9.2630263 27.1070107,9.5209521 27.2931293,9.70687069 C27.4790479,9.8929893 27.7371737,10 28,10 C28.2630263,10 28.5209521,9.8929893 28.7079708,9.70687069 C28.8939894,9.5209521 29,9.26292629 29,9 C28.9999,8.73707371 28.8938894,8.4790479 28.7079708,8.2930293 Z" id="Path" stroke="#CB097A"></path>
                <path d="M36.7068707,8.2930293 C36.5209521,8.1070107 36.2629263,8 36,8 C35.7370737,8 35.4790479,8.10691069 35.2930293,8.2930293 C35.1070107,8.47914791 35,8.73707371 35,9 C35,9.2630263 35.1069107,9.5209521 35.2930293,9.70687069 C35.4790479,9.8929893 35.7370737,10 36,10 C36.2629263,10 36.5209521,9.8929893 36.7068707,9.70687069 C36.8928893,9.5209521 37,9.26292629 37,9 C37,8.73707371 36.8929893,8.4790479 36.7068707,8.2930293 Z" id="Path" stroke="#CB097A"></path>
                <path d="M44.7069707,8.2930293 C44.5208521,8.1070107 44.2629263,8 44,8 C43.7359736,8 43.4790479,8.10691069 43.2920292,8.2930293 C43.1061106,8.4790479 43,8.73707371 43,9 C43,9.2630263 43.1061106,9.5209521 43.2920292,9.70687069 C43.4790479,9.8929893 43.7360736,10 44,10 C44.2630263,10 44.5209521,9.8929893 44.7069707,9.70687069 C44.8929893,9.5209521 45,9.26292629 45,9 C45,8.73707371 44.8930893,8.4790479 44.7069707,8.2930293 Z" id="Path" stroke="#CB097A"></path>
            </g>
        </g>
    </g>
</svg>