<?xml version="1.0" encoding="utf-8"?>
<!-- Generator: Adobe Illustrator 22.0.1, SVG Export Plug-In . SVG Version: 6.00 Build 0)  -->
<svg version="1.1" id="Layer_1" xmlns="http://www.w3.org/2000/svg" xmlns:xlink="http://www.w3.org/1999/xlink" x="0px" y="0px"
	 viewBox="0 0 1440 682" style="enable-background:new 0 0 1440 682;" xml:space="preserve">
<style type="text/css">
	.st0{filter:url(#Adobe_OpacityMaskFilter);}
	.st1{fill:#FFFFFF;}
	.st2{mask:url(#mask-2_1_);}
	.st3{filter:url(#Adobe_OpacityMaskFilter_1_);}
	.st4{mask:url(#mask-4_1_);fill:#FFFFFF;}
	.st5{filter:url(#Adobe_OpacityMaskFilter_2_);}
	.st6{opacity:0.3;mask:url(#mask-2_2_);}
	.st7{filter:url(#Adobe_OpacityMaskFilter_3_);}
	.st8{mask:url(#mask-6_1_);fill:#CBD8DE;}
	.st9{fill:#CBD8DE;}
</style>
<title>Group 34 + Group 34 Mask</title>
<desc>Created with Sketch.</desc>
<g id="Q1.2-migration-deliverables">
	<g id="customers" transform="translate(0.000000, -629.000000)">
		<g id="Group-34-_x2B_-Group-34-Mask" transform="translate(0.000000, 629.000000)">
			<g id="Mask">
			</g>
			<defs>
				<filter id="Adobe_OpacityMaskFilter" filterUnits="userSpaceOnUse" x="0" y="-0.5" width="216.5" height="426.6">
					<feColorMatrix  type="matrix" values="1 0 0 0 0  0 1 0 0 0  0 0 1 0 0  0 0 0 1 0"/>
				</filter>
			</defs>
			<mask maskUnits="userSpaceOnUse" x="0" y="-0.5" width="216.5" height="426.6" id="mask-2_1_">
				<g class="st0">
					<rect id="path-1_1_" x="0" y="-109.9" class="st1" width="1440" height="791"/>
				</g>
			</mask>
			<g id="Group-34" class="st2">
				
					<g transform="translate(1332.000000, 468.500000) rotate(90.000000) translate(-1332.000000, -468.500000) translate(1118.500000, 359.500000)">
					<g id="Group-3" transform="translate(0.000000, 0.500000)">
						<g id="Clip-2">
						</g>
						<defs>
							<filter id="Adobe_OpacityMaskFilter_1_" filterUnits="userSpaceOnUse">
								<feColorMatrix  type="matrix" values="1 0 0 0 0  0 1 0 0 0  0 0 1 0 0  0 0 0 1 0"/>
							</filter>
						</defs>
						<mask maskUnits="userSpaceOnUse" id="mask-4_1_">
							<g class="st3">
								<polygon id="path-3_1_" class="st1" points="171.1,1440.4 -255.5,1440.4 -255.5,1224 171.1,1224 								"/>
							</g>
						</mask>
						<path id="Fill-1" class="st4" d="M-255.5,1440.4h4.9c0-0.9,0-1.9,0-2.9c0-115.1,93.5-208.6,208.4-208.6
							s208.4,93.6,208.4,208.6c0,0.9,0,1.9,0,2.9h4.9c0-0.9,0-1.9,0-2.9c0-117.8-95.7-213.5-213.3-213.5s-213.3,95.8-213.3,213.5
							C-255.5,1438.5-255.5,1439.5-255.5,1440.4"/>
					</g>
					<path id="Fill-4" class="st1" d="M-245.3,1441h4.9c0-0.9,0-1.9,0-2.9c0-109.3,88.9-198.2,198.1-198.2
						c109.2,0,198.1,88.9,198.1,198.2c0,0.9,0,1.9,0,2.9h4.9c0-0.9,0-1.9,0-2.9c0-112-91-203.1-203-203.1s-203,91.1-203,203.1
						C-245.4,1439.1-245.4,1440.1-245.3,1441"/>
					<path id="Fill-6" class="st1" d="M-233.8,1440.5h4.9c0-0.9,0-1.9,0-2.9c0-103.2,83.9-187.2,187.1-187.2
						c103.2,0,187.1,84,187.1,187.2c0,0.9,0,1.9,0,2.9h4.9c0-0.9,0-1.9,0-2.9c0-105.9-86.1-192.1-192-192.1s-192,86.2-192,192.1
						C-233.9,1438.6-233.9,1439.6-233.8,1440.5"/>
					<path id="Fill-8" class="st1" d="M-223.3,1441h4.9c0-0.9,0-1.9,0-2.9c0-97.7,79.2-177.2,176.6-177.2
						c97.4,0,176.6,79.5,176.6,177.2c0,0.9,0,1.9,0,2.9h4.9c0-0.9,0-1.9,0-2.9c0-100.4-81.4-182.1-181.5-182.1
						c-100.1,0-181.5,81.7-181.5,182.1C-223.4,1439.1-223.4,1440.1-223.3,1441"/>
					<path id="Fill-10" class="st1" d="M-213.3,1441h4.9c0-0.9,0-1.9,0-2.9c0-91.6,74.5-166.2,166.1-166.2s166.1,74.5,166.1,166.2
						c0,0.9,0,1.9,0,2.9h4.9c0-0.9,0-1.9,0-2.9c0-94.3-76.7-171.1-171-171.1c-94.3,0-171,76.8-171,171.1
						C-213.4,1439.1-213.4,1440.1-213.3,1441"/>
					<path id="Fill-12" class="st1" d="M-202.3,1441h4.9c0-0.9,0-1.9,0-2.9c0-85.6,69.8-155.2,155.6-155.2s155.6,69.6,155.6,155.2
						c0,1,0,1.9,0,2.9h4.9c0-0.9,0-1.9,0-2.9c0-88.3-72-160.1-160.5-160.1c-88.5,0-160.5,71.9-160.5,160.1
						C-202.4,1439.1-202.4,1440.1-202.3,1441"/>
					<path id="Fill-14" class="st1" d="M-191.8,1440.5h4.9c0-0.9,0-1.9,0-2.9c0-80.1,65.1-145.2,145.1-145.2
						c80,0,145.1,65.1,145.1,145.2c0,0.9,0,1.9,0,2.9h4.9c0-0.9,0-1.9,0-2.9c0-82.8-67.3-150.1-150-150.1s-150,67.4-150,150.1
						C-191.9,1438.6-191.9,1439.6-191.8,1440.5"/>
					<path id="Fill-16" class="st1" d="M-181.8,1440.5h4.9c0-0.9,0-1.9,0-2.9c0-74,60.4-134.2,134.6-134.2
						c74.2,0,134.6,60.2,134.6,134.2c0,0.9,0,1.9,0,2.9h4.9c0-0.9,0-1.9,0-2.9c0-76.7-62.6-139.1-139.5-139.1
						s-139.5,62.4-139.5,139.1C-181.9,1438.6-181.9,1439.6-181.8,1440.5"/>
					<path id="Fill-18" class="st1" d="M-171.3,1441h4.9c0-0.9,0-1.9,0-2.9c0-68.5,55.7-124.2,124.1-124.2
						c68.4,0,124.1,55.7,124.1,124.2c0,0.9,0,1.9,0,2.9h4.9c0-0.9,0-1.9,0-2.9c0-71.2-57.9-129.1-129-129.1
						c-71.1,0-129,57.9-129,129.1C-171.4,1439.1-171.4,1440.1-171.3,1441"/>
					<path id="Fill-20" class="st1" d="M-160.3,1441h4.9c0-0.9,0-1.9,0-2.9c0-62.4,51-113.2,113.6-113.2s113.6,50.8,113.6,113.2
						c0,0.9,0,1.9,0,2.9h4.9c0-0.9,0-1.9,0-2.9c0-65.1-53.2-118.1-118.5-118.1c-65.4,0-118.5,53-118.5,118.1
						C-160.4,1439.1-160.4,1440.1-160.3,1441"/>
					<path id="Fill-22" class="st1" d="M-149.3,1441h4.9c0-1,0-1.9,0-2.9c0-56.9,46-103.2,102.6-103.2s102.6,46.3,102.6,103.2
						c0,0.9,0,1.9,0,2.9h4.9c0-0.9,0-1.9,0-2.9c0-59.6-48.2-108.1-107.5-108.1c-59.3,0-107.5,48.5-107.5,108.1
						C-149.4,1439.1-149.4,1440.1-149.3,1441"/>
					<path id="Fill-24" class="st1" d="M-139.3,1441h4.9c-0.1-0.9-0.1-1.9-0.1-2.9c0-50.9,41.3-92.2,92.1-92.2
						c50.8,0,92.1,41.4,92.1,92.2c0,0.9,0,1.9-0.1,2.9h4.9c0.1-0.9,0.1-1.9,0.1-2.9c0-53.6-43.5-97.1-97-97.1
						c-53.5,0-97,43.6-97,97.1C-139.4,1439.1-139.4,1440.1-139.3,1441"/>
					<path id="Fill-26" class="st1" d="M-128.3,1441h4.9c0-0.9-0.1-1.9-0.1-2.8c0-44.8,36.6-81.3,81.6-81.3
						c45,0,81.6,36.5,81.6,81.3c0,1,0,1.9-0.1,2.8h4.9c0.1-0.9,0.1-1.9,0.1-2.8c0-47.5-38.8-86.2-86.5-86.2
						c-47.7,0-86.5,38.6-86.5,86.2C-128.4,1439.1-128.4,1440.1-128.3,1441"/>
					<path id="Fill-28" class="st1" d="M-117.8,1440.5h4.9c0-0.9-0.1-1.9-0.1-2.9c0-39.3,31.9-71.2,71.1-71.2
						c39.2,0,71.1,32,71.1,71.2c0,1,0,1.9-0.1,2.9h4.9c0-0.9,0.1-1.9,0.1-2.9c0-42-34.1-76.1-76-76.1c-41.9,0-76,34.1-76,76.1
						C-117.9,1438.6-117.8,1439.6-117.8,1440.5"/>
					<path id="Fill-30" class="st1" d="M-107.8,1440.5h4.9c0-0.9-0.1-1.9-0.1-2.8c0-33.2,27.2-60.3,60.6-60.3
						c33.4,0,60.6,27,60.6,60.3c0,0.9,0,1.9-0.1,2.8H23c0.1-0.9,0.1-1.9,0.1-2.8c0-35.9-29.4-65.2-65.5-65.2
						c-36.1,0-65.5,29.2-65.5,65.2C-107.9,1438.6-107.8,1439.6-107.8,1440.5"/>
					<path id="Fill-32" class="st1" d="M-97.3,1441h5c-0.1-0.9-0.1-1.9-0.1-2.9c0-27.7,22.5-50.2,50.1-50.2
						c27.6,0,50.1,22.5,50.1,50.2c0,1,0,1.9-0.1,2.9h5c0-0.9,0.1-1.9,0.1-2.9c0-30.4-24.7-55.1-55-55.1c-30.3,0-55,24.7-55,55.1
						C-97.4,1439.1-97.3,1440.1-97.3,1441"/>
				</g>
			</g>
			<defs>
				<filter id="Adobe_OpacityMaskFilter_2_" filterUnits="userSpaceOnUse" x="1173.7" y="426.3" width="480.3" height="480.3">
					<feColorMatrix  type="matrix" values="1 0 0 0 0  0 1 0 0 0  0 0 1 0 0  0 0 0 1 0"/>
				</filter>
			</defs>
			<mask maskUnits="userSpaceOnUse" x="1173.7" y="426.3" width="480.3" height="480.3" id="mask-2_2_">
				<g class="st5">
					<rect id="path-1_2_" x="0" y="-109.9" class="st1" width="1440" height="791"/>
				</g>
			</mask>
			<g id="Group-34_1_" class="st6">
				<g transform="translate(-214.000000, -227.000000)">
					<g id="Group-3_1_" transform="translate(0.000000, 0.829545)">
						<g id="Clip-2_1_">
						</g>
						<defs>
							<filter id="Adobe_OpacityMaskFilter_3_" filterUnits="userSpaceOnUse" x="1387.7" y="652.5" width="480.3" height="480.3">
								<feColorMatrix  type="matrix" values="1 0 0 0 0  0 1 0 0 0  0 0 1 0 0  0 0 0 1 0"/>
							</filter>
						</defs>
						<mask maskUnits="userSpaceOnUse" x="1387.7" y="652.5" width="480.3" height="480.3" id="mask-6_1_">
							<g class="st7">
								<polygon id="path-5_1_" class="st1" points="1868,1132.8 1387.7,1132.8 1387.7,652.5 1868,652.5 								"/>
							</g>
						</mask>
						<path id="Fill-1_1_" class="st8" d="M1627.8,1127.3c129.4,0,234.6-105.3,234.6-234.6S1757.2,658,1627.8,658
							c-129.4,0-234.6,105.3-234.6,234.6C1393.2,1022,1498.5,1127.3,1627.8,1127.3 M1627.8,652.5c132.4,0,240.2,107.7,240.2,240.2
							s-107.7,240.2-240.2,240.2c-132.4,0-240.2-107.7-240.2-240.2C1387.7,760.2,1495.4,652.5,1627.8,652.5"/>
					</g>
					<path id="Fill-4_1_" class="st9" d="M1627.5,1116.8c122.9,0,223-100,223-223s-100-223-223-223s-223,100-223,223
						S1504.6,1116.8,1627.5,1116.8 M1627.5,665.3c126,0,228.5,102.5,228.5,228.5c0,126-102.5,228.5-228.5,228.5
						c-126,0-228.5-102.5-228.5-228.5C1399,767.8,1501.5,665.3,1627.5,665.3"/>
					<path id="Fill-6_1_" class="st9" d="M1627.5,1104.8c116.3,0,211-94.6,211-211c0-116.3-94.6-211-211-211s-211,94.6-211,211
						C1416.5,1010.1,1511.2,1104.8,1627.5,1104.8 M1627.5,677.3c119.4,0,216.5,97.1,216.5,216.5c0,119.4-97.1,216.5-216.5,216.5
						c-119.4,0-216.5-97.1-216.5-216.5C1411,774.4,1508.1,677.3,1627.5,677.3"/>
					<path id="Fill-8_1_" class="st9" d="M1627.5,1092.8c109.7,0,199-89.3,199-199c0-109.7-89.3-199-199-199
						c-109.7,0-199,89.3-199,199C1428.5,1003.5,1517.8,1092.8,1627.5,1092.8 M1627.5,689.3c112.8,0,204.5,91.7,204.5,204.5
						c0,112.8-91.7,204.5-204.5,204.5c-112.8,0-204.5-91.7-204.5-204.5C1423,781,1514.7,689.3,1627.5,689.3"/>
					<path id="Fill-10_1_" class="st9" d="M1627.5,1080.8c103.1,0,187-83.9,187-187c0-103.1-83.9-187-187-187
						c-103.1,0-187,83.9-187,187C1440.5,996.9,1524.4,1080.8,1627.5,1080.8 M1627.5,701.3c106.1,0,192.5,86.4,192.5,192.5
						s-86.4,192.5-192.5,192.5S1435,999.9,1435,893.8S1521.4,701.3,1627.5,701.3"/>
					<path id="Fill-12_1_" class="st9" d="M1627.5,1068.8c96.5,0,175-78.5,175-175s-78.5-175-175-175s-175,78.5-175,175
						S1531,1068.8,1627.5,1068.8 M1627.5,713.3c99.5,0,180.5,81,180.5,180.5s-81,180.5-180.5,180.5s-180.5-81-180.5-180.5
						S1528,713.3,1627.5,713.3"/>
					<path id="Fill-14_1_" class="st9" d="M1628,1056.8c90.1,0,163.5-73.3,163.5-163.5c0-90.1-73.3-163.5-163.5-163.5
						s-163.5,73.3-163.5,163.5C1464.5,983.4,1537.9,1056.8,1628,1056.8 M1628,724.3c93.2,0,169,75.8,169,169
						c0,93.2-75.8,169-169,169c-93.2,0-169-75.8-169-169C1459,800.1,1534.8,724.3,1628,724.3"/>
					<path id="Fill-16_1_" class="st9" d="M1628,1044.8c83.5,0,151.5-67.9,151.5-151.5c0-83.5-67.9-151.5-151.5-151.5
						s-151.5,67.9-151.5,151.5C1476.5,976.8,1544.5,1044.8,1628,1044.8 M1628,736.3c86.6,0,157,70.4,157,157
						c0,86.6-70.4,157-157,157c-86.6,0-157-70.4-157-157C1471,806.7,1541.4,736.3,1628,736.3"/>
					<path id="Fill-18_1_" class="st9" d="M1628,1032.8c76.9,0,139.5-62.6,139.5-139.5s-62.6-139.5-139.5-139.5
						c-76.9,0-139.5,62.6-139.5,139.5S1551.1,1032.8,1628,1032.8 M1628,748.3c80,0,145,65,145,145s-65,145-145,145s-145-65-145-145
						S1548.1,748.3,1628,748.3"/>
					<path id="Fill-20_1_" class="st9" d="M1628,1020.8c70.3,0,127.5-57.2,127.5-127.5c0-70.3-57.2-127.5-127.5-127.5
						c-70.3,0-127.5,57.2-127.5,127.5C1500.5,963.6,1557.7,1020.8,1628,1020.8 M1628,760.3c73.3,0,133,59.7,133,133
						c0,73.3-59.7,133-133,133s-133-59.7-133-133C1495,820,1554.7,760.3,1628,760.3"/>
					<path id="Fill-22_1_" class="st9" d="M1627.5,1009.7c63.9,0,116-52,116-116c0-63.9-52-116-116-116c-63.9,0-116,52-116,116
						C1511.5,957.7,1563.6,1009.7,1627.5,1009.7 M1627.5,772.3c67,0,121.5,54.5,121.5,121.5c0,67-54.5,121.5-121.5,121.5
						S1506,960.8,1506,893.8C1506,826.8,1560.5,772.3,1627.5,772.3"/>
					<path id="Fill-24_1_" class="st9" d="M1627.5,997.8c57.3,0,104-46.6,104-104s-46.6-104-104-104s-104,46.6-104,104
						S1570.2,997.8,1627.5,997.8 M1627.5,784.3c60.4,0,109.5,49.1,109.5,109.5s-49.1,109.5-109.5,109.5S1518,954.2,1518,893.8
						S1567.1,784.3,1627.5,784.3"/>
					<path id="Fill-26_1_" class="st9" d="M1627.5,985.8c50.7,0,92-41.3,92-92s-41.3-92-92-92s-92,41.3-92,92
						S1576.8,985.8,1627.5,985.8 M1627.5,796.3c53.8,0,97.5,43.7,97.5,97.5s-43.7,97.5-97.5,97.5c-53.8,0-97.5-43.7-97.5-97.5
						S1573.7,796.3,1627.5,796.3"/>
					<path id="Fill-28_1_" class="st9" d="M1627.5,973.8c44.1,0,80-35.9,80-80c0-44.1-35.9-80-80-80c-44.1,0-80,35.9-80,80
						C1547.5,937.9,1583.4,973.8,1627.5,973.8 M1627.5,808.3c47.1,0,85.5,38.4,85.5,85.5s-38.4,85.5-85.5,85.5
						c-47.1,0-85.5-38.4-85.5-85.5S1580.4,808.3,1627.5,808.3"/>
					<path id="Fill-30_1_" class="st9" d="M1627.5,961.8c37.5,0,68-30.5,68-68c0-37.5-30.5-68-68-68s-68,30.5-68,68
						C1559.5,931.3,1590,961.8,1627.5,961.8 M1627.5,820.3c40.5,0,73.5,33,73.5,73.5s-33,73.5-73.5,73.5c-40.5,0-73.5-33-73.5-73.5
						S1587,820.3,1627.5,820.3"/>
					<path id="Fill-32_1_" class="st9" d="M1628,949.7c31.1,0,56.4-25.3,56.4-56.4c0-31.1-25.3-56.4-56.4-56.4s-56.5,25.3-56.5,56.4
						C1571.5,924.4,1596.9,949.7,1628,949.7 M1628,831.3c34.2,0,62,27.8,62,62s-27.8,62-62,62c-34.2,0-62-27.8-62-62
						S1593.8,831.3,1628,831.3"/>
				</g>
			</g>
		</g>
	</g>
</g>
</svg>
