<svg id="Layer_1" data-name="Layer 1" xmlns="http://www.w3.org/2000/svg" xmlns:xlink="http://www.w3.org/1999/xlink" viewBox="0 0 5437 2035"><defs><pattern id="New_Pattern" data-name="New Pattern" width="832" height="930.28" patternTransform="translate(1200 -1461)" patternUnits="userSpaceOnUse" viewBox="0 0 832 930.28"><rect width="832" height="930.28" fill="none"/><path d="M642.21,815,501.44,913.8a3,3,0,0,1-1.72.54,3.08,3.08,0,0,1-1.38-.33,3,3,0,0,1-1.61-2.66V812.54a3,3,0,0,1,3-3H640.49a3,3,0,0,1,1.72,5.45Zm-11.19.54H609v6.77a3,3,0,0,1-6,0v-6.77H593.8v6.77a3,3,0,0,1-6,0v-6.77h-9.22v6.77a3,3,0,0,1-6,0v-6.77h-9.23v6.77a3,3,0,0,1-6,0v-6.77h-9.23v6.77a3,3,0,0,1-6,0v-6.77H533v6.77a3,3,0,0,1-6,0v-6.77h-9.22v6.77a3,3,0,0,1-6,0v-6.77h-9v90.06Z" fill="#fff"/><path d="M577.05,832.58a3,3,0,0,1-1.14,3.35L522.39,873.5a3,3,0,0,1-1.72.55,3.06,3.06,0,0,1-1.38-.34,3,3,0,0,1-1.61-2.66V833.48a3,3,0,0,1,3-3h53.52A3,3,0,0,1,577.05,832.58Zm-12.33,3.9H523.66V865.3Z" fill="#fff"/><path d="M848,839.74,767,758.8A16.86,16.86,0,0,1,767,735l87.86-87.86a3,3,0,0,1,4.23,0l90.73,90.73a3,3,0,0,1,0,4.23l-78.07,78.07L852.2,839.74A3,3,0,0,1,848,839.74Zm17.46-21.69-78.82-78.83a10.85,10.85,0,1,0-15.34,15.34l78.82,78.83,5.55-5.56-71.15-71.15a3,3,0,0,1,4.23-4.23l71.15,71.15ZM943.5,740,857,653.48l-76.66,76.66A16.75,16.75,0,0,1,790.84,735l78.82,78.83Z" fill="#fff"/><path d="M832.85,697.65,855.6,674.9a3,3,0,0,1,4.23,0l62.25,62.25a3,3,0,0,1,0,4.23l-22.75,22.75a3,3,0,0,1-4.23,0l-62.25-62.25A3,3,0,0,1,832.85,697.65Zm6.35,2.12,58,58,18.52-18.51-58-58Z" fill="#fff"/><path d="M307.61,884.75h92.08a15.75,15.75,0,0,1-2.55-13.45,16.12,16.12,0,0,1,8.74-10.08l-33.3-23.65v14.21l1.59-1.59a3,3,0,0,1,4.23,4.23l-6.7,6.7a2.82,2.82,0,0,1-.46.38,2.1,2.1,0,0,1-.42.22l-.1,0a2.57,2.57,0,0,1-.47.15l-.08,0a2.86,2.86,0,0,1-.58.06h0a3.29,3.29,0,0,1-.54,0l-.09,0a2.79,2.79,0,0,1-.47-.14h0a3.3,3.3,0,0,1-.65-.39l-.16-.14-.15-.11L361,854.6a3,3,0,0,1,4.23-4.24l1.42,1.42V833.31l-60.73-43.14a3,3,0,1,1,3.47-4.87l33.1,23.51,13.67-19.1a3,3,0,0,1,4.17-.69l36.91,26.41a3,3,0,0,1,.69,4.18l-13.56,18.95,65.8,46.74a3,3,0,0,1-1.74,5.44H307.61a3,3,0,0,1,0-6Zm71.83-49.66,11.83-16.53-32-22.93-11.91,16.64L366.6,826v-5a6.7,6.7,0,1,1,6,0v9.26Zm30.08,49.66H439l-27-19.17h0c-4.19.47-8.09,3.59-9.08,7.26A9.8,9.8,0,0,0,409.52,884.75Z" fill="#fff"/><path d="M735.07,914a41.4,41.4,0,1,1-41.39-41.39A41.44,41.44,0,0,1,735.07,914Zm-6,0a35.42,35.42,0,1,0-35.41,35.42A35.46,35.46,0,0,0,729.09,914Z" fill="#fff"/><path d="M749.62,926.67c-.33,1.46-.72,2.91-1.16,4.34l8,7a3,3,0,0,1,.64,3.76l-7.73,13.39a3,3,0,0,1-3.57,1.33l-10.07-3.5c-1,1.09-2.08,2.15-3.17,3.16l3.51,10.07a3,3,0,0,1-1.33,3.57l-13.39,7.74a3,3,0,0,1-3.76-.64l-7-8.06c-1.42.44-2.88.83-4.34,1.16l-2,10.46a3,3,0,0,1-2.94,2.43H686A3,3,0,0,1,683,980.4l-2-10.46c-1.46-.33-2.91-.72-4.34-1.16l-6.95,8.06a3,3,0,0,1-3.76.64l-13.39-7.73a3,3,0,0,1-1.33-3.58l3.5-10.07c-1.09-1-2.15-2.07-3.16-3.16l-10.07,3.5a3,3,0,0,1-3.57-1.33l-7.74-13.39a3,3,0,0,1,.64-3.76l8.06-7c-.45-1.43-.83-2.88-1.16-4.34l-10.46-2a3,3,0,0,1-2.43-2.94V906.27a3,3,0,0,1,2.43-2.94l10.46-2c.33-1.46.71-2.91,1.16-4.34l-8.06-7a3,3,0,0,1-.64-3.77l7.74-13.39a3,3,0,0,1,3.57-1.33l10.07,3.51c1-1.1,2.07-2.15,3.16-3.17l-3.5-10.06a3,3,0,0,1,1.33-3.58L666,850.53a3,3,0,0,1,3.76.64l6.95,8.05c1.43-.44,2.88-.83,4.34-1.16l2-10.45a3,3,0,0,1,2.94-2.44h15.46a3,3,0,0,1,2.94,2.44l2,10.45c1.46.33,2.92.72,4.34,1.16l7-8.05a3,3,0,0,1,3.76-.64l13.4,7.73a3,3,0,0,1,1.33,3.58l-3.51,10.06c1.09,1,2.15,2.07,3.17,3.17l10.06-3.51a3,3,0,0,1,3.58,1.33l7.73,13.39a3,3,0,0,1-.63,3.77l-8.06,7c.44,1.43.83,2.88,1.16,4.34l10.46,2a3,3,0,0,1,2.43,2.94v15.46a3,3,0,0,1-2.43,2.94ZM742.17,931a51.15,51.15,0,0,0,2-7.43,3,3,0,0,1,2.38-2.39l10-1.9V908.75l-10-1.91a3,3,0,0,1-2.38-2.38,50.48,50.48,0,0,0-2-7.43,3,3,0,0,1,.87-3.26l7.69-6.64-5.26-9.1-9.61,3.35a3,3,0,0,1-3.25-.88,53.53,53.53,0,0,0-5.43-5.43,3,3,0,0,1-.88-3.25l3.35-9.61-9.1-5.26-6.64,7.69a3,3,0,0,1-3.26.87,50.68,50.68,0,0,0-7.42-2,3,3,0,0,1-2.39-2.38l-1.91-10H688.42l-1.9,10a3,3,0,0,1-2.39,2.38,51.15,51.15,0,0,0-7.43,2,3,3,0,0,1-3.25-.87L666.81,857l-9.11,5.26,3.35,9.61a3,3,0,0,1-.87,3.25,51.55,51.55,0,0,0-5.43,5.43,3,3,0,0,1-3.25.88L641.88,878l-5.26,9.1,7.7,6.64a3,3,0,0,1,.87,3.26,51.78,51.78,0,0,0-2,7.43,3,3,0,0,1-2.38,2.38l-10,1.91v10.51l10,1.9a3,3,0,0,1,2.38,2.39,52.49,52.49,0,0,0,2,7.43,3,3,0,0,1-.87,3.25l-7.7,6.64,5.26,9.11,9.62-3.35a3,3,0,0,1,3.25.87,51.55,51.55,0,0,0,5.43,5.43,3,3,0,0,1,.87,3.26l-3.35,9.61,9.11,5.25,6.64-7.69a3,3,0,0,1,2.26-1,3.08,3.08,0,0,1,1,.17,51.18,51.18,0,0,0,7.43,2,3,3,0,0,1,2.39,2.38l1.9,10h10.51l1.91-10a3,3,0,0,1,2.39-2.38,50.71,50.71,0,0,0,7.42-2,3,3,0,0,1,3.26.87l6.64,7.7,9.1-5.26-3.35-9.62a3,3,0,0,1,.88-3.25,52.52,52.52,0,0,0,5.43-5.43,3,3,0,0,1,3.25-.87l9.61,3.35,5.26-9.11L743,934.23A3,3,0,0,1,742.17,931Z" fill="#fff"/><path d="M923.37,966.56a3,3,0,0,1,.06.59v92.27a3,3,0,0,1-3,3H812.3a3,3,0,0,1-3-3v-135a3,3,0,0,1,3-3h65.44a2.78,2.78,0,0,1,.58.06l.26.08a2.46,2.46,0,0,1,.29.09,1.73,1.73,0,0,1,.3.16l.22.11a3.32,3.32,0,0,1,.46.38l42.7,42.7a3.44,3.44,0,0,1,.38.46c0,.07.07.15.11.22a2.09,2.09,0,0,1,.16.29c0,.1.06.2.09.3A2.58,2.58,0,0,1,923.37,966.56Zm-42.65-2.4h32.49l-32.49-32.49Zm36.72,6H877.73a3,3,0,0,1-3-3V927.43H815.29v129H917.44Z" fill="#fff"/><path d="M147.61,936.79,92.39,881.57a18.19,18.19,0,1,1,25.73-25.73,3,3,0,0,1-4.23,4.23,12.21,12.21,0,1,0-17.27,17.27l43.28,43.28a26.89,26.89,0,0,1,43.53-23.89l26-26a26.89,26.89,0,0,1,23.87-43.53L190,783.93a12.21,12.21,0,1,0-17.27,17.26,3,3,0,0,1-4.23,4.24,18.2,18.2,0,0,1,25.73-25.74l55.22,55.22A26.91,26.91,0,0,1,213.67,875l-26,26a26.91,26.91,0,0,1-40,35.82Zm68-68a20.93,20.93,0,1,0,0-29.6A21,21,0,0,0,215.66,868.74Zm-63.82,63.82a20.93,20.93,0,1,0,0-29.6A21,21,0,0,0,151.84,932.56Z" fill="#fff"/><path d="M16,839.74-65,758.8A16.86,16.86,0,0,1-65,735l87.86-87.86a3,3,0,0,1,4.23,0l90.73,90.73a3,3,0,0,1,0,4.23L39.78,820.16,20.2,839.74A3,3,0,0,1,16,839.74Zm17.46-21.69-78.82-78.83a10.87,10.87,0,0,0-15.35,0,10.87,10.87,0,0,0,0,15.34l78.82,78.83,5.55-5.56-71.15-71.15a3,3,0,0,1,0-4.23,3,3,0,0,1,4.23,0L27.87,823.6ZM111.5,740,25,653.48l-76.66,76.66A16.75,16.75,0,0,1-41.16,735l78.82,78.83Z" fill="#fff"/><path d="M.85,697.65,23.6,674.9a3,3,0,0,1,4.23,0l62.25,62.25a3,3,0,0,1,0,4.23L67.33,764.13a3,3,0,0,1-4.23,0L.85,701.88A3,3,0,0,1,.85,697.65Zm6.35,2.12,58,58,18.52-18.51-58-58Z" fill="#fff"/><path d="M239.3,730,199,734.34l-.33,0a3,3,0,0,1-3-3.43l5.75-39a3,3,0,0,1,.85-1.68l.29-.29,0,0,0,0L286.49,606a27.46,27.46,0,1,1,38.83,38.83L241.09,729.1A3,3,0,0,1,239.3,730ZM293,608.31l30,30a21.45,21.45,0,0,0-30-30Zm-79.23,78.9a11.09,11.09,0,0,1,7.78,10.6c0,.14,0,.27,0,.4l.39,0A11.11,11.11,0,0,1,233,709.71a11.09,11.09,0,0,1,11.06,7.93L319,642.75,288.6,612.38Zm23.29,30a5.11,5.11,0,0,0-3.63-1.51h0a5.12,5.12,0,0,0-3.64,1.5,3,3,0,1,1-4.23-4.23,5.13,5.13,0,0,0,0-7.26,5.26,5.26,0,0,0-7.26,0,3,3,0,0,1-3.11.69,3,3,0,0,1-1.12-4.93,5.13,5.13,0,0,0,0-7.26,5.13,5.13,0,0,0-6.88-.31l-5,34.1,35.14-3.81A5.13,5.13,0,0,0,237.06,717.18Z" fill="#fff"/><path d="M248.07,699.51a3,3,0,0,0,4.23,0l52.2-52.2a3,3,0,1,0-4.24-4.23l-52.19,52.2A3,3,0,0,0,248.07,699.51Z" fill="#fff"/><path d="M233.82,700.42a3,3,0,0,0,2.11-.88l52.2-52.2a3,3,0,0,0-4.23-4.23l-52.2,52.2a3,3,0,0,0,2.12,5.11Z" fill="#fff"/><path d="M233.85,684.05a3,3,0,0,0,2.11-.88L288.16,631a3,3,0,1,0-4.23-4.24l-52.2,52.2a3,3,0,0,0,2.12,5.11Z" fill="#fff"/><path d="M91.37,966.56a3,3,0,0,1,.06.59v92.27a3,3,0,0,1-3,3H-19.7a3,3,0,0,1-3-3v-135a3,3,0,0,1,3-3H45.74a2.78,2.78,0,0,1,.58.06l.26.08a2.46,2.46,0,0,1,.29.09,1.73,1.73,0,0,1,.3.16l.22.11a3.32,3.32,0,0,1,.46.38L90.55,965a3.44,3.44,0,0,1,.38.46c0,.07.07.15.11.22a2.09,2.09,0,0,1,.16.29c0,.1.06.2.09.3A2.58,2.58,0,0,1,91.37,966.56Zm-42.65-2.4H81.21L48.72,931.67Zm36.72,6H45.73a3,3,0,0,1-3-3V927.43H-16.71v129H85.44Z" fill="#fff"/><path d="M723.61,419.61h92.08a15.75,15.75,0,0,1-2.55-13.45,16.12,16.12,0,0,1,8.74-10.08l-33.3-23.66v14.22l1.59-1.59a3,3,0,1,1,4.23,4.23l-6.7,6.7a2.82,2.82,0,0,1-.46.38,2.1,2.1,0,0,1-.42.22l-.1.05a2.54,2.54,0,0,1-.47.14l-.08,0a2.86,2.86,0,0,1-.58.06h0a3.29,3.29,0,0,1-.54-.05l-.09,0a2.79,2.79,0,0,1-.47-.14h0a3.3,3.3,0,0,1-.65-.39l-.16-.14-.15-.11L777,389.46a3,3,0,0,1,4.23-4.24l1.42,1.42V368.17L721.87,325a3,3,0,1,1,3.47-4.87l33.1,23.51,13.67-19.1a3,3,0,0,1,4.17-.69l36.91,26.41a3,3,0,0,1,.69,4.18l-13.56,18.95,65.8,46.74a3,3,0,0,1-1.74,5.43H723.61a3,3,0,0,1,0-6ZM795.44,370l11.83-16.53-32-22.93-11.91,16.64,19.28,13.7v-5a6.7,6.7,0,1,1,6,0v9.26Zm30.08,49.66H855l-27-19.17h0c-4.19.48-8.09,3.6-9.08,7.27A9.8,9.8,0,0,0,825.52,419.61Z" fill="#fff"/><path d="M226.21,349.84,85.44,448.66a3,3,0,0,1-1.72.54,3.08,3.08,0,0,1-1.38-.33,3,3,0,0,1-1.61-2.66V347.39a3,3,0,0,1,3-3H224.49a3,3,0,0,1,1.72,5.44Zm-11.19.55H193v6.77a3,3,0,0,1-6,0v-6.77H177.8v6.77a3,3,0,0,1-6,0v-6.77h-9.22v6.77a3,3,0,0,1-6,0v-6.77h-9.23v6.77a3,3,0,1,1-6,0v-6.77h-9.23v6.77a3,3,0,1,1-6,0v-6.77H117v6.77a3,3,0,0,1-6,0v-6.77h-9.22v6.77a3,3,0,0,1-6,0v-6.77h-9v90.06Z" fill="#fff"/><path d="M161.05,367.44a3,3,0,0,1-1.14,3.35l-53.52,37.57a3,3,0,0,1-1.72.54,3,3,0,0,1-1.38-.33,3,3,0,0,1-1.61-2.66V368.34a3,3,0,0,1,3-3h53.52A3,3,0,0,1,161.05,367.44Zm-12.33,3.9H107.66v28.82Z" fill="#fff"/><path d="M563.61,471.65l-55.22-55.22a18.19,18.19,0,0,1,25.73-25.73,3,3,0,0,1-4.23,4.23,12.21,12.21,0,0,0-17.27,17.27l43.28,43.28a26.89,26.89,0,0,1,43.53-23.89l26-26a26.89,26.89,0,0,1,23.87-43.53L606,318.79a12.21,12.21,0,0,0-17.27,17.26,3,3,0,0,1-4.23,4.24,18.2,18.2,0,0,1,25.73-25.74l55.22,55.22a26.91,26.91,0,0,1-35.82,40.05l-26,26a26.91,26.91,0,0,1-40,35.82Zm68-68a20.93,20.93,0,1,0,0-29.6A21,21,0,0,0,631.66,403.6Zm-63.82,63.82a20.93,20.93,0,1,0,0-29.6A21,21,0,0,0,567.84,467.42Z" fill="#fff"/><path d="M432,374.59,351,293.66a16.86,16.86,0,0,1,0-23.81L438.89,182a3,3,0,0,1,4.23,0l90.73,90.73a3,3,0,0,1,0,4.23L455.78,355,436.2,374.59A3,3,0,0,1,432,374.59Zm17.46-21.68-78.82-78.83a10.85,10.85,0,1,0-15.34,15.34l78.82,78.83,5.55-5.56-71.15-71.15a3,3,0,0,1,4.23-4.23l71.15,71.15Zm78.07-78.08L441,188.34,364.35,265a16.75,16.75,0,0,1,10.49,4.85l78.82,78.82Z" fill="#fff"/><path d="M416.85,232.51l22.75-22.75a3,3,0,0,1,4.23,0L506.08,272a3,3,0,0,1,0,4.23L483.33,299a3,3,0,0,1-4.23,0l-62.25-62.25A3,3,0,0,1,416.85,232.51Zm6.35,2.12,58,58,18.52-18.51-58-58Z" fill="#fff"/><path d="M655.3,264.82,615,269.2l-.33,0a3,3,0,0,1-3-3.43l5.75-39a3,3,0,0,1,.85-1.68l.29-.29s0,0,0,0l0,0,83.88-83.88a27.46,27.46,0,1,1,38.83,38.83L657.09,264A3,3,0,0,1,655.3,264.82ZM709,143.17l30,30a21.45,21.45,0,0,0-30-30Zm-79.23,78.9a11.09,11.09,0,0,1,7.78,10.6c0,.14,0,.26,0,.4l.39,0A11.11,11.11,0,0,1,649,244.57a11.09,11.09,0,0,1,11.06,7.93L735,177.61,704.6,147.24Zm23.29,30a5.07,5.07,0,0,0-3.63-1.51h0a5.12,5.12,0,0,0-3.64,1.5,3,3,0,1,1-4.23-4.23,5.13,5.13,0,0,0,0-7.26,5.26,5.26,0,0,0-7.26,0,3,3,0,0,1-3.11.69,3,3,0,0,1-1.12-4.93,5.13,5.13,0,0,0,0-7.26,5.13,5.13,0,0,0-6.88-.31l-5,34.1L653.29,259A5.13,5.13,0,0,0,653.06,252Z" fill="#fff"/><path d="M664.07,234.37a3,3,0,0,0,4.23,0l52.2-52.2a3,3,0,0,0-4.24-4.23l-52.19,52.2A3,3,0,0,0,664.07,234.37Z" fill="#fff"/><path d="M649.82,235.28a3,3,0,0,0,2.11-.88l52.2-52.2A3,3,0,1,0,699.9,178l-52.2,52.2a3,3,0,0,0,2.12,5.11Z" fill="#fff"/><path d="M649.85,218.91A3,3,0,0,0,652,218l52.2-52.19a3,3,0,1,0-4.23-4.24l-52.2,52.2a3,3,0,0,0,2.12,5.11Z" fill="#fff"/><path d="M598,538c43-43,67-62.2,77.89-62.2a7,7,0,0,1,5.16,2c5.31,5.31.14,16.44-17.28,37.22-13.37,16-30.92,33.79-43,45.82-15.33,15.34-21.48,18.48-26,18.48a8.17,8.17,0,0,1-1.91-.25c6.06,17-25.52,28.29-36.78,23.62,9.52-10.67,7.84-45.27,23.48-37.65,0-.23-.08-.45-.09-.69C579.33,559.83,582.4,553.62,598,538Zm16.39,10.66a42.38,42.38,0,0,1,4.32,5.8c11.83-11.86,28-28.45,40.47-43.3,10.59-12.64,15-19.92,16.76-24.05Zm-10-8.55a38.88,38.88,0,0,1,5.81,4.3l61.6-61.6C663.17,486.39,644.46,500.21,604.35,540.15Zm-4.39,4.4c-9.72,10-14.59,16.53-14.46,19.58,0,.94.72,1.62,2.42,3.06.61.52,1.3,1.11,2,1.77s1.26,1.36,1.78,2c1.49,1.76,2.16,2.42,3.15,2.42,3.11,0,9.66-4.87,19.48-14.47C611.83,554.05,605.78,547.49,600,544.55Z" fill="#fff"/><path d="M-108.39,419.61h92.08a15.75,15.75,0,0,1-2.55-13.45,16.12,16.12,0,0,1,8.74-10.08l-33.3-23.66v14.22l1.59-1.59a3,3,0,0,1,4.23,0,3,3,0,0,1,0,4.23l-6.69,6.7a3.4,3.4,0,0,1-.47.38,2.1,2.1,0,0,1-.42.22l-.1.05a2.54,2.54,0,0,1-.47.14l-.08,0a2.86,2.86,0,0,1-.58.06h0a3.29,3.29,0,0,1-.54-.05l-.09,0a2.79,2.79,0,0,1-.47-.14h0a3.3,3.3,0,0,1-.65-.39l-.16-.14-.15-.11L-55,389.46a3,3,0,0,1,0-4.24,3,3,0,0,1,4.23,0l1.42,1.42V368.17L-110.13,325a3,3,0,0,1-.7-4.17,3,3,0,0,1,4.17-.7l33.1,23.51,13.67-19.1a3,3,0,0,1,4.17-.69l36.91,26.41a3,3,0,0,1,.69,4.18l-13.56,18.95,65.8,46.74a3,3,0,0,1-1.74,5.43H-108.39a3,3,0,0,1-3-3A3,3,0,0,1-108.39,419.61ZM-36.56,370l11.83-16.53-32-22.93-11.91,16.64,19.28,13.7v-5a6.67,6.67,0,0,1-3.71-6,6.69,6.69,0,0,1,6.7-6.69,6.69,6.69,0,0,1,6.7,6.69,6.67,6.67,0,0,1-3.71,6v9.26Zm30.08,49.66H23L-4,400.44h0c-4.19.48-8.09,3.6-9.08,7.27A9.8,9.8,0,0,0-6.48,419.61Z" fill="#fff"/><path d="M745.42,595.69a13.26,13.26,0,1,0,13.26-13.27A13.26,13.26,0,0,0,745.42,595.69Z" fill="#fff"/><path d="M762,523.71a4.37,4.37,0,1,0-4.36-4.36A4.36,4.36,0,0,0,762,523.71Z" fill="#fff"/><path d="M741.81,539.8a6.46,6.46,0,1,0,6.46,6.45A6.46,6.46,0,0,0,741.81,539.8Z" fill="#fff"/><path d="M778.43,569a7.79,7.79,0,1,0-7.78-7.79A7.79,7.79,0,0,0,778.43,569Z" fill="#fff"/><path d="M816.32,504.67a3,3,0,0,0,0-6h-17.9a3,3,0,0,0-3,3v41.08a3,3,0,0,0,.88,2.11,49.38,49.38,0,1,1-69.83,0,3,3,0,0,0,.88-2.11V501.67a3,3,0,0,0-3-3h-19.1a3,3,0,0,0,0,6h16.11v36.86a55.36,55.36,0,1,0,80,0V504.67Z" fill="#fff"/><path d="M716.83,670.5V772.87a3,3,0,0,1-4.42,2.63l-69-37.63-69,37.63a3,3,0,0,1-1.43.36,3,3,0,0,1-3-3V670.5a3,3,0,0,1,1.56-2.63L642,629.47l0,0a2.39,2.39,0,0,1,.37-.15l.18-.08.33-.06a1.17,1.17,0,0,1,.26,0h.65l59.14,8a3,3,0,0,1,2.59,3v22.48l9.69,5.29A3,3,0,0,1,716.83,670.5Zm-76.37-33.36-64.4,35.14v95.55l64.4-35.14Zm18.66.1,40.48,22.08V642.71Zm51.73,35-64.4-35.14v95.55l64.4,35.14Z" fill="#fff"/><path d="M620.17,720.48l-30.4,16.58a3,3,0,0,0,1.44,5.62,3,3,0,0,0,1.43-.36L623,725.73a3,3,0,1,0-2.87-5.25Z" fill="#fff"/><path d="M596.24,711a3.09,3.09,0,0,0,1.43-.36L618,699.56a3,3,0,0,0-2.87-5.26L594.8,705.4a3,3,0,0,0,1.44,5.62Z" fill="#fff"/><path d="M587.27,687a2.93,2.93,0,0,0,1.43-.37L627,665.75a3,3,0,1,0-2.86-5.25l-38.27,20.88a3,3,0,0,0,1.43,5.62Z" fill="#fff"/><path d="M697.13,737.06l-30.4-16.58a3,3,0,1,0-2.86,5.25l30.39,16.59a3.1,3.1,0,0,0,1.44.36,3,3,0,0,0,1.43-5.62Z" fill="#fff"/><path d="M689.24,710.66a3,3,0,0,0,1.43.36,3,3,0,0,0,1.43-5.62l-20.34-11.1a3,3,0,1,0-2.86,5.26Z" fill="#fff"/><path d="M659.93,665.75l38.27,20.88a3,3,0,1,0,2.87-5.25L662.8,660.5a3,3,0,0,0-2.87,5.25Z" fill="#fff"/><path d="M319.07,448.86a41.4,41.4,0,1,1-41.39-41.4A41.44,41.44,0,0,1,319.07,448.86Zm-6,0a35.42,35.42,0,1,0-35.41,35.41A35.46,35.46,0,0,0,313.09,448.86Z" fill="#fff"/><path d="M333.62,461.53c-.33,1.46-.72,2.91-1.16,4.34l8.05,6.95a3,3,0,0,1,.64,3.76L333.42,490a3,3,0,0,1-3.57,1.33l-10.07-3.5c-1,1.09-2.08,2.15-3.17,3.16L320.12,501a3,3,0,0,1-1.33,3.57l-13.39,7.74a3,3,0,0,1-3.76-.64l-7-8.06c-1.42.44-2.88.83-4.34,1.16l-2,10.46a3,3,0,0,1-2.94,2.43H270a3,3,0,0,1-2.94-2.43l-2-10.46c-1.46-.33-2.91-.72-4.34-1.16l-7,8.06a3,3,0,0,1-3.76.64l-13.39-7.73a3,3,0,0,1-1.33-3.58l3.5-10.07c-1.09-1-2.15-2.07-3.16-3.16l-10.07,3.5a3,3,0,0,1-3.57-1.33l-7.74-13.39a3,3,0,0,1,.64-3.76l8.06-6.95c-.45-1.43-.83-2.88-1.16-4.34l-10.46-2a3,3,0,0,1-2.43-2.94V441.13a3,3,0,0,1,2.43-2.94l10.46-2c.33-1.46.71-2.91,1.16-4.34l-8.06-7a3,3,0,0,1-.64-3.76l7.74-13.39a3,3,0,0,1,3.57-1.33l10.07,3.51c1-1.1,2.07-2.15,3.16-3.17l-3.5-10.06a3,3,0,0,1,1.33-3.58L250,385.39a3,3,0,0,1,3.76.64l7,8.05c1.43-.44,2.88-.83,4.34-1.16l2-10.46A3,3,0,0,1,270,380h15.46a3,3,0,0,1,2.94,2.43l2,10.46c1.46.33,2.92.72,4.34,1.16l6.95-8.05a3,3,0,0,1,3.76-.64l13.4,7.73a3,3,0,0,1,1.33,3.58l-3.51,10.06c1.09,1,2.15,2.07,3.17,3.17l10.06-3.51a3,3,0,0,1,3.58,1.33l7.73,13.39a3,3,0,0,1-.63,3.76l-8.06,7c.44,1.43.83,2.88,1.16,4.34l10.46,2a3,3,0,0,1,2.43,2.94v15.46a3,3,0,0,1-2.43,2.94Zm-7.45,4.31a51.15,51.15,0,0,0,2-7.43,3,3,0,0,1,2.38-2.39l10-1.9V443.61l-10-1.91a3,3,0,0,1-2.38-2.39,50.68,50.68,0,0,0-2-7.42,3,3,0,0,1,.87-3.26l7.69-6.64-5.26-9.1-9.61,3.35a3,3,0,0,1-3.25-.88,53.53,53.53,0,0,0-5.43-5.43,3,3,0,0,1-.88-3.25l3.35-9.61-9.1-5.26-6.64,7.69a3,3,0,0,1-3.26.87,50.68,50.68,0,0,0-7.42-2,3,3,0,0,1-2.39-2.38l-1.91-10H272.42l-1.9,10a3,3,0,0,1-2.39,2.38,51.15,51.15,0,0,0-7.43,2,3,3,0,0,1-3.25-.87l-6.64-7.69-9.11,5.26,3.35,9.61a3,3,0,0,1-.87,3.25,51.55,51.55,0,0,0-5.43,5.43,3,3,0,0,1-3.25.88l-9.62-3.35-5.26,9.1,7.7,6.64a3,3,0,0,1,.87,3.26,52,52,0,0,0-2,7.42,3,3,0,0,1-2.38,2.39l-10,1.91v10.51l10,1.9a3,3,0,0,1,2.38,2.39,52.49,52.49,0,0,0,2,7.43,3,3,0,0,1-.87,3.25l-7.7,6.64,5.26,9.11,9.62-3.35a3,3,0,0,1,3.25.87,51.55,51.55,0,0,0,5.43,5.43,3,3,0,0,1,.87,3.26l-3.35,9.61,9.11,5.25,6.64-7.69a3,3,0,0,1,2.26-1,3.08,3.08,0,0,1,1,.17,52.49,52.49,0,0,0,7.43,2,3,3,0,0,1,2.39,2.38l1.9,10h10.51l1.91-10a3,3,0,0,1,2.39-2.38,52,52,0,0,0,7.42-2,3,3,0,0,1,3.26.87l6.64,7.7,9.1-5.26L310.3,491a3,3,0,0,1,.88-3.25,52.52,52.52,0,0,0,5.43-5.43,3,3,0,0,1,3.25-.87l9.61,3.35,5.26-9.11L327,469.09A3,3,0,0,1,326.17,465.84Z" fill="#fff"/><path d="M185.44,573.14a68.83,68.83,0,1,1-68.83-68.82A68.91,68.91,0,0,1,185.44,573.14Zm-6,0A62.85,62.85,0,1,0,116.61,636,62.91,62.91,0,0,0,179.45,573.14Z" fill="#fff"/><path d="M122.26,574.56a6.08,6.08,0,0,0,.19-1.42,5.92,5.92,0,0,0-.19-1.41l10-10a3,3,0,1,0-4.23-4.24l-10,10a5.59,5.59,0,0,0-1.42-.19,5.84,5.84,0,1,0,0,11.67,6.08,6.08,0,0,0,1.42-.19l19,19a3,3,0,1,0,4.24-4.23Z" fill="#fff"/><path d="M172.76,573.14v0a56,56,0,0,1-16.23,39.42l-.22.27a2.78,2.78,0,0,1-.27.21,56,56,0,0,1-39.41,16.23h0a56,56,0,0,1-39.41-16.23,2.78,2.78,0,0,1-.27-.21,2.61,2.61,0,0,1-.22-.27,56,56,0,0,1,0-78.87,2.61,2.61,0,0,1,.22-.27,2.65,2.65,0,0,1,.26-.21,56,56,0,0,1,78.87,0,2.88,2.88,0,0,1,.27.22,2.61,2.61,0,0,1,.22.27,56,56,0,0,1,16.23,39.42Zm-18.37,0a3,3,0,0,1,3-3h9.29a49.89,49.89,0,0,0-12.56-30.27l-6.55,6.55a3,3,0,0,1-4.24,0,3,3,0,0,1,0-4.23l6.56-6.55a50,50,0,0,0-30.28-12.57v9.29a3,3,0,1,1-6,0v-9.29a50,50,0,0,0-30.28,12.57l6.56,6.55a3,3,0,1,1-4.24,4.23l-6.55-6.55a49.89,49.89,0,0,0-12.56,30.27h9.29a3,3,0,0,1,0,6H66.55a49.89,49.89,0,0,0,12.56,30.27l6.55-6.55a3,3,0,0,1,4.24,4.23l-6.56,6.55a50,50,0,0,0,30.28,12.57v-9.3a3,3,0,0,1,6,0v9.3a50,50,0,0,0,30.28-12.57l-6.56-6.55a3,3,0,0,1,4.23-4.23l6.56,6.55a49.89,49.89,0,0,0,12.56-30.27h-9.29A3,3,0,0,1,154.39,573.15Z" fill="#fff"/><path d="M507.37,501.42a3,3,0,0,1,.06.59v92.27a3,3,0,0,1-3,3H396.3a3,3,0,0,1-3-3v-135a3,3,0,0,1,3-3h65.44a2.78,2.78,0,0,1,.58.06l.26.08a1.4,1.4,0,0,1,.29.09,1.73,1.73,0,0,1,.3.16l.22.11a3.32,3.32,0,0,1,.46.38l42.7,42.7a3.44,3.44,0,0,1,.38.46c0,.07.07.15.11.22a2.09,2.09,0,0,1,.16.29c0,.1.06.2.09.3A2.58,2.58,0,0,1,507.37,501.42ZM464.72,499h32.49l-32.49-32.49Zm36.72,6H461.73a3,3,0,0,1-3-3V462.29H399.29v129H501.44Z" fill="#fff"/><path d="M418.6,526.88a3,3,0,0,0,3,3h53.62a3,3,0,0,0,0-6H421.59A3,3,0,0,0,418.6,526.88Z" fill="#fff"/><path d="M469.22,554.81a3,3,0,0,0,0-6H427.58a3,3,0,0,0,0,6Z" fill="#fff"/><path d="M475.21,573.77H421.59a3,3,0,0,0,0,6h53.62a3,3,0,0,0,0-6Z" fill="#fff"/><path d="M527.92,689.62A3,3,0,0,1,526,692.4l-30,11.53s0,.05,0,.08v.23a41.43,41.43,0,0,1-82.86,0s0-.07,0-.11l-17.31-6.79v8.34a6.32,6.32,0,0,1,1.5,10.06v16.05a4.49,4.49,0,0,1-9,0V715.79a6.32,6.32,0,0,1,1.5-10.06V695.05l-6.77-2.66a3,3,0,0,1,0-5.58l71.13-27.31a3.06,3.06,0,0,1,2.17,0L526,686.82A3,3,0,0,1,527.92,689.62Zm-38,16.63-35.06,13.46a3,3,0,0,1-1.07.2,2.93,2.93,0,0,1-1.09-.21l-33.52-13.15a35.44,35.44,0,0,0,70.74-.3Zm26.73-16.67-61.38-24.07-62.85,24.13,1.57.61h0L453.8,713.7Z" fill="#fff"/><path d="M735.07-16.28a41.44,41.44,0,0,1-41.39,41.4,41.44,41.44,0,0,1-41.4-41.4,41.44,41.44,0,0,1,41.4-41.4A41.44,41.44,0,0,1,735.07-16.28Zm-6,0a35.45,35.45,0,0,0-35.41-35.41,35.45,35.45,0,0,0-35.42,35.41,35.45,35.45,0,0,0,35.42,35.41A35.45,35.45,0,0,0,729.09-16.28Z" fill="#fff"/><path d="M749.62-3.61c-.33,1.46-.72,2.91-1.16,4.34l8,7a3,3,0,0,1,.64,3.76l-7.73,13.39a3,3,0,0,1-3.57,1.33l-10.07-3.51q-1.53,1.65-3.17,3.17l3.51,10.07a3,3,0,0,1-1.33,3.57L721.4,47.19a3,3,0,0,1-3.76-.63l-7-8.06c-1.42.44-2.88.83-4.34,1.16l-2,10.46a3,3,0,0,1-2.94,2.43H686A3,3,0,0,1,683,50.12l-2-10.46c-1.46-.33-2.91-.72-4.34-1.16l-6.95,8.06a3,3,0,0,1-3.76.63l-13.39-7.73a3,3,0,0,1-1.33-3.57l3.5-10.07c-1.09-1-2.15-2.07-3.16-3.17l-10.07,3.51a3,3,0,0,1-3.57-1.33L630.2,11.44a3,3,0,0,1,.64-3.76L638.9.73c-.45-1.43-.83-2.88-1.16-4.34l-10.46-2a3,3,0,0,1-2.43-2.94V-24a3,3,0,0,1,2.43-2.94l10.46-2c.33-1.46.71-2.91,1.16-4.34l-8.06-7A3,3,0,0,1,630.2-44l7.74-13.39a3,3,0,0,1,3.57-1.33l10.07,3.51c1-1.1,2.07-2.16,3.16-3.17l-3.5-10.06A3,3,0,0,1,652.57-72L666-79.75a3,3,0,0,1,3.76.63l6.95,8.06c1.43-.44,2.88-.83,4.34-1.16l2-10.46A3,3,0,0,1,686-85.11h15.46a3,3,0,0,1,2.94,2.43l2,10.46c1.46.33,2.92.72,4.34,1.16l7-8a3,3,0,0,1,3.76-.64L734.79-72a3,3,0,0,1,1.33,3.57l-3.51,10.07q1.64,1.52,3.17,3.17l10.06-3.51a3,3,0,0,1,3.58,1.33L757.15-44a3,3,0,0,1-.63,3.76l-8.06,7c.44,1.43.83,2.87,1.16,4.34l10.46,2A3,3,0,0,1,762.51-24V-8.55a3,3,0,0,1-2.43,2.94ZM742.17.7a51.15,51.15,0,0,0,2-7.43,3,3,0,0,1,2.38-2.39l10-1.9V-21.53l-10-1.91a3,3,0,0,1-2.38-2.39,50.68,50.68,0,0,0-2-7.42,3,3,0,0,1,.87-3.26l7.69-6.64-5.26-9.1-9.61,3.35a3,3,0,0,1-3.25-.88,53.53,53.53,0,0,0-5.43-5.43,3,3,0,0,1-.88-3.25l3.35-9.62-9.1-5.25-6.64,7.69a3,3,0,0,1-3.26.87,50.68,50.68,0,0,0-7.42-2,3,3,0,0,1-2.39-2.38l-1.91-10H688.42l-1.9,10a3,3,0,0,1-2.39,2.38,51.15,51.15,0,0,0-7.43,2,3,3,0,0,1-3.25-.87l-6.64-7.69-9.11,5.26,3.35,9.61a3,3,0,0,1-.87,3.25,51.55,51.55,0,0,0-5.43,5.43,3,3,0,0,1-3.25.88l-9.62-3.35-5.26,9.1,7.7,6.64a3,3,0,0,1,.87,3.25,52.49,52.49,0,0,0-2,7.43,3,3,0,0,1-2.38,2.39l-10,1.91V-11l10,1.9a3,3,0,0,1,2.38,2.39,52.49,52.49,0,0,0,2,7.43A3,3,0,0,1,644.32,4l-7.7,6.64,5.26,9.1,9.62-3.34a3,3,0,0,1,3.25.87,51.55,51.55,0,0,0,5.43,5.43,3,3,0,0,1,.87,3.25l-3.35,9.62,9.11,5.25,6.64-7.69a3,3,0,0,1,2.26-1,3.08,3.08,0,0,1,1,.17,51.15,51.15,0,0,0,7.43,2,3,3,0,0,1,2.39,2.39l1.9,10h10.51l1.91-10a3,3,0,0,1,2.39-2.38,50.68,50.68,0,0,0,7.42-2,3,3,0,0,1,3.26.87l6.64,7.69,9.1-5.25L726.3,25.9a3,3,0,0,1,.88-3.25,52.52,52.52,0,0,0,5.43-5.43,3,3,0,0,1,3.25-.87l9.61,3.34,5.26-9.1L743,4A3,3,0,0,1,742.17.7Z" fill="#fff"/><path d="M601.44,108a68.83,68.83,0,1,1-68.83-68.83A68.91,68.91,0,0,1,601.44,108Zm-6,0a62.85,62.85,0,1,0-62.84,62.85A62.91,62.91,0,0,0,595.45,108Z" fill="#fff"/><path d="M538.26,109.42a6.08,6.08,0,0,0,.19-1.42,5.92,5.92,0,0,0-.19-1.41l10-10A3,3,0,0,0,544,92.37l-10,10a5.6,5.6,0,0,0-1.42-.2,5.84,5.84,0,0,0,0,11.68,6.08,6.08,0,0,0,1.42-.19l19,19a3,3,0,1,0,4.24-4.23Z" fill="#fff"/><path d="M588.76,108v0a56,56,0,0,1-16.23,39.42c-.07.08-.14.18-.22.26a1.86,1.86,0,0,1-.27.22,56,56,0,0,1-39.41,16.23h0a56,56,0,0,1-39.41-16.23,1.86,1.86,0,0,1-.27-.22,2.53,2.53,0,0,1-.22-.26,56,56,0,0,1,0-78.87,2.61,2.61,0,0,1,.22-.27,2.65,2.65,0,0,1,.26-.21,56,56,0,0,1,78.87,0,2.88,2.88,0,0,1,.27.22,2.61,2.61,0,0,1,.22.27A56,56,0,0,1,588.76,108Zm-18.37,0a3,3,0,0,1,3-3h9.29a49.89,49.89,0,0,0-12.56-30.27l-6.55,6.55a3,3,0,0,1-4.24,0,3,3,0,0,1,0-4.23l6.56-6.56A50,50,0,0,0,535.6,57.94v9.29a3,3,0,1,1-6,0V57.94A50,50,0,0,0,499.34,70.5l6.56,6.56a3,3,0,0,1-4.24,4.23l-6.55-6.55A49.89,49.89,0,0,0,482.55,105h9.29a3,3,0,0,1,0,6h-9.29a49.89,49.89,0,0,0,12.56,30.27l6.55-6.55A3,3,0,0,1,505.9,139l-6.56,6.55a50,50,0,0,0,30.28,12.57v-9.3a3,3,0,1,1,6,0v9.3a50,50,0,0,0,30.28-12.57L559.32,139a3,3,0,1,1,4.23-4.23l6.56,6.55A49.89,49.89,0,0,0,582.67,111h-9.29A3,3,0,0,1,570.39,108Z" fill="#fff"/><path d="M923.37,36.28a2.88,2.88,0,0,1,.06.59v92.27a3,3,0,0,1-3,3H812.3a3,3,0,0,1-3-3v-135a3,3,0,0,1,3-3h65.44a2.78,2.78,0,0,1,.58.06l.26.07.29.1a2.8,2.8,0,0,1,.3.15,2.39,2.39,0,0,1,.22.12,3.32,3.32,0,0,1,.46.38l42.7,42.7a3.44,3.44,0,0,1,.38.46c0,.07.07.15.11.22a2.09,2.09,0,0,1,.16.29c0,.1.06.2.09.3A2.58,2.58,0,0,1,923.37,36.28Zm-42.65-2.41h32.49L880.72,1.38Zm36.72,6H877.73a3,3,0,0,1-3-3V-2.85H815.29v129H917.44Z" fill="#fff"/><path d="M943.92,224.48a3,3,0,0,1-1.92,2.78l-30,11.53s0,.05,0,.08v.23a41.43,41.43,0,0,1-82.86.05s0-.07,0-.11l-17.31-6.79v8.34a6.32,6.32,0,0,1,1.5,10.06v16a4.49,4.49,0,1,1-9,0v-16a6.32,6.32,0,0,1,1.5-10.06V229.91l-6.77-2.66a3,3,0,0,1,0-5.58l71.13-27.31a3.06,3.06,0,0,1,2.17,0L942,221.68A3,3,0,0,1,943.92,224.48Zm-38,16.63-35.06,13.46a3,3,0,0,1-1.07.19,2.92,2.92,0,0,1-1.09-.2l-33.52-13.15a35.44,35.44,0,0,0,70.74-.3Zm26.73-16.68-61.38-24.06L808.42,224.5l1.57.61h0l59.81,23.45Z" fill="#fff"/><path d="M147.61,6.51,92.39-48.71a18.22,18.22,0,0,1,0-25.73,18.21,18.21,0,0,1,25.73,0,3,3,0,0,1,0,4.23,3,3,0,0,1-4.23,0,12.23,12.23,0,0,0-17.27,0,12.25,12.25,0,0,0,0,17.27L139.9-9.66a26.86,26.86,0,0,1,7.71-21.89,27,27,0,0,1,35.82-2l26-26a26.93,26.93,0,0,1,2-35.82,26.89,26.89,0,0,1,21.88-7.71L190-146.35a12.23,12.23,0,0,0-17.27,0,12.22,12.22,0,0,0,0,17.26,3,3,0,0,1,0,4.24,3,3,0,0,1-4.23,0,18.22,18.22,0,0,1,0-25.73,18.22,18.22,0,0,1,25.73,0l55.22,55.22a27,27,0,0,1,0,38.06,26.93,26.93,0,0,1-35.82,2l-26,26a26.93,26.93,0,0,1-2,35.82A27,27,0,0,1,147.61,6.51Zm68-68a21,21,0,0,0,29.6,0,21,21,0,0,0,0-29.6,20.94,20.94,0,0,0-29.59,0A21,21,0,0,0,215.66-61.54ZM151.84,2.27a21,21,0,0,0,29.6,0,20.94,20.94,0,0,0,0-29.59,21,21,0,0,0-29.6,0A20.94,20.94,0,0,0,151.84,2.27Z" fill="#fff"/><path d="M182,72.9c43-43,67-62.2,77.89-62.2a7,7,0,0,1,5.16,2c5.31,5.31.14,16.44-17.28,37.22-13.37,15.95-30.92,33.79-42.95,45.82-15.33,15.34-21.48,18.48-26,18.48a8.17,8.17,0,0,1-1.91-.25c6.06,17-25.52,28.28-36.78,23.62C149.64,126.9,148,92.3,163.6,99.92c0-.23-.08-.45-.09-.69C163.33,94.69,166.4,88.48,182,72.9Zm16.39,10.66a42.38,42.38,0,0,1,4.32,5.8c11.83-11.86,28-28.45,40.47-43.3,10.59-12.64,15-19.92,16.76-24Zm-10-8.56a39,39,0,0,1,5.81,4.31l61.6-61.6C247.17,21.25,228.46,35.07,188.35,75ZM184,79.41c-9.72,10-14.59,16.53-14.46,19.58,0,.94.72,1.62,2.42,3.06.61.52,1.3,1.11,2,1.77s1.26,1.36,1.78,2c1.49,1.76,2.16,2.42,3.15,2.42,3.11,0,9.66-4.87,19.48-14.47C195.83,88.9,189.78,82.34,184,79.41Z" fill="#fff"/><path d="M329.42,130.55a13.26,13.26,0,1,0,13.26-13.27A13.26,13.26,0,0,0,329.42,130.55Z" fill="#fff"/><path d="M346,58.57a4.37,4.37,0,1,0-4.36-4.37A4.36,4.36,0,0,0,346,58.57Z" fill="#fff"/><path d="M325.81,74.66a6.46,6.46,0,1,0,6.46,6.45A6.46,6.46,0,0,0,325.81,74.66Z" fill="#fff"/><path d="M362.43,103.84a7.79,7.79,0,1,0-7.78-7.79A7.79,7.79,0,0,0,362.43,103.84Z" fill="#fff"/><path d="M400.32,39.52a3,3,0,1,0,0-6h-17.9a3,3,0,0,0-3,3V77.61a3,3,0,0,0,.88,2.11,49.38,49.38,0,1,1-69.83,0,3,3,0,0,0,.88-2.11V36.53a3,3,0,0,0-3-3h-19.1a3,3,0,0,0,0,6h16.11V76.39a55.36,55.36,0,1,0,80.05,0V39.52Z" fill="#fff"/><path d="M300.83,205.36V307.73a3,3,0,0,1-4.42,2.63l-69-37.63L158.5,310.36a3,3,0,0,1-1.43.36,3,3,0,0,1-3-3V205.36a3,3,0,0,1,1.56-2.63L226,164.33l0,0,.37-.16.18-.07.33-.06.26-.05h.31l.29,0h0L287,172a3,3,0,0,1,2.59,3v22.48l9.69,5.29A3,3,0,0,1,300.83,205.36ZM224.46,172l-64.4,35.14v95.55l64.4-35.14Zm18.66.1,40.48,22.08V177.57Zm51.73,35L230.45,172v95.55l64.4,35.14Z" fill="#fff"/><path d="M204.17,255.34l-30.4,16.58a3,3,0,0,0,1.44,5.62,3,3,0,0,0,1.43-.36L207,260.59a3,3,0,0,0-2.87-5.25Z" fill="#fff"/><path d="M180.24,245.88a3.09,3.09,0,0,0,1.43-.36L202,234.42a3,3,0,0,0-2.87-5.26l-20.34,11.1a3,3,0,0,0,1.44,5.62Z" fill="#fff"/><path d="M171.27,221.86a2.93,2.93,0,0,0,1.43-.37L211,200.61a3,3,0,1,0-2.86-5.25l-38.27,20.88a3,3,0,0,0,1.43,5.62Z" fill="#fff"/><path d="M281.13,271.92l-30.4-16.58a3,3,0,1,0-2.86,5.25l30.39,16.59a3.1,3.1,0,0,0,1.44.36,3,3,0,0,0,1.43-5.62Z" fill="#fff"/><path d="M273.24,245.52a3,3,0,0,0,1.43.36,3,3,0,0,0,1.43-5.62l-20.34-11.1a3,3,0,0,0-2.86,5.26Z" fill="#fff"/><path d="M243.93,200.61l38.27,20.88a3,3,0,1,0,2.87-5.25L246.8,195.36a3,3,0,0,0-2.87,5.25Z" fill="#fff"/><path d="M91.37,36.28a2.88,2.88,0,0,1,.06.59v92.27a3,3,0,0,1-3,3H-19.7a3,3,0,0,1-3-3v-135a3,3,0,0,1,3-3H45.74a2.78,2.78,0,0,1,.58.06l.26.07.29.1a2.8,2.8,0,0,1,.3.15,2.39,2.39,0,0,1,.22.12,3.32,3.32,0,0,1,.46.38l42.7,42.7a3.44,3.44,0,0,1,.38.46c0,.07.07.15.11.22a2.09,2.09,0,0,1,.16.29c0,.1.06.2.09.3A2.58,2.58,0,0,1,91.37,36.28ZM48.72,33.87H81.21L48.72,1.38Zm36.72,6H45.73a3,3,0,0,1-3-3V-2.85H-16.71v129H85.44Z" fill="#fff"/><path d="M2.6,61.73a3,3,0,0,0,3,3H59.21a3,3,0,0,0,0-6H5.59A3,3,0,0,0,2.6,61.73Z" fill="#fff"/><path d="M53.22,89.67a3,3,0,0,0,0-6H11.58a3,3,0,1,0,0,6Z" fill="#fff"/><path d="M59.21,108.63H5.59a3,3,0,0,0,0,6H59.21a3,3,0,0,0,0-6Z" fill="#fff"/><path d="M111.92,224.48a3,3,0,0,1-1.92,2.78L80,238.79s0,.05,0,.08v.23a41.43,41.43,0,0,1-82.86.05s0-.07,0-.11l-17.31-6.79v8.34a6.32,6.32,0,0,1,3.36,5.57,6.32,6.32,0,0,1-1.86,4.49v16a4.49,4.49,0,0,1-4.49,4.49,4.49,4.49,0,0,1-4.49-4.49v-16a6.32,6.32,0,0,1-1.86-4.49,6.32,6.32,0,0,1,3.36-5.57V229.91l-6.77-2.66a3,3,0,0,1-1.9-2.8,3,3,0,0,1,1.92-2.78l71.13-27.31a3.06,3.06,0,0,1,2.17,0L110,221.68A3,3,0,0,1,111.92,224.48Zm-38,16.63L38.86,254.57a3,3,0,0,1-1.07.19,2.92,2.92,0,0,1-1.09-.2L3.18,241.41a35.44,35.44,0,0,0,70.74-.3Zm26.73-16.68L39.27,200.37-23.58,224.5l1.57.61h0L37.8,248.56Z" fill="#fff"/></pattern></defs><title>EducationPattern10percent</title><rect width="5437" height="2035" opacity="0.1" fill="url(#New_Pattern)"/></svg>