<svg xmlns="http://www.w3.org/2000/svg" xmlns:xlink="http://www.w3.org/1999/xlink" viewBox="0 0 834.12 713.29"><defs><linearGradient id="linear-gradient" x1="368.32" y1="131.55" x2="368.32" y2="477.57" gradientUnits="userSpaceOnUse"><stop offset="0" stop-color="#2d0066"/><stop offset="1" stop-color="#570997"/></linearGradient><clipPath id="clip-path" transform="translate(758.13 -6.66)"><rect x="-674.76" y="129.87" width="569.91" height="356.19" rx="6.29" fill="none"/></clipPath><linearGradient id="linear-gradient-2" x1="-297.59" y1="238.79" x2="-152" y2="382.52" gradientUnits="userSpaceOnUse"><stop offset="0" stop-color="#651fff"/><stop offset="1"/></linearGradient><linearGradient id="linear-gradient-3" x1="-271.05" y1="260.22" x2="-240.57" y2="132.89" gradientUnits="userSpaceOnUse"><stop offset="0" stop-color="#4064ff"/><stop offset="1"/></linearGradient><linearGradient id="linear-gradient-4" x1="-390.76" y1="281.53" x2="-46.11" y2="290.56" xlink:href="#linear-gradient-3"/><linearGradient id="linear-gradient-5" x1="-273.87" y1="350.32" x2="-267.87" y2="529.32" gradientUnits="userSpaceOnUse"><stop offset="0" stop-color="#d500f9"/><stop offset="1"/></linearGradient><linearGradient id="linear-gradient-6" x1="-548.88" y1="417.62" x2="-546.22" y2="507.62" gradientUnits="userSpaceOnUse"><stop offset="0" stop-color="#448aff"/><stop offset="1"/></linearGradient><linearGradient id="linear-gradient-7" x1="-286.48" y1="342.22" x2="-255.48" y2="94.22" xlink:href="#linear-gradient-5"/><clipPath id="clip-path-2" transform="translate(758.13 -6.66)"><circle cx="-279.34" cy="358.36" r="50.4" fill="none"/></clipPath><clipPath id="clip-path-3" transform="translate(758.13 -6.66)"><circle cx="-413.2" cy="114.61" r="50.4" transform="translate(-202.06 -258.61) rotate(-45)" fill="none"/></clipPath><clipPath id="clip-path-4" transform="translate(758.13 -6.66)"><circle cx="-121.84" cy="495.35" r="86.17" transform="translate(-385.95 58.93) rotate(-45)" fill="none"/></clipPath></defs><title>curves_pattern</title><g style="isolation:isolate"><g id="BACKGROUND"><g opacity="0.12"><rect x="83.37" y="123.21" width="569.91" height="356.19" rx="6.29" fill="url(#linear-gradient)"/><g clip-path="url(#clip-path)"><path d="M-99.71,191.42c.65,43.22-8.65,116.2-124.36,124.38-94.59,6.69-156.68,43.57-172,105.56-13.3,53.61,23.13,138.18,158,134.2C-99,551.46-55.18,407.36-68.83,353.69S-66,226.31-.37,225.17c31.19-.54,11.48-33.42-19.06-54.92C-53.19,146.47-100.66,128.21-99.71,191.42Z" transform="translate(758.13 -6.66)" opacity="0.74" fill="url(#linear-gradient-2)" style="mix-blend-mode:screen"/><path d="M-370.07,37.13C-393.79,69.41-403,192.22-314.95,235.57s207.25,3.72,227.57-85.34-56.22-23-108.37-77.21S-324.28-25.18-370.07,37.13Z" transform="translate(758.13 -6.66)" opacity="0.74" fill="url(#linear-gradient-3)" style="mix-blend-mode:screen"/><path d="M-280.27,89.87c-13.7,41.11,45.34,86-23.33,150.67-43.93,41.37-79.39,116-16.46,198S-156.6,535.87-37.6,512.87s-71-93-21-216,2.33-187-78.83-222S-264.93,43.87-280.27,89.87Z" transform="translate(758.13 -6.66)" opacity="0.74" fill="url(#linear-gradient-4)" style="mix-blend-mode:screen"/><path d="M-26.56,366.07C-83,357.46-120.7,505.33-292.1,417.7c-105.29-53.83-185.29-22.87-230.94,13C-588.6,482.2-627.44,582-603.26,685.89s174.69-57.69,241.52-116.15,216.55-21.59,280-13c28.44,3.85,102.33,17.16,131.47-20.58C121.24,443.49,30.23,374.73-26.56,366.07Z" transform="translate(758.13 -6.66)" opacity="0.74" fill="url(#linear-gradient-5)" style="mix-blend-mode:screen"/><path d="M-696.53,450.57c38.75-25.24,120.66-36.67,202-12s144.38,84,163.19,159.33-133.19-74.66-209.86-4.66-210,48.66-216.67-27.51C-761.59,523.2-725.2,469.24-696.53,450.57Z" transform="translate(758.13 -6.66)" opacity="0.74" fill="url(#linear-gradient-6)" style="mix-blend-mode:screen"/><path d="M-490.6,75.2c8,61,35,191,215,119s236,73,236,73V85.2Z" transform="translate(758.13 -6.66)" opacity="0.74" fill="url(#linear-gradient-7)" style="mix-blend-mode:screen"/><g style="mix-blend-mode:overlay"><circle cx="406.6" cy="222.72" r="5.33" fill="none" stroke="#fff" stroke-linecap="round" stroke-linejoin="round" stroke-width="2"/><path d="M-190.21,238.34a4.48,4.48,0,0,1-4.48,4.48,4.48,4.48,0,0,1-4.49-4.48,4.49,4.49,0,0,1,4.49-4.48A4.49,4.49,0,0,1-190.21,238.34Z" transform="translate(758.13 -6.66)" fill="none" stroke="#fff" stroke-linecap="round" stroke-linejoin="round" stroke-width="2"/><path d="M-189.36,324.54a5.33,5.33,0,0,1-5.33,5.33,5.34,5.34,0,0,1-5.34-5.33,5.34,5.34,0,0,1,5.34-5.34A5.34,5.34,0,0,1-189.36,324.54Z" transform="translate(758.13 -6.66)" fill="none" stroke="#fff" stroke-linecap="round" stroke-linejoin="round" stroke-width="2"/><path d="M-584.93,447.89a5.34,5.34,0,0,1-5.34,5.33,5.33,5.33,0,0,1-5.33-5.33,5.34,5.34,0,0,1,5.33-5.34A5.34,5.34,0,0,1-584.93,447.89Z" transform="translate(758.13 -6.66)" fill="none" stroke="#fff" stroke-linecap="round" stroke-linejoin="round" stroke-width="2"/><circle cx="470.53" cy="441.23" r="5.33" fill="none" stroke="#fff" stroke-linecap="round" stroke-linejoin="round" stroke-width="2"/><path d="M-318.18,198.35c3.6,0,3.6,5.35,7.21,5.35s3.6-5.35,7.21-5.35,3.6,5.35,7.21,5.35,3.61-5.35,7.22-5.35,3.6,5.35,7.21,5.35,3.61-5.35,7.22-5.35,3.6,5.35,7.21,5.35" transform="translate(758.13 -6.66)" fill="none" stroke="#fff" stroke-linecap="round" stroke-linejoin="round" stroke-width="2"/><path d="M-185.9,377c3.61,0,3.61,5.35,7.21,5.35s3.61-5.35,7.21-5.35,3.61,5.35,7.21,5.35S-160.66,377-157,377s3.61,5.35,7.21,5.35,3.61-5.35,7.22-5.35,3.61,5.35,7.22,5.35" transform="translate(758.13 -6.66)" fill="none" stroke="#fff" stroke-linecap="round" stroke-linejoin="round" stroke-width="2"/><path d="M-524.18,457.82c3.6,0,3.6,5.34,7.21,5.34s3.6-5.34,7.21-5.34,3.61,5.34,7.21,5.34,3.61-5.34,7.22-5.34,3.6,5.34,7.21,5.34,3.61-5.34,7.22-5.34,3.61,5.34,7.22,5.34" transform="translate(758.13 -6.66)" fill="none" stroke="#fff" stroke-linecap="round" stroke-linejoin="round" stroke-width="2"/><line x1="489.69" y1="262.55" x2="496.53" y2="269.38" fill="none" stroke="#fff" stroke-linecap="round" stroke-linejoin="round" stroke-width="2"/><line x1="489.69" y1="269.38" x2="496.53" y2="262.55" fill="none" stroke="#fff" stroke-linecap="round" stroke-linejoin="round" stroke-width="2"/><line x1="353.53" y1="181.95" x2="360.36" y2="188.78" fill="none" stroke="#fff" stroke-linecap="round" stroke-linejoin="round" stroke-width="2"/><line x1="353.53" y1="188.78" x2="360.36" y2="181.95" fill="none" stroke="#fff" stroke-linecap="round" stroke-linejoin="round" stroke-width="2"/><line x1="294.53" y1="414.72" x2="301.36" y2="421.55" fill="none" stroke="#fff" stroke-linecap="round" stroke-linejoin="round" stroke-width="2"/><line x1="294.53" y1="421.55" x2="301.36" y2="414.72" fill="none" stroke="#fff" stroke-linecap="round" stroke-linejoin="round" stroke-width="2"/><path d="M-422.83,419.06a1.85,1.85,0,0,1-1.85,1.85,1.85,1.85,0,0,1-1.85-1.85,1.85,1.85,0,0,1,1.85-1.86A1.85,1.85,0,0,1-422.83,419.06Z" transform="translate(758.13 -6.66)" fill="#fff"/><path d="M-412,419.06a1.85,1.85,0,0,1-1.85,1.85,1.85,1.85,0,0,1-1.85-1.85,1.85,1.85,0,0,1,1.85-1.86A1.85,1.85,0,0,1-412,419.06Z" transform="translate(758.13 -6.66)" fill="#fff"/><path d="M-401.18,419.06a1.85,1.85,0,0,1-1.86,1.85,1.85,1.85,0,0,1-1.85-1.85A1.85,1.85,0,0,1-403,417.2,1.86,1.86,0,0,1-401.18,419.06Z" transform="translate(758.13 -6.66)" fill="#fff"/><path d="M-390.36,419.06a1.85,1.85,0,0,1-1.85,1.85,1.85,1.85,0,0,1-1.86-1.85,1.86,1.86,0,0,1,1.86-1.86A1.85,1.85,0,0,1-390.36,419.06Z" transform="translate(758.13 -6.66)" fill="#fff"/><path d="M-379.54,419.06a1.85,1.85,0,0,1-1.85,1.85,1.85,1.85,0,0,1-1.86-1.85,1.86,1.86,0,0,1,1.86-1.86A1.85,1.85,0,0,1-379.54,419.06Z" transform="translate(758.13 -6.66)" fill="#fff"/><path d="M-368.72,419.06a1.85,1.85,0,0,1-1.85,1.85,1.85,1.85,0,0,1-1.85-1.85,1.85,1.85,0,0,1,1.85-1.86A1.85,1.85,0,0,1-368.72,419.06Z" transform="translate(758.13 -6.66)" fill="#fff"/><path d="M-357.9,419.06a1.85,1.85,0,0,1-1.85,1.85,1.85,1.85,0,0,1-1.85-1.85,1.85,1.85,0,0,1,1.85-1.86A1.85,1.85,0,0,1-357.9,419.06Z" transform="translate(758.13 -6.66)" fill="#fff"/><path d="M-347.07,419.06a1.85,1.85,0,0,1-1.86,1.85,1.85,1.85,0,0,1-1.85-1.85,1.85,1.85,0,0,1,1.85-1.86A1.86,1.86,0,0,1-347.07,419.06Z" transform="translate(758.13 -6.66)" fill="#fff"/><path d="M-422.83,429.88a1.85,1.85,0,0,1-1.85,1.85,1.85,1.85,0,0,1-1.85-1.85,1.85,1.85,0,0,1,1.85-1.85A1.85,1.85,0,0,1-422.83,429.88Z" transform="translate(758.13 -6.66)" fill="#fff"/><path d="M-412,429.88a1.85,1.85,0,0,1-1.85,1.85,1.85,1.85,0,0,1-1.85-1.85,1.85,1.85,0,0,1,1.85-1.85A1.85,1.85,0,0,1-412,429.88Z" transform="translate(758.13 -6.66)" fill="#fff"/><path d="M-401.18,429.88a1.85,1.85,0,0,1-1.86,1.85,1.85,1.85,0,0,1-1.85-1.85A1.85,1.85,0,0,1-403,428,1.85,1.85,0,0,1-401.18,429.88Z" transform="translate(758.13 -6.66)" fill="#fff"/><path d="M-390.36,429.88a1.85,1.85,0,0,1-1.85,1.85,1.85,1.85,0,0,1-1.86-1.85,1.85,1.85,0,0,1,1.86-1.85A1.85,1.85,0,0,1-390.36,429.88Z" transform="translate(758.13 -6.66)" fill="#fff"/><path d="M-379.54,429.88a1.85,1.85,0,0,1-1.85,1.85,1.85,1.85,0,0,1-1.86-1.85,1.85,1.85,0,0,1,1.86-1.85A1.85,1.85,0,0,1-379.54,429.88Z" transform="translate(758.13 -6.66)" fill="#fff"/><path d="M-368.72,429.88a1.85,1.85,0,0,1-1.85,1.85,1.85,1.85,0,0,1-1.85-1.85,1.85,1.85,0,0,1,1.85-1.85A1.85,1.85,0,0,1-368.72,429.88Z" transform="translate(758.13 -6.66)" fill="#fff"/><path d="M-357.9,429.88a1.85,1.85,0,0,1-1.85,1.85,1.85,1.85,0,0,1-1.85-1.85,1.85,1.85,0,0,1,1.85-1.85A1.85,1.85,0,0,1-357.9,429.88Z" transform="translate(758.13 -6.66)" fill="#fff"/><path d="M-347.07,429.88a1.85,1.85,0,0,1-1.86,1.85,1.85,1.85,0,0,1-1.85-1.85,1.85,1.85,0,0,1,1.85-1.85A1.85,1.85,0,0,1-347.07,429.88Z" transform="translate(758.13 -6.66)" fill="#fff"/><path d="M-422.83,440.7a1.85,1.85,0,0,1-1.85,1.85,1.85,1.85,0,0,1-1.85-1.85,1.85,1.85,0,0,1,1.85-1.85A1.85,1.85,0,0,1-422.83,440.7Z" transform="translate(758.13 -6.66)" fill="#fff"/><path d="M-412,440.7a1.85,1.85,0,0,1-1.85,1.85,1.85,1.85,0,0,1-1.85-1.85,1.85,1.85,0,0,1,1.85-1.85A1.85,1.85,0,0,1-412,440.7Z" transform="translate(758.13 -6.66)" fill="#fff"/><path d="M-401.18,440.7a1.85,1.85,0,0,1-1.86,1.85,1.85,1.85,0,0,1-1.85-1.85,1.85,1.85,0,0,1,1.85-1.85A1.85,1.85,0,0,1-401.18,440.7Z" transform="translate(758.13 -6.66)" fill="#fff"/><path d="M-390.36,440.7a1.85,1.85,0,0,1-1.85,1.85,1.85,1.85,0,0,1-1.86-1.85,1.85,1.85,0,0,1,1.86-1.85A1.85,1.85,0,0,1-390.36,440.7Z" transform="translate(758.13 -6.66)" fill="#fff"/><path d="M-379.54,440.7a1.85,1.85,0,0,1-1.85,1.85,1.85,1.85,0,0,1-1.86-1.85,1.85,1.85,0,0,1,1.86-1.85A1.85,1.85,0,0,1-379.54,440.7Z" transform="translate(758.13 -6.66)" fill="#fff"/><path d="M-368.72,440.7a1.85,1.85,0,0,1-1.85,1.85,1.85,1.85,0,0,1-1.85-1.85,1.85,1.85,0,0,1,1.85-1.85A1.85,1.85,0,0,1-368.72,440.7Z" transform="translate(758.13 -6.66)" fill="#fff"/><path d="M-357.9,440.7a1.85,1.85,0,0,1-1.85,1.85,1.85,1.85,0,0,1-1.85-1.85,1.85,1.85,0,0,1,1.85-1.85A1.85,1.85,0,0,1-357.9,440.7Z" transform="translate(758.13 -6.66)" fill="#fff"/><path d="M-347.07,440.7a1.85,1.85,0,0,1-1.86,1.85,1.85,1.85,0,0,1-1.85-1.85,1.85,1.85,0,0,1,1.85-1.85A1.85,1.85,0,0,1-347.07,440.7Z" transform="translate(758.13 -6.66)" fill="#fff"/><path d="M-422.83,451.52a1.85,1.85,0,0,1-1.85,1.86,1.85,1.85,0,0,1-1.85-1.86,1.85,1.85,0,0,1,1.85-1.85A1.85,1.85,0,0,1-422.83,451.52Z" transform="translate(758.13 -6.66)" fill="#fff"/><path d="M-412,451.52a1.85,1.85,0,0,1-1.85,1.86,1.85,1.85,0,0,1-1.85-1.86,1.85,1.85,0,0,1,1.85-1.85A1.85,1.85,0,0,1-412,451.52Z" transform="translate(758.13 -6.66)" fill="#fff"/><path d="M-401.18,451.52a1.86,1.86,0,0,1-1.86,1.86,1.85,1.85,0,0,1-1.85-1.86,1.85,1.85,0,0,1,1.85-1.85A1.85,1.85,0,0,1-401.18,451.52Z" transform="translate(758.13 -6.66)" fill="#fff"/><path d="M-390.36,451.52a1.85,1.85,0,0,1-1.85,1.86,1.86,1.86,0,0,1-1.86-1.86,1.85,1.85,0,0,1,1.86-1.85A1.85,1.85,0,0,1-390.36,451.52Z" transform="translate(758.13 -6.66)" fill="#fff"/><path d="M-379.54,451.52a1.85,1.85,0,0,1-1.85,1.86,1.86,1.86,0,0,1-1.86-1.86,1.85,1.85,0,0,1,1.86-1.85A1.85,1.85,0,0,1-379.54,451.52Z" transform="translate(758.13 -6.66)" fill="#fff"/><path d="M-368.72,451.52a1.85,1.85,0,0,1-1.85,1.86,1.85,1.85,0,0,1-1.85-1.86,1.85,1.85,0,0,1,1.85-1.85A1.85,1.85,0,0,1-368.72,451.52Z" transform="translate(758.13 -6.66)" fill="#fff"/><path d="M-357.9,451.52a1.85,1.85,0,0,1-1.85,1.86,1.85,1.85,0,0,1-1.85-1.86,1.85,1.85,0,0,1,1.85-1.85A1.85,1.85,0,0,1-357.9,451.52Z" transform="translate(758.13 -6.66)" fill="#fff"/><path d="M-347.07,451.52a1.86,1.86,0,0,1-1.86,1.86,1.85,1.85,0,0,1-1.85-1.86,1.85,1.85,0,0,1,1.85-1.85A1.85,1.85,0,0,1-347.07,451.52Z" transform="translate(758.13 -6.66)" fill="#fff"/><path d="M-422.83,462.34a1.85,1.85,0,0,1-1.85,1.86,1.85,1.85,0,0,1-1.85-1.86,1.85,1.85,0,0,1,1.85-1.85A1.85,1.85,0,0,1-422.83,462.34Z" transform="translate(758.13 -6.66)" fill="#fff"/><path d="M-412,462.34a1.85,1.85,0,0,1-1.85,1.86,1.85,1.85,0,0,1-1.85-1.86,1.85,1.85,0,0,1,1.85-1.85A1.85,1.85,0,0,1-412,462.34Z" transform="translate(758.13 -6.66)" fill="#fff"/><path d="M-401.18,462.34A1.86,1.86,0,0,1-403,464.2a1.85,1.85,0,0,1-1.85-1.86,1.85,1.85,0,0,1,1.85-1.85A1.85,1.85,0,0,1-401.18,462.34Z" transform="translate(758.13 -6.66)" fill="#fff"/><path d="M-390.36,462.34a1.85,1.85,0,0,1-1.85,1.86,1.86,1.86,0,0,1-1.86-1.86,1.85,1.85,0,0,1,1.86-1.85A1.85,1.85,0,0,1-390.36,462.34Z" transform="translate(758.13 -6.66)" fill="#fff"/><path d="M-379.54,462.34a1.85,1.85,0,0,1-1.85,1.86,1.86,1.86,0,0,1-1.86-1.86,1.85,1.85,0,0,1,1.86-1.85A1.85,1.85,0,0,1-379.54,462.34Z" transform="translate(758.13 -6.66)" fill="#fff"/><path d="M-368.72,462.34a1.85,1.85,0,0,1-1.85,1.86,1.85,1.85,0,0,1-1.85-1.86,1.85,1.85,0,0,1,1.85-1.85A1.85,1.85,0,0,1-368.72,462.34Z" transform="translate(758.13 -6.66)" fill="#fff"/><path d="M-357.9,462.34a1.85,1.85,0,0,1-1.85,1.86,1.85,1.85,0,0,1-1.85-1.86,1.85,1.85,0,0,1,1.85-1.85A1.85,1.85,0,0,1-357.9,462.34Z" transform="translate(758.13 -6.66)" fill="#fff"/><path d="M-347.07,462.34a1.86,1.86,0,0,1-1.86,1.86,1.85,1.85,0,0,1-1.85-1.86,1.85,1.85,0,0,1,1.85-1.85A1.85,1.85,0,0,1-347.07,462.34Z" transform="translate(758.13 -6.66)" fill="#fff"/><path d="M-376,256.58a1.85,1.85,0,0,1-1.86,1.85,1.85,1.85,0,0,1-1.85-1.85,1.85,1.85,0,0,1,1.85-1.86A1.86,1.86,0,0,1-376,256.58Z" transform="translate(758.13 -6.66)" fill="#fff"/><path d="M-365.18,256.58a1.85,1.85,0,0,1-1.85,1.85,1.85,1.85,0,0,1-1.86-1.85,1.86,1.86,0,0,1,1.86-1.86A1.85,1.85,0,0,1-365.18,256.58Z" transform="translate(758.13 -6.66)" fill="#fff"/><path d="M-354.36,256.58a1.85,1.85,0,0,1-1.85,1.85,1.85,1.85,0,0,1-1.86-1.85,1.86,1.86,0,0,1,1.86-1.86A1.85,1.85,0,0,1-354.36,256.58Z" transform="translate(758.13 -6.66)" fill="#fff"/><path d="M-343.54,256.58a1.85,1.85,0,0,1-1.85,1.85,1.85,1.85,0,0,1-1.85-1.85,1.85,1.85,0,0,1,1.85-1.86A1.85,1.85,0,0,1-343.54,256.58Z" transform="translate(758.13 -6.66)" fill="#fff"/><path d="M-332.72,256.58a1.85,1.85,0,0,1-1.85,1.85,1.85,1.85,0,0,1-1.85-1.85,1.85,1.85,0,0,1,1.85-1.86A1.85,1.85,0,0,1-332.72,256.58Z" transform="translate(758.13 -6.66)" fill="#fff"/><path d="M-321.89,256.58a1.85,1.85,0,0,1-1.86,1.85,1.85,1.85,0,0,1-1.85-1.85,1.85,1.85,0,0,1,1.85-1.86A1.86,1.86,0,0,1-321.89,256.58Z" transform="translate(758.13 -6.66)" fill="#fff"/><path d="M-376,267.4a1.85,1.85,0,0,1-1.86,1.85,1.85,1.85,0,0,1-1.85-1.85,1.85,1.85,0,0,1,1.85-1.86A1.86,1.86,0,0,1-376,267.4Z" transform="translate(758.13 -6.66)" fill="#fff"/><path d="M-365.18,267.4a1.85,1.85,0,0,1-1.85,1.85,1.85,1.85,0,0,1-1.86-1.85,1.86,1.86,0,0,1,1.86-1.86A1.85,1.85,0,0,1-365.18,267.4Z" transform="translate(758.13 -6.66)" fill="#fff"/><path d="M-354.36,267.4a1.85,1.85,0,0,1-1.85,1.85,1.85,1.85,0,0,1-1.86-1.85,1.86,1.86,0,0,1,1.86-1.86A1.85,1.85,0,0,1-354.36,267.4Z" transform="translate(758.13 -6.66)" fill="#fff"/><path d="M-343.54,267.4a1.85,1.85,0,0,1-1.85,1.85,1.85,1.85,0,0,1-1.85-1.85,1.85,1.85,0,0,1,1.85-1.86A1.85,1.85,0,0,1-343.54,267.4Z" transform="translate(758.13 -6.66)" fill="#fff"/><path d="M-332.72,267.4a1.85,1.85,0,0,1-1.85,1.85,1.85,1.85,0,0,1-1.85-1.85,1.85,1.85,0,0,1,1.85-1.86A1.85,1.85,0,0,1-332.72,267.4Z" transform="translate(758.13 -6.66)" fill="#fff"/><path d="M-321.89,267.4a1.85,1.85,0,0,1-1.86,1.85,1.85,1.85,0,0,1-1.85-1.85,1.85,1.85,0,0,1,1.85-1.86A1.86,1.86,0,0,1-321.89,267.4Z" transform="translate(758.13 -6.66)" fill="#fff"/><path d="M-376,278.22a1.85,1.85,0,0,1-1.86,1.85,1.85,1.85,0,0,1-1.85-1.85,1.85,1.85,0,0,1,1.85-1.85A1.85,1.85,0,0,1-376,278.22Z" transform="translate(758.13 -6.66)" fill="#fff"/><path d="M-365.18,278.22a1.85,1.85,0,0,1-1.85,1.85,1.85,1.85,0,0,1-1.86-1.85,1.85,1.85,0,0,1,1.86-1.85A1.85,1.85,0,0,1-365.18,278.22Z" transform="translate(758.13 -6.66)" fill="#fff"/><path d="M-354.36,278.22a1.85,1.85,0,0,1-1.85,1.85,1.85,1.85,0,0,1-1.86-1.85,1.85,1.85,0,0,1,1.86-1.85A1.85,1.85,0,0,1-354.36,278.22Z" transform="translate(758.13 -6.66)" fill="#fff"/><path d="M-343.54,278.22a1.85,1.85,0,0,1-1.85,1.85,1.85,1.85,0,0,1-1.85-1.85,1.85,1.85,0,0,1,1.85-1.85A1.85,1.85,0,0,1-343.54,278.22Z" transform="translate(758.13 -6.66)" fill="#fff"/><path d="M-332.72,278.22a1.85,1.85,0,0,1-1.85,1.85,1.85,1.85,0,0,1-1.85-1.85,1.85,1.85,0,0,1,1.85-1.85A1.85,1.85,0,0,1-332.72,278.22Z" transform="translate(758.13 -6.66)" fill="#fff"/><path d="M-321.89,278.22a1.85,1.85,0,0,1-1.86,1.85,1.85,1.85,0,0,1-1.85-1.85,1.85,1.85,0,0,1,1.85-1.85A1.85,1.85,0,0,1-321.89,278.22Z" transform="translate(758.13 -6.66)" fill="#fff"/><path d="M-376,289a1.85,1.85,0,0,1-1.86,1.85,1.85,1.85,0,0,1-1.85-1.85,1.85,1.85,0,0,1,1.85-1.85A1.85,1.85,0,0,1-376,289Z" transform="translate(758.13 -6.66)" fill="#fff"/><path d="M-365.18,289a1.85,1.85,0,0,1-1.85,1.85,1.85,1.85,0,0,1-1.86-1.85,1.85,1.85,0,0,1,1.86-1.85A1.85,1.85,0,0,1-365.18,289Z" transform="translate(758.13 -6.66)" fill="#fff"/><path d="M-354.36,289a1.85,1.85,0,0,1-1.85,1.85,1.85,1.85,0,0,1-1.86-1.85,1.85,1.85,0,0,1,1.86-1.85A1.85,1.85,0,0,1-354.36,289Z" transform="translate(758.13 -6.66)" fill="#fff"/><path d="M-343.54,289a1.85,1.85,0,0,1-1.85,1.85,1.85,1.85,0,0,1-1.85-1.85,1.85,1.85,0,0,1,1.85-1.85A1.85,1.85,0,0,1-343.54,289Z" transform="translate(758.13 -6.66)" fill="#fff"/><path d="M-332.72,289a1.85,1.85,0,0,1-1.85,1.85,1.85,1.85,0,0,1-1.85-1.85,1.85,1.85,0,0,1,1.85-1.85A1.85,1.85,0,0,1-332.72,289Z" transform="translate(758.13 -6.66)" fill="#fff"/><path d="M-321.89,289a1.85,1.85,0,0,1-1.86,1.85A1.85,1.85,0,0,1-325.6,289a1.85,1.85,0,0,1,1.85-1.85A1.85,1.85,0,0,1-321.89,289Z" transform="translate(758.13 -6.66)" fill="#fff"/><path d="M-376,299.86a1.86,1.86,0,0,1-1.86,1.86,1.85,1.85,0,0,1-1.85-1.86,1.85,1.85,0,0,1,1.85-1.85A1.85,1.85,0,0,1-376,299.86Z" transform="translate(758.13 -6.66)" fill="#fff"/><path d="M-365.18,299.86a1.85,1.85,0,0,1-1.85,1.86,1.86,1.86,0,0,1-1.86-1.86A1.85,1.85,0,0,1-367,298,1.85,1.85,0,0,1-365.18,299.86Z" transform="translate(758.13 -6.66)" fill="#fff"/><path d="M-354.36,299.86a1.85,1.85,0,0,1-1.85,1.86,1.86,1.86,0,0,1-1.86-1.86,1.85,1.85,0,0,1,1.86-1.85A1.85,1.85,0,0,1-354.36,299.86Z" transform="translate(758.13 -6.66)" fill="#fff"/><path d="M-343.54,299.86a1.85,1.85,0,0,1-1.85,1.86,1.85,1.85,0,0,1-1.85-1.86,1.85,1.85,0,0,1,1.85-1.85A1.85,1.85,0,0,1-343.54,299.86Z" transform="translate(758.13 -6.66)" fill="#fff"/><path d="M-332.72,299.86a1.85,1.85,0,0,1-1.85,1.86,1.85,1.85,0,0,1-1.85-1.86,1.85,1.85,0,0,1,1.85-1.85A1.85,1.85,0,0,1-332.72,299.86Z" transform="translate(758.13 -6.66)" fill="#fff"/><path d="M-321.89,299.86a1.86,1.86,0,0,1-1.86,1.86,1.85,1.85,0,0,1-1.85-1.86,1.85,1.85,0,0,1,1.85-1.85A1.85,1.85,0,0,1-321.89,299.86Z" transform="translate(758.13 -6.66)" fill="#fff"/><path d="M-120,198.76a1.85,1.85,0,0,1-1.85-1.85,1.85,1.85,0,0,1,1.85-1.86,1.86,1.86,0,0,1,1.86,1.86A1.85,1.85,0,0,1-120,198.76Z" transform="translate(758.13 -6.66)" fill="#fff"/><path d="M-120,209.58a1.85,1.85,0,0,1-1.85-1.85,1.85,1.85,0,0,1,1.85-1.85,1.85,1.85,0,0,1,1.86,1.85A1.85,1.85,0,0,1-120,209.58Z" transform="translate(758.13 -6.66)" fill="#fff"/><path d="M-120,220.4a1.85,1.85,0,0,1-1.85-1.85A1.85,1.85,0,0,1-120,216.7a1.85,1.85,0,0,1,1.86,1.85A1.85,1.85,0,0,1-120,220.4Z" transform="translate(758.13 -6.66)" fill="#fff"/><path d="M-120,231.23a1.85,1.85,0,0,1-1.85-1.86,1.85,1.85,0,0,1,1.85-1.85,1.85,1.85,0,0,1,1.86,1.85A1.86,1.86,0,0,1-120,231.23Z" transform="translate(758.13 -6.66)" fill="#fff"/><path d="M-120,242.05a1.85,1.85,0,0,1-1.85-1.85,1.85,1.85,0,0,1,1.85-1.86,1.86,1.86,0,0,1,1.86,1.86A1.85,1.85,0,0,1-120,242.05Z" transform="translate(758.13 -6.66)" fill="#fff"/><path d="M-120,252.87a1.85,1.85,0,0,1-1.85-1.85,1.85,1.85,0,0,1,1.85-1.86,1.86,1.86,0,0,1,1.86,1.86A1.85,1.85,0,0,1-120,252.87Z" transform="translate(758.13 -6.66)" fill="#fff"/><path d="M-120,263.69a1.85,1.85,0,0,1-1.85-1.85A1.85,1.85,0,0,1-120,260a1.85,1.85,0,0,1,1.86,1.85A1.85,1.85,0,0,1-120,263.69Z" transform="translate(758.13 -6.66)" fill="#fff"/><path d="M-120,274.51a1.85,1.85,0,0,1-1.85-1.85,1.85,1.85,0,0,1,1.85-1.85,1.85,1.85,0,0,1,1.86,1.85A1.85,1.85,0,0,1-120,274.51Z" transform="translate(758.13 -6.66)" fill="#fff"/><path d="M-130.81,198.76a1.85,1.85,0,0,1-1.85-1.85,1.85,1.85,0,0,1,1.85-1.86,1.85,1.85,0,0,1,1.85,1.86A1.85,1.85,0,0,1-130.81,198.76Z" transform="translate(758.13 -6.66)" fill="#fff"/><path d="M-130.81,209.58a1.85,1.85,0,0,1-1.85-1.85,1.85,1.85,0,0,1,1.85-1.85,1.85,1.85,0,0,1,1.85,1.85A1.85,1.85,0,0,1-130.81,209.58Z" transform="translate(758.13 -6.66)" fill="#fff"/><path d="M-130.81,220.4a1.85,1.85,0,0,1-1.85-1.85,1.85,1.85,0,0,1,1.85-1.85,1.85,1.85,0,0,1,1.85,1.85A1.85,1.85,0,0,1-130.81,220.4Z" transform="translate(758.13 -6.66)" fill="#fff"/><path d="M-130.81,231.23a1.85,1.85,0,0,1-1.85-1.86,1.85,1.85,0,0,1,1.85-1.85,1.85,1.85,0,0,1,1.85,1.85A1.85,1.85,0,0,1-130.81,231.23Z" transform="translate(758.13 -6.66)" fill="#fff"/><path d="M-130.81,242.05a1.85,1.85,0,0,1-1.85-1.85,1.85,1.85,0,0,1,1.85-1.86A1.85,1.85,0,0,1-129,240.2,1.85,1.85,0,0,1-130.81,242.05Z" transform="translate(758.13 -6.66)" fill="#fff"/><path d="M-130.81,252.87a1.85,1.85,0,0,1-1.85-1.85,1.85,1.85,0,0,1,1.85-1.86A1.85,1.85,0,0,1-129,251,1.85,1.85,0,0,1-130.81,252.87Z" transform="translate(758.13 -6.66)" fill="#fff"/><path d="M-130.81,263.69a1.85,1.85,0,0,1-1.85-1.85,1.85,1.85,0,0,1,1.85-1.85,1.85,1.85,0,0,1,1.85,1.85A1.85,1.85,0,0,1-130.81,263.69Z" transform="translate(758.13 -6.66)" fill="#fff"/><path d="M-130.81,274.51a1.85,1.85,0,0,1-1.85-1.85,1.85,1.85,0,0,1,1.85-1.85,1.85,1.85,0,0,1,1.85,1.85A1.85,1.85,0,0,1-130.81,274.51Z" transform="translate(758.13 -6.66)" fill="#fff"/><path d="M-141.63,198.76a1.85,1.85,0,0,1-1.85-1.85,1.85,1.85,0,0,1,1.85-1.86,1.85,1.85,0,0,1,1.85,1.86A1.85,1.85,0,0,1-141.63,198.76Z" transform="translate(758.13 -6.66)" fill="#fff"/><path d="M-141.63,209.58a1.85,1.85,0,0,1-1.85-1.85,1.85,1.85,0,0,1,1.85-1.85,1.85,1.85,0,0,1,1.85,1.85A1.85,1.85,0,0,1-141.63,209.58Z" transform="translate(758.13 -6.66)" fill="#fff"/><path d="M-141.63,220.4a1.85,1.85,0,0,1-1.85-1.85,1.85,1.85,0,0,1,1.85-1.85,1.85,1.85,0,0,1,1.85,1.85A1.85,1.85,0,0,1-141.63,220.4Z" transform="translate(758.13 -6.66)" fill="#fff"/><path d="M-141.63,231.23a1.85,1.85,0,0,1-1.85-1.86,1.85,1.85,0,0,1,1.85-1.85,1.85,1.85,0,0,1,1.85,1.85A1.85,1.85,0,0,1-141.63,231.23Z" transform="translate(758.13 -6.66)" fill="#fff"/><path d="M-141.63,242.05a1.85,1.85,0,0,1-1.85-1.85,1.85,1.85,0,0,1,1.85-1.86,1.85,1.85,0,0,1,1.85,1.86A1.85,1.85,0,0,1-141.63,242.05Z" transform="translate(758.13 -6.66)" fill="#fff"/><path d="M-141.63,252.87a1.85,1.85,0,0,1-1.85-1.85,1.85,1.85,0,0,1,1.85-1.86,1.85,1.85,0,0,1,1.85,1.86A1.85,1.85,0,0,1-141.63,252.87Z" transform="translate(758.13 -6.66)" fill="#fff"/><path d="M-141.63,263.69a1.85,1.85,0,0,1-1.85-1.85,1.85,1.85,0,0,1,1.85-1.85,1.85,1.85,0,0,1,1.85,1.85A1.85,1.85,0,0,1-141.63,263.69Z" transform="translate(758.13 -6.66)" fill="#fff"/><path d="M-141.63,274.51a1.85,1.85,0,0,1-1.85-1.85,1.85,1.85,0,0,1,1.85-1.85,1.85,1.85,0,0,1,1.85,1.85A1.85,1.85,0,0,1-141.63,274.51Z" transform="translate(758.13 -6.66)" fill="#fff"/><path d="M-152.45,198.76a1.85,1.85,0,0,1-1.86-1.85,1.86,1.86,0,0,1,1.86-1.86,1.85,1.85,0,0,1,1.85,1.86A1.85,1.85,0,0,1-152.45,198.76Z" transform="translate(758.13 -6.66)" fill="#fff"/><path d="M-152.45,209.58a1.85,1.85,0,0,1-1.86-1.85,1.85,1.85,0,0,1,1.86-1.85,1.85,1.85,0,0,1,1.85,1.85A1.85,1.85,0,0,1-152.45,209.58Z" transform="translate(758.13 -6.66)" fill="#fff"/><path d="M-152.45,220.4a1.85,1.85,0,0,1-1.86-1.85,1.85,1.85,0,0,1,1.86-1.85,1.85,1.85,0,0,1,1.85,1.85A1.85,1.85,0,0,1-152.45,220.4Z" transform="translate(758.13 -6.66)" fill="#fff"/><path d="M-152.45,231.23a1.86,1.86,0,0,1-1.86-1.86,1.85,1.85,0,0,1,1.86-1.85,1.85,1.85,0,0,1,1.85,1.85A1.85,1.85,0,0,1-152.45,231.23Z" transform="translate(758.13 -6.66)" fill="#fff"/><path d="M-152.45,242.05a1.85,1.85,0,0,1-1.86-1.85,1.86,1.86,0,0,1,1.86-1.86,1.85,1.85,0,0,1,1.85,1.86A1.85,1.85,0,0,1-152.45,242.05Z" transform="translate(758.13 -6.66)" fill="#fff"/><path d="M-152.45,252.87a1.85,1.85,0,0,1-1.86-1.85,1.86,1.86,0,0,1,1.86-1.86A1.85,1.85,0,0,1-150.6,251,1.85,1.85,0,0,1-152.45,252.87Z" transform="translate(758.13 -6.66)" fill="#fff"/><path d="M-152.45,263.69a1.85,1.85,0,0,1-1.86-1.85,1.85,1.85,0,0,1,1.86-1.85,1.85,1.85,0,0,1,1.85,1.85A1.85,1.85,0,0,1-152.45,263.69Z" transform="translate(758.13 -6.66)" fill="#fff"/><path d="M-152.45,274.51a1.85,1.85,0,0,1-1.86-1.85,1.85,1.85,0,0,1,1.86-1.85,1.85,1.85,0,0,1,1.85,1.85A1.85,1.85,0,0,1-152.45,274.51Z" transform="translate(758.13 -6.66)" fill="#fff"/><path d="M-163.27,198.76a1.85,1.85,0,0,1-1.86-1.85,1.86,1.86,0,0,1,1.86-1.86,1.85,1.85,0,0,1,1.85,1.86A1.85,1.85,0,0,1-163.27,198.76Z" transform="translate(758.13 -6.66)" fill="#fff"/><path d="M-163.27,209.58a1.85,1.85,0,0,1-1.86-1.85,1.85,1.85,0,0,1,1.86-1.85,1.85,1.85,0,0,1,1.85,1.85A1.85,1.85,0,0,1-163.27,209.58Z" transform="translate(758.13 -6.66)" fill="#fff"/><path d="M-163.27,220.4a1.85,1.85,0,0,1-1.86-1.85,1.85,1.85,0,0,1,1.86-1.85,1.85,1.85,0,0,1,1.85,1.85A1.85,1.85,0,0,1-163.27,220.4Z" transform="translate(758.13 -6.66)" fill="#fff"/><path d="M-163.27,231.23a1.86,1.86,0,0,1-1.86-1.86,1.85,1.85,0,0,1,1.86-1.85,1.85,1.85,0,0,1,1.85,1.85A1.85,1.85,0,0,1-163.27,231.23Z" transform="translate(758.13 -6.66)" fill="#fff"/><path d="M-163.27,242.05a1.85,1.85,0,0,1-1.86-1.85,1.86,1.86,0,0,1,1.86-1.86,1.85,1.85,0,0,1,1.85,1.86A1.85,1.85,0,0,1-163.27,242.05Z" transform="translate(758.13 -6.66)" fill="#fff"/><path d="M-163.27,252.87a1.85,1.85,0,0,1-1.86-1.85,1.86,1.86,0,0,1,1.86-1.86,1.85,1.85,0,0,1,1.85,1.86A1.85,1.85,0,0,1-163.27,252.87Z" transform="translate(758.13 -6.66)" fill="#fff"/><path d="M-163.27,263.69a1.85,1.85,0,0,1-1.86-1.85,1.85,1.85,0,0,1,1.86-1.85,1.85,1.85,0,0,1,1.85,1.85A1.85,1.85,0,0,1-163.27,263.69Z" transform="translate(758.13 -6.66)" fill="#fff"/><path d="M-163.27,274.51a1.85,1.85,0,0,1-1.86-1.85,1.85,1.85,0,0,1,1.86-1.85,1.85,1.85,0,0,1,1.85,1.85A1.85,1.85,0,0,1-163.27,274.51Z" transform="translate(758.13 -6.66)" fill="#fff"/><path d="M-165.93,145.37a1.85,1.85,0,0,1,1.85-1.86,1.85,1.85,0,0,1,1.85,1.86,1.85,1.85,0,0,1-1.85,1.85A1.85,1.85,0,0,1-165.93,145.37Z" transform="translate(758.13 -6.66)" fill="#fff"/><path d="M-176.76,145.37a1.86,1.86,0,0,1,1.86-1.86,1.85,1.85,0,0,1,1.85,1.86,1.85,1.85,0,0,1-1.85,1.85A1.85,1.85,0,0,1-176.76,145.37Z" transform="translate(758.13 -6.66)" fill="#fff"/><path d="M-187.58,145.37a1.85,1.85,0,0,1,1.85-1.86,1.86,1.86,0,0,1,1.86,1.86,1.85,1.85,0,0,1-1.86,1.85A1.85,1.85,0,0,1-187.58,145.37Z" transform="translate(758.13 -6.66)" fill="#fff"/><path d="M-198.4,145.37a1.85,1.85,0,0,1,1.85-1.86,1.86,1.86,0,0,1,1.86,1.86,1.85,1.85,0,0,1-1.86,1.85A1.85,1.85,0,0,1-198.4,145.37Z" transform="translate(758.13 -6.66)" fill="#fff"/><path d="M-209.22,145.37a1.85,1.85,0,0,1,1.85-1.86,1.85,1.85,0,0,1,1.85,1.86,1.85,1.85,0,0,1-1.85,1.85A1.85,1.85,0,0,1-209.22,145.37Z" transform="translate(758.13 -6.66)" fill="#fff"/><path d="M-220,145.37a1.85,1.85,0,0,1,1.85-1.86,1.85,1.85,0,0,1,1.85,1.86,1.85,1.85,0,0,1-1.85,1.85A1.85,1.85,0,0,1-220,145.37Z" transform="translate(758.13 -6.66)" fill="#fff"/><path d="M-230.87,145.37a1.86,1.86,0,0,1,1.86-1.86,1.85,1.85,0,0,1,1.85,1.86,1.85,1.85,0,0,1-1.85,1.85A1.85,1.85,0,0,1-230.87,145.37Z" transform="translate(758.13 -6.66)" fill="#fff"/><path d="M-241.69,145.37a1.86,1.86,0,0,1,1.86-1.86,1.85,1.85,0,0,1,1.85,1.86,1.85,1.85,0,0,1-1.85,1.85A1.85,1.85,0,0,1-241.69,145.37Z" transform="translate(758.13 -6.66)" fill="#fff"/><path d="M-165.93,134.55a1.85,1.85,0,0,1,1.85-1.86,1.85,1.85,0,0,1,1.85,1.86,1.85,1.85,0,0,1-1.85,1.85A1.85,1.85,0,0,1-165.93,134.55Z" transform="translate(758.13 -6.66)" fill="#fff"/><path d="M-176.76,134.55a1.86,1.86,0,0,1,1.86-1.86,1.85,1.85,0,0,1,1.85,1.86,1.85,1.85,0,0,1-1.85,1.85A1.85,1.85,0,0,1-176.76,134.55Z" transform="translate(758.13 -6.66)" fill="#fff"/><path d="M-187.58,134.55a1.85,1.85,0,0,1,1.85-1.86,1.86,1.86,0,0,1,1.86,1.86,1.85,1.85,0,0,1-1.86,1.85A1.85,1.85,0,0,1-187.58,134.55Z" transform="translate(758.13 -6.66)" fill="#fff"/><path d="M-198.4,134.55a1.85,1.85,0,0,1,1.85-1.86,1.86,1.86,0,0,1,1.86,1.86,1.85,1.85,0,0,1-1.86,1.85A1.85,1.85,0,0,1-198.4,134.55Z" transform="translate(758.13 -6.66)" fill="#fff"/><path d="M-209.22,134.55a1.85,1.85,0,0,1,1.85-1.86,1.85,1.85,0,0,1,1.85,1.86,1.85,1.85,0,0,1-1.85,1.85A1.85,1.85,0,0,1-209.22,134.55Z" transform="translate(758.13 -6.66)" fill="#fff"/><path d="M-220,134.55a1.85,1.85,0,0,1,1.85-1.86,1.85,1.85,0,0,1,1.85,1.86,1.85,1.85,0,0,1-1.85,1.85A1.85,1.85,0,0,1-220,134.55Z" transform="translate(758.13 -6.66)" fill="#fff"/><path d="M-230.87,134.55a1.86,1.86,0,0,1,1.86-1.86,1.85,1.85,0,0,1,1.85,1.86A1.85,1.85,0,0,1-229,136.4,1.85,1.85,0,0,1-230.87,134.55Z" transform="translate(758.13 -6.66)" fill="#fff"/><path d="M-241.69,134.55a1.86,1.86,0,0,1,1.86-1.86,1.85,1.85,0,0,1,1.85,1.86,1.85,1.85,0,0,1-1.85,1.85A1.85,1.85,0,0,1-241.69,134.55Z" transform="translate(758.13 -6.66)" fill="#fff"/><circle cx="594.05" cy="117.07" r="1.85" fill="#fff"/><path d="M-176.76,123.72a1.85,1.85,0,0,1,1.86-1.85,1.85,1.85,0,0,1,1.85,1.85,1.85,1.85,0,0,1-1.85,1.86A1.86,1.86,0,0,1-176.76,123.72Z" transform="translate(758.13 -6.66)" fill="#fff"/><path d="M-187.58,123.72a1.85,1.85,0,0,1,1.85-1.85,1.85,1.85,0,0,1,1.86,1.85,1.86,1.86,0,0,1-1.86,1.86A1.85,1.85,0,0,1-187.58,123.72Z" transform="translate(758.13 -6.66)" fill="#fff"/><path d="M-198.4,123.72a1.85,1.85,0,0,1,1.85-1.85,1.85,1.85,0,0,1,1.86,1.85,1.86,1.86,0,0,1-1.86,1.86A1.85,1.85,0,0,1-198.4,123.72Z" transform="translate(758.13 -6.66)" fill="#fff"/><path d="M-209.22,123.72a1.85,1.85,0,0,1,1.85-1.85,1.85,1.85,0,0,1,1.85,1.85,1.85,1.85,0,0,1-1.85,1.86A1.85,1.85,0,0,1-209.22,123.72Z" transform="translate(758.13 -6.66)" fill="#fff"/><path d="M-220,123.72a1.85,1.85,0,0,1,1.85-1.85,1.85,1.85,0,0,1,1.85,1.85,1.85,1.85,0,0,1-1.85,1.86A1.85,1.85,0,0,1-220,123.72Z" transform="translate(758.13 -6.66)" fill="#fff"/><path d="M-230.87,123.72a1.85,1.85,0,0,1,1.86-1.85,1.85,1.85,0,0,1,1.85,1.85,1.85,1.85,0,0,1-1.85,1.86A1.86,1.86,0,0,1-230.87,123.72Z" transform="translate(758.13 -6.66)" fill="#fff"/><path d="M-241.69,123.72a1.85,1.85,0,0,1,1.86-1.85,1.85,1.85,0,0,1,1.85,1.85,1.85,1.85,0,0,1-1.85,1.86A1.86,1.86,0,0,1-241.69,123.72Z" transform="translate(758.13 -6.66)" fill="#fff"/><path d="M-165.93,112.9a1.85,1.85,0,0,1,1.85-1.85,1.85,1.85,0,0,1,1.85,1.85,1.85,1.85,0,0,1-1.85,1.85A1.84,1.84,0,0,1-165.93,112.9Z" transform="translate(758.13 -6.66)" fill="#fff"/><path d="M-176.76,112.9a1.85,1.85,0,0,1,1.86-1.85A1.85,1.85,0,0,1-173,112.9a1.85,1.85,0,0,1-1.85,1.85A1.85,1.85,0,0,1-176.76,112.9Z" transform="translate(758.13 -6.66)" fill="#fff"/><path d="M-187.58,112.9a1.85,1.85,0,0,1,1.85-1.85,1.85,1.85,0,0,1,1.86,1.85,1.85,1.85,0,0,1-1.86,1.85A1.85,1.85,0,0,1-187.58,112.9Z" transform="translate(758.13 -6.66)" fill="#fff"/><path d="M-198.4,112.9a1.85,1.85,0,0,1,1.85-1.85,1.85,1.85,0,0,1,1.86,1.85,1.85,1.85,0,0,1-1.86,1.85A1.85,1.85,0,0,1-198.4,112.9Z" transform="translate(758.13 -6.66)" fill="#fff"/><path d="M-209.22,112.9a1.85,1.85,0,0,1,1.85-1.85,1.85,1.85,0,0,1,1.85,1.85,1.85,1.85,0,0,1-1.85,1.85A1.85,1.85,0,0,1-209.22,112.9Z" transform="translate(758.13 -6.66)" fill="#fff"/><path d="M-220,112.9a1.85,1.85,0,0,1,1.85-1.85,1.85,1.85,0,0,1,1.85,1.85,1.85,1.85,0,0,1-1.85,1.85A1.85,1.85,0,0,1-220,112.9Z" transform="translate(758.13 -6.66)" fill="#fff"/><path d="M-230.87,112.9a1.85,1.85,0,0,1,1.86-1.85,1.85,1.85,0,0,1,1.85,1.85,1.85,1.85,0,0,1-1.85,1.85A1.85,1.85,0,0,1-230.87,112.9Z" transform="translate(758.13 -6.66)" fill="#fff"/><path d="M-241.69,112.9a1.85,1.85,0,0,1,1.86-1.85A1.85,1.85,0,0,1-238,112.9a1.85,1.85,0,0,1-1.85,1.85A1.85,1.85,0,0,1-241.69,112.9Z" transform="translate(758.13 -6.66)" fill="#fff"/><path d="M-165.93,102.08a1.85,1.85,0,0,1,1.85-1.85,1.85,1.85,0,0,1,1.85,1.85,1.85,1.85,0,0,1-1.85,1.85A1.85,1.85,0,0,1-165.93,102.08Z" transform="translate(758.13 -6.66)" fill="#fff"/><path d="M-176.76,102.08a1.85,1.85,0,0,1,1.86-1.85,1.85,1.85,0,0,1,1.85,1.85,1.85,1.85,0,0,1-1.85,1.85A1.85,1.85,0,0,1-176.76,102.08Z" transform="translate(758.13 -6.66)" fill="#fff"/><path d="M-187.58,102.08a1.85,1.85,0,0,1,1.85-1.85,1.85,1.85,0,0,1,1.86,1.85,1.85,1.85,0,0,1-1.86,1.85A1.85,1.85,0,0,1-187.58,102.08Z" transform="translate(758.13 -6.66)" fill="#fff"/><path d="M-198.4,102.08a1.85,1.85,0,0,1,1.85-1.85,1.85,1.85,0,0,1,1.86,1.85,1.85,1.85,0,0,1-1.86,1.85A1.85,1.85,0,0,1-198.4,102.08Z" transform="translate(758.13 -6.66)" fill="#fff"/><path d="M-209.22,102.08a1.85,1.85,0,0,1,1.85-1.85,1.85,1.85,0,0,1,1.85,1.85,1.85,1.85,0,0,1-1.85,1.85A1.85,1.85,0,0,1-209.22,102.08Z" transform="translate(758.13 -6.66)" fill="#fff"/><path d="M-220,102.08a1.85,1.85,0,0,1,1.85-1.85,1.85,1.85,0,0,1,1.85,1.85,1.85,1.85,0,0,1-1.85,1.85A1.85,1.85,0,0,1-220,102.08Z" transform="translate(758.13 -6.66)" fill="#fff"/><path d="M-230.87,102.08a1.85,1.85,0,0,1,1.86-1.85,1.85,1.85,0,0,1,1.85,1.85,1.85,1.85,0,0,1-1.85,1.85A1.85,1.85,0,0,1-230.87,102.08Z" transform="translate(758.13 -6.66)" fill="#fff"/><path d="M-241.69,102.08a1.85,1.85,0,0,1,1.86-1.85,1.85,1.85,0,0,1,1.85,1.85,1.85,1.85,0,0,1-1.85,1.85A1.85,1.85,0,0,1-241.69,102.08Z" transform="translate(758.13 -6.66)" fill="#fff"/><g clip-path="url(#clip-path-2)"><line x1="429.71" y1="266.65" x2="254.79" y2="441.57" fill="none" stroke="#fff" stroke-linecap="round" stroke-linejoin="round" stroke-width="2"/><line x1="436.79" y1="266.65" x2="261.87" y2="441.57" fill="none" stroke="#fff" stroke-linecap="round" stroke-linejoin="round" stroke-width="2"/><line x1="443.87" y1="266.65" x2="268.94" y2="441.57" fill="none" stroke="#fff" stroke-linecap="round" stroke-linejoin="round" stroke-width="2"/><line x1="450.94" y1="266.65" x2="276.02" y2="441.57" fill="none" stroke="#fff" stroke-linecap="round" stroke-linejoin="round" stroke-width="2"/><line x1="458.02" y1="266.65" x2="283.1" y2="441.57" fill="none" stroke="#fff" stroke-linecap="round" stroke-linejoin="round" stroke-width="2"/><line x1="465.1" y1="266.65" x2="290.17" y2="441.57" fill="none" stroke="#fff" stroke-linecap="round" stroke-linejoin="round" stroke-width="2"/><line x1="472.17" y1="266.65" x2="297.25" y2="441.57" fill="none" stroke="#fff" stroke-linecap="round" stroke-linejoin="round" stroke-width="2"/><line x1="479.25" y1="266.65" x2="304.33" y2="441.57" fill="none" stroke="#fff" stroke-linecap="round" stroke-linejoin="round" stroke-width="2"/><line x1="486.33" y1="266.65" x2="311.4" y2="441.57" fill="none" stroke="#fff" stroke-linecap="round" stroke-linejoin="round" stroke-width="2"/><line x1="493.4" y1="266.65" x2="318.48" y2="441.57" fill="none" stroke="#fff" stroke-linecap="round" stroke-linejoin="round" stroke-width="2"/><line x1="500.48" y1="266.65" x2="325.56" y2="441.57" fill="none" stroke="#fff" stroke-linecap="round" stroke-linejoin="round" stroke-width="2"/><line x1="507.56" y1="266.65" x2="332.63" y2="441.57" fill="none" stroke="#fff" stroke-linecap="round" stroke-linejoin="round" stroke-width="2"/><line x1="514.63" y1="266.65" x2="339.71" y2="441.57" fill="none" stroke="#fff" stroke-linecap="round" stroke-linejoin="round" stroke-width="2"/><line x1="521.71" y1="266.65" x2="346.79" y2="441.57" fill="none" stroke="#fff" stroke-linecap="round" stroke-linejoin="round" stroke-width="2"/><line x1="528.79" y1="266.65" x2="353.86" y2="441.57" fill="none" stroke="#fff" stroke-linecap="round" stroke-linejoin="round" stroke-width="2"/><line x1="535.86" y1="266.65" x2="360.94" y2="441.57" fill="none" stroke="#fff" stroke-linecap="round" stroke-linejoin="round" stroke-width="2"/><line x1="542.94" y1="266.65" x2="368.02" y2="441.57" fill="none" stroke="#fff" stroke-linecap="round" stroke-linejoin="round" stroke-width="2"/><line x1="550.02" y1="266.65" x2="375.09" y2="441.57" fill="none" stroke="#fff" stroke-linecap="round" stroke-linejoin="round" stroke-width="2"/><line x1="557.09" y1="266.65" x2="382.17" y2="441.57" fill="none" stroke="#fff" stroke-linecap="round" stroke-linejoin="round" stroke-width="2"/><line x1="564.17" y1="266.65" x2="389.25" y2="441.57" fill="none" stroke="#fff" stroke-linecap="round" stroke-linejoin="round" stroke-width="2"/><line x1="571.25" y1="266.65" x2="396.32" y2="441.57" fill="none" stroke="#fff" stroke-linecap="round" stroke-linejoin="round" stroke-width="2"/><line x1="578.32" y1="266.65" x2="403.4" y2="441.57" fill="none" stroke="#fff" stroke-linecap="round" stroke-linejoin="round" stroke-width="2"/><line x1="585.4" y1="266.65" x2="410.48" y2="441.57" fill="none" stroke="#fff" stroke-linecap="round" stroke-linejoin="round" stroke-width="2"/><line x1="592.48" y1="266.65" x2="417.55" y2="441.57" fill="none" stroke="#fff" stroke-linecap="round" stroke-linejoin="round" stroke-width="2"/><line x1="599.55" y1="266.65" x2="424.63" y2="441.57" fill="none" stroke="#fff" stroke-linecap="round" stroke-linejoin="round" stroke-width="2"/><line x1="606.63" y1="266.65" x2="431.71" y2="441.57" fill="none" stroke="#fff" stroke-linecap="round" stroke-linejoin="round" stroke-width="2"/><line x1="613.71" y1="266.65" x2="438.79" y2="441.57" fill="none" stroke="#fff" stroke-linecap="round" stroke-linejoin="round" stroke-width="2"/><line x1="620.79" y1="266.65" x2="445.86" y2="441.57" fill="none" stroke="#fff" stroke-linecap="round" stroke-linejoin="round" stroke-width="2"/><line x1="627.86" y1="266.65" x2="452.94" y2="441.57" fill="none" stroke="#fff" stroke-linecap="round" stroke-linejoin="round" stroke-width="2"/><line x1="634.94" y1="266.65" x2="460.02" y2="441.57" fill="none" stroke="#fff" stroke-linecap="round" stroke-linejoin="round" stroke-width="2"/><line x1="642.02" y1="266.65" x2="467.09" y2="441.57" fill="none" stroke="#fff" stroke-linecap="round" stroke-linejoin="round" stroke-width="2"/><line x1="649.09" y1="266.65" x2="474.17" y2="441.57" fill="none" stroke="#fff" stroke-linecap="round" stroke-linejoin="round" stroke-width="2"/><line x1="656.17" y1="266.65" x2="481.25" y2="441.57" fill="none" stroke="#fff" stroke-linecap="round" stroke-linejoin="round" stroke-width="2"/><line x1="663.25" y1="266.65" x2="488.32" y2="441.57" fill="none" stroke="#fff" stroke-linecap="round" stroke-linejoin="round" stroke-width="2"/><line x1="670.32" y1="266.65" x2="495.4" y2="441.57" fill="none" stroke="#fff" stroke-linecap="round" stroke-linejoin="round" stroke-width="2"/></g><g clip-path="url(#clip-path-3)"><line x1="295.85" y1="22.89" x2="120.93" y2="197.81" fill="none" stroke="#fff" stroke-linecap="round" stroke-linejoin="round" stroke-width="2"/><line x1="302.93" y1="22.89" x2="128" y2="197.81" fill="none" stroke="#fff" stroke-linecap="round" stroke-linejoin="round" stroke-width="2"/><line x1="310" y1="22.89" x2="135.08" y2="197.81" fill="none" stroke="#fff" stroke-linecap="round" stroke-linejoin="round" stroke-width="2"/><line x1="317.08" y1="22.89" x2="142.16" y2="197.81" fill="none" stroke="#fff" stroke-linecap="round" stroke-linejoin="round" stroke-width="2"/><line x1="324.16" y1="22.89" x2="149.23" y2="197.81" fill="none" stroke="#fff" stroke-linecap="round" stroke-linejoin="round" stroke-width="2"/><line x1="331.23" y1="22.89" x2="156.31" y2="197.81" fill="none" stroke="#fff" stroke-linecap="round" stroke-linejoin="round" stroke-width="2"/><line x1="338.31" y1="22.89" x2="163.39" y2="197.81" fill="none" stroke="#fff" stroke-linecap="round" stroke-linejoin="round" stroke-width="2"/><line x1="345.39" y1="22.89" x2="170.46" y2="197.81" fill="none" stroke="#fff" stroke-linecap="round" stroke-linejoin="round" stroke-width="2"/><line x1="352.46" y1="22.89" x2="177.54" y2="197.81" fill="none" stroke="#fff" stroke-linecap="round" stroke-linejoin="round" stroke-width="2"/><line x1="359.54" y1="22.89" x2="184.62" y2="197.81" fill="none" stroke="#fff" stroke-linecap="round" stroke-linejoin="round" stroke-width="2"/><line x1="366.62" y1="22.89" x2="191.7" y2="197.81" fill="none" stroke="#fff" stroke-linecap="round" stroke-linejoin="round" stroke-width="2"/><line x1="373.69" y1="22.89" x2="198.77" y2="197.81" fill="none" stroke="#fff" stroke-linecap="round" stroke-linejoin="round" stroke-width="2"/><line x1="380.77" y1="22.89" x2="205.85" y2="197.81" fill="none" stroke="#fff" stroke-linecap="round" stroke-linejoin="round" stroke-width="2"/><line x1="387.85" y1="22.89" x2="212.93" y2="197.81" fill="none" stroke="#fff" stroke-linecap="round" stroke-linejoin="round" stroke-width="2"/><line x1="394.93" y1="22.89" x2="220" y2="197.81" fill="none" stroke="#fff" stroke-linecap="round" stroke-linejoin="round" stroke-width="2"/><line x1="402" y1="22.89" x2="227.08" y2="197.81" fill="none" stroke="#fff" stroke-linecap="round" stroke-linejoin="round" stroke-width="2"/><line x1="409.08" y1="22.89" x2="234.16" y2="197.81" fill="none" stroke="#fff" stroke-linecap="round" stroke-linejoin="round" stroke-width="2"/><line x1="416.16" y1="22.89" x2="241.23" y2="197.81" fill="none" stroke="#fff" stroke-linecap="round" stroke-linejoin="round" stroke-width="2"/><line x1="423.23" y1="22.89" x2="248.31" y2="197.81" fill="none" stroke="#fff" stroke-linecap="round" stroke-linejoin="round" stroke-width="2"/><line x1="430.31" y1="22.89" x2="255.39" y2="197.81" fill="none" stroke="#fff" stroke-linecap="round" stroke-linejoin="round" stroke-width="2"/><line x1="437.39" y1="22.89" x2="262.46" y2="197.81" fill="none" stroke="#fff" stroke-linecap="round" stroke-linejoin="round" stroke-width="2"/><line x1="444.46" y1="22.89" x2="269.54" y2="197.81" fill="none" stroke="#fff" stroke-linecap="round" stroke-linejoin="round" stroke-width="2"/><line x1="451.54" y1="22.89" x2="276.62" y2="197.81" fill="none" stroke="#fff" stroke-linecap="round" stroke-linejoin="round" stroke-width="2"/><line x1="458.62" y1="22.89" x2="283.69" y2="197.81" fill="none" stroke="#fff" stroke-linecap="round" stroke-linejoin="round" stroke-width="2"/><line x1="465.69" y1="22.89" x2="290.77" y2="197.81" fill="none" stroke="#fff" stroke-linecap="round" stroke-linejoin="round" stroke-width="2"/><line x1="472.77" y1="22.89" x2="297.85" y2="197.81" fill="none" stroke="#fff" stroke-linecap="round" stroke-linejoin="round" stroke-width="2"/><line x1="479.85" y1="22.89" x2="304.92" y2="197.81" fill="none" stroke="#fff" stroke-linecap="round" stroke-linejoin="round" stroke-width="2"/><line x1="486.92" y1="22.89" x2="312" y2="197.81" fill="none" stroke="#fff" stroke-linecap="round" stroke-linejoin="round" stroke-width="2"/><line x1="494" y1="22.89" x2="319.08" y2="197.81" fill="none" stroke="#fff" stroke-linecap="round" stroke-linejoin="round" stroke-width="2"/><line x1="501.08" y1="22.89" x2="326.15" y2="197.81" fill="none" stroke="#fff" stroke-linecap="round" stroke-linejoin="round" stroke-width="2"/><line x1="508.15" y1="22.89" x2="333.23" y2="197.81" fill="none" stroke="#fff" stroke-linecap="round" stroke-linejoin="round" stroke-width="2"/><line x1="515.23" y1="22.89" x2="340.31" y2="197.81" fill="none" stroke="#fff" stroke-linecap="round" stroke-linejoin="round" stroke-width="2"/><line x1="522.31" y1="22.89" x2="347.38" y2="197.81" fill="none" stroke="#fff" stroke-linecap="round" stroke-linejoin="round" stroke-width="2"/><line x1="529.38" y1="22.89" x2="354.46" y2="197.81" fill="none" stroke="#fff" stroke-linecap="round" stroke-linejoin="round" stroke-width="2"/><line x1="536.46" y1="22.89" x2="361.54" y2="197.81" fill="none" stroke="#fff" stroke-linecap="round" stroke-linejoin="round" stroke-width="2"/></g><g clip-path="url(#clip-path-4)"><line x1="587.21" y1="403.63" x2="412.29" y2="578.56" fill="none" stroke="#fff" stroke-linecap="round" stroke-linejoin="round" stroke-width="2"/><line x1="594.29" y1="403.63" x2="419.36" y2="578.56" fill="none" stroke="#fff" stroke-linecap="round" stroke-linejoin="round" stroke-width="2"/><line x1="601.36" y1="403.63" x2="426.44" y2="578.56" fill="none" stroke="#fff" stroke-linecap="round" stroke-linejoin="round" stroke-width="2"/><line x1="608.44" y1="403.63" x2="433.52" y2="578.56" fill="none" stroke="#fff" stroke-linecap="round" stroke-linejoin="round" stroke-width="2"/><line x1="615.52" y1="403.63" x2="440.59" y2="578.56" fill="none" stroke="#fff" stroke-linecap="round" stroke-linejoin="round" stroke-width="2"/><line x1="622.59" y1="403.63" x2="447.67" y2="578.56" fill="none" stroke="#fff" stroke-linecap="round" stroke-linejoin="round" stroke-width="2"/><line x1="629.67" y1="403.63" x2="454.75" y2="578.56" fill="none" stroke="#fff" stroke-linecap="round" stroke-linejoin="round" stroke-width="2"/><line x1="636.75" y1="403.63" x2="461.82" y2="578.56" fill="none" stroke="#fff" stroke-linecap="round" stroke-linejoin="round" stroke-width="2"/><line x1="643.82" y1="403.63" x2="468.9" y2="578.56" fill="none" stroke="#fff" stroke-linecap="round" stroke-linejoin="round" stroke-width="2"/><line x1="650.9" y1="403.63" x2="475.98" y2="578.56" fill="none" stroke="#fff" stroke-linecap="round" stroke-linejoin="round" stroke-width="2"/><line x1="657.98" y1="403.63" x2="483.05" y2="578.56" fill="none" stroke="#fff" stroke-linecap="round" stroke-linejoin="round" stroke-width="2"/><line x1="665.05" y1="403.63" x2="490.13" y2="578.56" fill="none" stroke="#fff" stroke-linecap="round" stroke-linejoin="round" stroke-width="2"/><line x1="672.13" y1="403.63" x2="497.21" y2="578.56" fill="none" stroke="#fff" stroke-linecap="round" stroke-linejoin="round" stroke-width="2"/><line x1="679.21" y1="403.63" x2="504.28" y2="578.56" fill="none" stroke="#fff" stroke-linecap="round" stroke-linejoin="round" stroke-width="2"/><line x1="686.28" y1="403.63" x2="511.36" y2="578.56" fill="none" stroke="#fff" stroke-linecap="round" stroke-linejoin="round" stroke-width="2"/><line x1="693.36" y1="403.63" x2="518.44" y2="578.56" fill="none" stroke="#fff" stroke-linecap="round" stroke-linejoin="round" stroke-width="2"/><line x1="700.44" y1="403.63" x2="525.51" y2="578.56" fill="none" stroke="#fff" stroke-linecap="round" stroke-linejoin="round" stroke-width="2"/><line x1="707.51" y1="403.63" x2="532.59" y2="578.56" fill="none" stroke="#fff" stroke-linecap="round" stroke-linejoin="round" stroke-width="2"/><line x1="714.59" y1="403.63" x2="539.67" y2="578.56" fill="none" stroke="#fff" stroke-linecap="round" stroke-linejoin="round" stroke-width="2"/><line x1="721.67" y1="403.63" x2="546.74" y2="578.56" fill="none" stroke="#fff" stroke-linecap="round" stroke-linejoin="round" stroke-width="2"/><line x1="728.74" y1="403.63" x2="553.82" y2="578.56" fill="none" stroke="#fff" stroke-linecap="round" stroke-linejoin="round" stroke-width="2"/><line x1="735.82" y1="403.63" x2="560.9" y2="578.56" fill="none" stroke="#fff" stroke-linecap="round" stroke-linejoin="round" stroke-width="2"/><line x1="742.9" y1="403.63" x2="567.97" y2="578.56" fill="none" stroke="#fff" stroke-linecap="round" stroke-linejoin="round" stroke-width="2"/><line x1="749.97" y1="403.63" x2="575.05" y2="578.56" fill="none" stroke="#fff" stroke-linecap="round" stroke-linejoin="round" stroke-width="2"/><line x1="757.05" y1="403.63" x2="582.13" y2="578.56" fill="none" stroke="#fff" stroke-linecap="round" stroke-linejoin="round" stroke-width="2"/><line x1="764.13" y1="403.63" x2="589.2" y2="578.56" fill="none" stroke="#fff" stroke-linecap="round" stroke-linejoin="round" stroke-width="2"/><line x1="771.2" y1="403.63" x2="596.28" y2="578.56" fill="none" stroke="#fff" stroke-linecap="round" stroke-linejoin="round" stroke-width="2"/><line x1="778.28" y1="403.63" x2="603.36" y2="578.56" fill="none" stroke="#fff" stroke-linecap="round" stroke-linejoin="round" stroke-width="2"/><line x1="785.36" y1="403.63" x2="610.43" y2="578.56" fill="none" stroke="#fff" stroke-linecap="round" stroke-linejoin="round" stroke-width="2"/><line x1="792.43" y1="403.63" x2="617.51" y2="578.56" fill="none" stroke="#fff" stroke-linecap="round" stroke-linejoin="round" stroke-width="2"/><line x1="799.51" y1="403.63" x2="624.59" y2="578.56" fill="none" stroke="#fff" stroke-linecap="round" stroke-linejoin="round" stroke-width="2"/><line x1="806.59" y1="403.63" x2="631.66" y2="578.56" fill="none" stroke="#fff" stroke-linecap="round" stroke-linejoin="round" stroke-width="2"/><line x1="813.66" y1="403.63" x2="638.74" y2="578.56" fill="none" stroke="#fff" stroke-linecap="round" stroke-linejoin="round" stroke-width="2"/><line x1="820.74" y1="403.63" x2="645.82" y2="578.56" fill="none" stroke="#fff" stroke-linecap="round" stroke-linejoin="round" stroke-width="2"/><line x1="827.82" y1="403.63" x2="652.9" y2="578.56" fill="none" stroke="#fff" stroke-linecap="round" stroke-linejoin="round" stroke-width="2"/></g><polygon points="619.88 308.39 619.88 321.29 631.05 314.84 619.88 308.39" fill="none" stroke="#fff" stroke-linecap="round" stroke-linejoin="round" stroke-width="2"/><polygon points="533.71 185.45 526.88 174.51 520.82 185.9 533.71 185.45" fill="none" stroke="#fff" stroke-linecap="round" stroke-linejoin="round" stroke-width="2"/><polygon points="551.17 419.5 544.34 408.56 538.28 419.95 551.17 419.5" fill="none" stroke="#fff" stroke-linecap="round" stroke-linejoin="round" stroke-width="2"/></g></g></g></g></g></svg>