<?xml version="1.0" encoding="UTF-8"?>
<svg width="56px" height="75px" viewBox="0 0 56 75" version="1.1" xmlns="http://www.w3.org/2000/svg" xmlns:xlink="http://www.w3.org/1999/xlink">
    <!-- Generator: Sketch 61 (89581) - https://sketch.com -->
    <title>Learn &amp; Innovate Together - Active</title>
    <desc>Created with Sketch.</desc>
    <g id="Page-1" stroke="none" stroke-width="1" fill="none" fill-rule="evenodd">
        <g id="Home-Page-USPs-Copy-2" transform="translate(-248.000000, -131.000000)" fill="#CB097A" fill-rule="nonzero" stroke="#FFFFFF">
            <g id="Learn-&amp;-Innovate-Together---Active" transform="translate(249.000000, 132.000000)">
                <path d="M41.0795147,49.6111941 C49.517121,44.4907599 54.459745,35.2107266 53.9662113,25.4157519 L53.9662113,25.4157519 C53.1684475,11.8009731 42.2520106,0.914609473 28.522963,0.04259615 C21.1093361,-0.372293563 13.8505584,2.25774136 8.45415614,7.31402181 C3.05775393,12.3703023 0.000202797324,19.4064994 0.000202797324,26.7674458 C-0.0363796294,36.1123502 4.87855767,44.790303 12.9460151,49.6245773 C14.7749553,50.7031273 15.9127651,52.6411221 15.9553655,54.7503075 C13.921901,54.7503075 12.2734522,56.3844407 12.2734522,58.400246 L12.2734522,63.2668307 C12.2734522,65.2826361 13.921901,66.9167692 15.9553655,66.9167692 L18.4099744,66.9167692 L18.4099744,69.3500615 C18.4099744,71.3658669 20.0584232,73 22.0918877,73 L31.9103232,73 C33.9437878,73 35.5922365,71.3658669 35.5922365,69.3500615 L35.5922365,66.9167692 L38.0468454,66.9167692 C40.08031,66.9167692 41.7287587,65.2826361 41.7287587,63.2668307 L41.7287587,58.400246 C41.7287615,56.3868139 40.0840496,54.7536633 38.0529819,54.7503075 C38.1002193,52.6344733 39.2440985,50.6921434 41.0795147,49.6111941 Z M51.5116024,25.5349832 L51.5116024,25.5349832 C51.5312393,25.9474263 51.5300271,26.3562194 51.5300271,26.7662291 L43.2383432,26.7662291 C42.753159,26.7664491 42.313647,27.0499957 42.1169645,27.4896749 C41.920282,27.929354 42.003352,28.4426257 42.3289106,28.7992449 C42.7333693,29.2427308 42.9569207,29.819524 42.9560632,30.4173843 C42.9560632,31.7612545 41.8570973,32.8506766 40.5014543,32.8506766 C39.1458112,32.8506766 38.0468454,31.7612545 38.0468454,30.4173843 C38.0462926,29.8199434 38.2698237,29.2436364 38.673998,28.8004615 C38.9995566,28.4438423 39.0826266,27.9305707 38.8859441,27.4908915 C38.6892616,27.0512123 38.2497495,26.7676657 37.7645654,26.7674458 L28.2284099,26.7674458 L28.2284099,19.3130547 C30.2161062,19.8217837 32.3132328,19.0507497 33.4855872,17.3801896 C34.6579415,15.7096296 34.6579415,13.4923387 33.4855872,11.8217786 C32.3132328,10.1512186 30.2161062,9.38018454 28.2284099,9.88891355 L28.2284099,2.46737195 C28.2824113,2.46737195 28.3351854,2.46737195 28.3891868,2.46737195 C40.8701338,3.25997268 50.7935763,13.1577933 51.5165116,25.5349832 L51.5116024,25.5349832 Z M10.1293514,9.09201032 C14.3694461,5.0886974 19.9245508,2.73682171 25.773801,2.4685886 L25.773801,11.8878632 C25.7740229,12.3688338 26.0600535,12.8045291 26.5035844,12.9995035 C26.9471154,13.1944779 27.4648834,13.1121294 27.8246268,12.789398 C28.2717465,12.3888345 28.8530614,12.1672602 29.4557143,12.1676918 C30.8113574,12.1676918 31.9103232,13.2571139 31.9103232,14.6009841 C31.9103232,15.9448544 30.8113574,17.0342765 29.4557143,17.0342765 C28.8530614,17.0347081 28.2717465,16.8131338 27.8246268,16.4125703 C27.4648834,16.0898389 26.9471154,16.0074903 26.5035844,16.2024648 C26.0600535,16.3974392 25.7740229,16.8331344 25.773801,17.3141051 L25.773801,26.7674458 L18.2541068,26.7674458 C18.7672924,24.7970112 17.9895038,22.7180967 16.304309,21.5559234 C14.6191143,20.3937501 12.382399,20.3937501 10.6972043,21.5559234 C9.01200954,22.7180967 8.23422092,24.7970112 8.74740659,26.7674458 L2.45482312,26.7674458 C2.42810359,20.0752231 5.20787333,13.6728908 10.1293514,9.09201032 Z M2.58756562,29.2007381 L10.7638678,29.2007381 C11.2490519,29.2005182 11.688564,28.9169716 11.8852465,28.4772924 C12.081929,28.0376132 11.998859,27.5243416 11.6733004,27.1677224 C11.2691261,26.7245475 11.045595,26.1482405 11.0461478,25.5507996 C11.0461478,24.2069294 12.1451136,23.1175073 13.5007567,23.1175073 C14.8563997,23.1175073 15.9553655,24.2069294 15.9553655,25.5507996 C15.9559183,26.1482405 15.7323873,26.7245475 15.328213,27.1677224 C15.0026543,27.5243416 14.9195844,28.0376132 15.1162669,28.4772924 C15.3129493,28.9169716 15.7524614,29.2005182 16.2376456,29.2007381 L25.773801,29.2007381 L25.773801,36.6551292 C23.7861047,36.1464001 21.6889781,36.9174342 20.5166238,38.5879942 C19.3442694,40.2585543 19.3442694,42.4758452 20.5166238,44.1464052 C21.6889781,45.8169653 23.7861047,46.5879993 25.773801,46.0792703 L25.773801,54.7503075 L18.4099744,54.7503075 C18.3714847,51.7915428 16.7865289,49.0646433 14.223639,47.5477623 C7.63840591,43.5983134 3.32392752,36.7955169 2.58756562,29.2007381 L2.58756562,29.2007381 Z M33.1376277,69.3500615 C33.1376277,70.0219966 32.5881447,70.5667077 31.9103232,70.5667077 L22.0918877,70.5667077 C21.4140662,70.5667077 20.8645833,70.0219966 20.8645833,69.3500615 L20.8645833,66.9167692 L33.1376277,66.9167692 L33.1376277,69.3500615 Z M39.2741498,58.400246 L39.2741498,63.2668307 C39.2741498,63.9387658 38.7246669,64.4834769 38.0468454,64.4834769 L15.9553655,64.4834769 C15.277544,64.4834769 14.7280611,63.9387658 14.7280611,63.2668307 L14.7280611,58.400246 C14.7280611,57.7283109 15.277544,57.1835999 15.9553655,57.1835999 L38.0468454,57.1835999 C38.7246669,57.1835999 39.2741498,57.7283109 39.2741498,58.400246 Z M35.5922365,54.7503075 L28.2284099,54.7503075 L28.2284099,44.0803207 C28.2281881,43.59935 27.9421575,43.1636548 27.4986265,42.9686804 C27.0550956,42.7737059 26.5373275,42.8560545 26.1775842,43.1787859 C25.7304645,43.5793494 25.1491495,43.8009237 24.5464966,43.8004921 C23.1908536,43.8004921 22.0918877,42.71107 22.0918877,41.3671997 C22.0918877,40.0233295 23.1908536,38.9339074 24.5464966,38.9339074 C25.1491495,38.9334758 25.7304645,39.1550501 26.1775842,39.5556136 C26.5373275,39.878345 27.0550956,39.9606935 27.4986265,39.7657191 C27.9421575,39.5707447 28.2281881,39.1350494 28.2284099,38.6540788 L28.2284099,29.2007381 L35.7481042,29.2007381 C35.2349185,31.1711727 36.0127071,33.2500872 37.6979019,34.4122605 C39.3830967,35.5744338 41.6198119,35.5744338 43.3050067,34.4122605 C44.9902014,33.2500872 45.76799,31.1711727 45.2548044,29.2007381 L51.4121907,29.2007381 C50.6455159,36.7759456 46.3488925,43.5596917 39.7994361,47.5355958 C37.2301049,49.05479 35.6380198,51.7849755 35.5922365,54.7503075 L35.5922365,54.7503075 Z" id="Shape"></path>
            </g>
        </g>
    </g>
</svg>