<?xml version="1.0" encoding="UTF-8"?>
<svg width="76px" height="68px" viewBox="0 0 76 68" version="1.1" xmlns="http://www.w3.org/2000/svg" xmlns:xlink="http://www.w3.org/1999/xlink">
    <!-- Generator: Sketch 61 (89581) - https://sketch.com -->
    <title>Peer-to-Peer Learning - Active</title>
    <desc>Created with Sketch.</desc>
    <g id="Page-1" stroke="none" stroke-width="1" fill="none" fill-rule="evenodd">
        <g id="Home-Page-USPs-Copy-2" transform="translate(-413.000000, -320.000000)" fill="#CB097A" fill-rule="nonzero" stroke="#FFFFFF">
            <g id="Peer-to-Peer-Learning---Active" transform="translate(414.000000, 321.000000)">
                <path d="M46.0158064,47.200899 L46.0157202,47.2008414 L38.89972,42.4451864 L38.89972,36.1048029 C38.89972,34.9890943 38.0407086,34.1 36.9999693,34.1 C35.9593665,34.1 35.1002186,34.9893047 35.1002186,36.1048029 L35.1002186,42.4451864 L34.6114254,42.7718491 L27.984291,47.2007929 C27.0891192,47.7991429 26.8273347,49.057454 27.4132079,49.9967784 C27.9850465,50.9134792 29.1438067,51.1715839 30.0161198,50.5888098 L36.9999604,45.9211514 L37.6111934,46.3296578 L43.9834159,50.5884167 C44.2929672,50.7952738 44.6413742,50.9 44.9967158,50.9 C45.630098,50.9 46.2287293,50.570038 46.5865547,49.9965193 C47.172728,49.0574195 46.9109347,47.7989952 46.0158064,47.200899 Z" id="Path" stroke-width="2.2"></path>
                <path d="M26.3804837,29.2360132 L47.6191721,29.2360132 C48.094493,29.2360132 48.4796372,28.8514826 48.4796372,28.3769188 L48.4796372,18.5416625 C48.4796372,14.8716113 45.7175442,11.8331662 42.159693,11.3905608 C43.2456,10.1610249 43.8689209,8.56242203 43.8689209,6.85797875 C43.8689209,3.07658885 40.7874233,0 37,0 C33.2125767,0 30.1310791,3.07658885 30.1310791,6.85797875 C30.1310791,8.56242203 30.7544,10.1610249 31.840307,11.3905608 C28.2824558,11.8335099 25.5200186,14.8716113 25.5200186,18.5416625 L25.5200186,28.3769188 C25.5200186,28.8514826 25.9051628,29.2360132 26.3804837,29.2360132 L26.3804837,29.2360132 Z M27.2409488,18.5416625 C27.2409488,15.5152448 29.7070419,13.0530803 32.7382884,13.0530803 L34.2523628,13.0530803 C34.6495535,13.0530803 34.9951163,12.7816064 35.0887349,12.3963885 C35.1823535,12.0111706 34.9995907,11.6118635 34.6464558,11.4304228 C32.9227721,10.5438374 31.8520093,8.79197206 31.8520093,6.85797875 C31.8520093,4.02365452 34.1611535,1.71818879 37,1.71818879 C39.8385023,1.71818879 42.1479907,4.02365452 42.1479907,6.85797875 C42.1479907,8.79197206 41.0775721,10.544181 39.3538884,11.4304228 C39.0007535,11.6118635 38.8179907,12.0111706 38.9116093,12.3963885 C39.0048837,12.7819501 39.3504465,13.0530803 39.7479814,13.0530803 L41.2617116,13.0530803 C44.2929581,13.0530803 46.7590512,15.5152448 46.7590512,18.5416625 L46.7590512,27.5178244 L27.2409488,27.5178244 L27.2409488,18.5416625 Z M16.6396744,48.3518945 C17.7252372,47.1223586 18.3485581,45.5237557 18.3485581,43.8193124 C18.3485581,40.0379225 15.2670605,36.9613337 11.4796372,36.9613337 C7.69221395,36.9613337 4.61071628,40.0379225 4.61071628,43.8193124 C4.61071628,45.5237557 5.23403721,47.1223586 6.3196,48.3518945 C2.76243721,48.7948436 0,51.832945 0,55.5029962 L0,65.3382525 C0,65.8128163 0.385144186,66.1973469 0.860465116,66.1973469 L22.0994977,66.1973469 C22.5748186,66.1973469 22.9599628,65.8128163 22.9599628,65.3382525 L22.9599628,55.5029962 C22.9599628,51.832945 20.1975256,48.7948436 16.6396744,48.3518945 Z M21.2390326,64.4791581 L1.72093023,64.4791581 L1.72093023,55.5029962 C1.72093023,52.4765785 4.18702326,50.014414 7.21826977,50.014414 L8.73234419,50.014414 C9.12953488,50.014414 9.47509767,49.7429401 9.56871628,49.3577222 C9.66233488,48.9725043 9.47957209,48.5731972 9.12643721,48.3917565 C7.40275349,47.5055147 6.3319907,45.7533057 6.3319907,43.8193124 C6.3319907,40.9849882 8.64113488,38.6795225 11.4799814,38.6795225 C14.3184837,38.6795225 16.6279721,40.9849882 16.6279721,43.8193124 C16.6279721,45.7533057 15.5572093,47.5055147 13.8335256,48.3917565 C13.4807349,48.5731972 13.2976279,48.9725043 13.3912465,49.3577222 C13.4848651,49.7432838 13.8304279,50.014414 14.2276186,50.014414 L15.741693,50.014414 C18.7729395,50.014414 21.2390326,52.4765785 21.2390326,55.5029962 L21.2390326,64.4791581 Z M67.6797116,48.3518945 C68.7656186,47.1223586 69.3889395,45.5237557 69.3889395,43.8193124 C69.3889395,40.0379225 66.307786,36.9613337 62.5203628,36.9613337 C58.7329395,36.9613337 55.6514419,40.0379225 55.6514419,43.8193124 C55.6514419,45.5237557 56.2747628,47.1223586 57.3606698,48.3518945 C53.8024744,48.7944999 51.0403814,51.8326013 51.0403814,55.5029962 L51.0403814,65.3382525 C51.0403814,65.8128163 51.4255256,66.1973469 51.9008465,66.1973469 L73.1395349,66.1973469 C73.6148558,66.1973469 74,65.8128163 74,65.3382525 L74,55.5029962 C74,51.832945 71.237907,48.7944999 67.6797116,48.3518945 L67.6797116,48.3518945 Z M72.2790698,64.4791581 L52.7609674,64.4791581 L52.7609674,55.5029962 C52.7609674,52.4765785 55.2270605,50.014414 58.258307,50.014414 L59.7723814,50.014414 C60.1695721,50.014414 60.5151349,49.7429401 60.6087535,49.3577222 C60.7020279,48.9725043 60.5196093,48.5731972 60.1664744,48.3917565 C58.4427907,47.5055147 57.3723721,45.7533057 57.3723721,43.8193124 C57.3723721,40.9849882 59.6818605,38.6795225 62.5203628,38.6795225 C65.3588651,38.6795225 67.6680093,40.9849882 67.6680093,43.8193124 C67.6680093,45.7533057 66.5975907,47.5055147 64.873907,48.3917565 C64.5207721,48.5731972 64.3380093,48.9725043 64.4316279,49.3577222 C64.5249023,49.7432838 64.8704651,50.014414 65.268,50.014414 L66.7820744,50.014414 C69.8133209,50.014414 72.279414,52.4765785 72.279414,55.5029962 L72.279414,64.4791581 L72.2790698,64.4791581 Z" id="Shape" stroke-width="0.2"></path>
            </g>
        </g>
    </g>
</svg>