<svg xmlns="http://www.w3.org/2000/svg" width="37.453" height="23.76" viewBox="0 0 37.453 23.76">
  <g id="Student" transform="translate(-1066.2 -483.5)">
    <path id="Subtraction_9" data-name="Subtraction 9" d="M.761,17.275A.759.759,0,0,1,0,16.522V14.465a2.2,2.2,0,0,1,.8-1.708A24.552,24.552,0,0,1,4.869,10.1V7.939a2.1,2.1,0,0,1-.6-1.481v-3A3.468,3.468,0,0,1,7.73,0h.644a3.468,3.468,0,0,1,3.464,3.463V6.45a2.1,2.1,0,0,1-.6,1.48v2.159l.039.02.049.026.1.052A4.469,4.469,0,0,0,10.268,11.3l-.053-.026a.908.908,0,0,1-.5-.8V7.58a.763.763,0,0,1,.334-.628.584.584,0,0,0,.269-.493v-3A1.943,1.943,0,0,0,8.374,1.522H7.73A1.943,1.943,0,0,0,5.789,3.463v3a.584.584,0,0,0,.269.493.747.747,0,0,1,.334.628v2.895a.908.908,0,0,1-.5.8,22.941,22.941,0,0,0-4.115,2.643.7.7,0,0,0-.251.536v2.058A.762.762,0,0,1,.761,17.275Z" transform="translate(1066.5 489.631)" fill="#00144c" stroke="#00144c" stroke-width="0.6"/>
    <path id="Subtraction_8" data-name="Subtraction 8" d="M11.076,17.275a.762.762,0,0,1-.762-.761V14.457a.7.7,0,0,0-.25-.536,22.347,22.347,0,0,0-4.116-2.643.909.909,0,0,1-.5-.8V7.58a.76.76,0,0,1,.334-.628.586.586,0,0,0,.267-.493v-3A1.943,1.943,0,0,0,4.107,1.522H3.463a1.943,1.943,0,0,0-1.94,1.941v3a.586.586,0,0,0,.267.493.747.747,0,0,1,.334.628v2.895a.909.909,0,0,1-.5.8c-.066.033-.17.084-.318.162A4.256,4.256,0,0,0,.15,10.34c.156-.086.3-.165.452-.243V7.939A2.1,2.1,0,0,1,0,6.458v-3A3.467,3.467,0,0,1,3.463,0h.644A3.468,3.468,0,0,1,7.571,3.463V6.45a2.1,2.1,0,0,1-.6,1.48v2.159a24.2,24.2,0,0,1,4.067,2.66,2.2,2.2,0,0,1,.8,1.708v2.058A.762.762,0,0,1,11.076,17.275Z" transform="translate(1091.517 489.631)" fill="#00144c" stroke="#00144c" stroke-width="0.6"/>
    <path id="Path_3687" data-name="Path 3687" d="M149.547,52.21a1.051,1.051,0,0,0,1.047-1.047v-2.83a.957.957,0,0,1,.345-.736A31.662,31.662,0,0,1,156.6,43.96a1.243,1.243,0,0,0,.69-1.1V38.874a1.029,1.029,0,0,0-.46-.863.806.806,0,0,1-.368-.679V33.213a2.671,2.671,0,0,1,2.669-2.669h.886a2.671,2.671,0,0,1,2.669,2.669v4.119a.806.806,0,0,1-.368.679,1.044,1.044,0,0,0-.46.863v3.981a1.243,1.243,0,0,0,.69,1.1A30.831,30.831,0,0,1,168.21,47.6a.957.957,0,0,1,.345.736v2.83a1.047,1.047,0,1,0,2.094,0v-2.83a3.015,3.015,0,0,0-1.1-2.347,33.384,33.384,0,0,0-5.592-3.659V39.358a2.9,2.9,0,0,0,.828-2.037V33.213a4.773,4.773,0,0,0-4.763-4.763h-.886a4.766,4.766,0,0,0-4.763,4.763v4.119a2.9,2.9,0,0,0,.828,2.037v2.969A33.862,33.862,0,0,0,149.6,46a3.032,3.032,0,0,0-1.1,2.347v2.83A1.048,1.048,0,0,0,149.547,52.21Z" transform="translate(925.546 455.05)" fill="#00144c"/>
  </g>
</svg>
