<svg xmlns="http://www.w3.org/2000/svg" width="20.959" height="22.927" viewBox="0 0 20.959 22.927">
  <path id="Teacher" d="M10131.53,10307.61a.2.2,0,0,1-.2-.237l1.156-6.162-.96-1.28a.2.2,0,0,1,.161-.321h2.2a.2.2,0,0,1,.16.321l-.959,1.28,1.156,6.162a.2.2,0,0,1-.2.237Zm9.734-1.436v-2.68a.9.9,0,0,0-.326-.7,29.145,29.145,0,0,0-5.357-3.44,1.178,1.178,0,0,1-.651-1.045v-3.767a.99.99,0,0,1,.435-.817.763.763,0,0,0,.347-.642v-3.9a2.525,2.525,0,0,0-2.525-2.524h-.838a2.524,2.524,0,0,0-2.524,2.524v3.9a.758.758,0,0,0,.349.642.981.981,0,0,1,.435.817v3.767a1.175,1.175,0,0,1-.654,1.045,29.935,29.935,0,0,0-5.354,3.44.907.907,0,0,0-.329.7v2.68a.991.991,0,0,1-1.981.011v-2.678a2.866,2.866,0,0,1,1.045-2.222,32.076,32.076,0,0,1,5.293-3.464v-2.807a2.743,2.743,0,0,1-.783-1.928v-3.9a4.506,4.506,0,0,1,4.506-4.506h.838a4.513,4.513,0,0,1,4.507,4.506v3.886a2.756,2.756,0,0,1-.781,1.93v2.807a31.634,31.634,0,0,1,5.29,3.464,2.848,2.848,0,0,1,1.045,2.22v2.68a.991.991,0,1,1-1.981,0Zm-5.877-.563a.1.1,0,0,1-.1-.1v-.8a.1.1,0,0,1,.1-.1h3.8a.1.1,0,0,1,.1.1v.8a.1.1,0,0,1-.1.1Z" transform="translate(-10122.287 -10284.684)" fill="#00144c"/>
</svg>
