<?xml version="1.0" encoding="UTF-8"?>
<svg width="63px" height="58px" viewBox="0 0 63 58" version="1.1" xmlns="http://www.w3.org/2000/svg" xmlns:xlink="http://www.w3.org/1999/xlink">
    <!-- Generator: Sketch 61 (89581) - https://sketch.com -->
    <title>Access Material Anytime - pink</title>
    <desc>Created with Sketch.</desc>
    <g id="Page-1" stroke="none" stroke-width="1" fill="none" fill-rule="evenodd">
        <g id="Students---Features" transform="translate(-131.000000, -158.000000)">
            <g id="Access-Material-Anytime---pink" transform="translate(132.000000, 158.000000)">
                <path d="M19.8801621,4 C22.8785742,4 25.3179785,6.45862567 25.3179785,9.48045759 L25.3179785,9.48045759 L25.3179785,11.9063748 L55.5621836,11.9063748 C58.5605957,11.9063748 61,14.3648811 61,17.3868324 L61,17.3868324 L61,53.2770849 C61,55.3299586 59.3407285,57 57.3011602,57 L57.3011602,57 L3.69883984,57 C1.65927148,57 0,55.3298392 0,53.2770849 L0,53.2770849 L0,9.48045759 C0,6.45862567 2.4394043,4 5.43781641,4 L5.43781641,4 Z M57.4257812,22.8474739 L3.57421875,22.8474739 L3.57421875,53.4187818 L57.4257812,53.4187818 L57.4257812,22.8474739 Z M26.4235194,26 C28.6392084,26 30.7796913,26.6814321 32.5947925,27.9439057 C33.917925,26.909025 35.5375138,26.3370432 37.2271139,26.3370432 C41.4732512,26.3370432 44.9276576,29.9191528 44.9276576,34.322262 L44.9276576,34.322262 L44.9276576,34.3442989 C47.8852548,35.2911541 50,38.1336785 50,41.5034986 C50,45.5005153 47.0233946,48.762844 43.1952006,48.9920285 C43.1245517,49.0011262 18.6833695,49.0037864 17.521198,48.9927988 L17.4785912,48.9920285 C13.8320962,48.7326043 11,45.5922136 11,41.7796953 C11,40.0467324 11.6010589,38.3710656 12.6925517,37.0610901 C13.4789696,36.1171732 14.4830958,35.4056239 15.5986735,34.9875336 C16.7094105,29.7822787 21.1627484,26 26.4235194,26 Z M26.4236374,29.6729509 C22.5561284,29.6729509 19.3299378,32.674876 18.9191964,36.6557323 C18.8338369,37.4827308 18.2232148,38.1470231 17.4306576,38.2749599 C15.7837963,38.5406279 14.5418912,40.0473445 14.5418912,41.7796953 C14.5418912,43.6816082 15.9757668,45.2380305 17.8062162,45.3229953 C17.828294,45.3239747 17.8502537,45.3254438 17.8720953,45.3272802 L17.8720953,45.3272802 L42.8399489,45.3272802 C42.8628531,45.3255663 42.8862296,45.3240971 42.909488,45.3232401 C44.8993225,45.2472126 46.4581088,43.5694646 46.4581088,41.5037434 C46.4581088,39.4370428 44.8987322,37.7592948 42.9080713,37.6841243 C42.3727735,37.6639237 41.8751377,37.3936035 41.5543605,36.948824 C41.2335832,36.5040445 41.1240207,35.9326748 41.2566055,35.394483 C41.3423192,35.046054 41.3858845,34.6853823 41.3858845,34.3223844 C41.3858845,31.9444728 39.5203704,30.0099941 37.227232,30.0099941 C36.0018557,30.0099941 34.8440115,30.5680192 34.0505098,31.5410738 C33.740004,31.9219461 33.2932535,32.1554156 32.8132091,32.1878589 C32.3325745,32.2205471 31.8610307,32.0486587 31.5054248,31.7127174 C30.1133435,30.3973551 28.3086319,29.6729509 26.4236374,29.6729509 Z M19.8802812,7.58133757 L5.43781641,7.58133757 C4.41022852,7.58133757 3.57421875,8.43330938 3.57421875,9.48045759 L3.57421875,9.48045759 L3.57421875,19.2663751 L57.4260195,19.2663751 L57.4260195,17.3869518 C57.4260195,16.3396842 56.5900098,15.4877124 55.5624219,15.4877124 L55.5624219,15.4877124 L23.5309883,15.4877124 C22.5440273,15.4877124 21.7438789,14.685997 21.7438789,13.6971033 L21.7438789,13.6971033 L21.7438789,9.48057696 C21.7438789,8.43330938 20.9078691,7.58133757 19.8802812,7.58133757 L19.8802812,7.58133757 Z" id="Combined-Shape" stroke="#FFFFFF" stroke-width="2" fill="#CB097A" fill-rule="nonzero"></path>
                <rect id="Rectangle" fill="#FFFFFF" x="27" y="2" width="30" height="18"></rect>
                <path d="M49.4028071,0 C49.6010917,0.00147341426 49.7922379,0.0694600312 49.9461177,0.19168083 L50.0096968,0.247345833 L56.8478906,7.07067917 C56.9094674,7.13428633 56.9605368,7.20618044 57,7.28367703 L57,20 L55.3859548,20 L55.3862267,8.52916667 L49.4028071,8.52916667 C48.9584977,8.52916667 48.5933652,8.19090669 48.5519458,7.75839157 L48.5480329,7.67625 L48.5480329,1.70583333 L27.6143546,1.70583333 L27.6143546,17.0583333 L27.5970406,18.3073477 C27.5766286,20.021255 27.5812321,18.0168981 27.6108512,18.2942771 L27.8705149,20 L26.0008482,20 L26,0.461365448 C26.1302378,0.210320471 26.3818051,0.0320754886 26.6772599,0.00390441258 L26.7595803,0 L49.4028071,0 Z M52,13 L52,15 L32,15 L32,13 L52,13 Z M46,7 L46,9 L32,9 L32,7 L46,7 Z M50,3 L50,7 L54,7 L50,3 Z" id="Shape" fill="#CB097A" fill-rule="nonzero"></path>
            </g>
        </g>
    </g>
</svg>