<?xml version="1.0" encoding="UTF-8"?>
<svg width="61px" height="61px" viewBox="0 0 61 61" version="1.1" xmlns="http://www.w3.org/2000/svg" xmlns:xlink="http://www.w3.org/1999/xlink">
    <!-- Generator: Sketch 61 (89581) - https://sketch.com -->
    <title>Activity Reports - Pink</title>
    <desc>Created with Sketch.</desc>
    <g id="Page-1" stroke="none" stroke-width="1" fill="none" fill-rule="evenodd">
        <g id="Admin---Features" transform="translate(-487.000000, -47.000000)" fill="#CB097A" fill-rule="nonzero" stroke="#FFFFFF" stroke-width="0.6">
            <g id="Activity-Reports---Pink" transform="translate(488.000000, 48.000000)">
                <path d="M58.0166667,0 C58.5597087,0 59,0.44029131 59,0.983333333 L59,0.983333333 L59,4.91666667 C59,5.45970869 58.5597087,5.9 58.0166667,5.9 L58.0166667,5.9 L56.05,5.9 L56.05,39.3333333 L58.0166667,39.3333333 C58.5597087,39.3333333 59,39.7736246 59,40.3166667 L59,40.3166667 L59,44.25 C59,44.793042 58.5597087,45.2333333 58.0166667,45.2333333 L58.0166667,45.2333333 L33.6042643,45.2333333 L44.0128092,57.3766358 C44.2629639,57.6680826 44.3205811,58.0786051 44.1602132,58.4271892 C43.9998454,58.7762533 43.6507813,59 43.2666667,59 L43.2666667,59 L39.3333333,59 C39.0462076,59 38.7739665,58.8746826 38.5871908,58.6566976 L38.5871908,58.6566976 L32.45,51.4992024 L32.45,58.0166667 C32.45,58.5597087 32.0097087,59 31.4666667,59 L31.4666667,59 L27.5333333,59 C26.9902913,59 26.55,58.5597087 26.55,58.0166667 L26.55,58.0166667 L26.55,51.4992024 L20.4128092,58.6566976 C20.2260335,58.8746826 19.9537924,59 19.6666667,59 L19.6666667,59 L15.7333333,59 C15.3492187,59 15.0001546,58.7762533 14.8397868,58.4271892 C14.6794189,58.0786051 14.7370361,57.6680826 14.9871908,57.3766358 L14.9871908,57.3766358 L25.3957357,45.2333333 L0.983333333,45.2333333 C0.44029131,45.2333333 0,44.793042 0,44.25 L0,44.25 L0,40.3166667 C0,39.7736246 0.44029131,39.3333333 0.983333333,39.3333333 L0.983333333,39.3333333 L2.95,39.3333333 L2.95,5.9 L0.983333333,5.9 C0.44029131,5.9 0,5.45970869 0,4.91666667 L0,4.91666667 L0,0.983333333 C0,0.44029131 0.44029131,0 0.983333333,0 L0.983333333,0 Z M26.55,46.905192 L17.870931,57.0333333 L19.2143717,57.0333333 L26.55,48.4781413 L26.55,46.905192 Z M30.4833333,45.2333333 L28.5166667,45.2333333 L28.5166667,57.0333333 L30.4833333,57.0333333 L30.4833333,45.2333333 Z M32.45,46.905192 L32.45,48.4781413 L39.7856283,57.0333333 L41.129069,57.0333333 L32.45,46.905192 Z M57.0333333,41.3 L1.96666667,41.3 L1.96666667,43.2666667 L57.0333333,43.2666667 L57.0333333,41.3 Z M54.0833333,5.9 L4.91666667,5.9 L4.91666667,39.3333333 L54.0833333,39.3333333 L54.0833333,5.9 Z M28,27 C28.5522461,27 29,27.4477539 29,28 L29,28 L29,36 C29,36.5522461 28.5522461,37 28,37 L28,37 L20,37 C19.4477539,37 19,36.5522461 19,36 L19,36 L19,28 C19,27.4477539 19.4477539,27 20,27 L20,27 Z M39,23 C39.5522461,23 40,23.4477539 40,24 L40,24 L40,36 C40,36.5522461 39.5522461,37 39,37 L39,37 L31,37 C30.4477539,37 30,36.5522461 30,36 L30,36 L30,24 C30,23.4477539 30.4477539,23 31,23 L31,23 Z M16,30 C16.5522461,30 17,30.4477539 17,31 L17,31 L17,35 C17,35.5522461 16.5522461,36 16,36 L16,36 L8,36 C7.44775388,36 7,35.5522461 7,35 L7,35 L7,31 C7,30.4477539 7.44775388,30 8,30 L8,30 Z M51,19 C51.5522461,19 52,19.4228787 52,19.9444444 L52,19.9444444 L52,35.0555556 C52,35.5771213 51.5522461,36 51,36 L51,36 L43,36 C42.4477539,36 42,35.5771213 42,35.0555556 L42,35.0555556 L42,19.9444444 C42,19.4228787 42.4477539,19 43,19 L43,19 Z M27,33 L21,33 L21,35 L27,35 L27,33 Z M38,33 L32,33 L32,35 L38,35 L38,33 Z M50,32.2222222 L44,32.2222222 L44,34.1111111 L50,34.1111111 L50,32.2222222 Z M15,32 L9,32 L9,34 L15,34 L15,32 Z M27,29 L21,29 L21,31 L27,31 L27,29 Z M38,29 L32,29 L32,31 L38,31 L38,29 Z M50,28.4444444 L44,28.4444444 L44,30.3333333 L50,30.3333333 L50,28.4444444 Z M43.548852,8 L47.4585323,9.96168582 C47.9419925,10.203544 48.1381447,10.7931034 47.8966532,11.2777778 L47.8966532,11.2777778 L45.9418131,15.2011494 L44.1921929,14.3247126 L45.0922976,12.5186781 L38.8230642,14.6159003 L36.0745475,18.2940612 C35.9127577,18.5105363 35.6684027,18.6503831 35.4001849,18.6805555 L35.4001849,18.6805555 L27.0238667,19.6139846 L24.3455066,23.1982758 C24.1837168,23.4147509 23.9393618,23.5545976 23.6711441,23.5847701 L23.6711441,23.5847701 L15.3563918,24.5114943 L12.6751682,29 L11,27.9894635 L13.9322602,23.085249 C14.0888001,22.8237548 14.3574952,22.6503831 14.6595982,22.6154214 L14.6595982,22.6154214 L23.0359164,21.6819923 L25.7137993,18.0977011 C25.8760663,17.8812261 26.1199441,17.7413793 26.3886391,17.7112069 L26.3886391,17.7112069 L34.7649573,16.7777778 L37.4428401,13.1934866 C37.562154,13.0340039 37.7272846,12.914272 37.916278,12.8510536 L37.916278,12.8510536 L44.473774,10.6580459 L42.6749965,9.75574707 L43.548852,8 Z M38,25 L32,25 L32,27 L38,27 L38,25 Z M50,24.6666667 L44,24.6666667 L44,26.5555556 L50,26.5555556 L50,24.6666667 Z M50,20.8888889 L44,20.8888889 L44,22.7777778 L50,22.7777778 L50,20.8888889 Z M22,13 L22,15 L10,15 L10,13 L22,13 Z M14,9 L14,11 L10,11 L10,9 L14,9 Z M22,9 L22,11 L16,11 L16,9 L22,9 Z M57.0333333,1.96666667 L1.96666667,1.96666667 L1.96666667,3.93333333 L57.0333333,3.93333333 L57.0333333,1.96666667 Z" id="Combined-Shape"></path>
            </g>
        </g>
    </g>
</svg>