<?xml version="1.0" encoding="UTF-8"?>
<svg width="67px" height="65px" viewBox="0 0 67 65" version="1.1" xmlns="http://www.w3.org/2000/svg" xmlns:xlink="http://www.w3.org/1999/xlink">
    <!-- Generator: Sketch 61 (89581) - https://sketch.com -->
    <title>Attendance &amp; Student Performance - pink</title>
    <desc>Created with Sketch.</desc>
    <g id="Page-1" stroke="none" stroke-width="1" fill="none" fill-rule="evenodd">
        <g id="Home-Page-USPs-Copy-3" transform="translate(-307.000000, -36.000000)" fill="#CB097A" fill-rule="nonzero" stroke="#FFFFFF">
            <g id="Attendance-&amp;-Student-Performance---pink" transform="translate(308.000000, 37.000000)">
                <path d="M12.4998483,29 C18.2896813,29 23,33.7103867 23,39.5001517 C23,42.7309379 21.5332881,45.6255297 19.2307411,47.5531203 C26.7618137,51.2001335 25.999629,61.5197917 25.9616526,61.9781494 C25.9138547,62.5547161 25.3907433,63 24.7615525,63 L24.7615525,63 L1.23841859,63 C0.609227842,63 0.086294102,62.5547161 0.0383185295,61.9778228 C0.00138669778,61.5323762 -0.72015365,51.7603977 6.16647099,47.8686017 C3.63659804,45.9506513 2,42.912975 2,39.5001517 C2,33.7103867 6.71016692,29 12.4998483,29 Z M16.9542501,49.008192 L16.767455,49.0933697 C15.4628685,49.6759523 14.018493,50 12.4998483,50 C11.1024573,50 9.76795242,49.7256183 8.54738123,49.2278989 C3.03616122,51.3673854 2.43678657,58.1845455 2.41470855,60.7877865 L2.41470855,60.7877865 L23.5852626,60.7877865 C23.5630517,58.1489037 22.9473651,51.1747487 17.2180157,49.1383953 C17.1223892,49.1043932 17.0341781,49.060391 16.9542501,49.008192 Z M12.4999266,31.3333333 C7.99689708,31.3333333 4.33333333,34.99693 4.33333333,39.5 C4.33333333,44.0029232 7.99689708,47.6666667 12.4999266,47.6666667 C17.0031029,47.6666667 20.6666667,44.0029232 20.6666667,39.5 C20.6666667,34.99693 17.0032497,31.3333333 12.4999266,31.3333333 Z" id="Combined-Shape"></path>
                <path d="M50.9912888,51.9542842 C51.5482094,51.9542842 52,51.5167773 52,50.9772863 C52,50.4376512 51.5482094,50 50.9912888,50 L43.0087112,50 C42.4517906,50 42,50.4376512 42,50.9772863 L42,62.0230022 C42,62.5624931 42.4517906,63 43.0087112,63 L50.9912888,63 C51.5482094,63 52,62.5624931 52,62.0230022 L52,54.6784248 C52,54.1387896 51.5482094,53.7012827 50.9912888,53.7012827 C50.4343683,53.7012827 49.9825776,54.1387896 49.9825776,54.6784248 L49.9825776,61.0458601 L44.0174224,61.0458601 L44.0174224,51.9544284 L50.9912888,51.9544284 L50.9912888,51.9542842 Z" id="Path" stroke-width="0.6"></path>
                <path d="M37.9912888,38.0187974 C38.5483583,38.0187974 39,37.5666989 39,37.0093987 C39,36.4520986 38.5483583,36 37.9912888,36 L30.0087112,36 C29.4514928,36 29,36.4520986 29,37.0093987 L29,61.9907503 C29,62.5480504 29.4514928,63 30.0087112,63 L37.9912888,63 C38.5483583,63 39,62.5480504 39,61.9907503 L39,40.9160131 C39,40.358713 38.5483583,39.9066144 37.9912888,39.9066144 C37.4343683,39.9066144 36.9825776,40.358713 36.9825776,40.9160131 L36.9825776,60.9812026 L31.0174224,60.9812026 L31.0174224,38.0186484 L37.9912888,38.0186484 L37.9912888,38.0187974 Z" id="Path" stroke-width="0.6"></path>
                <path d="M46,23.2304469 L46,3.25946015 C46,2.702444 45.5452608,2.25084551 44.9847056,2.25084551 L38.253097,2.25084551 L38.253097,1.00861464 C38.253097,0.451598494 37.7985077,0 37.2378026,0 C36.6772474,0 36.2226581,0.451598494 36.2226581,1.00861464 L36.2226581,5.19062812 C36.2226581,5.74749537 36.6772474,6.19924276 37.2378026,6.19924276 C37.7985077,6.19924276 38.253097,5.74749537 38.253097,5.19062812 L38.253097,4.26807479 L43.9694112,4.26807479 L43.9694112,9.95690554 L40.9328207,9.95690554 C40.3722655,9.95690554 39.9175263,10.4086529 39.9175263,10.9655202 C39.9175263,11.5223874 40.3722655,11.9741348 40.9328207,11.9741348 L43.9694112,11.9741348 L43.9694112,23.2304469 C43.9694112,24.7481335 42.7262976,25.9827707 41.1985598,25.9827707 L24.0152944,25.9827707 C23.4545893,25.9827707 23,26.4345181 23,26.9913854 C23,27.5482526 23.4545893,28 24.0152944,28 L41.1985598,28 C43.8460591,28 46,25.860379 46,23.2304469 Z" id="Path" stroke-width="0.6"></path>
                <path d="M12.9873256,23 C13.5327305,23 13.9746513,22.5538894 13.9746513,22.0037892 L13.9746513,11.6051312 L35.0126744,11.6051312 C35.5579335,11.6051312 36,11.1588735 36,10.6087733 C36,10.0586731 35.5579335,9.61241543 35.0126744,9.61241543 L13.9746513,9.61241543 L13.9746513,3.99256867 L16.7572071,3.99256867 C17.302612,3.99256867 17.7445328,3.54645804 17.7445328,2.99635788 C17.7445328,2.44611064 17.3024662,2 16.7572071,2 L12.9873256,2 C12.4419208,2 12,2.44611064 12,2.99635788 L12,22.0039363 C12,22.5538894 12.4419208,23 12.9873256,23 Z" id="Path" stroke-width="0.6"></path>
                <path d="M28.9586075,6 C29.4880068,6 29.917215,5.5627612 29.917215,5.02377864 L29.917215,4.13085459 L33.0413925,4.13085459 C33.5709333,4.13085459 34,3.69375991 34,3.15477735 C34,2.61565067 33.5707918,2.17855599 33.0413925,2.17855599 L29.917215,2.17855599 L29.917215,0.976221358 C29.917215,0.437094682 29.4880068,0 28.9586075,0 C28.4290667,0 28,0.437094682 28,0.976221358 L28,5.02392276 C28,5.5627612 28.4290667,6 28.9586075,6 Z" id="Path" stroke-width="0.6"></path>
                <path d="M20.9616695,6 C21.4929018,6 21.923339,5.5627612 21.923339,5.02377864 L21.923339,4.13085459 L25.0383305,4.13085459 C25.5694208,4.13085459 26,3.69375991 26,3.15477735 C26,2.61565067 25.5694208,2.17855599 25.0383305,2.17855599 L21.923339,2.17855599 L21.923339,0.976221358 C21.923339,0.437094682 21.4927598,0 20.9616695,0 C20.4305792,0 20,0.437094682 20,0.976221358 L20,5.02392276 C20,5.5627612 20.4305792,6 20.9616695,6 Z" id="Path" stroke-width="0.6"></path>
                <path d="M20.9821865,18.3595766 C20.4396205,18.3595766 20,18.799333 20,19.3415978 L20,21.0178338 C20,21.5600986 20.4396205,22 20.9821865,22 L26.0178135,22 C26.5603795,22 27,21.5600986 27,21.0178338 L27,15.9821662 C27,15.4399014 26.5602345,15 26.0178135,15 L20.9821865,15 C20.4396205,15 20,15.4399014 20,15.9821662 C20,16.5245759 20.4396205,16.9643323 20.9821865,16.9643323 L25.035627,16.9643323 L25.035627,20.0356677 L21.964373,20.0356677 L21.964373,19.3417428 C21.964373,18.799333 21.5246075,18.3595766 20.9821865,18.3595766 Z" id="Path" stroke-width="0.6"></path>
                <path d="M31.9821865,18.3595766 C31.4396205,18.3595766 31,18.799333 31,19.3415978 L31,21.0178338 C31,21.5600986 31.4396205,22 31.9821865,22 L37.0178135,22 C37.5600895,22 38,21.5600986 38,21.0178338 L38,15.9821662 C38,15.4399014 37.5600895,15 37.0178135,15 L31.9821865,15 C31.4396205,15 31,15.4399014 31,15.9821662 C31,16.5245759 31.4396205,16.9643323 31.9821865,16.9643323 L36.035627,16.9643323 L36.035627,20.0356677 L32.964373,20.0356677 L32.964373,19.3417428 C32.964373,18.799333 32.5246075,18.3595766 31.9821865,18.3595766 Z" id="Path" stroke-width="0.6"></path>
                <path d="M63.9914377,14.7353178 C63.4343683,14.7353178 62.9827265,15.1881108 62.9827265,15.7462669 L62.9827265,60.9779527 L57.0174224,60.9779527 L57.0174224,13.0217488 L63.9914377,13.0217488 C64.5483583,13.0217488 65,12.5691051 65,12.010949 C65,11.4526437 64.5483583,11 63.9914377,11 L56.0087112,11 C55.4517906,11 55,11.4526437 55,12.010949 L55,61.9892002 C55,62.5473563 55.4517906,63 56.0087112,63 L63.9914377,63 C64.5483583,63 65,62.5473563 65,61.9892002 L65,15.7462669 C65,15.1881108 64.5483583,14.7353178 63.9914377,14.7353178 Z" id="Path" stroke-width="0.6"></path>
            </g>
        </g>
    </g>
</svg>