<?xml version="1.0" encoding="UTF-8"?>
<svg width="80px" height="54px" viewBox="0 0 80 54" version="1.1" xmlns="http://www.w3.org/2000/svg" xmlns:xlink="http://www.w3.org/1999/xlink">
    <!-- Generator: Sketch 61 (89581) - https://sketch.com -->
    <title>Cloud-based LMS - pink</title>
    <desc>Created with Sketch.</desc>
    <g id="Page-1" stroke="none" stroke-width="1" fill="none" fill-rule="evenodd">
        <g id="Admin---Features" transform="translate(-122.000000, -44.000000)" fill="#CB097A" fill-rule="nonzero" stroke="#FFFFFF" stroke-width="0.4">
            <g id="Cloud-based-LMS---pink" transform="translate(123.000000, 45.000000)">
                <path d="M63.8618404,22.131502 C63.3543381,22.131502 62.8254893,22.1403041 62.2898995,22.1841544 C61.8570299,9.87790171 51.6787365,-0.000213835243 39.229523,-0.000213835243 C34.1533121,-0.0155546648 29.2164017,1.65484292 25.1980965,4.74773582 C21.4339811,7.63820554 18.6465913,11.6075368 17.2099916,16.1230497 C7.30782175,17.6090615 -0.0116570244,26.0986123 -2.77748852e-05,36.0834216 L-2.77748852e-05,36.1213505 C-2.77748852e-05,36.1311128 -2.77748852e-05,36.1506374 0.00162013174,36.1888863 C-2.77748852e-05,36.1980741 -2.77748852e-05,36.2073201 -2.77748852e-05,36.2165729 C0.0125043493,45.1765958 7.30261816,52.4324386 16.2885588,52.4285452 L38.037326,52.4285452 L39.9633308,52.4285452 L61.7120981,52.4285452 C70.6977254,52.4320853 77.9874222,45.1764433 78,36.2167329 C78,36.1266148 77.9860521,36.0370366 77.9584301,35.9512305 C77.9020697,32.3046975 76.4216288,28.8238566 73.8318043,26.2486298 C71.194287,23.6021808 67.6035788,22.1193867 63.8618404,22.131502 Z M61.7120981,50.508095 L16.2885588,50.508095 C8.39129296,50.512546 1.97379928,44.1551049 1.92682243,36.2807479 C1.92842744,36.2561021 1.92906944,36.2458597 1.92890894,36.2210539 C1.92890894,36.187606 1.92746444,36.1523978 1.92550041,36.1208704 C1.92550041,36.1162293 1.92550041,36.1048666 1.92550041,36.1048666 C1.90675863,26.8478035 8.84641102,19.0452032 18.0659402,17.9574009 C18.453549,17.9100073 18.774741,17.6352323 18.8806402,17.260437 C20.1370521,12.8947295 22.7619135,9.044641 26.3710334,6.27369451 C30.0533051,3.43898023 34.5775267,1.90783233 39.229523,1.92185481 C50.8908401,1.92185481 60.3781792,11.3779343 60.3781792,23.0019466 C60.3781792,23.0877268 60.3781792,23.1720666 60.3760927,23.2580068 C60.3690772,23.5495507 60.495318,23.8284747 60.7192104,24.0161117 C60.9431028,24.2037486 61.2403811,24.2797621 61.5272016,24.2227136 C65.112569,23.5489351 68.8124786,24.5050028 71.6183859,26.8303058 C74.4242932,29.1556089 76.043691,32.6077414 76.0351538,36.2456997 C76.0350421,36.3250521 76.0473342,36.403937 76.0715874,36.4795147 C75.9167293,44.2752788 69.5319373,50.5129345 61.7120981,50.508095 L61.7120981,50.508095 Z" id="Shape"></path>
                <path d="M56.7916043,23.7972206 C56.7916043,23.7669359 56.7820705,23.7369734 56.7793693,23.7073331 C56.7806404,23.6851028 56.7793693,23.6631948 56.7793693,23.6406424 C56.7746893,23.2384987 56.5254205,22.881105 56.1529996,22.742573 L38.2178852,16.059326 C38.005385,15.9802247 37.7720775,15.9802247 37.5595773,16.059326 L19.6246218,22.742573 C19.2524826,22.8811499 19.0037718,23.2387415 19,23.6406424 C19.0040378,24.0456578 19.2525181,24.4067694 19.6260519,24.5504712 L24.8534259,26.6058016 L24.8534259,39.8347259 C24.8459173,40.2350341 25.08667,40.597184 25.4554844,40.7403665 C33.4736338,43.773769 42.301922,43.773769 50.3200713,40.7403665 C50.6868021,40.5961515 50.9241175,40.2333309 50.9124371,39.8347259 L50.9124371,26.6058016 L54.8848474,25.0630554 L54.8848474,37.7987261 C53.4159335,38.2875712 52.5174455,39.7886176 52.7679643,41.3352668 C53.0184832,42.881916 54.3432851,44.0128389 55.8892642,44 C57.4352433,43.986717 58.7412703,42.8335681 58.9663295,41.2829011 C59.1913886,39.7322341 58.2683501,38.2465765 56.7916043,37.7826173 L56.7916043,23.7972206 Z M26.7601829,39.1563815 L26.7601829,35.3074898 C33.98232,37.7332744 41.7835431,37.7332744 49.0056802,35.3074898 L49.0056802,39.1563815 C41.8068127,41.7242212 33.9590504,41.7242212 26.7601829,39.1563815 L26.7601829,39.1563815 Z M49.0056802,33.2676239 C41.8068671,35.8357862 33.958996,35.8357862 26.7601829,33.2676239 L26.7601829,27.3588912 L37.5606896,31.6277411 C37.6677192,31.6711922 37.7819401,31.6935533 37.8972322,31.6936264 C38.0064542,31.6935399 38.1145382,31.6711318 38.215025,31.6277411 L49.0056802,27.3580858 L49.0056802,33.2676239 Z M49.7313601,25.0168229 C49.6864797,25.0306492 49.6427084,25.0479361 49.6004295,25.0685324 L37.8880162,29.6896833 L26.1754441,25.0682102 C26.1331766,25.0475872 26.0894033,25.0302994 26.0445134,25.0165008 L22.6473082,23.6760819 L37.8880162,17.9964173 L53.1285654,23.6755986 L49.7313601,25.0168229 Z M55.8455351,42.0843293 C55.3446189,42.0843945 54.8929905,41.7785369 54.7012537,41.3093845 C54.5095169,40.840232 54.6154332,40.3001819 54.9696116,39.9410708 C55.3237901,39.5819597 55.8564771,39.4745128 56.3192694,39.6688348 C56.7820617,39.8631568 57.0838148,40.320977 57.0838148,40.8288042 C57.0828513,41.5216132 56.5289161,42.0829028 55.8455351,42.0835239 L55.8455351,42.0843293 Z" id="Shape"></path>
            </g>
        </g>
    </g>
</svg>