<?xml version="1.0" encoding="UTF-8"?>
<svg width="65px" height="65px" viewBox="0 0 65 65" version="1.1" xmlns="http://www.w3.org/2000/svg" xmlns:xlink="http://www.w3.org/1999/xlink">
    <!-- Generator: Sketch 61 (89581) - https://sketch.com -->
    <title>Create Library - pink</title>
    <desc>Created with Sketch.</desc>
    <g id="Page-1" stroke="none" stroke-width="1" fill="none" fill-rule="evenodd">
        <g id="Home-Page-USPs-Copy-3" transform="translate(-663.000000, -36.000000)" fill="#CB097A" fill-rule="nonzero" stroke="#FFFFFF" stroke-width="0.4">
            <g id="Create-Library---pink" transform="translate(664.000000, 37.000000)">
                <path d="M31.9354839,5.68434189e-14 L18.0967742,5.68434189e-14 C17.5088993,5.68434189e-14 17.0322581,0.470141569 17.0322581,1.05 L17.0322581,8.4 L1.06451613,8.4 C0.476641222,8.4 0,8.87014157 0,9.45 L0,61.95 C0,62.5298584 0.476641222,63 1.06451613,63 L31.9354839,63 C32.5233588,63 33,62.5298584 33,61.95 L33,1.05 C33,0.470141569 32.5233588,5.68434189e-14 31.9354839,5.68434189e-14 Z M30.8709677,54.6 L19.1612903,54.6 L19.1612903,52.5 L30.8709677,52.5 L30.8709677,54.6 Z M2.12903226,15.75 L17.0322581,15.75 L17.0322581,47.25 L2.12903226,47.25 L2.12903226,15.75 Z M30.8709677,11.55 L19.1612903,11.55 L19.1612903,8.4 L30.8709677,8.4 L30.8709677,11.55 Z M2.12903226,49.35 L17.0322581,49.35 L17.0322581,52.5 L2.12903226,52.5 L2.12903226,49.35 Z M19.1612903,50.4 L19.1612903,13.65 L30.8709677,13.65 L30.8709677,50.4 L19.1612903,50.4 Z M30.8709677,2.1 L30.8709677,6.3 L19.1612903,6.3 L19.1612903,2.1 L30.8709677,2.1 Z M17.0322581,10.5 L17.0322581,13.65 L2.12903226,13.65 L2.12903226,10.5 L17.0322581,10.5 Z M2.12903226,54.6 L17.0322581,54.6 L17.0322581,60.9 L2.12903226,60.9 L2.12903226,54.6 Z M19.1612903,60.9 L19.1612903,56.7 L30.8709677,56.7 L30.8709677,60.9 L19.1612903,60.9 Z" id="Shape"></path>
                <path d="M62.9669202,57.4465953 L50.553151,8.79104217 C50.4839498,8.5183463 50.3111996,8.28541855 50.0727841,8.14338955 C49.8348737,8.00187686 49.5515028,7.96314162 49.2853058,8.03596391 L33.7680942,12.2668816 C33.2185263,12.4166576 32.8901999,12.9920045 33.0336532,13.5549563 L45.4474225,62.2105095 C45.5166237,62.4832053 45.6898789,62.7161331 45.9282944,62.8576457 C46.1662048,62.9986418 46.4495757,63.0368606 46.7152676,62.963522 L62.2324792,58.7326043 C62.781037,58.5828281 63.1088582,58.0085141 62.9669202,57.4465953 L62.9669202,57.4465953 Z M36.9437684,20.4999209 L50.4622297,16.8149114 L50.9486579,18.7186177 L37.4312068,22.4093084 L36.9437684,20.4999209 Z M51.4709495,20.7710673 L57.4707359,44.3029646 L43.9573257,47.9895234 L37.9575394,24.4560768 L51.4709495,20.7710673 Z M57.9975736,46.3507659 L59.0568051,50.5016307 L45.5383438,54.1866402 L44.4831531,50.0373247 L57.9975736,46.3507659 Z M48.8135259,10.3533622 L49.9399382,14.769176 L36.4214767,18.4531525 L35.2960748,14.0394047 L48.8135259,10.3533622 Z M47.1870475,60.6481895 L46.0606353,56.2323757 L59.5790967,52.5463333 L60.7044986,56.9600812 L47.1870475,60.6481895 Z" id="Shape"></path>
                <path d="M13.9,19 L5.1,19 C4.49252926,19 4,19.4925293 4,20.1 L4,28.9 C4,29.5074707 4.49252926,30 5.1,30 L13.9,30 C14.5074707,30 15,29.5074707 15,28.9 L15,20.1 C15,19.4925293 14.5074707,19 13.9,19 Z M12.8,27.8 L6.2,27.8 L6.2,21.2 L12.8,21.2 L12.8,27.8 Z" id="Shape"></path>
            </g>
        </g>
    </g>
</svg>