<?xml version="1.0" encoding="UTF-8"?>
<svg width="60px" height="60px" viewBox="0 0 60 60" version="1.1" xmlns="http://www.w3.org/2000/svg" xmlns:xlink="http://www.w3.org/1999/xlink">
    <!-- Generator: Sketch 61 (89581) - https://sketch.com -->
    <title>Create Courses - pink</title>
    <desc>Created with Sketch.</desc>
    <g id="Page-1" stroke="none" stroke-width="1" fill="none" fill-rule="evenodd">
        <g id="Home-Page-USPs-Copy-3" transform="translate(-487.000000, -41.000000)" fill="#CB097A" fill-rule="nonzero" stroke="#FFFFFF" stroke-width="0.8">
            <g id="Create-Courses---pink" transform="translate(488.000000, 42.000000)">
                <path d="M39.4544796,-5.32907052e-13 C39.7652779,0.00502762598 40.0609933,0.133917489 40.2762669,0.358332199 C40.4607871,0.550295826 40.5731111,0.798673355 40.5968327,1.06115433 L40.601234,1.19337423 L40.601234,25.8703049 C41.0692598,25.8465381 41.4668989,25.8232282 41.9001883,25.8232282 C50.7689107,25.8232282 58,33.0310072 58,41.9116126 C58,50.792675 50.7807941,58 41.9116148,58 C36.4858088,58.0013385 31.4352924,55.2619291 28.4746275,50.734256 L28.2803647,50.4297723 L5.86220531,50.4297723 C2.71891157,50.4355758 0.152069454,47.9519977 0.0279929586,44.8381113 L0.0233099056,44.614644 L0.0233099056,44.4976375 L0.0116549528,44.4726709 L0.0116549528,44.4726709 L0,44.4391343 L0,5.85032161 C0.0187498844,2.69765296 2.51423635,0.134517448 5.63803335,0.00508158244 L5.86220531,-5.32907052e-13 L39.4544796,-5.32907052e-13 Z M32.2937769,32.097241 C27.8594157,36.4324208 26.8772015,43.1991404 29.8951449,48.6161726 C29.9408506,48.6783322 29.9801574,48.7450624 30.0121514,48.8149921 C32.4738571,53.0573893 37.0069425,55.6690095 41.9116148,55.6717518 C48.1124988,55.6676383 53.543243,51.5120818 55.1680786,45.5278427 C56.792914,39.5436036 54.2096313,33.2124585 48.8625285,30.0724813 C43.5149686,26.9329611 36.727681,27.7625184 32.2937769,32.097241 Z M42,34.2 C42.6627417,34.2 43.2,34.7372583 43.2,35.4 L43.2,41 L48.8,41 C49.4627417,41 50,41.5372583 50,42.2 C50,42.8627417 49.4627417,43.4 48.8,43.4 L43.2,43.4 L43.2,49 C43.2,49.6627417 42.6627417,50.2 42,50.2 C41.3372583,50.2 40.8,49.6627417 40.8,49 L40.8,43.4 L35.2,43.4 C34.5372583,43.4 34,42.8627417 34,42.2 C34,41.5372583 34.5372583,41 35.2,41 L40.8,41 L40.8,35.4 C40.8,34.7372583 41.3372583,34.2 42,34.2 Z M25.8351129,41.1862641 L5.86220531,41.1862641 C3.95582316,41.1862641 2.41051539,42.7315717 2.41051539,44.6379539 C2.41051539,46.48079 3.85451965,47.9862219 5.67281454,48.0845365 L5.86220531,48.0896436 L27.0517971,48.0896436 C26.2286385,46.13847 25.8067755,44.0410383 25.811803,41.923496 C25.811803,41.6661733 25.8232295,41.420277 25.8351129,41.1862641 Z M7.83943135,2.34012864 L5.86220531,2.34012864 C3.98976719,2.34852327 2.46028531,3.81074506 2.34677607,5.65790661 L2.34012876,5.85032161 L2.34012876,39.96958 C3.28729023,39.2890582 4.41048071,38.9017882 5.57129737,38.8516272 L5.86220531,38.8461355 L7.83943135,38.8461355 L7.83943135,2.34012864 Z M38.2611053,2.34012864 L10.1795601,2.34012864 L10.1795601,38.8461355 L26.1157456,38.8461355 C27.3219756,32.7575462 32.0022361,27.8307855 37.9304881,26.3135212 L38.2611053,26.2327507 L38.2611053,2.34012864 Z M33.8541667,7 C34.4861654,7.00184659 34.9982096,7.52997159 35,8.18181818 L35,8.18181818 L35,18.8181818 C34.9982096,19.4700284 34.4861654,19.9981534 33.8541667,20 L33.8541667,20 L14.1458333,20 C13.5138346,19.9981534 13.0017904,19.4700284 13,18.8181818 L13,18.8181818 L13,8.18181818 C13.0017904,7.52997159 13.5138346,7.00184659 14.1458333,7 L14.1458333,7 Z M32.7083333,9.36363636 L15.2916667,9.36363636 L15.2916667,17.6363636 L32.7083333,17.6363636 L32.7083333,9.36363636 Z" id="Combined-Shape"></path>
            </g>
        </g>
    </g>
</svg>