<?xml version="1.0" encoding="UTF-8"?>
<svg width="48px" height="42px" viewBox="0 0 48 42" version="1.1" xmlns="http://www.w3.org/2000/svg" xmlns:xlink="http://www.w3.org/1999/xlink">
    <!-- Generator: Sketch 61 (89581) - https://sketch.com -->
    <title>Grade Summary - Pink</title>
    <desc>Created with Sketch.</desc>
    <g id="Page-1" stroke="none" stroke-width="1" fill="none" fill-rule="evenodd">
        <g id="Admin---Features" transform="translate(-493.000000, -159.000000)" fill="#CB097A" fill-rule="nonzero" stroke="#CB097A" stroke-width="0.4">
            <g id="Grade-Summary---Pink" transform="translate(494.000000, 160.000000)">
                <path d="M45.472363,0 C45.7797058,0 45.9998474,0.284773959 45.9998474,0.590396287 L45.9998474,0.590396287 L45.9998474,8.65926854 C46.0059717,8.91800479 45.8271622,9.14493375 45.5730795,9.20068039 L45.5730795,9.20068039 L30.8123729,23.8976735 C31.6752985,24.3896359 32.1856445,25.323508 32.1314242,26.3113795 L32.1314242,26.3113795 L32.0936788,26.9932872 C32.0764398,27.316841 32.1635171,27.6374173 32.3422239,27.9083092 L32.3422239,27.9083092 L32.7116102,28.4654035 C33.2920258,29.3395493 33.2920258,30.4738675 32.7116102,31.3480134 L32.7116102,31.3480134 L32.3424094,31.9051076 C32.163628,32.1759699 32.0765142,32.4965609 32.0937715,32.8201296 L32.0937715,32.8201296 L32.131517,33.5019451 C32.1890526,34.5404762 31.6232567,35.5144393 30.6899551,35.9834544 L30.6899551,35.9834544 L30.0853784,36.2872318 C29.7953519,36.4321775 29.5600241,36.6662586 29.4143065,36.9547486 L29.4143065,36.9547486 L29.1089113,37.5561226 C28.6372487,38.4840148 27.6585765,39.0466489 26.6148349,38.9899553 L26.6148349,38.9899553 L25.9292028,38.9523175 C25.6039172,38.9353345 25.2816658,39.0220065 25.0093075,39.1997305 L25.0093075,39.1997305 L24.4492463,39.5670677 C23.5704154,40.1443108 22.430115,40.1443108 21.5512841,39.5670677 L21.5512841,39.5670677 L20.9912228,39.1997305 C20.7187903,39.0220943 20.3965392,38.9354311 20.0712348,38.9523175 L20.0712348,38.9523175 L19.3857881,38.9899553 C18.3419087,39.0471236 17.362967,38.4843555 16.8916191,37.5561226 L16.8916191,37.5561226 L16.5862239,36.9547486 C16.4405062,36.6662586 16.2051784,36.4321775 15.915152,36.2872318 L15.915152,36.2872318 L15.3105752,35.9834544 C14.3774513,35.5144894 13.8116909,34.5407686 13.8690134,33.5024063 L13.8690134,33.5024063 L13.9068516,32.8204986 C13.9240641,32.4969765 13.8369881,32.1764377 13.6583064,31.9055688 L13.6583064,31.9055688 L13.2891056,31.3483823 C12.7086901,30.4742365 12.7086901,29.3399183 13.2891056,28.4657725 L13.2891056,28.4657725 L13.6586774,27.9086782 C13.83771,27.6378882 13.925174,27.3173238 13.9083354,26.9936562 L13.9083354,26.9936562 L13.872352,26.3118408 C13.8190841,25.3119865 14.3432058,24.3693196 15.2229352,23.8827291 L15.2229352,23.8827291 L0.478087309,9.20879834 C0.200487692,9.17509622 -0.00616049016,8.93746495 0.000140284615,8.65936079 L0.000140284615,8.65936079 L0.000140284615,0.590396287 C0.000140284615,0.28468171 0.220268093,0 0.527610856,0 L0.527610856,0 Z M23.8364155,21.1713341 C23.3291331,20.8380351 22.6708408,20.8380351 22.1635583,21.1713341 L22.1635583,21.1713341 L21.6034971,21.5386713 C21.1317588,21.8467774 20.5733852,21.9968793 20.0098405,21.9670776 L20.0098405,21.9670776 L19.324301,21.9295321 C18.722048,21.8977125 18.1576014,22.2222236 17.8846868,22.7571939 L17.8846868,22.7571939 L17.5792916,23.3585678 C17.3268114,23.8583935 16.9190887,24.2639562 16.4166011,24.5150988 L16.4166011,24.5150988 L15.8120243,24.8188762 C15.2734162,25.0895631 14.946857,25.6516059 14.9799545,26.2509562 L14.9799545,26.2509562 L15.0177927,26.9327716 C15.0475421,27.4933635 14.8965891,28.0487625 14.5869193,28.5180779 L14.5869193,28.5180779 L14.2178112,29.0751721 C13.8827044,29.5797239 13.8827044,30.2345232 14.2178112,30.7390749 L14.2178112,30.7390749 L14.5871048,31.2961692 C14.8966738,31.7654572 15.0475897,32.3207746 15.0178855,32.881291 L15.0178855,32.881291 L14.9800473,33.5632909 C14.9469986,34.1626296 15.2735434,34.7246477 15.812117,34.9953709 L15.812117,34.9953709 L16.4166938,35.2991483 C16.9191671,35.550267 17.3268881,35.9557957 17.5793843,36.455587 L17.5793843,36.455587 L17.8847795,37.0570532 C18.1570261,37.5926863 18.7219945,37.9174404 19.3244865,37.8846227 L19.3244865,37.8846227 L20.0099332,37.8470772 C20.0571692,37.8444942 20.1043742,37.8432028 20.1515483,37.8432028 C20.6675257,37.8437675 21.1721386,37.9939936 21.6035898,38.2754835 L21.6035898,38.2754835 L22.1636511,38.6428207 C22.670963,38.9760221 23.3291964,38.9760221 23.8365083,38.6428207 L23.8365083,38.6428207 L24.3965695,38.2754835 C24.8683088,37.967456 25.4266268,37.8173604 25.9901334,37.8470772 L25.9901334,37.8470772 L26.6757656,37.8846227 C27.2782482,37.9175 27.84322,37.592723 28.1153799,37.0570532 L28.1153799,37.0570532 L28.4207751,36.4556792 C28.6732173,35.9558263 29.0809505,35.5502531 29.5834655,35.2991483 L29.5834655,35.2991483 L30.1880423,34.9953709 C30.726648,34.724634 31.0531985,34.1625699 31.0201121,33.5631987 L31.0201121,33.5631987 L30.9822739,32.8813832 C30.9525571,32.3207947 31.1035074,31.7654057 31.4131473,31.2960769 L31.4131473,31.2960769 L31.7822554,30.7390749 C32.1173623,30.2345232 32.1173623,29.5797239 31.7822554,29.0751721 L31.7822554,29.0751721 L31.4129618,28.5180779 C31.1033737,28.048764 30.952457,27.4934112 30.9821812,26.9328639 L30.9821812,26.9328639 L31.0200194,26.2508639 C31.0531035,25.6515405 30.7265429,25.0895313 30.1879496,24.8188762 L30.1879496,24.8188762 L29.5833728,24.5150988 C29.0808852,24.2639562 28.6731625,23.8583935 28.4206823,23.3585678 L28.4206823,23.3585678 L28.1152871,22.7571939 C27.8429171,22.221711 27.2781007,21.8969872 26.6756728,21.9295321 L26.6756728,21.9295321 L25.9901334,21.9670776 C25.4265936,21.9968338 24.8682339,21.8467357 24.3964768,21.5386713 L24.3964768,21.5386713 Z M23,23 C26.8642517,23.0042012 29.9957988,26.1357483 30,30 C30,33.8659932 26.8659932,37 23,37 C19.1340068,37 16,33.8659932 16,30 C16,26.1340068 19.1340068,23 23,23 Z M23,24.1155378 C19.7501013,24.1155378 17.1155378,26.7501013 17.1155378,30 C17.1155378,33.2498987 19.7501013,35.8844622 23,35.8844622 C26.2484333,35.880927 28.880927,33.2484333 28.8844622,30 C28.8844622,26.7501013 26.2498987,24.1155378 23,24.1155378 Z M23,26 C23.2092841,26 23.4004121,26.1163225 23.4929928,26.3000406 L23.4929928,26.3000406 L24.4312457,28.1609301 L26.5292823,28.4598239 C26.7363533,28.489259 26.9083947,28.6312119 26.973068,28.8259953 C27.0377413,29.0207787 26.9838296,29.2346101 26.8340015,29.3775793 L26.8340015,29.3775793 L25.3158109,30.8261335 L25.6741263,32.8707714 C25.7095866,33.0726696 25.6248403,33.2767611 25.4555352,33.3971962 C25.2862301,33.5176313 25.0617443,33.5335121 24.8765059,33.4381584 L24.8765059,33.4381584 L23,32.4725154 L21.1234941,33.4379791 C20.9382877,33.5332999 20.7138543,33.5174316 20.5445662,33.3970466 C20.3752781,33.2766616 20.2904975,33.0726402 20.3258737,32.8707714 L20.3258737,32.8707714 L20.6841891,30.8261335 L19.1659985,29.3771309 C19.0161704,29.2341618 18.9622587,29.0203303 19.026932,28.8255469 C19.0916053,28.6307635 19.2636467,28.4888106 19.4707177,28.4593755 L19.4707177,28.4593755 L21.5687543,28.1609301 L22.5070072,26.3000406 C22.5995879,26.1163225 22.7907159,26 23,26 Z M23,27.7538858 L22.4266588,28.8912604 C22.3466112,29.050019 22.1918991,29.1600747 22.012915,29.1855807 L22.012915,29.1855807 L20.7310055,29.3678942 L21.6585392,30.2529175 C21.7880877,30.3765078 21.8472203,30.5545753 21.8166707,30.7291029 L21.8166707,30.7291029 L21.5977053,31.9786636 L22.7442044,31.3887677 C22.9043206,31.3062687 23.0956794,31.3062687 23.2557956,31.3887677 L23.2557956,31.3887677 L24.4022947,31.9786636 L24.1833293,30.7291029 C24.1527797,30.5545753 24.2119123,30.3765078 24.3414608,30.2529175 L24.3414608,30.2529175 L25.2689945,29.3675355 L23.987085,29.185222 C23.8081009,29.159716 23.6533888,29.0496602 23.5733412,28.8909017 L23.5733412,28.8909017 L23,27.7538858 Z M44.0019588,9.22494198 L35.2331378,9.22494198 L24.2551399,20.1384173 C24.3208004,20.1739334 24.3857189,20.2054827 24.448968,20.2469949 L24.448968,20.2469949 L25.0090293,20.6143321 C25.2812957,20.7922756 25.6036006,20.8790267 25.9289245,20.8619295 L25.9289245,20.8619295 L26.614464,20.8250298 C27.6584069,20.768434 28.6371707,21.3313894 29.108633,22.2596005 L29.108633,22.2596005 L29.4140282,22.8624505 C29.5077091,23.0483169 29.6388444,23.2130161 29.7992732,23.3462987 L29.7992732,23.3462987 L44.0019588,9.22494198 Z M10.8102388,9.22494198 L2.04132497,9.22494198 L16.2240713,23.326834 C16.3739798,23.1958778 16.4968273,23.0371474 16.5857602,22.8594985 L16.5857602,22.8594985 L16.8911554,22.2582168 C17.3621631,21.3296961 18.341374,20.766882 19.3853244,20.8246608 L19.3853244,20.8246608 L20.0708639,20.8625753 C20.3960862,20.8800697 20.718412,20.7936686 20.9907591,20.6159926 L20.9907591,20.6159926 L21.5508204,20.2502236 C21.6233436,20.2028074 21.6979072,20.1637859 21.7733981,20.1241187 L21.7733981,20.1241187 L10.8102388,9.22494198 Z M33.6594204,9.22494198 L12.3838634,9.22494198 L23.0215028,19.8059504 L33.6594204,9.22494198 Z M44.8867981,1.10699304 L1.1131758,1.10699304 L1.1131758,8.11794895 L44.8867981,8.11794895 L44.8867981,1.10699304 Z" id="Combined-Shape"></path>
            </g>
        </g>
    </g>
</svg>