<?xml version="1.0" encoding="UTF-8"?>
<svg width="66px" height="54px" viewBox="0 0 66 54" version="1.1" xmlns="http://www.w3.org/2000/svg" xmlns:xlink="http://www.w3.org/1999/xlink">
    <!-- Generator: Sketch 61 (89581) - https://sketch.com -->
    <title>Instant Messaging - Pink</title>
    <desc>Created with Sketch.</desc>
    <g id="Page-1" stroke="none" stroke-width="1" fill="none" fill-rule="evenodd">
        <g id="Admin---Features" transform="translate(-131.000000, -153.000000)" fill="#CB097A" fill-rule="nonzero" stroke="#FFFFFF" stroke-width="0.4">
            <g id="Instant-Messaging---Pink" transform="translate(132.000000, 154.000000)">
                <path d="M60.8,0 C62.5673333,0 64,1.42536441 64,3.18368971 L64,3.18368971 L64,28.6532074 C64,30.4115327 62.5673333,31.8368971 60.8,31.8368971 L60.8,31.8368971 L56.5333333,31.8368971 L56.5333333,38.2042765 C56.5333333,38.4855025 56.4209333,38.7553202 56.2210667,38.9543008 C55.8045333,39.3688437 55.1292,39.3689764 54.7125333,38.9545661 L54.7125333,38.9545661 L47.5584,31.8368971 L42.6666667,31.8368971 L42.6666667,41.3879662 C42.6666667,43.1462915 41.234,44.571656 39.4666667,44.571656 L39.4666667,44.571656 L16.4416,44.571656 L9.28746667,51.6893249 C9.08746667,51.8881729 8.8164,52 8.5336,52 C7.9444,52 7.4668,51.5250996 7.46666667,50.9390354 L7.46666667,50.9390354 L7.46666667,44.571656 L3.2,44.571656 C1.43266667,44.571656 0,43.1462915 0,41.3879662 L0,41.3879662 L0,15.9184486 C0,14.1601233 1.43266667,12.7347588 3.2,12.7347588 L3.2,12.7347588 L21.3333333,12.7347588 L21.3333333,3.18368971 C21.3333333,1.42536441 22.766,0 24.5333333,0 L24.5333333,0 Z M39.4666667,14.8572187 L3.2,14.8572187 C2.61093333,14.8572187 2.13333333,15.3323843 2.13333333,15.9184486 L2.13333333,15.9184486 L2.13333333,41.3879662 C2.13333333,41.9740305 2.61093333,42.4491961 3.2,42.4491961 L3.2,42.4491961 L8.53333333,42.4491961 C9.1224,42.4491961 9.6,42.9243618 9.6,43.5104261 L9.6,43.5104261 L9.6,48.3772264 L15.2458667,42.7601365 C15.4458667,42.5611559 15.7170667,42.4491961 16,42.4491961 L16,42.4491961 L39.4666667,42.4491961 C40.0557333,42.4491961 40.5333333,41.9740305 40.5333333,41.3879662 L40.5333333,41.3879662 L40.5333333,15.9184486 C40.5333333,15.3323843 40.0557333,14.8572187 39.4666667,14.8572187 L39.4666667,14.8572187 Z M36.2666667,33.9591837 L36.2666667,36.0816327 L6.4,36.0816327 L6.4,33.9591837 L36.2666667,33.9591837 Z M60.8,2.12245981 L24.5333333,2.12245981 C23.9442667,2.12245981 23.4666667,2.5976255 23.4666667,3.18368971 L23.4666667,3.18368971 L23.4666667,12.7347588 L39.4666667,12.7347588 C41.234,12.7347588 42.6666667,14.1601233 42.6666667,15.9184486 L42.6666667,15.9184486 L42.6666667,29.7144373 L48,29.7144373 C48.2829333,29.7144373 48.5541333,29.8263971 48.7541333,30.0253777 L48.7541333,30.0253777 L54.4,35.6424675 L54.4,30.7756672 C54.4,30.189603 54.8776,29.7144373 55.4666667,29.7144373 L55.4666667,29.7144373 L60.8,29.7144373 C61.3890667,29.7144373 61.8666667,29.2392716 61.8666667,28.6532074 L61.8666667,28.6532074 L61.8666667,3.18368971 C61.8666667,2.5976255 61.3890667,2.12245981 60.8,2.12245981 L60.8,2.12245981 Z M36.2666667,27.5918367 L36.2666667,29.7142857 L6.4,29.7142857 L6.4,27.5918367 L36.2666667,27.5918367 Z M8.53333333,21.2244898 L8.53333333,23.3469388 L6.4,23.3469388 L6.4,21.2244898 L8.53333333,21.2244898 Z M36.2666667,21.2244898 L36.2666667,23.3469388 L10.6666667,23.3469388 L10.6666667,21.2244898 L36.2666667,21.2244898 Z M57.6,19.1020408 L57.6,21.2244898 L44.8,21.2244898 L44.8,19.1020408 L57.6,19.1020408 Z M57.6,12.7346939 L57.6,14.8571429 L44.8,14.8571429 L44.8,12.7346939 L57.6,12.7346939 Z M57.6,6.36734694 L57.6,8.48979592 L32,8.48979592 L32,6.36734694 L57.6,6.36734694 Z M29.8666667,6.36734694 L29.8666667,8.48979592 L27.7333333,8.48979592 L27.7333333,6.36734694 L29.8666667,6.36734694 Z" id="Combined-Shape"></path>
            </g>
        </g>
    </g>
</svg>