<?xml version="1.0" encoding="UTF-8"?>
<svg width="58px" height="62px" viewBox="0 0 58 62" version="1.1" xmlns="http://www.w3.org/2000/svg" xmlns:xlink="http://www.w3.org/1999/xlink">
    <!-- Generator: Sketch 61 (89581) - https://sketch.com -->
    <title>Interactive UI - Pink</title>
    <desc>Created with Sketch.</desc>
    <g id="Page-1" stroke="none" stroke-width="1" fill="none" fill-rule="evenodd">
        <g id="Admin---Features" transform="translate(-311.000000, -46.000000)">
            <g id="Interactive-UI---Pink" transform="translate(312.000000, 47.000000)">
                <path d="M53,0 C54.6568542,0 56,1.34314575 56,3 L56,3 L56,47 C56,48.6568542 54.6568542,50 53,50 L53,50 L51.677,50 L50,54.192 L50,59 C50,59.5522847 49.5522847,60 49,60 L49,60 L35,60 C34.4477153,60 34,59.5522847 34,59 L34,59 L34,54.351 L30.52,50 L3,50 C1.34314575,50 0,48.6568542 0,47 L0,47 L0,3 C0,1.34314575 1.34314575,0 3,0 L3,0 Z M37,25 C36.4477153,25 36,25.4477153 36,26 L36,26 L36,44 L34,44 L34,38 C34,37.4477153 33.5522847,37 33,37 C32.4477153,37 32,37.4477153 32,38 L32,38 L32,48.649 L35.781,53.375 C35.9228687,53.5524122 36.0001065,53.7728397 36,54 L36,54 L36,58 L48,58 L48,54 C48.0000472,53.872637 48.0241356,53.7464275 48.071,53.628 L48.071,53.628 L50,48.808 L50,38 C50,37.4477153 49.5522847,37 49,37 C48.4477153,37 48,37.4477153 48,38 L48,38 L48,40 L46,40 L46,37 C46,36.4477153 45.5522847,36 45,36 C44.4477153,36 44,36.4477153 44,37 L44,37 L44,40 L42,40 L42,36 C42,35.4477153 41.5522847,35 41,35 C40.4477153,35 40,35.4477153 40,36 L40,36 L40,40 L38,40 L38,26 C38,25.4477153 37.5522847,25 37,25 Z M54,10 L2,10 L2,47 C2,47.5522847 2.44771525,48 3,48 L3,48 L30,48 L30,38 C30,36.3431458 31.3431458,35 33,35 C33.3414397,35.0033144 33.679743,35.0655622 34,35.184 L34,35.184 L34,26 C34,24.3431458 35.3431458,23 37,23 C38.6568542,23 40,24.3431458 40,26 L40,26 L40,33.184 C41.3157852,32.6948578 42.7938189,33.2041491 43.529,34.4 C44.9130307,33.5943959 46.6869043,34.0378643 47.529,35.4 C47.9761277,35.1408282 48.4831978,35.0029438 49,35 C50.6568542,35 52,36.3431458 52,38 L52,38 L52,48 L53,48 C53.5522847,48 54,47.5522847 54,47 L54,47 L54,10 Z M18,34 C19.2667854,34.0052506 20.3937454,34.8055222 20.816,35.9996849 L20.816,35.9996849 L26,35.9996849 L26,37.9993698 L20.816,37.9993698 C20.3985886,39.1973106 19.2687579,40 18,40 C16.7312421,40 15.6014114,39.1973106 15.184,37.9993698 L15.184,37.9993698 L6,37.9993698 L6,35.9996849 L15.184,35.9996849 C15.6062546,34.8055222 16.7332146,34.0052506 18,34 Z M18,35.9996849 C17.4477153,35.9996849 17,36.4473296 17,36.9995273 C17,37.5517251 17.4477153,37.9993698 18,37.9993698 C18.5522847,37.9993698 19,37.5517251 19,36.9995273 C19,36.4473296 18.5522847,35.9996849 18,35.9996849 Z M24.8888889,14 C25.5025386,14 26,14.4477153 26,15 L26,15 L26,31 C26,31.5522847 25.5025386,32 24.8888889,32 L24.8888889,32 L7.11111111,32 C6.49746139,32 6,31.5522847 6,31 L6,31 L6,15 C6,14.4477153 6.49746139,14 7.11111111,14 L7.11111111,14 Z M24,16 L8,16 L8,30 L24,30 L24,16 Z M32,22 L32,24 L30,24 L30,22 L32,22 Z M50,22 L50,24 L42,24 L42,22 L50,22 Z M36,18 L36,20 L30,20 L30,18 L36,18 Z M50,18 L50,20 L38,20 L38,18 L50,18 Z M50,14 L50,16 L30,16 L30,14 L50,14 Z M53,2 L3,2 C2.44771525,2 2,2.44771525 2,3 L2,3 L2,8 L54,8 L54,3 C54,2.44771525 53.5522847,2 53,2 L53,2 Z M6,4 L6,6 L4,6 L4,4 L6,4 Z M10,4 L10,6 L8,6 L8,4 L10,4 Z M14,4 L14,6 L12,6 L12,4 L14,4 Z" id="Combined-Shape" stroke="#FFFFFF" stroke-width="0.6" fill="#CB097A" fill-rule="nonzero"></path>
                <circle id="Oval" fill="#CB097A" cx="12.5" cy="23.5" r="1.5"></circle>
                <circle id="Oval-Copy" fill="#CB097A" cx="18.5" cy="26.5" r="1.5"></circle>
                <polyline id="Path-2" stroke="#CB097A" stroke-width="1.5" stroke-linecap="round" stroke-linejoin="round" points="10 28.0907886 12.5 23.3407283 18.5 26.7400643 21.6879136 18"></polyline>
            </g>
        </g>
    </g>
</svg>