<?xml version="1.0" encoding="UTF-8"?>
<svg width="60px" height="60px" viewBox="0 0 60 60" version="1.1" xmlns="http://www.w3.org/2000/svg" xmlns:xlink="http://www.w3.org/1999/xlink">
    <!-- Generator: Sketch 61 (89581) - https://sketch.com -->
    <title>Join Courses - pink</title>
    <desc>Created with Sketch.</desc>
    <g id="Page-1" stroke="none" stroke-width="1" fill="none" fill-rule="evenodd">
        <g id="Students---Features" transform="translate(-487.000000, -41.000000)" fill="#CB097A" fill-rule="nonzero" stroke="#FFFFFF" stroke-width="0.8">
            <path d="M527.45448,42 C527.765278,42.0050276 528.060993,42.1339175 528.276267,42.3583322 C528.460787,42.5502958 528.573111,42.7986734 528.596833,43.0611543 L528.601234,43.1933742 L528.601234,67.8703049 C529.06926,67.8465381 529.466899,67.8232282 529.900188,67.8232282 C538.768911,67.8232282 546,75.0310072 546,83.9116126 C546,92.792675 538.780794,100 529.911615,100 C524.485809,100.001339 519.435292,97.2619291 516.474627,92.734256 L516.280365,92.4297723 L493.862205,92.4297723 C490.718912,92.4355758 488.152069,89.9519977 488.027993,86.8381113 L488.02331,86.614644 L488.02331,86.4976375 L488.011655,86.4726709 L488.011655,86.4726709 L488,86.4391343 L488,47.8503216 C488.01875,44.697653 490.514236,42.1345174 493.638033,42.0050816 L493.862205,42 L527.45448,42 Z M520.293777,74.097241 C515.859416,78.4324208 514.877202,85.1991404 517.895145,90.6161726 C517.940851,90.6783322 517.980157,90.7450624 518.012151,90.8149921 C520.473857,95.0573893 525.006943,97.6690095 529.911615,97.6717518 C536.112499,97.6676383 541.543243,93.5120818 543.168079,87.5278427 C544.792914,81.5436036 542.209631,75.2124585 536.862528,72.0724813 C531.514969,68.9329611 524.727681,69.7625184 520.293777,74.097241 Z M513.835113,83.1862641 L493.862205,83.1862641 C491.955823,83.1862641 490.410515,84.7315717 490.410515,86.6379539 C490.410515,88.48079 491.85452,89.9862219 493.672815,90.0845365 L493.862205,90.0896436 L515.051797,90.0896436 C514.228638,88.13847 513.806775,86.0410383 513.811803,83.923496 C513.811803,83.6661733 513.82323,83.420277 513.835113,83.1862641 Z M527.974874,79.8485281 C528.443503,80.3171573 528.443503,81.0769553 527.974874,81.5455844 L526.519,83 L537.2,83 C537.862742,83 538.4,83.5372583 538.4,84.2 C538.4,84.8627417 537.862742,85.4 537.2,85.4 L526.386,85.4 L527.974874,86.9881728 C528.400964,87.4142627 528.431399,88.086181 528.066179,88.5473893 L527.974874,88.6498737 C527.548784,89.0759636 526.876865,89.1063986 526.415657,88.7411787 L526.313173,88.6498737 L523.025126,85.3618272 C522.955336,85.2920366 522.89616,85.2156509 522.847599,85.1346762 C522.574901,84.9154234 522.4,84.5781369 522.4,84.2 C522.4,83.7828577 522.612845,83.4154279 522.935856,83.2003893 C522.963604,83.1662492 522.993284,83.1330621 523.025126,83.1012193 L526.277817,79.8485281 C526.746447,79.379899 527.506245,79.379899 527.974874,79.8485281 Z M495.839431,44.3401286 L493.862205,44.3401286 C491.989767,44.3485233 490.460285,45.8107451 490.346776,47.6579066 L490.340129,47.8503216 L490.340129,81.96958 C491.28729,81.2890582 492.410481,80.9017882 493.571297,80.8516272 L493.862205,80.8461355 L495.839431,80.8461355 L495.839431,44.3401286 Z M526.261105,44.3401286 L498.17956,44.3401286 L498.17956,80.8461355 L514.115746,80.8461355 C515.321976,74.7575462 520.002236,69.8307855 525.930488,68.3135212 L526.261105,68.2327507 L526.261105,44.3401286 Z M521.854167,49 C522.486165,49.0018466 522.99821,49.5299716 523,50.1818182 L523,50.1818182 L523,60.8181818 C522.99821,61.4700284 522.486165,61.9981534 521.854167,62 L521.854167,62 L502.145833,62 C501.513835,61.9981534 501.00179,61.4700284 501,60.8181818 L501,60.8181818 L501,50.1818182 C501.00179,49.5299716 501.513835,49.0018466 502.145833,49 L502.145833,49 Z M520.708333,51.3636364 L503.291667,51.3636364 L503.291667,59.6363636 L520.708333,59.6363636 L520.708333,51.3636364 Z" id="Join-Courses---pink"></path>
        </g>
    </g>
</svg>