<?xml version="1.0" encoding="UTF-8"?>
<svg width="48px" height="66px" viewBox="0 0 48 66" version="1.1" xmlns="http://www.w3.org/2000/svg" xmlns:xlink="http://www.w3.org/1999/xlink">
    <!-- Generator: Sketch 61 (89581) - https://sketch.com -->
    <title>Mobile Learning - pink</title>
    <desc>Created with Sketch.</desc>
    <g id="Page-1" stroke="none" stroke-width="1" fill="none" fill-rule="evenodd">
        <g id="Home-Page-USPs-Copy-3" transform="translate(-493.000000, -158.000000)" fill="#CB097A" fill-rule="nonzero" stroke="#FFFFFF" stroke-width="0.6">
            <g id="Mobile-Learning---pink" transform="translate(494.000000, 159.000000)">
                <path d="M35.3023256,5.68434189e-14 C38.1779407,5.68434189e-14 40.5308447,2.274402 40.6466927,5.11383015 L40.6511628,5.33333333 L40.6511628,35.8805333 L45.751814,41.9829333 C45.8855349,42.1429333 45.968739,42.3377481 45.9927593,42.5426864 L46,42.6666667 L46,62.9333333 C46,63.4838756 45.5825149,63.9359241 45.0467424,63.9937504 L44.9302326,64 L34.2325581,64 C33.681414,64 33.2271859,63.5846542 33.1690717,63.0496913 L33.1627907,62.9333333 L33.1627907,61.2416 L29.1971628,57.2874667 C29.0247774,57.1164952 28.917626,56.8930177 28.8905294,56.6539786 L28.8837209,56.5333333 L28.8837209,55.4666667 L5.34883721,55.4666667 C2.47322209,55.4666667 0.120318081,53.1922647 0.00447014026,50.3528365 L0,50.1333333 L0,5.33333333 C0,2.46605333 2.28101363,0.119969333 5.12869594,0.00445718333 L5.34883721,5.68434189e-14 L35.3023256,5.68434189e-14 Z M32.627907,36.2666667 C31.7923592,36.2666667 31.1037591,36.906986 31.0298268,37.7212604 L31.0232558,37.8666667 L31.0232558,56.0917333 L34.9888837,60.0458667 C35.1612691,60.2168381 35.2684205,60.4403156 35.2955171,60.6793547 L35.3023256,60.8 L35.3023256,61.8666667 L43.8604651,61.8666667 L43.8604651,43.0538667 L40.6511628,39.2128 L40.6511628,49.0666667 C40.6511628,49.4976 40.3901395,49.888 39.9911163,50.0522667 C39.629107,50.2020267 39.2220391,50.1418347 38.9212055,49.9059051 L38.8250698,49.8208 L34.546,45.5541333 C34.3736146,45.3831619 34.2664632,45.1596844 34.2393666,44.9206453 L34.2325581,44.8 L34.2325581,37.8666667 C34.2325581,36.9845333 33.5126047,36.2666667 32.627907,36.2666667 Z M28.8837209,48 L2.13953488,48 L2.13953488,50.1333333 C2.13953488,51.8367632 3.48185007,53.2339266 5.16701719,53.3282572 L5.34883721,53.3333333 L28.8837209,53.3333333 L28.8837209,48 Z M38.5116279,9.6 L2.13953488,9.6 L2.13953488,45.8666667 L28.8837209,45.8666667 L28.8837209,37.8666667 C28.8837209,35.808 30.5632558,34.1333333 32.627907,34.1333333 C34.6259565,34.1333333 36.2633352,35.7016996 36.3668934,37.6686829 L36.372093,37.8666667 L36.372093,44.3584 L38.5116279,46.4917333 L38.5116279,9.6 Z M15,42 L15,44 L13,44 L13,42 L15,42 Z M11,42 L11,44 L9,44 L9,42 L11,42 Z M6,42 L6,44 L4,44 L4,42 L6,42 Z M20.2167723,14.0221136 L20.3584,14.0614265 L35.2917333,19.3115578 C35.7162667,19.4596115 36,19.8554714 36,20.2996325 C36,20.7034153 35.7655096,21.0672798 35.4039169,21.2413348 L35.2917333,21.2877072 L29.6,23.2890572 L29.6,30.799895 C29.6,31.1939698 29.376224,31.5506218 29.0282048,31.7305354 L28.9077333,31.7837696 L20.3744,34.9338483 C20.2538667,34.9779494 20.1269333,35 20,35 C19.9153778,35 19.8307556,34.9901998 19.7480296,34.9705993 L19.6256,34.9338483 L11.0922667,31.7837696 C10.7178667,31.6448511 10.4566507,31.3137148 10.4081515,30.9296761 L10.4,30.799895 L10.4,23.2890572 L7.2,22.1644791 L7.20068079,31.4003651 C7.68607224,31.7652789 8,32.3459786 8,33 C8,34.1045695 7.1045695,35 6,35 C4.8954305,35 4,34.1045695 4,33 C4,32.2328263 4.43194975,31.5665398 5.06591132,31.2310786 L5.06666667,21.4147604 L4.70826667,21.2877072 C4.28373333,21.1396535 4,20.7437936 4,20.2996325 C4,19.8958497 4.23449036,19.5319852 4.59528174,19.3579301 L4.7072,19.3115578 L19.6405333,14.0614265 C19.82656,13.9959049 20.0255573,13.9828006 20.2167723,14.0221136 Z M27.4666667,24.039826 L20.3584,26.5378384 C20.2432,26.5787895 20.1216,26.59979 20,26.59979 C19.9189333,26.59979 19.8378667,26.5904564 19.7586963,26.5724115 L19.6416,26.5388885 L12.5333333,24.039826 L12.5333333,30.0722268 L20,32.8285457 L27.4666667,30.0722268 L27.4666667,24.039826 Z M20,16.1646291 L8.23786667,20.2996325 L20,24.4346359 L31.7621333,20.2996325 L20,16.1646291 Z M35.3023256,2.13333333 L5.34883721,2.13333333 C3.64045549,2.13333333 2.23923059,3.47175775 2.14462576,5.15204032 L2.13953488,5.33333333 L2.13953488,7.46666667 L38.5116279,7.46666667 L38.5116279,5.33333333 C38.5116279,3.56906667 37.0717209,2.13333333 35.3023256,2.13333333 Z" id="Combined-Shape"></path>
            </g>
        </g>
    </g>
</svg>