<?xml version="1.0" encoding="UTF-8"?>
<svg width="56px" height="56px" viewBox="0 0 56 56" version="1.1" xmlns="http://www.w3.org/2000/svg" xmlns:xlink="http://www.w3.org/1999/xlink">
    <!-- Generator: Sketch 61 (89581) - https://sketch.com -->
    <title>Multi-Institute Architecture - Pink</title>
    <desc>Created with Sketch.</desc>
    <g id="Page-1" stroke="none" stroke-width="1" fill="none" fill-rule="evenodd">
        <g id="Admin---Features" transform="translate(-664.000000, -50.000000)" fill="#CB097A" fill-rule="nonzero" stroke="#FFFFFF" stroke-width="0.4">
            <g id="Multi-Institute-Architecture---Pink" transform="translate(665.000000, 51.000000)">
                <path d="M37.8,0 C38.7941125,0 39.6,0.805856448 39.6,1.79993076 L39.6,1.79993076 L39.6,14.399446 C39.6,15.3935203 38.7941125,16.1993768 37.8,16.1993768 L37.8,16.1993768 L30.6,16.1993768 L30.6,17.9993076 C32.5854,17.9993076 34.2,19.3717548 34.2,21.0591898 L34.2,21.0591898 L34.2,21.7791621 C34.1467423,22.7218334 33.3430897,23.4450928 32.4,23.3990998 L32.4,23.3990998 L27.9,23.3990998 L27.9,26.098996 L39.6,26.098996 C41.0911688,26.098996 42.3,27.3077807 42.3,28.7988921 L42.3,28.7988921 L42.3,30.5988228 L52.2,30.5988228 C53.1941125,30.5988228 54,31.4046793 54,32.3987536 L54,32.3987536 L54,44.9982689 C54,45.9923432 53.1941125,46.7981996 52.2,46.7981996 L52.2,46.7981996 L45,46.7981996 L45,48.5981304 C46.9854,48.5981304 48.6,49.9705776 48.6,51.6580127 L48.6,51.6580127 L48.6,52.377985 C48.5467423,53.3206562 47.7430897,54.0439157 46.8,53.9979227 L46.8,53.9979227 L36,53.9979227 C35.0569103,54.0439157 34.2532577,53.3206562 34.2,52.377985 L34.2,52.377985 L34.2,51.6580127 C34.2,49.9705776 35.8146,48.5981304 37.8,48.5981304 L37.8,48.5981304 L37.8,46.7981996 L30.6,46.7981996 C29.6058875,46.7981996 28.8,45.9923432 28.8,44.9982689 L28.8,44.9982689 L28.8,32.3987536 C28.8,31.4046793 29.6058875,30.5988228 30.6,30.5988228 L30.6,30.5988228 L40.5,30.5988228 L40.5,28.7988921 C40.5,28.301855 40.0970562,27.8989267 39.6,27.8989267 L39.6,27.8989267 L14.4,27.8989267 C13.9029438,27.8989267 13.5,28.301855 13.5,28.7988921 L13.5,28.7988921 L13.5,30.5988228 L23.4,30.5988228 C24.3941125,30.5988228 25.2,31.4046793 25.2,32.3987536 L25.2,32.3987536 L25.2,44.9982689 C25.2,45.9923432 24.3941125,46.7981996 23.4,46.7981996 L23.4,46.7981996 L16.2,46.7981996 L16.2,48.5981304 C18.1854,48.5981304 19.8,49.9705776 19.8,51.6580127 L19.8,51.6580127 L19.8,52.377985 C19.7467423,53.3206562 18.9430897,54.0439157 18,53.9979227 L18,53.9979227 L7.2,53.9979227 C6.25691024,54.0439157 5.4532577,53.3206562 5.4,52.377985 L5.4,52.377985 L5.4,51.6580127 C5.4,49.9705776 7.0146,48.5981304 9,48.5981304 L9,48.5981304 L9,46.7981996 L1.8,46.7981996 C0.80588745,46.7981996 0,45.9923432 0,44.9982689 L0,44.9982689 L0,32.3987536 C0,31.4046793 0.80588745,30.5988228 1.8,30.5988228 L1.8,30.5988228 L11.7,30.5988228 L11.7,28.7988921 C11.7,27.3077807 12.9088312,26.098996 14.4,26.098996 L14.4,26.098996 L26.1,26.098996 L26.1,23.3990998 L21.6,23.3990998 C20.6569102,23.4450928 19.8532577,22.7218334 19.8,21.7791621 L19.8,21.7791621 L19.8,21.0591898 C19.8,19.3717548 21.4146,17.9993076 23.4,17.9993076 L23.4,17.9993076 L23.4,16.1993768 L16.2,16.1993768 C15.2058874,16.1993768 14.4,15.3935203 14.4,14.399446 L14.4,14.399446 L14.4,1.79993076 C14.4,0.805856448 15.2058874,0 16.2,0 L16.2,0 Z M16.2,50.3980611 L9,50.3980611 C8.0244,50.3980611 7.2,50.974939 7.2,51.6580127 L7.2,51.6580127 L7.2,52.1826925 L18,52.1979919 L18,51.6580127 C18,50.974939 17.1756,50.3980611 16.2,50.3980611 L16.2,50.3980611 Z M45,50.3980611 L37.8,50.3980611 C36.8244,50.3980611 36,50.974939 36,51.6580127 L36,51.6580127 L36,52.1826925 L46.8,52.1979919 L46.8,51.6580127 C46.8,50.974939 45.9756,50.3980611 45,50.3980611 L45,50.3980611 Z M14.4,46.7981996 L10.8,46.7981996 L10.8,48.5981304 L14.4,48.5981304 L14.4,46.7981996 Z M43.2,46.7981996 L39.6,46.7981996 L39.6,48.5981304 L43.2,48.5981304 L43.2,46.7981996 Z M23.4,32.3987536 L1.8,32.3987536 L1.8,44.9982689 L23.4,44.9982689 L23.4,32.3987536 Z M52.2,32.3987536 L30.6,32.3987536 L30.6,44.9982689 L52.2,44.9982689 L52.2,32.3987536 Z M30.6,19.7992383 L23.4,19.7992383 C22.4244,19.7992383 21.6,20.3761161 21.6,21.0591898 L21.6,21.0591898 L21.6,21.5838697 L32.4,21.5991691 L32.4,21.0591898 C32.4,20.3761161 31.5756,19.7992383 30.6,19.7992383 L30.6,19.7992383 Z M28.8,16.1993768 L25.2,16.1993768 L25.2,17.9993076 L28.8,17.9993076 L28.8,16.1993768 Z M37.8,1.79993076 L16.2,1.79993076 L16.2,14.399446 L37.8,14.399446 L37.8,1.79993076 Z" id="Combined-Shape"></path>
            </g>
        </g>
    </g>
</svg>