<?xml version="1.0" encoding="UTF-8"?>
<svg width="62px" height="62px" viewBox="0 0 62 62" version="1.1" xmlns="http://www.w3.org/2000/svg" xmlns:xlink="http://www.w3.org/1999/xlink">
    <!-- Generator: Sketch 61 (89581) - https://sketch.com -->
    <title>Peer-to-Peer - Pink</title>
    <desc>Created with Sketch.</desc>
    <g id="Page-1" stroke="none" stroke-width="1" fill="none" fill-rule="evenodd">
        <g id="Students---Features" transform="translate(-662.000000, -40.000000)" stroke="#CB097A" stroke-width="1.5">
            <g id="Peer-to-Peer---Pink" transform="translate(663.000000, 41.000000)">
                <g id="Group" transform="translate(34.000000, 6.000000)">
                    <path d="M25.6122609,34.84 C25.6156522,34.6711111 25.6422174,34.5161111 25.6422174,34.3477778 C25.6422174,27.0677778 22.8754783,20.7838889 16.8457391,18.8444444 L12.7682609,24.5733333 L8.23634783,18.92 C2.54743478,20.7027778 0.0237391304,26.0172222 0.0237391304,33.1311111 C0.0237391304,33.7038889 0.0406956522,34.2744444 0.0734782609,34.8405556 L25.6122609,34.84 L25.6122609,34.84 Z" id="Path"></path>
                    <path d="M13.25,28.1979152 L5.06333985,26.05379 C5.0426621,26.0483744 5.02137518,26.045633 5,26.045633 C4.86192881,26.045633 4.75,26.1575618 4.75,26.295633 L4.75,38.8373054 C4.75,39.4056883 5.13346296,39.9025155 5.68330076,40.0465207 L12.9366602,41.94621 C12.9573379,41.9516256 12.9786248,41.954367 13,41.954367 C13.1380712,41.954367 13.25,41.8424382 13.25,41.704367 L13.25,28.1979152 Z" id="Rectangle" fill="#FFFFFF"></path>
                    <path d="M21.25,28.1979152 L13.0633398,26.05379 C13.0426621,26.0483744 13.0213752,26.045633 13,26.045633 C12.8619288,26.045633 12.75,26.1575618 12.75,26.295633 L12.75,38.8373054 C12.75,39.4056883 13.133463,39.9025155 13.6833008,40.0465207 L20.9366602,41.94621 C20.9573379,41.9516256 20.9786248,41.954367 21,41.954367 C21.1380712,41.954367 21.25,41.8424382 21.25,41.704367 L21.25,28.1979152 Z" id="Rectangle-Copy-3" fill="#FFFFFF" transform="translate(17.000000, 34.000000) scale(-1, 1) translate(-17.000000, -34.000000) "></path>
                    <polygon id="Path" points="5.13895652 7.48611111 5.29608696 6.20222222 5.55665217 4.95444444 5.73808696 4.43166667 5.98056522 3.94 6.41069565 3.24166667 6.70517391 2.76333333 7.09178261 2.36388889 7.53491304 1.92944444 8.16569565 1.5 8.95134783 1.06888889 9.854 0.709444444 10.5876522 0.510555556 10.9883913 0.401666667 11.5168696 0.401666667 12.032913 0.401666667 13.0248696 0.401666667 13.8093913 0.401666667 14.9573478 0.658333333 16.159 1.32611111 16.7332609 1.99277778 17.7257826 3.07055556 18.3531739 4.30277778 18.6137391 4.91888889 18.9257391 6.51055556 19.032 7.43444444 19.032 7.79333333 19.3456957 7.99888889 19.5011304 8.82055556 19.4485652 9.745 19.0851304 10.925 18.7171739 11.49 18.3000435 11.6438889 17.9863478 12.7733333 17.308087 14.3644444 16.8366957 15.0316667 16.2115652 15.9561111 15.1670435 16.7772222 14.0173913 17.65 13.13 17.9061111 11.8243478 18.0605556 10.3084348 17.9061111 8.84678261 17.1361111 8.0633913 16.3666667 7.384 15.2372222 6.44347826 13.6461111 6.02804348 12.7211111 5.50408696 11.7972222 5.24352174 11.3866667 4.82582609 10.925 4.56469565 10.3605556 4.51156522 9.23111111 4.56469565 8.25555556 4.56469565 7.89666667 4.9303913 7.74333333"></polygon>
                </g>
                <g id="Group" transform="translate(0.000000, 9.000000)">
                    <path d="M33.8407667,42.55925 C33.8453,42.3351974 33.8781667,42.1298158 33.8781667,41.9074605 C33.8781667,32.2709342 30.2747333,23.9504342 22.4150667,21.3834474 L17.1003,28.9684211 L11.1945,21.4801974 C3.78023333,23.8429342 0.4896,30.8773947 0.4896,40.2960921 C0.4896,41.05425 0.512833333,41.8078816 0.554766667,42.55925 L33.8407667,42.55925 Z" id="Path"></path>
                    <path d="M17.25,33.5966345 L6.05621488,31.0134533 C6.03777922,31.0091989 6.01892018,31.0070511 6,31.0070511 C5.86192881,31.0070511 5.75,31.1189799 5.75,31.2570511 L5.75,47.4089748 C5.75,47.9910447 6.15176175,48.4960798 6.71892562,48.6269638 L16.9437851,50.9865467 C16.9622208,50.9908011 16.9810798,50.9929489 17,50.9929489 C17.1380712,50.9929489 17.25,50.8810201 17.25,50.7429489 L17.25,33.5966345 Z" id="Rectangle" fill="#FFFFFF"></path>
                    <path d="M28.25,33.5966345 L17.0562149,31.0134533 C17.0377792,31.0091989 17.0189202,31.0070511 17,31.0070511 C16.8619288,31.0070511 16.75,31.1189799 16.75,31.2570511 L16.75,47.4089748 C16.75,47.9910447 17.1517618,48.4960798 17.7189256,48.6269638 L27.9437851,50.9865467 C27.9622208,50.9908011 27.9810798,50.9929489 28,50.9929489 C28.1380712,50.9929489 28.25,50.8810201 28.25,50.7429489 L28.25,33.5966345 Z" id="Rectangle-Copy-3" fill="#FFFFFF" transform="translate(22.500000, 41.000000) scale(-1, 1) translate(-22.500000, -41.000000) "></path>
                    <polygon id="Path" points="8.7992 8.815 8.9845 7.28623684 9.2905 5.79877632 9.50356667 5.17527632 9.78803333 4.59025 10.2923667 3.75740789 10.6369 3.18822368 11.0896667 2.71239474 11.6087333 2.19356579 12.3522 1.68322368 13.2724667 1.16948684 14.3287333 0.740618421 15.1923333 0.503552632 15.6621 0.373986842 16.2803333 0.373986842 16.8872333 0.373986842 18.0500333 0.373986842 18.9703 0.373986842 20.3172667 0.679513158 21.7265667 1.47501316 22.4003333 2.27051316 23.5648333 3.55485526 24.2998 5.02251316 24.6046667 5.75634211 24.973 7.65230263 25.0959667 8.75332895 25.0959667 9.18219737 25.4637333 9.42718421 25.6467667 10.4054342 25.5855667 11.5064605 25.1577333 12.9130132 24.7276333 13.5857368 24.2380333 13.7690526 23.8702667 15.1150658 23.0741 17.0110263 22.5216 17.8070921 21.7877667 18.9075526 20.5626333 19.8863684 19.2139667 20.9251579 18.173 21.23125 16.6413 21.4162632 14.8642333 21.23125 13.1495 20.3141053 12.2298 19.3963947 11.4347667 18.0509474 10.3309 16.1555526 9.84186667 15.0533947 9.22816667 13.9529342 8.92273333 13.4635263 8.432 12.9130132 8.12656667 12.2402895 8.06423333 10.8942763 8.12656667 9.73271053 8.12656667 9.30440789 8.55496667 9.12109211"></polygon>
                </g>
                <g id="Group" transform="translate(22.000000, 0.000000)">
                    <ellipse id="Oval" cx="18.9460833" cy="3.272" rx="1.75" ry="1.71428571"></ellipse>
                    <ellipse id="Oval" cx="11.5949167" cy="2.70057143" rx="2.45" ry="2.4"></ellipse>
                    <ellipse id="Oval" cx="3.311" cy="5.21428571" rx="2.8" ry="2.74285714"></ellipse>
                </g>
            </g>
        </g>
    </g>
</svg>