<?xml version="1.0" encoding="UTF-8"?>
<svg width="62px" height="62px" viewBox="0 0 62 62" version="1.1" xmlns="http://www.w3.org/2000/svg" xmlns:xlink="http://www.w3.org/1999/xlink">
    <!-- Generator: Sketch 61 (89581) - https://sketch.com -->
    <title>Private Message to Faculty - pink</title>
    <desc>Created with Sketch.</desc>
    <g id="Page-1" stroke="none" stroke-width="1" fill="none" fill-rule="evenodd">
        <g id="Students---Features" transform="translate(-485.000000, -160.000000)" fill="#CB097A" fill-rule="nonzero" stroke="#FFFFFF" stroke-width="0.4">
            <g id="Private-Message-to-Faculty---pink" transform="translate(486.000000, 161.000000)">
                <path d="M20.7691956,27 C23.9991761,27 26.6271973,29.6838772 26.6271973,32.9835499 L26.6271973,32.9835499 L26.6271973,34.7968034 C26.6271973,36.6965583 25.7546998,38.391048 24.3988037,39.4879777 L24.3988037,39.4879777 L26.8212891,40.3469119 C30.0320435,41.4854556 32.1894837,44.5831361 32.1894837,48.0548762 L32.1894837,48.0548762 L32.1894837,50.6924636 L38.7327575,50.6924636 C39.6679688,49.4033608 40.9739685,48.392465 42.5276184,47.8411947 L42.5276184,47.8411947 L44.9501038,46.9822605 C43.5942077,45.8853309 42.7217102,44.1908412 42.7217102,42.2910864 L42.7217102,42.2910864 L42.7217102,40.4778327 C42.7217102,37.1786276 45.3497314,34.4942828 48.5797119,34.4942828 C51.8096924,34.4942828 54.4377136,37.1786276 54.4377136,40.4778327 L54.4377136,40.4778327 L54.4377136,42.2910864 C54.4377136,44.1908412 53.5656738,45.8853309 52.2097779,46.9822605 L52.2097779,46.9822605 L54.6318054,47.8411947 C57.8430176,48.980206 60,52.0778865 60,55.549159 L60,55.549159 L60,59.0933732 C60,59.5941454 59.6026611,60 59.1123962,60 L59.1123962,60 L38.0474854,60 C38.0072021,60 37.9678345,59.9962594 37.9289245,59.9911161 C37.8900146,59.9962594 37.850647,60 37.8108216,60 L37.8108216,60 L0.887603789,60 C0.397338867,60 0,59.5941454 0,59.0933732 L0,59.0933732 L0,51.5990903 C0,51.0983181 0.397338867,50.6924636 0.887603789,50.6924636 L0.887603789,50.6924636 L9.3489075,50.6924636 L9.3489075,48.0548762 C9.3489075,44.5831361 11.5063477,41.4854556 14.7171021,40.3469119 L14.7171021,40.3469119 L17.1391296,39.4879777 C15.7836914,38.391048 14.9111939,36.6965583 14.9111939,34.7968034 L14.9111939,34.7968034 L14.9111939,32.9835499 C14.9111939,29.6843447 17.5392151,27 20.7691956,27 Z M37.7380371,52.5057172 L1.77520758,52.5057172 L1.77520758,58.1867463 L37.1598816,58.1867463 L37.1598816,55.549159 C37.1598816,54.4840246 37.3635865,53.4544256 37.7380371,52.5057172 L37.7380371,52.5057172 Z M50.4418945,48.2746362 L46.7175293,48.2746362 L43.1098938,49.5539199 C40.612793,50.4399733 38.9350891,52.8489167 38.9350891,55.549159 L38.9350891,55.549159 L38.9350891,58.1867463 L58.2247924,58.1867463 L58.2247924,55.549159 C58.2247924,52.8489167 56.5470886,50.4399733 54.04953,49.5539199 L54.04953,49.5539199 L50.4418945,48.2746362 Z M25.2008057,41.6916559 L21.5382386,48.1834592 C21.3798523,48.4644714 21.0864258,48.637474 20.7691956,48.637474 C20.4519654,48.637474 20.1585388,48.4644714 20.0001526,48.1834592 L20.0001526,48.1834592 L16.3375854,41.6916559 L15.2993775,42.059637 C12.8022766,42.9452229 11.124115,45.354634 11.124115,48.0548762 L11.124115,48.0548762 L11.124115,50.6924636 L30.4138184,50.6924636 L30.4138184,48.0548762 C30.4138184,45.354634 28.7361145,42.9452229 26.2390137,42.059637 L26.2390137,42.059637 L25.2008057,41.6916559 Z M48.5797119,36.3075364 C46.3284302,36.3075364 44.4969177,38.1783016 44.4969177,40.4778327 L44.4969177,40.4778327 L44.4969177,42.2910864 C44.4969177,44.5906173 46.3284302,46.4613826 48.5797119,46.4613826 C50.8309936,46.4613826 52.6625061,44.5906173 52.6625061,42.2910864 L52.6625061,42.2910864 L52.6625061,40.4778327 C52.6625061,38.1783016 50.8309936,36.3075364 48.5797119,36.3075364 Z M22.6313782,40.7803534 L18.907013,40.7803534 L18.0445862,41.086147 L20.7691956,45.9147881 L23.493805,41.086147 L22.6313782,40.7803534 Z M20.7691956,28.8132536 C18.5179138,28.8132536 16.6864014,30.6840189 16.6864014,32.9835499 L16.6864014,32.9835499 L16.6864014,34.7968034 C16.6864014,37.0963345 18.5179138,38.9670997 20.7691956,38.9670997 C23.0204773,38.9670997 24.8519897,37.0963345 24.8519897,34.7968034 L24.8519897,34.7968034 L24.8519897,32.9835499 C24.8519897,30.6840189 23.0204773,28.8132536 20.7691956,28.8132536 Z M30.9466553,0 C34.0461731,0 36.5679932,2.53180649 36.5679932,5.64359849 L36.5679932,5.64359849 L36.5679932,6.41568688 L41.2129212,6.41568688 C41.7031861,6.41568688 42.1005248,6.81459922 42.1005248,7.3068056 C42.1005248,7.79901186 41.7031861,8.19792431 41.2129212,8.19792431 L41.2129212,8.19792431 L29.0533447,8.19792431 C26.9320678,8.19792431 25.2067566,9.93006783 25.2067566,12.0592854 L25.2067566,12.0592854 L25.2067566,24.4159167 C25.2067566,26.5451343 26.9325257,28.2772778 29.0533447,28.2772778 L29.0533447,28.2772778 L36.2722779,28.2772778 C36.5075684,28.2772778 36.7332458,28.3710314 36.8998718,28.5383172 L36.8998718,28.5383172 L41.3017273,32.9580636 L41.3017273,29.1683965 C41.3017273,28.6761901 41.6990661,28.2772778 42.1893311,28.2772778 L42.1893311,28.2772778 L54.3786621,28.2772778 C56.4994812,28.2772778 58.2247924,26.5451343 58.2247924,24.4159167 L58.2247924,24.4159167 L58.2247924,12.0597449 C58.2247924,9.93006783 56.4994812,8.19792431 54.3786621,8.19792431 L54.3786621,8.19792431 L45.3625488,8.19792431 C44.8722839,8.19792431 44.474945,7.79901186 44.474945,7.3068056 C44.474945,6.81505876 44.8722839,6.41568688 45.3625488,6.41568688 L45.3625488,6.41568688 L54.3786621,6.41568688 C57.47818,6.41568688 60,8.94749337 60,12.0592854 L60,12.0592854 L60,24.4159167 C60,27.5277086 57.47818,30.0590557 54.3786621,30.0590557 L54.3786621,30.0590557 L43.0769348,30.0590557 L43.0769348,35.1088813 C43.0769348,35.4691892 42.8604127,35.7941098 42.5289916,35.9319827 C42.4191284,35.9779403 42.303772,36 42.1893311,36 C41.9586182,36 41.7315674,35.9094635 41.561737,35.7389606 L41.561737,35.7389606 L35.9046936,30.0590557 L29.0533447,30.0590557 C25.9538269,30.0590557 23.4320068,27.5277086 23.4320068,24.4159167 L23.4320068,24.4159167 L23.4320068,23.6433688 L15.0297546,23.6433688 L15.0297546,28.6931944 C15.0297546,29.0535023 14.8132324,29.3784229 14.4818115,29.5162958 C14.3719482,29.5617939 14.2565918,29.5838536 14.1421509,29.5838536 C13.911438,29.5843131 13.6843873,29.4937766 13.5145569,29.3232737 L13.5145569,29.3232737 L7.85705566,23.6433688 L5.62133789,23.6433688 C2.52182004,23.6433688 0,21.1120217 0,17.9997703 L0,17.9997703 L0,11.7573437 C0,11.2651373 0.397338867,10.866225 0.887603789,10.866225 C1.37786859,10.866225 1.77520758,11.2651373 1.77520758,11.7573437 L1.77520758,11.7573437 L1.77520758,17.9997703 C1.77520758,20.1289878 3.50051883,21.8611313 5.62133789,21.8611313 L5.62133789,21.8611313 L8.22509766,21.8611313 C8.46038812,21.8611313 8.6860657,21.9548849 8.85269168,22.1221708 L8.85269168,22.1221708 L13.2545471,26.5419172 L13.2545471,22.7522501 C13.2545471,22.2600437 13.651886,21.8611313 14.1421509,21.8611313 L14.1421509,21.8611313 L23.4320068,21.8611313 L23.4320068,12.0592854 C23.4320068,8.94749337 25.9538269,6.41568688 29.0533447,6.41568688 L29.0533447,6.41568688 L34.7927857,6.41568688 L34.7927857,5.64359849 C34.7927857,3.51438094 33.0674743,1.78223743 30.9466553,1.78223743 L30.9466553,1.78223743 L5.62133789,1.78223743 C3.50051883,1.78223743 1.77520758,3.51438094 1.77520758,5.64359849 L1.77520758,5.64359849 L1.77520758,7.61380265 C1.77520758,8.10600903 1.37786859,8.50492125 0.887603789,8.50492125 C0.397338867,8.50492125 0,8.10600903 0,7.61380265 L0,7.61380265 L0,5.64359849 C0,2.53180649 2.52182004,0 5.62133789,0 L5.62133789,0 Z" id="Combined-Shape"></path>
            </g>
        </g>
    </g>
</svg>