<?xml version="1.0" encoding="UTF-8"?>
<svg width="51px" height="51px" viewBox="0 0 51 51" version="1.1" xmlns="http://www.w3.org/2000/svg" xmlns:xlink="http://www.w3.org/1999/xlink">
    <!-- Generator: Sketch 61 (89581) - https://sketch.com -->
    <title>Quick Search - Pink</title>
    <desc>Created with Sketch.</desc>
    <g id="Page-1" stroke="none" stroke-width="1" fill="none" fill-rule="evenodd">
        <g id="Admin---Features" transform="translate(-315.000000, -154.000000)" fill-rule="nonzero">
            <g id="Quick-Search---Pink" transform="translate(317.000000, 154.000000)">
                <path d="M17.0857143,2 C19.207647,2 21.2370595,2.38329788 23.1087495,3.08469021 L19.6215136,7.52529936 C18.8054898,7.34959335 17.9571583,7.25714286 17.0857143,7.25714286 C10.5142857,7.25714286 5.25714286,12.5142857 5.25714286,19.0857143 C5.25714286,25.6571429 10.5142857,30.9142857 17.0857143,30.9142857 C23.6571429,30.9142857 28.9142857,25.6571429 28.9142857,19.0857143 C28.9142857,17.9076923 28.745344,16.7719058 28.4301744,15.7010686 L32.9720613,12.7650811 C33.7462902,14.7185366 34.1715073,16.8508084 34.1715317,19.0857143 C34.1715317,23.2914286 32.9190876,26.9008709 30.2905162,29.7922995 L30.2905162,29.7922995 L31.4129276,29.7922995 L46,44.0571429 L42.0571429,48 L27.7358999,33.2782632 L27.7358999,32.2450832 C24.8444713,34.8736546 21.2914286,36.1714286 17.0857143,36.1714286 C7.62285714,36.1714286 0,28.5485714 0,19.0857143 C0,9.62285714 7.62285714,2 17.0857143,2 Z" id="Combined-Shape" stroke="#FFFFFF" stroke-width="3" fill="#CB097A"></path>
                <path d="M28.026661,1.00293359 L36.9232149,3.18561671 C36.9768527,3.19877622 37.0096668,3.25292612 36.9965073,3.30656391 C36.9912632,3.32793886 36.9791139,3.34698674 36.9619431,3.36075449 L28.9360866,9.79405134 L33.8116163,10.4840491 C33.8663016,10.4917753 33.9043695,10.5423699 33.8966433,10.5970552 C33.8926831,10.6250855 33.877028,10.650124 33.8535621,10.6659585 L11.1580222,25.9807273 C11.1122417,26.0116196 11.0500862,25.9995503 11.0191939,25.9537699 C10.9950285,25.9179582 10.9965931,25.8706771 11.0230731,25.8365414 L20.5990866,13.4900513 L16.2870292,12.8427536 C16.2324127,12.8345551 16.1947834,12.7836335 16.2029818,12.7290169 C16.2061701,12.707777 16.2161122,12.6881279 16.2313365,12.672978 L27.9322963,1.02916981 C27.9570223,1.00456453 27.9927831,0.994621968 28.026661,1.00293359 Z" id="Combined-Shape" stroke="#CB097A" stroke-width="1.5" fill="#FFFFFF" transform="translate(24.000749, 13.498948) rotate(-3.000000) translate(-24.000749, -13.498948) "></path>
            </g>
        </g>
    </g>
</svg>