<?xml version="1.0" encoding="UTF-8"?>
<svg width="54px" height="63px" viewBox="0 0 54 63" version="1.1" xmlns="http://www.w3.org/2000/svg" xmlns:xlink="http://www.w3.org/1999/xlink">
    <!-- Generator: Sketch 61 (89581) - https://sketch.com -->
    <title>QuizAssignments - pink</title>
    <desc>Created with Sketch.</desc>
    <g id="Page-1" stroke="none" stroke-width="1" fill="none" fill-rule="evenodd">
        <g id="Home-Page-USPs-Copy-3" transform="translate(-142.000000, -160.000000)" fill="#CB097A" fill-rule="nonzero">
            <g id="QuizAssignments---pink" transform="translate(142.000000, 160.000000)">
                <path d="M53.4360623,55.1636367 C53.0023207,52.730877 51.2969887,50.6959277 48.9852512,49.8533027 L47.0287605,49.1402461 L47.0287605,45.9599766 C47.0389244,45.9500098 47.0497006,45.9407812 47.0598645,45.9306914 C48.2437759,44.7637148 48.9227982,43.1446641 48.9227982,41.4888223 L48.9227982,37.8152578 C48.9227982,36.0820195 48.1936911,34.5176016 47.0287605,33.4120254 L47.0287605,15.6766641 C47.0287605,14.9161113 46.721884,14.1726621 46.1867482,13.6370391 L33.3925948,0.834626953 C33.164213,0.608712891 32.9047273,0.42721875 32.6247913,0.291498047 C32.6100965,0.283253906 32.5309894,0.245970703 32.5207031,0.241787109 C32.1574965,0.0818261719 31.7723702,0 31.3749982,0 L4.38370491,0 C1.96653213,0 0,1.97588672 0,4.40446289 L0,56.0771484 C0,56.5869316 0.411209595,57 0.918425242,57 C1.42564089,57 1.83685048,56.5869316 1.83685048,56.0771484 L1.83685048,4.40446289 C1.83685048,2.99348438 2.97937149,1.84570313 4.38370491,1.84570313 L31.2598889,1.84570313 L31.2598889,9.76770703 C31.2598889,13.0870195 33.9475685,15.7874063 37.2513278,15.7874063 L45.268323,15.7874063 C45.7755386,15.7874063 46.1867482,15.3743379 46.1867482,14.8645547 C46.1867482,14.3547715 45.7755386,13.9417031 45.268323,13.9417031 L37.2513278,13.9417031 C34.9605303,13.9417031 33.0967394,12.0691758 33.0967394,9.76770703 L33.0967394,3.14347852 L44.8905441,14.9447813 C45.0820663,15.1366113 45.19191,15.403377 45.19191,15.6766641 L45.19191,32.2144102 C44.4825183,31.9192207 43.705653,31.7553223 42.891316,31.7553223 C39.5655145,31.7553223 36.8598337,34.4737969 36.8598337,37.8152578 L36.8598337,41.6038711 C36.8598337,43.3233281 37.5906553,44.8879922 38.7554634,45.9970137 L38.7554634,49.1914336 L36.8933869,49.8695449 C34.6128758,50.7012188 32.9134217,52.7044219 32.4582502,55.0973145 L31.9236042,57.9043828 C31.7058762,59.0452734 31.9563002,60.2100352 32.6094842,61.1542969 L4.38370491,61.1542969 C2.97937149,61.1542969 1.83685048,60.0065156 1.83685048,58.5955371 L1.83685048,56.5645254 C1.83685048,56.0547422 1.42564089,55.6416738 0.918425242,55.6416738 C0.411209595,55.6416738 0,56.0547422 0,56.5645254 L0,58.5955371 C0,61.0241133 1.96653213,63 4.38370491,63 L49.7306451,63 C50.9980719,63 52.19129,62.4400137 53.0045249,61.4637598 C53.8176374,60.4872598 54.1559853,59.2085566 53.9327467,57.9552012 L53.4360623,55.1636367 Z M38.6965618,37.8152578 C38.6965618,35.4915176 40.5783539,33.6010254 42.8911935,33.6010254 C44.9664672,33.6010254 46.693719,35.1234844 47.0268012,37.114752 C46.747355,37.2675762 46.453214,37.4074805 46.1479294,37.5302812 C44.4110036,38.2293105 42.8790703,38.1873516 42.3195657,37.7933555 C41.904315,37.500627 41.331585,37.6016484 41.040383,38.0191465 C40.749181,38.4365215 40.8497179,39.0118887 41.265091,39.3044941 C41.8482298,39.7153477 42.6664855,39.9200977 43.6054835,39.9200977 C44.5917497,39.9200977 45.7111264,39.6941836 46.830748,39.243832 C46.9165901,39.2092559 47.0013302,39.1725879 47.0858253,39.1359199 L47.0858253,41.4889453 C47.0858253,42.6523535 46.6075094,43.7910293 45.7734569,44.6131055 C44.9636507,45.4113105 43.9092985,45.8439434 42.8086577,45.8177344 C40.5412495,45.7739297 38.6964393,43.8835605 38.6964393,41.6039941 L38.6964393,37.8152578 L38.6965618,37.8152578 Z M42.7733902,47.6630684 C42.8118416,47.6638066 42.8500481,47.6641758 42.8884995,47.6641758 C43.6893663,47.6641758 44.4686807,47.5008926 45.19191,47.1909375 L45.19191,49.3497949 C43.824681,50.3229727 41.9613798,50.3244492 40.5921915,49.3484414 L40.5921915,47.1999199 C41.2676626,47.483543 42.0031376,47.6481797 42.7733902,47.6630684 Z M51.5957831,60.2791875 C51.1325294,60.8353594 50.4526498,61.1542969 49.7305226,61.1542969 L36.1162767,61.1542969 C35.3883941,61.1542969 34.7049632,60.8309297 34.2412197,60.267252 C33.7778436,59.7039434 33.5906073,58.9693535 33.7275138,58.2516211 L34.2622823,55.4441836 C34.596589,53.6867051 35.8449126,52.2154336 37.5196304,51.6046289 L39.5470236,50.8663477 C40.5441884,51.5709141 41.7184257,51.9227051 42.8927855,51.9227051 C44.086126,51.9227051 45.2792216,51.5588555 46.2854483,50.8328789 L48.3588851,51.5886328 C50.0568697,52.2075586 51.3094793,53.702209 51.6279892,55.4889727 L52.1246736,58.2804141 C52.2517836,58.994332 52.0591592,59.7228926 51.5957831,60.2791875 L51.5957831,60.2791875 Z" id="Shape"></path>
                <path d="M21.0288748,55 C21.5651949,55 22,55.4476 22,56 C22,56.5524 21.5651949,57 21.0288748,57 L21.0288748,57 L14.9711252,57 C14.4348051,57 14,56.5524 14,56 C14,55.4476 14.4348051,55 14.9711252,55 L14.9711252,55 Z M9.58774058,51.2423607 C9.91068769,50.9193602 10.4344841,50.9192499 10.7575415,51.242471 C11.0805989,51.5655819 11.0804886,52.089465 10.7576518,52.4124655 L10.7576518,52.4124655 L9.6700215,53.5000552 L10.7576518,54.5876448 C11.0807092,54.9106453 11.0808195,55.4345284 10.7577621,55.7576393 C10.5961782,55.9192499 10.3845199,56 10.1727513,56 C9.96098273,56 9.74932443,55.9193602 9.58785088,55.7577496 L9.58785088,55.7577496 L8.5,54.6699393 L7.41214912,55.7577496 C7.25056527,55.9192499 7.03890697,56 6.82724867,56 C6.61548007,56 6.40371147,55.9192499 6.24223792,55.7576393 C5.91918051,55.4346387 5.9192908,54.9107557 6.24234821,54.5876448 L6.24234821,54.5876448 L7.3299785,53.5000552 L6.24234821,52.4124655 C5.9192908,52.089465 5.91918051,51.5655819 6.24223792,51.242471 C6.56518503,50.9192499 7.08898142,50.9191396 7.41203883,51.2423607 L7.41203883,51.2423607 L8.4998897,52.330171 Z M29.0961337,51 C29.5953089,51 30,51.4476 30,52 C30,52.5524 29.5953089,53 29.0961337,53 L29.0961337,53 L14.9038663,53 C14.4046911,53 14,52.5524 14,52 C14,51.4476 14.4046911,51 14.9038663,51 L14.9038663,51 Z M27.0547183,43 C27.5767659,43 28,43.4476 28,44 C28,44.5524 27.5767659,45 27.0547183,45 L27.0547183,45 L14.9452817,45 C14.4232341,45 14,44.5524 14,44 C14,43.4476 14.4232341,43 14.9452817,43 L14.9452817,43 Z M9.59148751,40.2341568 C9.91653995,39.919191 10.440352,39.9223298 10.7613233,40.2414085 C11.082405,40.560379 11.079096,41.0742819 10.7540436,41.3894642 L10.7540436,41.3894642 L8.30164591,43.7658863 C8.14049843,43.9219621 7.93037801,44 7.72036788,44 C7.50859297,44 7.29692835,43.9207715 7.13544997,43.7623145 L7.13544997,43.7623145 L6.24235544,42.8860386 C5.91928839,42.5691246 5.9191781,42.0551135 6.24224514,41.7380912 C6.56531219,41.4209607 7.08901391,41.421069 7.41219126,41.737983 L7.41219126,41.737983 L7.72400776,42.043857 Z M31.0830063,39 C31.5894313,39 32,39.4476 32,40 C32,40.5524 31.5894313,41 31.0830063,41 L31.0830063,41 L14.9169937,41 C14.4105687,41 14,40.5524 14,40 C14,39.4476 14.4105687,39 14.9169937,39 L14.9169937,39 Z M27.0547183,32 C27.5767659,32 28,32.4476 28,33 C28,33.5524 27.5767659,34 27.0547183,34 L27.0547183,34 L14.9452817,34 C14.4232341,34 14,33.5524 14,33 C14,32.4476 14.4232341,32 14.9452817,32 L14.9452817,32 Z M9.59147586,29.2341568 C9.91653098,28.919191 10.4403473,28.9223298 10.7613214,29.2414085 C11.0824057,29.560379 11.0790967,30.0742819 10.7540415,30.3894642 L10.7540415,30.3894642 L8.30162358,32.7658863 C8.14047478,32.9219621 7.93035261,33 7.72034075,33 C7.50856408,33 7.29689771,32.9207715 7.135418,32.7623145 L7.135418,32.7623145 L6.24231608,31.8861468 C5.91924636,31.5692328 5.91924636,31.0553299 6.24220578,30.7381995 C6.5651652,30.421069 7.08898155,30.4211772 7.41205127,30.7380912 L7.41205127,30.7380912 L7.72387036,31.0439652 Z M34.0684618,28 C34.5829193,28 35,28.4476 35,29 C35,29.5524 34.5829193,30 34.0684618,30 L34.0684618,30 L14.9315382,30 C14.4170807,30 14,29.5524 14,29 C14,28.4476 14.4170807,28 14.9315382,28 L14.9315382,28 Z M21.0288748,21 C21.5651949,21 22,21.4476 22,22 C22,22.5524 21.5651949,23 21.0288748,23 L21.0288748,23 L14.9711252,23 C14.4348051,23 14,22.5524 14,22 C14,21.4476 14.4348051,21 14.9711252,21 L14.9711252,21 Z M9.58774058,17.2423607 C9.91068769,16.9193602 10.4344841,16.9192499 10.7575415,17.242471 C11.0805989,17.5655819 11.0804886,18.089465 10.7576518,18.4124655 L10.7576518,18.4124655 L9.6700215,19.5000552 L10.7576518,20.5876448 C11.0807092,20.9106453 11.0808195,21.4345284 10.7577621,21.7576393 C10.5961782,21.9192499 10.3845199,22 10.1727513,22 C9.96098273,22 9.74932443,21.9193602 9.58785088,21.7577496 L9.58785088,21.7577496 L8.5,20.6699393 L7.41214912,21.7577496 C7.25056527,21.9192499 7.03890697,22 6.82724867,22 C6.61548007,22 6.40371147,21.9192499 6.24223792,21.7576393 C5.91918051,21.4346387 5.9192908,20.9107557 6.24234821,20.5876448 L6.24234821,20.5876448 L7.3299785,19.5000552 L6.24234821,18.4124655 C5.9192908,18.089465 5.91918051,17.5655819 6.24223792,17.242471 C6.56518503,16.9192499 7.08898142,16.9191396 7.41203883,17.2423607 L7.41203883,17.2423607 L8.4998897,18.330171 Z M32.0838959,17 C32.5898296,17 33,17.4476 33,18 C33,18.5524 32.5898296,19 32.0838959,19 L32.0838959,19 L14.9161041,19 C14.4101704,19 14,18.5524 14,18 C14,17.4476 14.4101704,17 14.9161041,17 L14.9161041,17 Z M9,6 C10.6542099,6 12,7.34580409 12,9.00005768 C12,10.6541959 10.6542099,12 9,12 C7.34579008,12 6,10.6541959 6,9.00005768 C6,7.34580409 7.34579008,6 9,6 Z M9.03979239,7.54 C8.21268067,7.54 7.53979239,8.21304111 7.53979239,9.04006814 C7.53979239,9.86709516 8.21268067,10.54 9.03979239,10.54 C9.8669041,10.54 10.5397924,9.86723143 10.5397924,9.04006814 C10.5397924,8.21290484 9.8669041,7.54 9.03979239,7.54 Z" id="Combined-Shape" stroke="#FFFFFF" stroke-width="0.4"></path>
            </g>
        </g>
    </g>
</svg>