<?xml version="1.0" encoding="UTF-8"?>
<svg width="60px" height="62px" viewBox="0 0 60 62" version="1.1" xmlns="http://www.w3.org/2000/svg" xmlns:xlink="http://www.w3.org/1999/xlink">
    <!-- Generator: Sketch 61 (89581) - https://sketch.com -->
    <title>Self-Assessment - pink</title>
    <desc>Created with Sketch.</desc>
    <g id="Page-1" stroke="none" stroke-width="1" fill="none" fill-rule="evenodd">
        <g id="Students---Features" transform="translate(-310.000000, -161.000000)" fill="#CB097A" fill-rule="nonzero" stroke="#FFFFFF" stroke-width="0.4">
            <g id="Self-Assessment---pink" transform="translate(311.000000, 162.000000)">
                <path d="M38.7951291,0.549934487 C39.3550803,0.119180063 40.0498601,-0.0680447445 40.7510602,0.0221344263 L40.7510602,0.0221344263 L41.1683866,0.0775236519 C41.868211,0.16770294 42.4928248,0.52613084 42.9243679,1.08597433 C43.3559109,1.64535997 43.5425614,2.33887009 43.4508413,3.0383311 L43.4508413,3.0383311 L43.3311466,3.96072244 L55.0704018,5.48140931 C55.9610039,5.59676533 56.753007,6.05132352 57.3010346,6.76131297 C57.8486036,7.47130254 58.0870759,8.35203747 57.9715084,9.24101218 L57.9715084,9.24101218 L56.0256666,24.2043507 C55.9105579,25.0933253 55.4547089,25.8838811 54.7434197,26.4309072 C54.149532,26.8872963 53.4364082,27.1285372 52.6989786,27.1285372 C52.5531437,27.1285372 52.4068502,27.1193819 52.2596394,27.1001558 L52.2596394,27.1001558 L40.5208428,25.5794691 L37.0079629,52.5984392 C36.9483449,53.0580327 36.5553243,53.3931148 36.1031442,53.3931148 C36.0637046,53.3931148 36.0242649,53.3908259 35.9843666,53.3853328 C35.4840336,53.3207882 35.1309112,52.8630258 35.1960325,52.3636071 L35.1960325,52.3636071 L38.7084537,25.344637 L36.6594266,25.0791347 L36.6415412,25.2182944 C36.640624,25.2260765 36.6397068,25.2338584 36.6387896,25.2411826 L36.6387896,25.2411826 L35.7174612,32.3003371 L32.3444546,58.1762745 L34.4402589,58.1762745 L34.764948,55.6791803 C34.8296107,55.1797616 35.2877526,54.8263689 35.7885443,54.8918289 C36.2888774,54.9568313 36.6415412,55.414136 36.5768786,55.9135547 L36.5768786,55.9135547 L36.2829156,58.1758167 L39.9819872,58.1758167 C40.4864477,58.1758167 40.8955194,58.5841408 40.8955194,59.0881372 C40.8955194,59.5916759 40.4864477,60 39.9819872,60 L39.9819872,60 L17.4440662,60 C16.9396056,60 16.5305341,59.5916759 16.5305341,59.0881372 C16.5305341,58.5841408 16.9396056,58.1758167 17.4440662,58.1758167 L17.4440662,58.1758167 L20.436893,58.1758167 L17.4793785,35.4282278 L5.73966455,36.9489147 C5.59291239,36.9676829 5.44570166,36.9772959 5.29986665,36.9772959 C4.56289575,36.9772959 3.85023054,36.7365129 3.25634288,36.2801238 C2.54505361,35.7330977 2.08966324,34.9425419 1.97409591,34.0531096 L1.97409591,34.0531096 L0.0287127036,19.089771 C-0.0873133078,18.2017118 0.150700375,17.320977 0.699186558,16.6109874 C1.24721417,15.9009978 2.03921724,15.4464398 2.92936076,15.3310836 L2.92936076,15.3310836 L18.5291149,13.3100625 L17.8513035,8.15428409 C17.8260804,7.95927735 17.7270227,7.78670083 17.5715571,7.66722486 C17.415633,7.54774889 17.2225622,7.49602177 17.0281156,7.52119873 L17.0281156,7.52119873 L16.4429414,7.5967295 C16.2489533,7.62190635 16.076061,7.72078304 15.9568248,7.87596453 C15.8371301,8.03114603 15.7848496,8.22386398 15.8100727,8.41841311 L15.8100727,8.41841311 L16.1760358,11.2327365 C16.2406986,11.7321553 15.8875761,12.18946 15.387243,12.2544622 C14.8864512,12.3194645 14.428768,11.9669875 14.3636467,11.4671108 L14.3636467,11.4671108 L13.9981421,8.65278748 C13.9100908,7.97529907 14.0912381,7.30467701 14.5085644,6.76360187 C14.9258909,6.22206888 15.5294092,5.87554274 16.2085965,5.78765235 L16.2085965,5.78765235 L16.7937707,5.71212158 C17.4715822,5.62468892 18.1438905,5.805505 18.6859563,6.22161114 C19.2284807,6.63863275 19.5756413,7.241048 19.6636926,7.91853641 L19.6636926,7.91853641 L20.3415041,13.0756881 L21.6540186,12.9054005 L22.7243922,4.67483184 C22.9628645,2.83966226 24.6518901,1.54099025 26.4904194,1.77902672 L26.4904194,1.77902672 L37.6651375,3.22647149 L37.7857494,2.30316468 C37.8765523,1.60416141 38.2347193,0.981146762 38.7951291,0.549934487 Z M21.3715207,34.9242314 L19.2913089,35.1938535 L22.2795498,58.1758167 L24.4285516,58.1758167 L21.3715207,34.9242314 Z M21.4109604,14.7762756 L3.16462278,17.1397029 C2.75830281,17.1923457 2.39692562,17.4001699 2.1465297,17.7242657 C1.89659246,18.0483615 1.78790417,18.4498191 1.84064326,18.8549388 L1.84064326,18.8549388 L3.78602647,33.8187352 C3.83876555,34.2243127 4.04697012,34.5854872 4.37120069,34.8349677 C4.69588984,35.0844483 5.09854112,35.1933957 5.50440252,35.1398376 L5.50440252,35.1398376 L18.1466421,33.5028791 C18.1475593,33.5024214 18.1489352,33.5019635 18.1503109,33.5019635 L18.1503109,33.5019635 L18.1539797,33.5015058 L30.6962445,31.8773646 C31.1965776,31.8123624 31.6547195,32.1648395 31.7198408,32.6642583 C31.7845034,33.1641349 31.431381,33.6214396 30.931048,33.6864418 L30.931048,33.6864418 L23.1839098,34.6893993 L26.271667,58.1758167 L30.5017979,58.1758167 L33.9055307,32.0645896 L34.8112667,25.1221644 L34.7736614,24.8346896 L23.679657,23.3977733 C23.4471466,23.367561 23.2210566,23.313545 23.0041384,23.2384719 L23.0041384,23.2384719 L22.5918567,23.7671876 L24.8325786,25.4714372 C25.4970908,25.9768069 25.8781877,26.7472211 25.8781877,27.5844686 C25.8781877,28.1676578 25.6823653,28.741692 25.32695,29.2008278 C24.4661569,30.3159369 22.8528003,30.5287966 21.7306049,29.6755274 L21.7306049,29.6755274 L19.3789016,27.8865918 L17.5633023,30.2152293 C17.0735171,30.8446526 16.3333358,31.2058271 15.5326194,31.2058271 C14.9671649,31.2058271 14.4095067,31.0158558 13.9628299,30.6711606 C13.4005857,30.2390328 13.0410429,29.6114406 12.9506986,28.9055709 C12.8608129,28.1992434 13.0515907,27.5016136 13.488637,26.9408545 L13.488637,26.9408545 L15.2198538,24.7216222 L12.9369405,22.9848716 C12.3801996,22.5573214 12.0257015,21.9420887 11.9358158,21.2504097 C11.8459301,20.5591884 12.0312047,19.8739181 12.4572445,19.320941 C13.3386747,18.1801971 14.9841331,17.9673374 16.1260484,18.8462413 L16.1260484,18.8462413 L18.4323502,20.600387 L20.2158475,18.3129481 C20.4387274,18.0241001 20.7216838,17.7860636 21.041787,17.6139449 L21.041787,17.6139449 L21.4109604,14.7762756 Z M15.0144008,20.2941439 C14.666323,20.0263529 14.1705759,20.0904397 13.9050462,20.4342193 C13.7770966,20.6008448 13.7211474,20.8072957 13.7482049,21.0160354 C13.7752623,21.2238595 13.8816577,21.4087955 14.0481295,21.536969 L14.0481295,21.536969 L16.8226626,23.6477116 C17.080396,23.8431762 17.2464094,24.12882 17.2890592,24.4515424 C17.331709,24.7742649 17.2450336,25.0933253 17.0450838,25.3505879 L17.0450838,25.3505879 L14.9309356,28.0609992 C14.7947311,28.2354067 14.7355717,28.4537595 14.7635463,28.6753164 C14.7919796,28.8964156 14.9038781,29.092338 15.0790634,29.2273779 C15.2450769,29.3550937 15.4175107,29.3821016 15.5326194,29.3821016 C15.7651298,29.3821016 15.9792962,29.2777318 16.1210038,29.0960001 L16.1210038,29.0960001 L18.3117383,26.2853387 C18.7157654,25.7634895 19.4747491,25.6650706 20.0016811,26.0669861 L20.0016811,26.0669861 L22.8381251,28.2248781 C23.1632728,28.47207 23.6305868,28.410272 23.8800654,28.0870917 C24.0213144,27.9044445 24.0506648,27.7130998 24.0506648,27.5844686 C24.0506648,27.3212551 23.9318873,27.0800143 23.7250585,26.922544 L23.7250585,26.922544 L20.9885894,24.8406405 C20.7267285,24.6396827 20.5616323,24.3526658 20.5212755,24.0299433 C20.4809186,23.7076785 20.5689699,23.3890759 20.7702956,23.1336444 L20.7702956,23.1336444 L21.5072664,22.1892804 C21.4875467,22.1654768 21.4678269,22.1421309 21.4494828,22.1178695 C21.0913159,21.6536984 20.8666016,21.116743 20.7854293,20.5527797 L20.7854293,20.5527797 L19.4995136,22.2020978 C19.095028,22.7234892 18.3360442,22.8223659 17.8091121,22.4199927 L17.8091121,22.4199927 Z M26.057042,3.57528641 C25.2980581,3.57528641 24.6367562,4.13879199 24.5363228,4.90966394 L24.5363228,4.90966394 L22.785386,18.3774926 C22.7835516,18.3898522 22.7826345,18.4026695 22.7808001,18.4145714 L22.7808001,18.4145714 L22.5909394,19.8730025 C22.5382003,20.2785801 22.6468887,20.6804954 22.896826,21.0045912 C22.9912977,21.1268138 23.1018204,21.232557 23.2247254,21.3195318 L23.2247254,21.3195318 C23.4269681,21.4632693 23.6622302,21.5561949 23.9149191,21.5886961 L23.9149191,21.5886961 L35.9802393,23.1519549 C35.9834495,23.1519549 35.9862012,23.1519549 35.9894113,23.1524126 C35.9926215,23.1528703 35.9953731,23.1537859 35.9981247,23.1542436 L35.9981247,23.1542436 L52.4949015,25.2910787 C52.9007629,25.3437214 53.3038727,25.2352317 53.6285619,24.9857512 C53.9527924,24.7362706 54.160997,24.3750961 54.2137361,23.9695185 L54.2137361,23.9695185 L56.1591193,9.00617996 C56.2118584,8.6006025 56.1031701,8.19868714 55.8532329,7.87459122 C55.6032956,7.55049553 55.2419183,7.34312906 54.8351398,7.29048646 L54.8351398,7.29048646 L38.347535,5.15456687 C38.3434075,5.15365129 38.3392802,5.15410914 38.3346942,5.15319356 L38.3346942,5.15319356 L38.3227706,5.15136251 L26.255616,3.58810387 C26.1886602,3.57940636 26.1226218,3.57528641 26.057042,3.57528641 Z M44.584777,9.00161103 L44.7835885,9.01610384 C45.4481451,9.09011809 46.0429702,9.4087405 46.4585521,9.91375232 C47.31686,10.9567215 47.1348089,12.4785269 46.0537342,13.3057716 L46.0537342,13.3057716 L37.9901338,19.4764845 C37.5431961,19.8185749 37.0007867,20 36.4387215,20 C36.3423139,20 36.2449704,19.9945844 36.1476269,19.9837531 C35.4830701,19.9101901 34.8882451,19.5911164 34.4726632,19.0861045 L34.4726632,19.0861045 L31.5415936,15.5239428 C30.6832857,14.4814249 30.8648689,12.9596195 31.9464116,12.1323748 C32.2515461,11.8985981 32.6016083,11.742446 32.9717945,11.6652727 C32.9951944,11.6594056 33.0185943,11.6535387 33.0424622,11.649477 C33.0574382,11.6467691 33.0724141,11.6454151 33.08739,11.6427073 C33.1004938,11.6409021 33.1135979,11.6390969 33.1267017,11.6377429 C33.3438526,11.6066028 33.5652156,11.5998332 33.7889185,11.6246551 C34.4530072,11.6986693 35.0478323,12.0172916 35.4634143,12.5223036 L35.4634143,12.5223036 L36.8388596,14.1934914 L41.2876456,10.7888355 C41.2960695,10.7820659 41.3040256,10.776199 41.3124495,10.7698807 L41.3124495,10.7698807 L42.9410814,9.52337228 C43.4652389,9.12261216 44.1194997,8.94254086 44.7835885,9.01610384 Z M44.5711175,10.8028261 C44.4012343,10.7838711 44.2346271,10.8299045 44.1007798,10.9323511 L44.1007798,10.9323511 L37.2680134,16.1611874 C37.0742623,16.309216 36.8271595,16.3773633 36.5814608,16.3498335 C36.335762,16.3227552 36.1115911,16.2022564 35.9576199,16.0158668 L35.9576199,16.0158668 L34.0032615,13.6401897 C33.897026,13.5115673 33.7453947,13.4298809 33.5755115,13.4113773 C33.4056284,13.3924224 33.2390211,13.4384557 33.1056418,13.5404509 C32.8299912,13.7516623 32.7831914,14.1397859 33.0022144,14.4060567 L33.0022144,14.4060567 L35.9337519,17.9682184 C36.0395194,18.097292 36.1911507,18.1785273 36.3610338,18.1974821 C36.530449,18.2159857 36.6970562,18.1699525 36.8309035,18.0679571 L36.8309035,18.0679571 L40.7138805,15.0965555 C40.7157524,15.0947503 40.7180924,15.0933963 40.7204324,15.0915912 L40.7204324,15.0915912 L44.8945039,11.8972442 C45.1706225,11.6860328 45.2169543,11.2979092 44.9979314,11.0316384 C44.8921639,10.903016 44.7405326,10.8217809 44.5711175,10.8028261 Z M40.5139637,1.83121158 C40.2993387,1.80283025 40.0842551,1.86142384 39.9109041,1.99463274 C39.7370945,2.12829937 39.6261132,2.32147518 39.5976799,2.53845451 L39.5976799,2.53845451 L39.4775266,3.46130359 L41.519216,3.72589034 L41.6389107,2.80258341 C41.6673439,2.58560407 41.6095603,2.37137125 41.4765661,2.19833699 C41.3426549,2.02530285 41.1491254,1.91406655 40.9317488,1.88614307 L40.9317488,1.88614307 Z" id="Combined-Shape"></path>
            </g>
        </g>
    </g>
</svg>