<?xml version="1.0" encoding="UTF-8"?>
<svg width="53px" height="65px" viewBox="0 0 53 65" version="1.1" xmlns="http://www.w3.org/2000/svg" xmlns:xlink="http://www.w3.org/1999/xlink">
    <!-- Generator: Sketch 61 (89581) - https://sketch.com -->
    <title>Weightage-Based Grading - pink</title>
    <desc>Created with Sketch.</desc>
    <g id="Page-1" stroke="none" stroke-width="1" fill="none" fill-rule="evenodd">
        <g id="Home-Page-USPs-Copy-3" transform="translate(-314.000000, -159.000000)" fill="#CB097A" fill-rule="nonzero" stroke="#FFFFFF" stroke-width="1.8">
            <g id="Weightage-Based-Grading---pink" transform="translate(315.000000, 160.000000)">
                <path d="M36.695122,0 C37.1899463,0 37.6644951,0.194537109 38.0144049,0.540667969 L38.0144049,0.540667969 L50.4534293,12.8453555 C50.803339,13.1914863 51,13.6609102 51,14.1503906 L51,14.1503906 L51,61.1542969 C51,62.1736172 50.1645951,63 49.1341463,63 L49.1341463,63 L1.86585366,63 C0.835404878,63 0,62.1736172 0,61.1542969 L0,61.1542969 L0,1.84570312 C0,0.826382813 0.835404878,0 1.86585366,0 L1.86585366,0 Z M34.8292683,3.69140625 L3.73170732,3.69140625 L3.73170732,59.3085938 L47.2682927,59.3085938 L47.2682927,15.9960938 L36.695122,15.9960938 C35.6646732,15.9960938 34.8292683,15.1697109 34.8292683,14.1503906 L34.8292683,14.1503906 L34.8292683,3.69140625 Z M41.2,51 C42.19408,51 43,51.8954667 43,53 C43,54.1045333 42.19408,55 41.2,55 L41.2,55 L26.8,55 C25.80592,55 25,54.1045333 25,53 C25,51.8954667 25.80592,51 26.8,51 L26.8,51 Z M41.2,44 C42.19408,44 43,44.8954667 43,46 C43,47.1045333 42.19408,48 41.2,48 L41.2,48 L26.8,48 C25.80592,48 25,47.1045333 25,46 C25,44.8954667 25.80592,44 26.8,44 L26.8,44 Z M17.0312469,16 C17.9393857,16 18.7490589,16.5465653 19.0946585,17.3931794 L19.0946585,17.3931794 L19.1143031,17.4434116 L25.8823561,35.5189337 C26.2370504,36.4662566 25.7626695,37.5239437 24.8227598,37.8813133 C23.8828501,38.2390496 22.83344,37.760805 22.4787456,36.8134821 L22.4787456,36.8134821 L21.2372548,33.4979131 L12.7741873,33.4979131 L11.5193576,36.8186153 C11.2428779,37.5499764 10.5520424,38 9.81912873,38 C9.60388687,38 9.38512838,37.9611226 9.17206925,37.8793578 C8.23325094,37.5190549 7.76202284,36.4599012 8.11962749,35.5136783 L8.11962749,35.5136783 L14.9497672,17.4390117 C14.9549815,17.4252009 14.9604383,17.4113901 14.9660164,17.3975793 C15.3101609,16.5494986 16.1198341,16.0009778 17.0288217,16 L17.0288217,16 Z M17.025305,22.2485912 L14.1598598,29.8313298 L19.8645574,29.8313298 L17.025305,22.2485912 Z M31,18 C32.0355,18 32.875,18.8395 32.875,19.875 L32.875,19.875 L32.875,21.125 L34.125,21.125 C35.1605,21.125 36,21.9645 36,23 C36,24.0355 35.1605,24.875 34.125,24.875 L34.125,24.875 L32.875,24.875 L32.875,26.125 C32.875,27.1605 32.0355,28 31,28 C29.9645,28 29.125,27.1605 29.125,26.125 L29.125,26.125 L29.125,24.875 L27.875,24.875 C26.8395,24.875 26,24.0355 26,23 C26,21.9645 26.8395,21.125 27.875,21.125 L27.875,21.125 L29.125,21.125 L29.125,19.875 C29.125,18.8395 29.9645,18 31,18 Z M38.5609756,6.30159961 L38.5609756,12.3046875 L44.6296024,12.3046875 L38.5609756,6.30159961 Z" id="Combined-Shape"></path>
            </g>
        </g>
    </g>
</svg>